<?xml version="1.0" encoding="UTF-8"?>
<svg version="1.1" xmlns="http://www.w3.org/2000/svg" width="512" height="512">
<path d="M0 0 C3.63 0 7.26 0 11 0 C11 3.96 11 7.92 11 12 C12.65 12.66 14.3 13.32 16 14 C21.03138651 18.2022867 22.9898479 22.63604175 24 29 C24.125 32.5 24.125 32.5 24 35 C26.64 35 29.28 35 32 35 C32 38.63 32 42.26 32 46 C29.36 46 26.72 46 24 46 C24 60.52 24 75.04 24 90 C27.3 90 30.6 90 34 90 C34 99.24 34 108.48 34 118 C36.97 118 39.94 118 43 118 C43 121.96 43 125.92 43 130 C40.03 130 37.06 130 34 130 C34.33 135.94 34.66 141.88 35 148 C35.99 146.80375 36.98 145.6075 38 144.375 C47.10794105 134.02589664 58.53485859 128.52087122 72 126 C72.99 126 73.98 126 75 126 C75 122.37 75 118.74 75 115 C78.96 115 82.92 115 87 115 C87 118.63 87 122.26 87 126 C88.65 126.165 90.3 126.33 92 126.5 C105.44163059 128.7852359 116.84555059 136.09035457 126 146 C126.33 146.66 126.66 147.32 127 148 C127.33 142.06 127.66 136.12 128 130 C125.03 130 122.06 130 119 130 C119 126.04 119 122.08 119 118 C121.97 118 124.94 118 128 118 C128 108.76 128 99.52 128 90 C131.63 90 135.26 90 139 90 C139 75.48 139 60.96 139 46 C136.03 46 133.06 46 130 46 C130 42.37 130 38.74 130 35 C132.97 35 135.94 35 139 35 C138.95359375 34.20335937 138.9071875 33.40671875 138.859375 32.5859375 C138.49407115 21.86166008 138.49407115 21.86166008 143 17 C148.22666667 12 148.22666667 12 151 12 C151 8.04 151 4.08 151 0 C154.96 0 158.92 0 163 0 C163 3.96 163 7.92 163 12 C164.65 12.66 166.3 13.32 168 14 C169.765625 15.62109375 169.765625 15.62109375 171.25 17.4375 C171.75015625 18.03433594 172.2503125 18.63117188 172.765625 19.24609375 C176.07023142 23.941563 175.06445266 29.521524 175 35 C179.62 35 184.24 35 189 35 C189 38.63 189 42.26 189 46 C184.38 46 179.76 46 175 46 C175 60.52 175 75.04 175 90 C179.62 90 184.24 90 189 90 C189 99.24 189 108.48 189 118 C192.63 118 196.26 118 200 118 C200 121.96 200 125.92 200 130 C196.37 130 192.74 130 189 130 C189.33 156.4 189.66 182.8 190 210 C192.31 207.69 194.62 205.38 197 203 C205.70466549 196.79059529 214.2853788 193 225 193 C225 186.73 225 180.46 225 174 C228.63 174 232.26 174 236 174 C236 180.27 236 186.54 236 193 C238.64 193.33 241.28 193.66 244 194 C256.91014005 197.94975208 268.1186663 206.27637481 274.76171875 218.1484375 C293.26894605 256.59686612 281 313.09456204 281 347 C149 347 17 347 -119 347 C-119 222.64318562 -119 222.64318562 -103.4765625 206.2890625 C-95.54072822 198.95404849 -85.02878376 193 -74 193 C-74 186.73 -74 180.46 -74 174 C-70.37 174 -66.74 174 -63 174 C-63 180.27 -63 186.54 -63 193 C-61.5975 193.061875 -60.195 193.12375 -58.75 193.1875 C-46.07569358 194.49616247 -36.76049676 201.23950324 -28 210 C-27.67 183.6 -27.34 157.2 -27 130 C-30.63 130 -34.26 130 -38 130 C-38 126.04 -38 122.08 -38 118 C-34.37 118 -30.74 118 -27 118 C-27 108.76 -27 99.52 -27 90 C-22.38 90 -17.76 90 -13 90 C-13 75.48 -13 60.96 -13 46 C-17.62 46 -22.24 46 -27 46 C-27 42.37 -27 38.74 -27 35 C-22.38 35 -17.76 35 -13 35 C-13.061875 33.30875 -13.12375 31.6175 -13.1875 29.875 C-13.15819879 24.15393871 -12.4642435 20.52249984 -8.34765625 16.30859375 C-3.61919954 12 -3.61919954 12 0 12 C0 8.04 0 4.08 0 0 Z M0.25 24 C-2.77212363 28.02949817 -2.41742323 30.07440592 -2 35 C2.62 35 7.24 35 12 35 C12.3343609 30.47313348 12.3343609 30.47313348 12 26 C9.91245648 23.3121661 9.91245648 23.3121661 7 22 C2.97242945 21.60788553 2.97242945 21.60788553 0.25 24 Z M152.25 24 C149.22787637 28.02949817 149.58257677 30.07440592 150 35 C154.62 35 159.24 35 164 35 C164.59477343 29.05195205 164.59477343 29.05195205 161.75 24 C157.9304056 21.22211316 156.0695944 21.22211316 152.25 24 Z M-2 46 C-2 60.52 -2 75.04 -2 90 C2.62 90 7.24 90 12 90 C12 75.48 12 60.96 12 46 C7.38 46 2.76 46 -2 46 Z M150 46 C150 60.52 150 75.04 150 90 C154.62 90 159.24 90 164 90 C164 75.48 164 60.96 164 46 C159.38 46 154.76 46 150 46 Z M-16 102 C-16 107.28 -16 112.56 -16 118 C-3.13 118 9.74 118 23 118 C23 112.72 23 107.44 23 102 C10.13 102 -2.74 102 -16 102 Z M139 102 C139 107.28 139 112.56 139 118 C151.87 118 164.74 118 178 118 C178 112.72 178 107.44 178 102 C165.13 102 152.26 102 139 102 Z M-16 130 C-16 140.89 -16 151.78 -16 163 C-3.13 163 9.74 163 23 163 C23 152.11 23 141.22 23 130 C10.13 130 -2.74 130 -16 130 Z M139 130 C139 140.89 139 151.78 139 163 C151.87 163 164.74 163 178 163 C178 152.11 178 141.22 178 130 C165.13 130 152.26 130 139 130 Z M52 147 C50.96875 147.721875 49.9375 148.44375 48.875 149.1875 C41.94499551 155.19093008 38.81867849 163.54396452 36 172 C65.7 172 95.4 172 126 172 C122.80428241 162.41284722 119.50263608 155.75237247 112 149 C111.113125 148.175 110.22625 147.35 109.3125 146.5 C92.37740112 132.69941813 68.85762979 133.95336188 52 147 Z M-16 174 C-16 185.55 -16 197.1 -16 209 C-12.98721853 207.79488741 -10.18147258 206.65287388 -7.3112793 205.21240234 C-6.29078743 204.70209976 -6.29078743 204.70209976 -5.24967957 204.18148804 C-4.5317775 203.81995636 -3.81387543 203.45842468 -3.07421875 203.0859375 C-2.32662796 202.71143463 -1.57903717 202.33693176 -0.80879211 201.95108032 C1.56592188 200.76093681 3.93922558 199.56801116 6.3125 198.375 C7.92764192 197.5649198 9.54287531 196.75502195 11.15820312 195.9453125 C15.10653119 193.96565185 19.05359727 191.98349578 23 190 C23 184.72 23 179.44 23 174 C10.13 174 -2.74 174 -16 174 Z M139 174 C139 185.55 139 197.1 139 209 C152.096918 202.8484173 165.08281809 196.51984208 178 190 C178 184.72 178 179.44 178 174 C165.13 174 152.26 174 139 174 Z M34 183 C34 233.49 34 283.98 34 336 C40.93 336 47.86 336 55 336 C55.01458252 332.77549072 55.02916504 329.55098145 55.04418945 326.22875977 C55.09458853 315.55972904 55.1611932 304.89084344 55.23571491 294.2219553 C55.28038966 287.75516068 55.31965243 281.28842864 55.34643555 274.8215332 C55.37249701 268.57740918 55.41292021 262.33352636 55.46318626 256.08955193 C55.47983563 253.71064193 55.49136189 251.33169023 55.49761391 248.95273018 C55.50727569 245.61349491 55.53536112 242.27487406 55.56762695 238.93579102 C55.56619186 237.95826874 55.56475677 236.98074646 55.5632782 235.97360229 C55.68637298 226.93058508 57.41076227 219.43948233 64 213 C70.11214083 208.62617445 76.52757186 207.02871385 84 208 C87.4497731 209.09458966 90.72142707 210.47222962 94 212 C94.73605469 212.33902344 95.47210938 212.67804688 96.23046875 213.02734375 C98.61286305 214.33687174 98.98146333 215.48760954 100 218 C100.75812737 219.46422142 100.75812737 219.46422142 101.53157043 220.95802307 C103.62007877 225.86105767 103.43982217 230.7271649 103.43237305 235.98413086 C103.44766052 237.60963364 103.44766052 237.60963364 103.46325684 239.26797485 C103.4933414 242.83365073 103.50264613 246.39905773 103.51171875 249.96484375 C103.52856874 252.44349558 103.54671941 254.92213889 103.56611633 257.40077209 C103.61358734 263.91249934 103.6434157 270.424192 103.66955566 276.93603516 C103.69778055 283.5856853 103.74590112 290.23521268 103.79101562 296.88476562 C103.87701601 309.92312843 103.94283151 322.96147886 104 336 C111.92 336 119.84 336 128 336 C128.02311745 316.19893399 128.04097843 296.39787178 128.05181217 276.59679508 C128.05697545 267.40347396 128.06401875 258.21016136 128.07543945 249.0168457 C128.08538532 241.00692964 128.09185319 232.99701975 128.09408849 224.98709768 C128.09539577 220.74322747 128.09848266 216.4993749 128.10573006 212.25551033 C128.11248874 208.2657093 128.11461727 204.2759333 128.11310768 200.28612709 C128.11338408 198.81750605 128.1153901 197.34888421 128.11920547 195.8802681 C128.12414028 193.88377224 128.12239813 191.88726313 128.12025452 189.89076233 C128.12117631 188.77078385 128.1220981 187.65080538 128.12304783 186.49688816 C128.28301675 184.05920162 128.28301675 184.05920162 127 183 C124.10853375 182.9047598 121.2411119 182.87448279 118.34936523 182.88647461 C117.42741143 182.88635407 116.50545763 182.88623354 115.55556583 182.88610935 C112.55655101 182.88685869 109.55759752 182.89448784 106.55859375 182.90234375 C104.71293162 182.90381311 102.86726908 182.90483385 101.02160645 182.90539551 C94.1602313 182.91064913 87.29886505 182.9246102 80.4375 182.9375 C57.4509375 182.9684375 57.4509375 182.9684375 34 183 Z M17.3984375 204.34375 C16.43164062 204.8490625 15.46484375 205.354375 14.46875 205.875 C13.4478125 206.41125 12.426875 206.9475 11.375 207.5 C10.40820312 208.0053125 9.44140625 208.510625 8.4453125 209.03125 C0.27272163 213.31009339 -7.85983198 217.65857706 -16 222 C-16 234.87 -16 247.74 -16 261 C-10.96654099 259.34763525 -10.96654099 259.34763525 -6.28955078 257.21240234 C-5.62028564 256.86749756 -4.95102051 256.52259277 -4.26147461 256.16723633 C-3.57964111 255.81040771 -2.89780762 255.4535791 -2.1953125 255.0859375 C-1.55263428 254.75376221 -0.90995605 254.42158691 -0.24780273 254.0793457 C2.12892549 252.84930676 4.50174011 251.61171758 6.875 250.375 C12.19625 247.61125 17.5175 244.8475 23 242 C23 228.8 23 215.6 23 202 C21.01236125 202 19.10703446 203.44908971 17.3984375 204.34375 Z M171.3828125 204.8515625 C170.2175 205.45613281 169.0521875 206.06070313 167.8515625 206.68359375 C167.23829102 207.00312012 166.62501953 207.32264648 165.99316406 207.65185547 C164.16854401 208.60231751 162.34224869 209.54948926 160.515625 210.49609375 C153.29413658 214.24751472 146.1468762 218.10170389 139 222 C139 234.87 139 247.74 139 261 C144.03345901 259.34763525 144.03345901 259.34763525 148.71044922 257.21240234 C149.37971436 256.86749756 150.04897949 256.52259277 150.73852539 256.16723633 C151.42035889 255.81040771 152.10219238 255.4535791 152.8046875 255.0859375 C153.44736572 254.75376221 154.09004395 254.42158691 154.75219727 254.0793457 C157.12892549 252.84930676 159.50174011 251.61171758 161.875 250.375 C167.19625 247.61125 172.5175 244.8475 178 242 C178 228.8 178 215.6 178 202 C175.77558917 202 173.26882821 203.87214674 171.3828125 204.8515625 Z M-96.66796875 215.68359375 C-99.00811442 218.03727909 -99.00811442 218.03727909 -100 221 C-95.05 221 -90.1 221 -85 221 C-85 218.03 -85 215.06 -85 212 C-81.37 212 -77.74 212 -74 212 C-74 214.97 -74 217.94 -74 221 C-70.04 221 -66.08 221 -62 221 C-62 218.03 -62 215.06 -62 212 C-58.04 212 -54.08 212 -50 212 C-50 214.97 -50 217.94 -50 221 C-45.05 221 -40.1 221 -35 221 C-40.85502571 212.21746144 -47.81047506 207.6304684 -57.82421875 204.4140625 C-71.95729618 201.72446428 -86.42119622 205.34083272 -96.66796875 215.68359375 Z M200.33203125 215.68359375 C197.99188558 218.03727909 197.99188558 218.03727909 197 221 C201.95 221 206.9 221 212 221 C212 218.03 212 215.06 212 212 C215.96 212 219.92 212 224 212 C224 214.97 224 217.94 224 221 C227.96 221 231.92 221 236 221 C236 218.03 236 215.06 236 212 C239.63 212 243.26 212 247 212 C247 214.97 247 217.94 247 221 C251.95 221 256.9 221 262 221 C256.14497429 212.21746144 249.18952494 207.6304684 239.17578125 204.4140625 C225.04270382 201.72446428 210.57880378 205.34083272 200.33203125 215.68359375 Z M70 222 C65.93364568 228.01507423 65.43867063 233.44066726 65.54589844 240.546875 C65.54531433 241.57216812 65.54473022 242.59746124 65.54412842 243.65382385 C65.54689984 247.01956857 65.57794817 250.3844113 65.609375 253.75 C65.61684072 256.09268714 65.62253209 258.43538054 65.62652588 260.77807617 C65.64175601 266.9266705 65.68101573 273.0748834 65.7253418 279.22332764 C65.76635079 285.50430136 65.78454894 291.78533707 65.8046875 298.06640625 C65.84751222 310.37779821 65.91784112 322.68880763 66 335 C74.91 335 83.82 335 93 335 C93.09036525 321.15256751 93.1637534 307.30533082 93.20724869 293.45767021 C93.22812412 287.0276583 93.25644168 280.59785855 93.30175781 274.16796875 C93.34521605 267.96287068 93.36913744 261.7579767 93.37950897 255.55273819 C93.38690029 253.1852408 93.40133371 250.8177546 93.42292023 248.45034409 C93.45195294 245.13445639 93.45595592 241.8194123 93.45410156 238.50341797 C93.46848267 237.5244606 93.48286377 236.54550323 93.49768066 235.53688049 C93.45560203 228.58408057 92.16035757 225.16035757 87.1875 220.1875 C81.19170605 216.93264043 75.07185024 217.47193576 70 222 Z M-106 232 C-107.73778488 238.42178038 -107.73778488 238.42178038 -108.24050903 244.60656738 C-108.24325836 245.42532349 -108.24600769 246.24407959 -108.24884033 247.08764648 C-108.24164978 247.95655518 -108.23445923 248.82546387 -108.22705078 249.72070312 C-108.22734283 250.65821411 -108.22763489 251.5957251 -108.22793579 252.56164551 C-108.22655165 255.63494388 -108.21103376 258.70799441 -108.1953125 261.78125 C-108.19157911 263.92215848 -108.18873368 266.06306868 -108.18673706 268.20397949 C-108.17912626 273.81979141 -108.15949977 279.43549874 -108.1373291 285.05126953 C-108.11681556 290.78937363 -108.10772359 296.52749475 -108.09765625 302.265625 C-108.07625141 313.51046244 -108.04214641 324.7552225 -108 336 C-105.03 336 -102.06 336 -99 336 C-98.99413376 335.25577286 -98.98826752 334.51154572 -98.98222351 333.74476624 C-98.92409005 326.69832585 -98.8518969 319.65219819 -98.76428509 312.60607243 C-98.71973884 308.98439361 -98.68044927 305.3628232 -98.65356445 301.7409668 C-98.6273727 298.23941593 -98.5868616 294.73828585 -98.53681374 291.2369976 C-98.51224366 289.26479031 -98.50214149 287.29241968 -98.49235535 285.32008362 C-98.3046609 273.74610191 -96.20532997 265.43462063 -88 257 C-81.08040012 251.412661 -73.66706668 249.50985016 -64.84765625 249.6796875 C-57.87094407 250.46444799 -52.24046311 253.41459478 -47 258 C-46.34 258 -45.68 258 -45 258 C-44.72285156 258.55816406 -44.44570312 259.11632812 -44.16015625 259.69140625 C-43.36785548 261.26800475 -42.56254477 262.83811517 -41.74609375 264.40234375 C-41.09833984 265.65724609 -41.09833984 265.65724609 -40.4375 266.9375 C-39.78587891 268.18853516 -39.78587891 268.18853516 -39.12109375 269.46484375 C-37.15472784 273.91143425 -36.86697727 278.16023063 -36.79467773 282.98364258 C-36.7647599 284.75491264 -36.7647599 284.75491264 -36.73423767 286.56196594 C-36.71752518 287.82671249 -36.70081268 289.09145905 -36.68359375 290.39453125 C-36.66281265 291.69702316 -36.64203156 292.99951508 -36.62062073 294.34147644 C-36.56561816 297.79209263 -36.51611341 301.24276635 -36.46777344 304.69348145 C-36.41739836 308.21953406 -36.36179613 311.74550387 -36.30664062 315.27148438 C-36.19932622 322.18091771 -36.09782275 329.09042595 -36 336 C-33.03 336 -30.06 336 -27 336 C-26.95355432 323.91664577 -26.91806875 311.83331296 -26.89637566 299.74988747 C-26.88596138 294.1384019 -26.87184532 288.52697764 -26.84912109 282.91552734 C-26.82730858 277.4949725 -26.81541367 272.07447644 -26.81024551 266.65388107 C-26.80656482 264.59115042 -26.79937751 262.52842279 -26.78853989 260.46571732 C-26.77391315 257.56512883 -26.77202671 254.66477988 -26.77294922 251.76416016 C-26.76216339 250.49963516 -26.76216339 250.49963516 -26.75115967 249.20956421 C-26.77225973 243.03397069 -27.74153099 238.29234503 -29 232 C-54.41 232 -79.82 232 -106 232 Z M191 232 C189.30119472 238.95427804 189.30119472 238.95427804 188.75949097 245.68885803 C188.75674164 246.50057465 188.75399231 247.31229126 188.75115967 248.14860535 C188.75835022 249.00456802 188.76554077 249.8605307 188.77294922 250.74243164 C188.77265717 251.67033508 188.77236511 252.59823853 188.77206421 253.55426025 C188.77344601 256.58965752 188.78895262 259.62480242 188.8046875 262.66015625 C188.80842172 264.77721523 188.81126676 266.89427595 188.81326294 269.01133728 C188.82086716 274.55973149 188.84048788 280.10801955 188.8626709 285.65637207 C188.88319873 291.32754073 188.89227945 296.9987267 188.90234375 302.66992188 C188.92373696 313.77999433 188.95783386 324.88998831 189 336 C191.97 336 194.94 336 198 336 C198.00586624 335.27052155 198.01173248 334.54104309 198.01777649 333.78945923 C198.075959 326.87579042 198.14817954 319.96239128 198.23571491 313.04903603 C198.28022265 309.49576766 198.31952015 305.94260878 198.34643555 302.38916016 C198.37769957 298.2930094 198.43247871 294.19745305 198.48828125 290.1015625 C198.49786613 288.21034164 198.49786613 288.21034164 198.50764465 286.28091431 C198.68415169 275.57599367 200.04661471 266.15227344 207.75390625 258.1875 C215.31614432 251.08402784 221.78977469 249.4952252 232.06640625 249.58007812 C240.94226658 249.90419662 246.88054273 253.08237418 253.27734375 259.09765625 C261.78104513 268.48836503 261.30334992 282.2599838 261.1953125 294.203125 C261.1924826 295.4069281 261.18965271 296.6107312 261.18673706 297.85101318 C261.17564902 301.65078175 261.15056606 305.45030411 261.125 309.25 C261.11495549 311.84504865 261.10583223 314.44010104 261.09765625 317.03515625 C261.07574708 323.35685314 261.04238486 329.67840897 261 336 C263.97 336 266.94 336 270 336 C270.04639632 323.62133627 270.08190632 311.24269333 270.10362434 298.86396027 C270.11404932 293.11565575 270.12818514 287.36741084 270.15087891 281.61914062 C270.17265299 276.06891801 270.1845783 270.51875264 270.18975449 264.9684906 C270.19344203 262.85386759 270.20064287 260.73924761 270.21146011 258.62464905 C270.2260356 255.65659887 270.2279754 252.68878349 270.22705078 249.72070312 C270.23783661 248.41734009 270.23783661 248.41734009 270.24884033 247.08764648 C270.246091 246.26889038 270.24334167 245.45013428 270.24050903 244.60656738 C270.24327441 243.55572338 270.24327441 243.55572338 270.24609566 242.48365021 C269.89370149 238.92721266 268.86678682 235.46714729 268 232 C242.59 232 217.18 232 191 232 Z M16.01171875 257.37890625 C14.99400391 257.88873047 13.97628906 258.39855469 12.92773438 258.92382812 C11.85845703 259.46458984 10.78917969 260.00535156 9.6875 260.5625 C8.14739258 261.33303711 8.14739258 261.33303711 6.57617188 262.11914062 C-1.03219447 265.94470896 -8.49588723 269.9593239 -16 274 C-16 286.87 -16 299.74 -16 313 C-11.38899104 311.46299701 -7.25701875 309.76882973 -2.95703125 307.59375 C-2.30675461 307.26838257 -1.65647797 306.94301514 -0.98649597 306.60778809 C0.37836443 305.92385597 1.7422592 305.23799373 3.10522461 304.55029297 C5.1895994 303.49894107 7.27713318 302.45408427 9.36523438 301.41015625 C10.69550229 300.74256556 12.02558691 300.07460946 13.35546875 299.40625 C13.97737595 299.09473999 14.59928314 298.78322998 15.24003601 298.46228027 C17.94753584 297.09366585 20.4708243 295.68611714 23 294 C23.26653946 291.0204901 23.34767784 288.2511418 23.29296875 285.2734375 C23.28660149 283.97921371 23.28660149 283.97921371 23.28010559 282.65884399 C23.26328392 279.89724803 23.22562598 277.13637617 23.1875 274.375 C23.17245764 272.50521886 23.15876846 270.6354263 23.14648438 268.765625 C23.11336906 264.17680342 23.06156339 259.58852456 23 255 C20.21560006 255 18.50008167 256.12912086 16.01171875 257.37890625 Z M171.01171875 257.37890625 C169.99400391 257.88873047 168.97628906 258.39855469 167.92773438 258.92382812 C166.85845703 259.46458984 165.78917969 260.00535156 164.6875 260.5625 C163.14739258 261.33303711 163.14739258 261.33303711 161.57617188 262.11914062 C153.96780553 265.94470896 146.50411277 269.9593239 139 274 C139 286.87 139 299.74 139 313 C143.61100896 311.46299701 147.74298125 309.76882973 152.04296875 307.59375 C152.69324539 307.26838257 153.34352203 306.94301514 154.01350403 306.60778809 C155.37836443 305.92385597 156.7422592 305.23799373 158.10522461 304.55029297 C160.1895994 303.49894107 162.27713318 302.45408427 164.36523438 301.41015625 C165.69550229 300.74256556 167.02558691 300.07460946 168.35546875 299.40625 C168.97737595 299.09473999 169.59928314 298.78322998 170.24003601 298.46228027 C172.94753584 297.09366585 175.4708243 295.68611714 178 294 C178.26653946 291.0204901 178.34767784 288.2511418 178.29296875 285.2734375 C178.28660149 283.97921371 178.28660149 283.97921371 178.28010559 282.65884399 C178.26328392 279.89724803 178.22562598 277.13637617 178.1875 274.375 C178.17245764 272.50521886 178.15876846 270.6354263 178.14648438 268.765625 C178.11336906 264.17680342 178.06156339 259.58852456 178 255 C175.21560006 255 173.50008167 256.12912086 171.01171875 257.37890625 Z M-80.75 265.3125 C-85.9804425 271.55997299 -88.13106913 275.70819944 -88.11352539 283.77832031 C-88.11344986 284.9392218 -88.11337433 286.10012329 -88.11329651 287.29620361 C-88.10813522 288.54423767 -88.10297394 289.79227173 -88.09765625 291.078125 C-88.0962413 292.35983582 -88.09482635 293.64154663 -88.09336853 294.96209717 C-88.08955901 298.3618364 -88.07974214 301.7615326 -88.06866455 305.16125488 C-88.05841674 308.63353889 -88.05380883 312.1058301 -88.04882812 315.578125 C-88.0386497 322.38545462 -88.0190741 329.19266621 -88 336 C-74.47 336 -60.94 336 -47 336 C-46.95397071 328.47421056 -46.91417933 320.94891398 -46.89013672 313.4230957 C-46.88010868 310.86546163 -46.86648293 308.30783894 -46.84912109 305.75024414 C-46.82473221 302.06393618 -46.8134846 298.37778046 -46.8046875 294.69140625 C-46.79436493 293.55667374 -46.78404236 292.42194122 -46.77340698 291.25282288 C-46.77216277 282.35386106 -47.03944553 274.05855135 -53 267 C-57.44372135 262.70742564 -61.50026749 260.12369444 -67.765625 259.83203125 C-73.00668233 260.22602682 -76.75128417 261.9499435 -80.75 265.3125 Z M214.1875 266.6875 C208.80282277 274.8414398 208.58359908 282.77883306 208.70703125 292.34765625 C208.71127609 293.60009628 208.71552094 294.85253632 208.71989441 296.14292908 C208.73376316 299.4424933 208.7606273 302.74160233 208.79400635 306.04101562 C208.82491792 309.41986475 208.8386098 312.79878298 208.85351562 316.17773438 C208.8839102 322.78551439 208.94265151 329.39217988 209 336 C222.53 336 236.06 336 250 336 C250.08406444 328.19134766 250.16417896 320.38435001 250.20700073 312.57563782 C250.22805554 308.93873581 250.25615418 305.30221142 250.30175781 301.66552734 C250.34546659 298.15768737 250.36918921 294.6502118 250.37950897 291.14212036 C250.39041254 289.16355356 250.42159835 287.18513179 250.45318604 285.20678711 C250.45519946 277.07201772 249.93465136 270.97996404 243.96484375 264.94140625 C243.29582031 264.48636719 242.62679687 264.03132813 241.9375 263.5625 C241.26589844 263.08941406 240.59429687 262.61632812 239.90234375 262.12890625 C231.02524275 256.86097568 221.13613882 260.04768957 214.1875 266.6875 Z M14.7421875 310.140625 C14.12030548 310.46407898 13.49842346 310.78753296 12.85769653 311.12078857 C10.86144745 312.16004312 8.86816263 313.20484016 6.875 314.25 C4.9066151 315.277634 2.93763482 316.3041198 0.96856689 317.33044434 C-0.29832319 317.99085781 -1.56496918 318.65173975 -2.83135986 319.31311035 C-7.19761435 321.59109258 -11.58406286 323.82012263 -16 326 C-16 329.3 -16 332.6 -16 336 C-3.13 336 9.74 336 23 336 C23 326.43 23 316.86 23 307 C19.81964403 307 17.53918924 308.67863583 14.7421875 310.140625 Z M169.7421875 310.140625 C169.12030548 310.46407898 168.49842346 310.78753296 167.85769653 311.12078857 C165.86144745 312.16004312 163.86816263 313.20484016 161.875 314.25 C159.9066151 315.277634 157.93763482 316.3041198 155.96856689 317.33044434 C154.70167681 317.99085781 153.43503082 318.65173975 152.16864014 319.31311035 C147.80238565 321.59109258 143.41593714 323.82012263 139 326 C139 329.3 139 332.6 139 336 C151.87 336 164.74 336 178 336 C178 326.43 178 316.86 178 307 C174.81964403 307 172.53918924 308.67863583 169.7421875 310.140625 Z " fill="#961043" transform="translate(175,85)"/>
</svg>
