<?xml version="1.0" encoding="UTF-8"?>
<svg version="1.1" xmlns="http://www.w3.org/2000/svg" width="512" height="512">
<path d="M0 0 C3.83519429 3.02080735 6.26274466 7.38181515 8.875 11.4375 C13.15890854 17.99132372 18.54373433 22.96910754 24.75 27.6875 C30.1233607 31.77753229 34.36040078 36.26338582 36 43 C36.71890675 50.60681057 36.48466209 57.15083658 33 64 C32.15937012 64.74797852 31.31874023 65.49595703 30.45263672 66.26660156 C26.11007523 71.44225354 26.93320141 78.88456808 26.9453125 85.296875 C26.94269535 86.05664391 26.9400782 86.81641281 26.93738174 87.59920502 C27.02204545 107.25142119 32.87951029 125.13110926 39.00891113 143.61663818 C40.47358534 148.07001158 41.88067513 152.5415169 43.29296875 157.01171875 C45.56646225 164.18862019 47.86978714 171.35488667 50.22808838 178.50440979 C51.24383367 181.59974676 52.18056742 184.68138383 53.01541138 187.83172607 C53.76173953 191.10049301 53.76173953 191.10049301 56.18359375 193.18359375 C60.5052057 197.5052057 63.09402579 202.75409323 66.0625 208.0625 C67.38426684 210.40577997 68.7110591 212.74618736 70.0390625 215.0859375 C70.37012497 215.67076401 70.70118744 216.25559052 71.0422821 216.85813904 C73.16733158 220.59420798 75.37222451 224.26838 77.6484375 227.9140625 C78.20523193 228.80988037 78.76202637 229.70569824 79.33569336 230.62866211 C80.37624588 232.29091345 81.42854128 233.94589196 82.49438477 235.59204102 C82.95901123 236.33897217 83.4236377 237.08590332 83.90234375 237.85546875 C84.30960693 238.49121826 84.71687012 239.12696777 85.13647461 239.78198242 C86.8004481 244.05599971 86.44005189 247.8103956 84.87011719 252.05444336 C84.0913623 253.55696655 84.0913623 253.55696655 83.296875 255.08984375 C82.72839844 256.20423828 82.15992188 257.31863281 81.57421875 258.46679688 C80.97222656 259.61212891 80.37023437 260.75746094 79.75 261.9375 C79.16347656 263.07896484 78.57695312 264.22042969 77.97265625 265.39648438 C73.75856804 273.5926492 73.75856804 273.5926492 71.69433594 277.42236328 C69.7729719 281.05624743 68.49085982 283.85375711 68.75 288 C68.78609375 288.763125 68.8221875 289.52625 68.859375 290.3125 C68.90578125 290.869375 68.9521875 291.42625 69 292 C76.11128978 286.37742883 82.70744106 280.52324338 89 274 C94 269 94 269 95.69140625 267.4140625 C105.96301988 257.57821429 114.15288164 245.84765331 121.77392578 233.89990234 C123.01811178 231.97193432 124.30179295 230.07465027 125.58984375 228.17578125 C130.87713625 220.16541525 133.41728915 213.89809868 133 204 C131.58847656 204.04833984 131.58847656 204.04833984 130.1484375 204.09765625 C127 204 127 204 124.625 202.4375 C122.37659481 199.06489221 122.43216055 196.97487617 123 193 C124.625 190.625 124.625 190.625 127 189 C128.98 188.67 130.96 188.34 133 188 C133 182.72 133 177.44 133 172 C128.33318628 172.11776809 128.33318628 172.11776809 123.66748047 172.27026367 C119.01459802 172.32894527 115.92826458 171.46561288 112 169 C110.45413124 165.90826248 110.70640479 163.40570448 111 160 C112.44140625 157.7890625 112.44140625 157.7890625 115 156 C118.09886036 155.51447811 121.12323723 155.62297526 124.25 155.75 C125.09046875 155.76804688 125.9309375 155.78609375 126.796875 155.8046875 C128.86507395 155.85169202 130.93268441 155.92343276 133 156 C132.94199219 154.90300781 132.88398438 153.80601562 132.82421875 152.67578125 C132.77730312 151.22139686 132.73180489 149.76696626 132.6875 148.3125 C132.64560547 147.59126953 132.60371094 146.87003906 132.56054688 146.12695312 C132.46493645 141.93921662 132.64954541 140.44790093 135.33203125 137.01953125 C138 135 138 135 141 134.375 C145.10776186 135.23078372 146.42591033 136.71016681 149 140 C149.58844184 142.80387877 149.47798997 145.46352657 149.3125 148.3125 C149.28994141 149.05306641 149.26738281 149.79363281 149.24414062 150.55664062 C149.1855815 152.37197357 149.09590886 154.18625681 149 156 C150.25296875 155.95359375 151.5059375 155.9071875 152.796875 155.859375 C154.44789281 155.82185187 156.09893642 155.78545229 157.75 155.75 C158.575 155.71648437 159.4 155.68296875 160.25 155.6484375 C166.36197167 155.54985731 166.36197167 155.54985731 169.546875 157.796875 C171.67854428 161.02876068 171.54033891 163.21762765 171 167 C168.78136971 169.90717073 167.48055071 170.83981643 164 172 C161.42734182 172.07029121 158.88358569 172.09370832 156.3125 172.0625 C155.61060547 172.05798828 154.90871094 172.05347656 154.18554688 172.04882812 C152.45699462 172.03706927 150.72848635 172.01913454 149 172 C149.33 175.63 149.66 179.26 150 183 C151.11375 183.268125 152.2275 183.53625 153.375 183.8125 C157 185 157 185 159 188 C159.42379221 191.88476191 159.61457992 194.10176781 157.375 197.375 C154.56326646 199.29881769 152.33781892 199.53361982 149 200 C148.40265129 214.03769464 152.09309018 222.59450353 160 234 C160.9822321 235.46323214 161.96400077 236.92677547 162.9453125 238.390625 C169.08046467 247.40775962 175.73202846 255.87447282 183 264 C183.50063965 264.56235352 184.0012793 265.12470703 184.51708984 265.70410156 C190.33978048 272.21514415 196.24171102 278.44402835 203 284 C203.83273437 284.72058594 204.66546875 285.44117188 205.5234375 286.18359375 C212.31503756 291.99831983 219.38784243 297.28041402 226.68115234 302.44580078 C243.99563428 314.73485061 255.32766309 330.8356385 259 352 C260.59565513 374.9752329 256.75996451 394.67512608 241.265625 412.59375 C237.21259188 416.8983507 233.18185028 420.8587454 227.91712952 423.61254883 C224.66796793 425.76130091 224.66796793 425.76130091 224.27415466 429.49121094 C224.25432006 430.90550071 224.26737297 432.32048457 224.30639648 433.734375 C224.30379822 434.50881958 224.30119995 435.28326416 224.29852295 436.08117676 C224.29680981 437.75960122 224.30891425 439.43808411 224.33325005 441.11633301 C224.3714269 443.77318501 224.37316185 446.42787132 224.36549377 449.08496094 C224.3561634 454.7236459 224.39510349 460.36150434 224.4375 466 C224.48218939 472.53408821 224.50718314 479.06744489 224.49293709 485.60168457 C224.49605693 488.21911023 224.52979898 490.83498599 224.56504822 493.45214844 C224.56616978 495.05664026 224.56596161 496.66113375 224.56420898 498.265625 C224.58226089 498.9930188 224.60031281 499.7204126 224.61891174 500.46984863 C224.58464905 503.95410863 224.35737542 505.62357236 221.92377186 508.18691498 C218.23618246 510.47365739 215.94698461 510.5002178 211.62078857 510.50057125 C210.88376316 510.50608542 210.14673774 510.51159958 209.38737822 510.51728085 C206.90993183 510.5309103 204.43348282 510.51596096 201.95605469 510.50120544 C200.16513502 510.50509709 198.37421844 510.51073643 196.58330917 510.51797634 C191.65586649 510.53276865 186.72874215 510.52252735 181.80130959 510.50823963 C176.4897159 510.49715516 171.1781678 510.50906406 165.86657715 510.51808167 C155.45876089 510.53203337 145.05106575 510.52444369 134.64325523 510.50940608 C122.52964851 510.49256834 110.41607214 510.49575342 98.30245733 510.49950016 C76.69249912 510.50538228 55.08259912 510.49119336 33.47265625 510.46655273 C12.49086321 510.44263095 -8.49085203 510.43554804 -29.47265625 510.44604492 C-52.3059852 510.45744759 -75.13927815 510.45939225 -97.97260666 510.44494683 C-100.40617625 510.44342094 -102.83974584 510.44190059 -105.27331543 510.44038582 C-107.06948346 510.4392491 -107.06948346 510.4392491 -108.90193772 510.43808941 C-117.35101241 510.43334155 -125.80007106 510.43520158 -134.24914551 510.43945122 C-144.54204334 510.44437183 -154.83486754 510.43842055 -165.12774849 510.41855692 C-170.38197943 510.4086678 -175.63609811 510.40359726 -180.89033508 510.41144943 C-185.69664793 510.41848538 -190.50273386 510.41175062 -195.3090167 510.3938458 C-197.05120146 510.38978773 -198.79340677 510.39082382 -200.53558397 510.39736467 C-202.89759271 510.40547616 -205.25882962 510.39525046 -207.62078857 510.38031673 C-208.9345686 510.3792876 -210.24834862 510.37825848 -211.60194016 510.37719816 C-215.24183018 509.97315589 -217.14326392 509.26185681 -220 507 C-221.13502438 503.59492687 -221.12016228 501.00779288 -221.11352539 497.41723633 C-221.11367142 496.75355545 -221.11381744 496.08987457 -221.1139679 495.40608215 C-221.11327182 493.21469848 -221.1054937 491.02340005 -221.09765625 488.83203125 C-221.09579099 487.31174262 -221.09436759 485.79145339 -221.09336853 484.27116394 C-221.08955188 480.27135557 -221.07972885 476.27158356 -221.06866455 472.27178955 C-221.05843213 468.18966158 -221.05386698 464.10752773 -221.04882812 460.02539062 C-221.03810583 452.01691041 -221.02103961 444.00845973 -221 436 C-222.15773926 435.56457886 -222.15773926 435.56457886 -223.33886719 435.12036133 C-235.17997071 430.13514811 -244.04289678 415.96620447 -248.9375 404.75 C-255.55877811 388.32733171 -255.41515085 367.73563257 -248.5234375 351.52734375 C-241.58574031 336.32553501 -230.92972571 326.36614288 -217.43945312 316.91967773 C-210.95002063 312.33690728 -204.94893164 307.25728096 -199 302 C-198.47631836 301.53948242 -197.95263672 301.07896484 -197.41308594 300.60449219 C-181.61752331 286.64766998 -169.25590969 270.65770264 -158.15087891 252.83691406 C-157.1966829 251.31392494 -156.21680831 249.80705902 -155.23046875 248.3046875 C-151.75667532 242.7185874 -151.13424053 237.52897145 -151 231 C-151.928125 230.9175 -152.85625 230.835 -153.8125 230.75 C-157 230 -157 230 -158.875 228.3125 C-160.38185358 225.21507874 -160.55651279 223.40864082 -160 220 C-157.75 217.125 -157.75 217.125 -155 215 C-153.68 215 -152.36 215 -151 215 C-151 210.05 -151 205.1 -151 200 C-152.10859375 200.04640625 -153.2171875 200.0928125 -154.359375 200.140625 C-155.82288968 200.17815102 -157.28643356 200.21455029 -158.75 200.25 C-159.47960937 200.28351563 -160.20921875 200.31703125 -160.9609375 200.3515625 C-164.51064866 200.4161027 -166.57144858 200.30947199 -169.48828125 198.203125 C-171.68131995 195.00706859 -171.47338859 192.78710868 -171 189 C-169.23984869 185.8149643 -168.50109084 185.16703028 -165 184 C-162.60509014 183.93029948 -160.20832309 183.91551997 -157.8125 183.9375 C-156.54019531 183.94652344 -155.26789063 183.95554688 -153.95703125 183.96484375 C-152.49330078 183.98224609 -152.49330078 183.98224609 -151 184 C-151.05220703 182.67935547 -151.05220703 182.67935547 -151.10546875 181.33203125 C-151.13253906 180.17058594 -151.15960938 179.00914062 -151.1875 177.8125 C-151.23970703 176.08966797 -151.23970703 176.08966797 -151.29296875 174.33203125 C-150.97025776 170.66173156 -150.30600819 168.85257898 -148 166 C-146.1328125 165.15234375 -146.1328125 165.15234375 -144.125 164.9375 C-143.46757812 164.84339844 -142.81015625 164.74929687 -142.1328125 164.65234375 C-138.75813692 165.20242823 -137.28757505 166.49117417 -135 169 C-134.62601153 171.81239326 -134.51706985 173.97592155 -134.6875 176.75 C-134.71005859 177.44738281 -134.73261719 178.14476562 -134.75585938 178.86328125 C-134.81452952 180.57644935 -134.90420744 182.28850623 -135 184 C-134.04738281 183.97679687 -133.09476562 183.95359375 -132.11328125 183.9296875 C-130.85902344 183.91164062 -129.60476562 183.89359375 -128.3125 183.875 C-127.07113281 183.85179687 -125.82976562 183.82859375 -124.55078125 183.8046875 C-121.16074927 183.99115791 -118.99372591 184.45644591 -116 186 C-113.83280794 188.6597357 -114.00465137 190.08837596 -114.1875 193.5625 C-115.00665629 197.02816124 -115.28997551 197.92204212 -118 200 C-119.90112305 200.34057617 -119.90112305 200.34057617 -122.01171875 200.29296875 C-122.76904297 200.28330078 -123.52636719 200.27363281 -124.30664062 200.26367188 C-125.09232422 200.23853516 -125.87800781 200.21339844 -126.6875 200.1875 C-127.48478516 200.17396484 -128.28207031 200.16042969 -129.10351562 200.14648438 C-131.06929967 200.11117089 -133.03473582 200.05736447 -135 200 C-135 203.3 -135 206.6 -135 210 C-134.071875 210.103125 -133.14375 210.20625 -132.1875 210.3125 C-127.79527559 211.25984252 -127.79527559 211.25984252 -126 214 C-124.94483956 217.46695574 -124.75517899 219.32674222 -126 222.75 C-128.66622037 225.74949792 -131.13799642 226.19845209 -135 227 C-135.27981967 238.50758397 -132.20986082 245.65211892 -126 255 C-125.36578125 256.00804687 -124.7315625 257.01609375 -124.078125 258.0546875 C-115.95766003 270.70516391 -106.36176363 282.14481906 -96 293 C-95.21625 293.825 -94.4325 294.65 -93.625 295.5 C-88.75200523 300.50835573 -83.55172117 304.7663832 -78 309 C-75.53542019 286.36631014 -80.05173824 272.09440604 -91.50952148 252.86132812 C-92.93839483 250.11826577 -93.70363461 248.06470221 -94 245 C-91.83573564 238.49087285 -88.03976228 232.69326102 -84.5625 226.8125 C-83.94648926 225.76690918 -83.33047852 224.72131836 -82.69580078 223.64404297 C-81.42450249 221.4886753 -80.1513818 219.33438152 -78.87646484 217.18115234 C-77.0862167 214.14616232 -75.31609141 211.10032515 -73.55078125 208.05078125 C-72.49271426 206.24187928 -71.43414636 204.43327019 -70.375 202.625 C-69.8910376 201.78171143 -69.4070752 200.93842285 -68.90844727 200.06958008 C-68.45139404 199.29638428 -67.99434082 198.52318848 -67.5234375 197.7265625 C-67.13075684 197.05189941 -66.73807617 196.37723633 -66.33349609 195.68212891 C-65 194 -65 194 -62.90942383 193.01782227 C-60.8459464 192.18108296 -60.8459464 192.18108296 -60.27075195 190.1809082 C-60.15691162 189.45734131 -60.04307129 188.73377441 -59.92578125 187.98828125 C-59.00016689 182.93533731 -57.67976206 178.10066567 -56.1875 173.1875 C-55.95224609 172.35541016 -55.71699219 171.52332031 -55.47460938 170.66601562 C-53.96915926 165.73872875 -52.71103972 162.65041493 -48 160 C-44.53241058 160.05978602 -42.11173251 160.39034023 -39.0625 162.0625 C-36.80857943 166.17259044 -37.68188347 170.72501317 -38.77026367 175.0871582 C-40.19235207 179.83646137 -41.71369244 184.55032679 -43.24414062 189.265625 C-43.60830078 190.42835938 -43.97246094 191.59109375 -44.34765625 192.7890625 C-44.68804932 193.83787598 -45.02844238 194.88668945 -45.37915039 195.96728516 C-46.54170913 201.64613088 -45.02315862 205.5051167 -42.05859375 210.328125 C-41.47529297 211.29234375 -40.89199219 212.2565625 -40.29101562 213.25 C-39.67935547 214.24 -39.06769531 215.23 -38.4375 216.25 C-37.22411031 218.23208159 -36.01427924 220.21634759 -34.80859375 222.203125 C-34.00119751 223.51265137 -34.00119751 223.51265137 -33.17749023 224.84863281 C-32 227 -32 227 -32 229 C-31.34 229 -30.68 229 -30 229 C-29.74331543 228.30849854 -29.48663086 227.61699707 -29.22216797 226.90454102 C-27.01743486 221.66488663 -24.05019575 216.80894978 -21.23291016 211.87963867 C-20.12863814 209.94387757 -19.0348441 208.00244335 -17.94140625 206.06054688 C-17.23500919 204.81995118 -16.52799824 203.57970478 -15.8203125 202.33984375 C-15.18367676 201.21956787 -14.54704102 200.09929199 -13.89111328 198.94506836 C-11.20213476 194.75746858 -9.39675434 192.40632853 -4.5625 191 C-0.07950159 191 0.81441225 191.92713305 4 195 C5.52474699 197.3847156 6.87737325 199.69282937 8.1875 202.1875 C8.95920361 203.60901557 9.73270985 205.0295537 10.5078125 206.44921875 C10.9090332 207.18833496 11.31025391 207.92745117 11.72363281 208.68896484 C13.9237121 212.6725055 16.2439676 216.5845976 18.5625 220.5 C19.00424561 221.24789795 19.44599121 221.9957959 19.90112305 222.76635742 C20.93267847 224.51173525 21.96611831 226.25599915 23 228 C26.9201172 223.37234945 30.15356034 218.37398402 33.375 213.25 C34.23158203 211.96609375 34.23158203 211.96609375 35.10546875 210.65625 C35.63527344 209.80546875 36.16507812 208.9546875 36.7109375 208.078125 C37.19868652 207.31918945 37.68643555 206.56025391 38.18896484 205.77832031 C39.41892362 201.56491549 38.18890338 198.0890158 37 194 C36.55898956 192.45883514 36.55898956 192.45883514 36.10906982 190.88653564 C35.03918171 187.22905668 33.93532223 183.5825917 32.82421875 179.9375 C32.41276299 178.57870642 32.00162125 177.2198177 31.59077454 175.86083984 C30.51219523 172.29585847 29.42979844 168.73204824 28.34643555 165.16851807 C27.26087973 161.59601781 26.17826227 158.02262801 25.09570312 154.44921875 C24.88501253 153.75379471 24.67432194 153.05837067 24.45724678 152.34187317 C23.82947963 150.2696097 23.20182469 148.19731229 22.57421875 146.125 C22.37011257 145.45111237 22.16600639 144.77722473 21.95571518 144.08291626 C17.05276849 127.8924015 17.05276849 127.8924015 14.89453125 120.625 C14.69317062 119.95355957 14.49181 119.28211914 14.28434753 118.59033203 C13 114.23496569 13 114.23496569 13 112 C-3.335 112.495 -3.335 112.495 -20 113 C-22.79607724 122.68877396 -22.79607724 122.68877396 -25.56347656 132.38574219 C-25.91893555 133.59391602 -26.27439453 134.80208984 -26.640625 136.046875 C-27.17478027 137.90070801 -27.17478027 137.90070801 -27.71972656 139.79199219 C-29.04257687 143.10668575 -30.24318069 144.77693409 -33 147 C-36.41294798 147.83194701 -39.80972014 147.65273412 -42.9375 145.9375 C-45.11447467 141.96772266 -45.25687307 138.04877493 -44.19555664 133.71557617 C-43.77137451 132.58611572 -43.34719238 131.45665527 -42.91015625 130.29296875 C-42.44653199 128.98799744 -41.98639603 127.6817829 -41.52929688 126.37451172 C-41.28816162 125.69257751 -41.04702637 125.01064331 -40.79858398 124.30804443 C-36.28625142 111.30871024 -33.97269969 99.14734925 -34 85.375 C-33.99219513 84.64952972 -33.98439026 83.92405945 -33.97634888 83.17660522 C-33.75794459 73.8515642 -33.75794459 73.8515642 -37.9453125 65.8515625 C-38.48446289 65.34963379 -39.02361328 64.84770508 -39.57910156 64.33056641 C-43.36550397 60.78488031 -43.81302006 54.46912808 -44.4375 49.5625 C-43.34826011 40.69297518 -40.14767241 33.2643718 -33.046875 27.67578125 C-31.94942738 26.88591759 -30.85040906 26.09823264 -29.75 25.3125 C-21.38413943 19.10096841 -15.75143629 11.49599791 -10.2265625 2.71484375 C-7.60362752 -0.95225325 -4.17790795 -0.55705439 0 0 Z M-5 22 C-6.49825323 23.52029885 -6.49825323 23.52029885 -8.0625 25.5 C-12.44258446 30.65572442 -17.34777169 35.39997943 -22.87109375 39.33203125 C-25.99468641 41.57172958 -27.40177162 43.27210094 -28.0625 47 C-28.26363993 50.81447505 -27.47770517 53.00966618 -25 56 C-21.99756095 58.98073794 -19.51380872 59.36509938 -15.33876038 59.44248962 C-14.60950851 59.43955399 -13.88025665 59.43661835 -13.12890625 59.43359375 C-12.36956284 59.4388356 -11.61021942 59.44407745 -10.8278656 59.44947815 C-9.22501852 59.45588917 -7.62212433 59.45457322 -6.01928711 59.44604492 C-3.57384974 59.43753948 -1.13075332 59.46629734 1.31445312 59.49804688 C2.8749993 59.49965925 4.4355496 59.49908066 5.99609375 59.49609375 C6.72332138 59.50732773 7.45054901 59.51856171 8.19981384 59.53013611 C13.07877569 59.46355656 15.57897369 58.47367617 19 55 C20.56820874 51.86358252 20.38163039 48.42820517 20 45 C18.70867528 41.48732914 16.86451188 39.86973951 13.875 37.6875 C7.55616232 32.93565266 1.9055792 28.22631207 -3 22 C-3.66 22 -4.32 22 -5 22 Z M-18 75 C-18 81.6 -18 88.2 -18 95 C-8.43 95 1.14 95 11 95 C11 88.4 11 81.8 11 75 C1.43 75 -8.14 75 -18 75 Z M-59 215 C-60.02164744 216.56634794 -60.99196649 218.16620332 -61.94140625 219.77734375 C-62.52470703 220.76541016 -63.10800781 221.75347656 -63.70898438 222.77148438 C-64.32064453 223.81626953 -64.93230469 224.86105469 -65.5625 225.9375 C-66.48579102 227.49887695 -66.48579102 227.49887695 -67.42773438 229.09179688 C-70.42611078 233.30837975 -70.42611078 233.30837975 -72 238 C-63.09 238 -54.18 238 -45 238 C-46.216875 235.875625 -47.43375 233.75125 -48.6875 231.5625 C-51.83306854 226.06432568 -54.94614723 220.54979014 -58 215 C-58.33 215 -58.66 215 -59 215 Z M-4 215 C-5.48491505 217.31321451 -6.91114015 219.63674676 -8.3125 222 C-8.70373047 222.64839844 -9.09496094 223.29679688 -9.49804688 223.96484375 C-12.24739184 228.56988258 -14.58093962 233.16187924 -17 238 C-8.42 238 0.16 238 9 238 C7.65419406 233.96258219 6.71494775 231.18739902 4.65234375 227.6953125 C4.21212891 226.94765625 3.77191406 226.2 3.31835938 225.4296875 C2.86267578 224.66914063 2.40699219 223.90859375 1.9375 223.125 C1.47794922 222.34125 1.01839844 221.5575 0.54492188 220.75 C-1.16722001 217.83666338 -1.16722001 217.83666338 -3 215 C-3.33 215 -3.66 215 -4 215 Z M51 215 C49.70570586 216.929345 48.46608742 218.89542913 47.25 220.875 C46.57453125 221.96554688 45.8990625 223.05609375 45.203125 224.1796875 C42.60789661 228.67992396 40.32324508 233.35350983 38 238 C46.58 238 55.16 238 64 238 C62.6435354 234.60883849 61.37686911 231.71006162 59.6171875 228.57421875 C59.17246094 227.77822266 58.72773438 226.98222656 58.26953125 226.16210938 C57.80933594 225.34548828 57.34914063 224.52886719 56.875 223.6875 C56.40707031 222.85154297 55.93914062 222.01558594 55.45703125 221.15429688 C54.3073741 219.10133767 53.15496198 217.04997798 52 215 C51.67 215 51.34 215 51 215 Z M141 235 C139.41915424 237.36822855 137.94820802 239.73968804 136.5 242.1875 C131.80756469 249.89497652 126.68005812 256.99915197 121 264 C120.2059375 264.99902344 119.411875 265.99804688 118.59375 267.02734375 C105.31422546 283.43330138 89.91597748 297.74796621 72.92700195 310.19262695 C57.0094025 321.8555844 44.54009432 332.2997674 39.421875 352.25390625 C37.08815088 367.44472157 38.9670534 383.23162435 48 396 C53.41882484 402.62325113 53.41882484 402.62325113 60 408 C60.23783203 406.27716797 60.23783203 406.27716797 60.48046875 404.51953125 C65.41841281 370.84180665 86.40885592 345.83075909 113.0234375 325.96875 C115.06855091 324.45404068 117.1167466 322.94358192 119.16552734 321.43383789 C125.53606308 316.69508333 131.28522974 311.51067132 137 306 C137.86109375 305.20207031 138.7221875 304.40414062 139.609375 303.58203125 C149.39925191 294.26340618 159.12647394 282.18050498 163 269 C162.86941535 263.71475817 160.82538281 261.04988031 157.5 257.0625 C153.02741784 251.56684718 149.33744228 245.8491767 145.86914062 239.67407227 C144.96239909 238.08664606 143.98739814 236.53855357 143 235 C142.34 235 141.68 235 141 235 Z M-73 254 C-70.36 259.61 -67.72 265.22 -65 271 C-24.74 271 15.52 271 57 271 C62.4735917 262.86839793 62.4735917 262.86839793 65 254 C19.46 254 -26.08 254 -73 254 Z M175 280 C174.55011719 280.92039062 174.10023438 281.84078125 173.63671875 282.7890625 C163.19363298 303.58102737 147.23458843 319.80596013 128.73828125 333.69384766 C105.89066041 350.86165264 80.32453938 371.86336623 76 402 C75.931911 404.78075485 75.90521664 407.53364739 75.9375 410.3125 C75.94201172 411.05306641 75.94652344 411.79363281 75.95117188 412.55664062 C75.96287825 414.37112899 75.98081102 416.18557534 76 418 C83.5286718 420.41380267 90.24887845 421.42160963 98.13671875 421.29296875 C99.14217239 421.28872391 100.14762604 421.28447906 101.18354797 421.28010559 C104.35182046 421.26349646 107.51942425 421.22587897 110.6875 421.1875 C112.85350635 421.17243016 115.01952281 421.15874581 117.18554688 421.14648438 C122.45725412 421.1136516 127.72857927 421.06363395 133 421 C132.98783195 420.09616577 132.98783195 420.09616577 132.97541809 419.17407227 C132.96910873 418.37541748 132.96279938 417.5767627 132.95629883 416.75390625 C132.94413078 415.57163452 132.94413078 415.57163452 132.93171692 414.36547852 C133.03527903 410.77785562 133.77799059 407.45930002 134.6875 404 C134.86466553 403.31083496 135.04183105 402.62166992 135.22436523 401.91162109 C137.02247754 395.30221738 139.12345016 388.91769989 145 385 C148.61550392 384.53844631 150.33636094 384.54593117 153.375 386.625 C155.58376312 389.85319225 155.64713368 391.11719792 155 395 C153.8358663 397.52157374 152.54768985 399.95877432 151.25 402.4140625 C148.1093168 408.91135086 147.92495952 413.92890842 149 421 C155.47371743 421.07671463 161.94731557 421.12887575 168.42138672 421.16479492 C170.61902243 421.1797854 172.81662871 421.20018466 175.01416016 421.22631836 C191.78061946 421.66453216 191.78061946 421.66453216 208 418 C209.11375 417.5978125 210.2275 417.195625 211.375 416.78125 C226.44963572 409.42339209 237.44706524 396.90539102 243 381 C247.53454254 365.81576042 245.39631804 349.62770472 237.9375 335.75 C232.02738448 326.35962373 223.73940061 318.36799522 214 313 C213.67 313 213.34 313 213 313 C212.87044922 314.74023438 212.87044922 314.74023438 212.73828125 316.515625 C211.0213929 336.6431714 203.25403376 350.58237419 188 364 C184.13706024 367.18590495 180.1040414 370.13341507 176 373 C174.97003906 373.74636719 173.94007813 374.49273437 172.87890625 375.26171875 C170 377 170 377 166.25 376.875 C163 376 163 376 161 374 C160.36484772 368.46510152 160.36484772 368.46510152 161 366 C164.30589019 362.18736752 168.13807561 359.29654599 172.1875 356.3125 C183.39013093 347.7920099 194.55198302 337.68810187 197 323 C197.31396037 318.31474523 197.21222773 313.68875216 197 309 C196.97550781 308.00226563 196.95101562 307.00453125 196.92578125 305.9765625 C195.51844711 294.92974617 185.2345213 287.5869238 177 281 C176.01 280.505 176.01 280.505 175 280 Z M-144 282 C-144.51046875 283.15371094 -145.0209375 284.30742187 -145.546875 285.49609375 C-149.41989062 294.1963331 -153.38057928 302.83331453 -157.5715332 311.38574219 C-173.97535666 344.93069753 -183.00106476 381.37596919 -171.25 418.25 C-169.0550464 423.64380071 -165.33633797 429.33183102 -160 432 C-155.38133195 432.30652497 -150.76234984 432.35641869 -146.13452148 432.4050293 C-144.59522999 432.42655445 -143.05605909 432.46059313 -141.51733398 432.50756836 C-131.47719269 433.16660475 -131.47719269 433.16660475 -122.62109375 429.28125 C-109.58407613 414.68693148 -110.22485868 389.53034179 -111 371 C-113.00339025 345.48847347 -123.36513762 324.04842939 -134.48217773 301.4128418 C-137.60406525 295.03519671 -140.4859248 288.64227443 -143 282 C-143.33 282 -143.66 282 -144 282 Z M-62 287 C-62 298.88 -62 310.76 -62 323 C-58.37 325.97 -54.74 328.94 -51 332 C-42.18995991 341.57821797 -37.31850178 352.56236327 -34 365 C-31.525 364.01 -31.525 364.01 -29 363 C-28.99589111 361.78006348 -28.99178223 360.56012695 -28.98754883 359.30322266 C-28.96562376 354.73672387 -28.91119697 350.17107044 -28.84741211 345.60498047 C-28.82434809 343.63631347 -28.80986387 341.66752511 -28.80444336 339.69873047 C-28.73316115 318.06183728 -28.73316115 318.06183728 -23 311 C-20.6484375 308.74609375 -20.6484375 308.74609375 -18.375 307.4375 C-17.61960938 306.98246094 -16.86421875 306.52742188 -16.0859375 306.05859375 C-9.8156309 302.87647186 -2.0998646 302.99471562 4.64453125 304.6484375 C11.0802205 307.21394224 15.17773651 311.44224747 18.3125 317.5625 C19.93506871 323.31524361 20.19251352 328.96614452 20.31640625 334.8984375 C20.33718735 335.73339752 20.35796844 336.56835754 20.37937927 337.42861938 C20.44439469 340.0773349 20.50353491 342.72614359 20.5625 345.375 C20.60573096 347.17839478 20.64934666 348.98178038 20.69335938 350.78515625 C20.80002639 355.19001039 20.90142695 359.5949576 21 364 C21.66 364 22.32 364 23 364 C23.12955078 362.52853516 23.12955078 362.52853516 23.26171875 361.02734375 C25.33149579 340.18898471 33.00898523 323.6814658 48 309 C49.65 307.68 51.3 306.36 53 305 C53 299.06 53 293.12 53 287 C15.05 287 -22.9 287 -62 287 Z M-167 292 C-167.39155273 292.42708252 -167.78310547 292.85416504 -168.18652344 293.29418945 C-182.5354215 308.89746433 -197.5641557 322.22189273 -214.6953125 334.6953125 C-226.7942896 343.58611033 -235.90475369 354.34771217 -238.71875 369.5 C-240.48575385 385.20670086 -237.64014497 399.01804814 -227.9609375 411.6640625 C-216.68477426 424.85279052 -204.07635645 430.41538084 -187 432 C-185.33354834 432.02677031 -183.66624442 432.03751395 -182 432 C-182.39832031 430.94425781 -182.79664063 429.88851562 -183.20703125 428.80078125 C-196.81089247 391.38801987 -192.85412579 350.8972451 -176.41015625 315.11767578 C-173.46746008 308.85068381 -170.35645729 302.67330822 -167.1171875 296.5546875 C-166.74851562 295.71164062 -166.37984375 294.86859375 -166 294 C-166.495 293.01 -166.495 293.01 -167 292 Z M-121 292 C-119.27511952 297.95685467 -116.47650914 303.33168794 -113.75 308.875 C-95.76050552 346.06890193 -89.59087204 386.8249753 -102.92578125 426.7734375 C-103.57647525 428.53123647 -104.27908877 430.26981305 -105 432 C-87.33681413 431.72787809 -73.29454544 426.80405257 -60.75 413.875 C-50.89163891 402.1301624 -46.76626396 388.19037499 -48 373 C-50.77971633 355.88737136 -59.3642798 344.05741901 -73.1875 334.0625 C-74.86661847 332.86118342 -76.54630231 331.66065667 -78.2265625 330.4609375 C-84.4661683 325.9906615 -90.24848508 321.07393919 -96 316 C-96.87914062 315.23171875 -97.75828125 314.4634375 -98.6640625 313.671875 C-104.68031469 308.34479102 -110.36223767 302.72303941 -116 297 C-117.66550157 295.33216905 -119.33185776 293.66518978 -121 292 Z M-10.69604492 321.05932617 C-13.62673445 324.79993816 -13.58206584 326.78029504 -13.48828125 331.48828125 C-13.48120651 332.19147995 -13.47413177 332.89467865 -13.46684265 333.6191864 C-13.43899212 335.85140227 -13.3762832 338.08105077 -13.3125 340.3125 C-13.28740451 341.83134381 -13.26459352 343.3502272 -13.24414062 344.86914062 C-13.19345718 348.5811964 -13.09562185 352.2877474 -13 356 C-7.06 356 -1.12 356 5 356 C5.06914407 351.97940054 5.12879137 347.96032991 5.16479492 343.93945312 C5.17981428 342.57382184 5.20023608 341.20823824 5.22631836 339.84277344 C5.26300137 337.87196095 5.27818551 335.90078592 5.29296875 333.9296875 C5.3086792 332.74616699 5.32438965 331.56264648 5.34057617 330.34326172 C4.95618154 326.56985659 3.99176662 324.21211331 2 321 C-2.54668436 317.96887709 -6.26318183 317.67336219 -10.69604492 321.05932617 Z M-26 381 C-28.9767548 385.682219 -28.9767548 385.682219 -30 391 C-29.10539063 391.32871094 -28.21078125 391.65742188 -27.2890625 391.99609375 C-18.66806998 395.38750765 -12.53448274 399.2495013 -6 406 C-5.34 406.66 -4.68 407.32 -4 408 C-3.61070312 407.49210937 -3.22140625 406.98421875 -2.8203125 406.4609375 C3.64423051 398.50686845 11.36963139 394.21012287 21 391 C20.19251965 384.136417 16.10843279 379.52919404 10.91015625 375.32421875 C-0.88756553 367.14543003 -16.81149991 370.27602111 -26 381 Z M-38 406 C-38.68835938 407.30324219 -38.68835938 407.30324219 -39.390625 408.6328125 C-40.00421875 409.78523438 -40.6178125 410.93765625 -41.25 412.125 C-41.85328125 413.26195312 -42.4565625 414.39890625 -43.078125 415.5703125 C-44.89255165 418.80825274 -46.94114288 421.91171432 -49 425 C-37.45 425 -25.9 425 -14 425 C-16.47502235 417.57493295 -19.97545218 412.32076975 -27 408.5625 C-30.53854823 406.86186152 -34.12617202 406.47957245 -38 406 Z M7.6796875 417.87109375 C5.63386664 421.21375756 5.63386664 421.21375756 5 425 C21.17 425 37.34 425 54 425 C49.55081136 420.3333141 49.55081136 420.3333141 46.4140625 418.015625 C43.79048442 415.82506466 42.25853989 413.58775613 40.375 410.75 C37.50114839 407.07041763 37.50114839 407.07041763 33.35546875 405.2109375 C23.27042383 404.90062843 13.53133056 409.57838065 7.6796875 417.87109375 Z M74 434 C74 454.13 74 474.26 74 495 C86.87 495 99.74 495 113 495 C113.169759 488.16556484 113.169759 488.16556484 113.29785156 481.33032227 C113.62061004 472.1495422 116.23652341 464.46941239 123 458 C131.4991936 452.90048384 139.5769951 450.40768349 149.4765625 452.53125 C154.09911346 453.95357337 157.33080026 455.77555175 161 459 C161.66 459 162.32 459 163 459 C163.28746094 459.5775 163.57492187 460.155 163.87109375 460.75 C164.58402315 462.17092503 165.30441488 463.58815251 166.03515625 465 C166.37417969 465.66 166.71320313 466.32 167.0625 467 C167.40410156 467.66 167.74570312 468.32 168.09765625 469 C169.69894526 472.54917738 170.1427567 475.89572072 170.31640625 479.765625 C170.35451416 480.56774414 170.39262207 481.36986328 170.43188477 482.19628906 C170.49653931 483.70787598 170.49653931 483.70787598 170.5625 485.25 C170.7790625 490.07625 170.7790625 490.07625 171 495 C183.87 495 196.74 495 210 495 C210 474.87 210 454.74 210 434 C206.04 434.66 202.08 435.32 198 436 C194.15575386 436.17389881 190.38742222 436.27456955 186.546875 436.25878906 C185.47199829 436.2622937 184.39712158 436.26579834 183.28967285 436.26940918 C179.77638066 436.27813061 176.26329384 436.27241141 172.75 436.265625 C170.28483034 436.2669744 167.81966094 436.26891723 165.35449219 436.27142334 C160.20375011 436.27436163 155.05307769 436.27011872 149.90234375 436.26074219 C143.32576958 436.24934854 136.74935871 436.25591496 130.17279053 436.26788712 C125.08706448 436.27514073 120.00137666 436.27280173 114.91564941 436.26763153 C112.49173971 436.26630471 110.06782645 436.26790853 107.6439209 436.27259064 C104.24689644 436.27771365 100.85013039 436.26986501 97.453125 436.25878906 C95.9751947 436.26486176 95.9751947 436.26486176 94.46740723 436.27105713 C87.2785761 436.22799734 81.29602307 435.21600384 74 434 Z M-65 441 C-65 458.82 -65 476.64 -65 495 C-59.72 495 -54.44 495 -49 495 C-48.96132812 491.5659375 -48.96132812 491.5659375 -48.921875 488.0625 C-48.88335651 485.8216574 -48.8382284 483.58103735 -48.79248047 481.34033203 C-48.76442213 479.79454343 -48.74313294 478.24861539 -48.72900391 476.70263672 C-48.57296221 460.58873061 -48.57296221 460.58873061 -44 454 C-37.60006043 448.90617055 -31.94868016 448.32908136 -24 449 C-20.5 450.4375 -20.5 450.4375 -18 452 C-17.01 452.33 -16.02 452.66 -15 453 C-11.5741045 458.44112814 -10.73757683 464.26763214 -10.5859375 470.5859375 C-10.56657135 471.28772125 -10.5472052 471.989505 -10.5272522 472.71255493 C-10.46792431 474.93324999 -10.42126083 477.15399823 -10.375 479.375 C-10.33677698 480.88934434 -10.29772278 482.40366794 -10.2578125 483.91796875 C-10.16226266 487.61178831 -10.07806063 491.3057647 -10 495 C-6.37 495 -2.74 495 1 495 C1.01458252 494.1028125 1.02916504 493.205625 1.04418945 492.28125 C1.1056308 488.918693 1.1798513 485.55690297 1.26245117 482.19482422 C1.29548803 480.74603719 1.32358455 479.29712801 1.34643555 477.84814453 C1.6350078 460.03034293 1.6350078 460.03034293 6.71875 453.94140625 C7.60046875 453.25884766 7.60046875 453.25884766 8.5 452.5625 C9.0878125 452.08941406 9.675625 451.61632812 10.28125 451.12890625 C15.20606781 447.89419637 21.36488261 448.37863725 27 449 C32.48237859 450.96871244 35.29044702 453.92081861 38.12988281 459.00099182 C39.56098517 462.28880794 39.60325729 465.59787183 39.609375 469.12109375 C39.62591125 469.86585464 39.64244751 470.61061554 39.65948486 471.37794495 C39.70764613 473.73121647 39.72926294 476.08384349 39.75 478.4375 C39.77818663 480.04365167 39.80811779 481.64977372 39.83984375 483.25585938 C39.9166481 487.17086018 39.95745662 491.08388146 40 495 C45.94 495 51.88 495 58 495 C58 477.18 58 459.36 58 441 C17.41 441 -23.18 441 -65 441 Z M-206 445 C-206 461.5 -206 478 -206 495 C-194.45 495 -182.9 495 -171 495 C-170.67 490.05 -170.34 485.1 -170 480 C-166.95259283 471.87358089 -162.61798275 465.65016311 -154.58203125 461.859375 C-145.68369704 458.89775091 -137.75776794 459.78517699 -129.375 463.6875 C-122.75119686 467.78578916 -119.00182384 473.5195004 -117 481 C-116.505 487.93 -116.505 487.93 -116 495 C-104.45 495 -92.9 495 -81 495 C-81 478.5 -81 462 -81 445 C-83.64 445.33 -86.28 445.66 -89 446 C-90.69564922 446.07953898 -92.39344414 446.12617831 -94.09095764 446.12698364 C-95.01739578 446.12980347 -95.94383392 446.13262329 -96.89834595 446.13552856 C-97.88716766 446.13350433 -98.87598938 446.1314801 -99.89477539 446.12939453 C-100.95759232 446.13114685 -102.02040924 446.13289917 -103.11543274 446.13470459 C-106.60952412 446.13908631 -110.1035644 446.13619829 -113.59765625 446.1328125 C-116.03568023 446.13348655 -118.47370415 446.13445741 -120.91172791 446.13571167 C-126.01317995 446.13718361 -131.11461445 446.13505005 -136.21606445 446.13037109 C-142.74836401 446.1246711 -149.28062251 446.12795774 -155.81292057 446.13394356 C-160.84439909 446.13756015 -165.87586791 446.13640557 -170.90734673 446.13381577 C-173.31585126 446.1331497 -175.72435668 446.13396373 -178.13286018 446.13629532 C-181.50013687 446.13884016 -184.86734737 446.13495549 -188.23461914 446.12939453 C-189.22546509 446.13141876 -190.21631104 446.13344299 -191.23718262 446.13552856 C-192.16080093 446.13270874 -193.08441925 446.12988892 -194.036026 446.12698364 C-194.83036073 446.12660662 -195.62469545 446.12622959 -196.44310093 446.12584114 C-199.64688473 445.96816272 -202.82457699 445.45363186 -206 445 Z M-32 464 C-33.32887035 465.10267706 -33.32887035 465.10267706 -33.11352539 467.86743164 C-33.10828857 469.11903076 -33.10305176 470.37062988 -33.09765625 471.66015625 C-33.0962413 472.32462265 -33.09482635 472.98908905 -33.09336853 473.6736908 C-33.08775518 475.80333899 -33.07520054 477.93288339 -33.0625 480.0625 C-33.05748671 481.50325369 -33.05292351 482.94400903 -33.04882812 484.38476562 C-33.03778145 487.92321102 -33.02050792 491.46159539 -33 495 C-30.69 495 -28.38 495 -26 495 C-25.95060885 490.90661348 -25.91428499 486.81334202 -25.89013672 482.71972656 C-25.88007123 481.32679219 -25.86641766 479.93387898 -25.84912109 478.54101562 C-25.8248978 476.5404564 -25.81459186 474.53974385 -25.8046875 472.5390625 C-25.78897705 470.73236084 -25.78897705 470.73236084 -25.77294922 468.88916016 C-25.69539186 465.87158505 -25.69539186 465.87158505 -28 464 C-29.32 464 -30.64 464 -32 464 Z M19 464 C16.69539186 465.87158505 16.69539186 465.87158505 16.77294922 468.88916016 C16.78342285 470.09362793 16.79389648 471.2980957 16.8046875 472.5390625 C16.81113281 473.84101563 16.81757813 475.14296875 16.82421875 476.484375 C16.84093071 477.86458595 16.85786061 479.24479429 16.875 480.625 C16.88502994 482.01301452 16.89415577 483.40103589 16.90234375 484.7890625 C16.92598137 488.19288026 16.95893133 491.59635506 17 495 C19.31 495 21.62 495 24 495 C24 485.1 24 475.2 24 465 C22.35 464.67 20.7 464.34 19 464 Z M130.8359375 472.5 C128.4059097 477.13256364 128.55078843 480.74750573 128.75 485.875 C128.8325 488.88625 128.915 491.8975 129 495 C137.58 495 146.16 495 155 495 C155.0825 492.15375 155.165 489.3075 155.25 486.375 C155.30462402 485.04734619 155.30462402 485.04734619 155.36035156 483.69287109 C155.43569835 478.29342288 154.60405521 475.26761772 151 471 C147.93600154 468.46887084 145.94223197 467.13740883 142 466.5625 C137.10777452 467.27594955 134.08822165 468.74284864 130.8359375 472.5 Z M-153.375 479.9375 C-155.98858342 484.86309953 -155.24246957 489.48381718 -155 495 C-147.41 495 -139.82 495 -132 495 C-131.23445027 485.65988977 -131.23445027 485.65988977 -135 479 C-141.22568227 472.98899643 -147.2345428 474.92817965 -153.375 479.9375 Z " fill="#961043" transform="translate(253,2)"/>
<path d="M0 0 C3.01132516 3.29504744 4.94617977 6.9738969 6.82421875 10.99609375 C7.25734375 11.88296875 7.69046875 12.76984375 8.13671875 13.68359375 C8.98171264 16.52584592 8.9613434 19.04791388 8.82421875 21.99609375 C9.40429688 22.0940625 9.984375 22.19203125 10.58203125 22.29296875 C18.81022987 23.86800347 23.8872277 27.05761984 28.82421875 33.99609375 C31.86249474 39.85388987 32.9630167 45.62244945 31.28515625 52.06640625 C28.51198776 60.08116793 24.47506372 65.24538655 16.82421875 68.99609375 C13.00932948 70.27088169 9.14607487 70.15823415 5.16918945 70.1730957 C4.01956978 70.1829525 4.01956978 70.1829525 2.84672546 70.19300842 C0.31448255 70.21269095 -2.21770114 70.22439392 -4.75 70.234375 C-6.05155501 70.24048829 -6.05155501 70.24048829 -7.37940407 70.24672508 C-11.97388087 70.26756623 -16.56832799 70.28187532 -21.1628418 70.29125977 C-25.8926853 70.30230867 -30.62205635 70.33669652 -35.35173321 70.37643147 C-39.0021905 70.4026609 -42.65253638 70.41095729 -46.30307961 70.41454124 C-48.04568478 70.41939235 -49.78828547 70.43096395 -51.53079796 70.44957924 C-63.92852796 70.57377248 -73.02857808 69.6411182 -82.44921875 60.93359375 C-88.31804728 54.34775902 -89.54430889 46.91918427 -89.44921875 38.3515625 C-88.76196945 29.91803178 -84.23582544 23.67014787 -78.17578125 17.99609375 C-74.14956592 14.72661287 -70.73226777 13.89753891 -65.61328125 13.37109375 C-62.20065324 12.85107424 -60.69148102 12.61353021 -58.453125 9.93359375 C-57.50105931 8.19388597 -56.57867401 6.43767029 -55.68359375 4.66796875 C-51.24725261 -3.19331969 -43.64098137 -7.58330164 -35.17578125 -10.00390625 C-22.12553671 -12.99904434 -9.68197891 -8.84502985 0 0 Z M-41.61328125 11.9765625 C-44.26506489 15.40399286 -45.60178944 19.32887751 -47.03515625 23.38671875 C-48.17578125 25.99609375 -48.17578125 25.99609375 -51.17578125 27.99609375 C-54.43597567 28.33587655 -57.67402165 28.43798507 -60.94921875 28.5546875 C-65.84223174 29.22407063 -68.34535124 31.00855537 -71.48828125 34.74609375 C-73.49564452 38.61212672 -73.79032391 40.69429512 -73.17578125 44.99609375 C-70.86509592 49.44630253 -68.67025372 51.8330887 -64.17578125 53.99609375 C-60.67869969 54.46918022 -60.67869969 54.46918022 -56.80273438 54.43188477 C-56.07851791 54.4419606 -55.35430145 54.45203644 -54.60813904 54.4624176 C-52.2242777 54.49081663 -49.84105099 54.49676928 -47.45703125 54.5 C-45.79463442 54.50964457 -44.13224014 54.5197373 -42.46984863 54.53025818 C-38.9897674 54.54819775 -35.50990935 54.55378125 -32.02978516 54.55200195 C-27.57384505 54.55169672 -23.11933521 54.59270084 -18.66373444 54.64431858 C-15.23213138 54.67769403 -11.80087412 54.68375928 -8.36912537 54.68217278 C-6.72646642 54.68570904 -5.08379817 54.69895755 -3.44129944 54.72216988 C-1.14279133 54.7516205 1.15261218 54.74292875 3.45117188 54.72485352 C5.41044617 54.7312661 5.41044617 54.7312661 7.40930176 54.73780823 C12.16854991 53.70410718 13.20160801 52.03156975 15.82421875 47.99609375 C15.97559575 44.21166875 15.3355065 42.6484264 13.01171875 39.68359375 C8.84581302 37.47811425 5.23056935 37.4660538 0.56640625 37.3671875 C-2.17578125 36.99609375 -2.17578125 36.99609375 -3.9921875 35.9140625 C-5.78525002 33.00847274 -5.73222812 30.2509951 -5.98828125 26.87109375 C-6.78603495 19.22863171 -8.81592161 13.56597882 -14.87890625 8.6015625 C-24.01231693 2.78004173 -33.9329267 4.95401609 -41.61328125 11.9765625 Z " fill="#961043" transform="translate(109.17578125,82.00390625)"/>
<path d="M0 0 C3.97240157 3.76368216 7.34629788 7.28792302 9.3125 12.4375 C10.7282605 15.2031584 10.7282605 15.2031584 13.3359375 15.6328125 C15.2726124 15.92464022 17.21159396 16.20147454 19.15234375 16.46484375 C26.14259817 17.77851296 31.12177001 22.46952097 35.5234375 27.8359375 C39.86759901 34.20277738 41.00694571 41.43093621 40 49 C38.00959712 57.15278017 34.86424086 64.04451188 27.53125 68.5 C20.98754523 71.88732953 15.89288761 73.14874723 8.52856445 73.17700195 C7.40820549 73.18685875 7.40820549 73.18685875 6.26521301 73.19691467 C3.79790129 73.21659394 1.33065035 73.22829951 -1.13671875 73.23828125 C-2.40517608 73.24439454 -2.40517608 73.24439454 -3.6992588 73.25063133 C-8.17702615 73.27147123 -12.65476305 73.28578078 -17.13256836 73.29516602 C-21.74134919 73.30621387 -26.34964503 73.34060079 -30.95825481 73.38033772 C-34.51606602 73.40657232 -38.07376296 73.414864 -41.63166237 73.41844749 C-43.32961101 73.42329737 -45.02755509 73.43486546 -46.72540855 73.45348549 C-56.73446136 73.55641277 -64.88708914 73.35156366 -73.3046875 67.359375 C-78.69189925 61.83815301 -81.05417334 56.80090696 -81.4375 49.0625 C-81.20347048 41.81872904 -78.12346597 35.12346597 -73 30 C-68.41944488 26.97510511 -64.31148414 25.30077163 -59 24 C-58.79375 22.72125 -58.5875 21.4425 -58.375 20.125 C-56.12516419 10.24123854 -50.15220427 2.82492483 -42 -3 C-28.17318482 -10.87170171 -12.55978564 -9.51070584 0 0 Z M-37.875 14.75 C-42.7600419 20.86740475 -43.22745444 26.9480627 -43.4609375 34.546875 C-44 37 -44 37 -45.6640625 38.80078125 C-49.37839128 40.70763566 -53.01864676 40.41909963 -57.125 40.49609375 C-60.66825894 41.11712691 -61.80515779 42.20564071 -64 45 C-65.16448881 47.90351124 -65.16448881 47.90351124 -65 51 C-63.22960551 53.74716387 -61.93708156 55.53145922 -59 57 C-56.72965011 57.11270014 -54.45593856 57.15940032 -52.18286133 57.17700195 C-51.48180267 57.18357315 -50.78074402 57.19014435 -50.05844116 57.19691467 C-47.73297012 57.21666066 -45.40756381 57.22831522 -43.08203125 57.23828125 C-42.2872254 57.24235678 -41.49241955 57.2464323 -40.67352867 57.25063133 C-36.46391433 57.27150106 -32.25433264 57.28579689 -28.04467773 57.29516602 C-23.70466931 57.30621161 -19.36517627 57.34058706 -15.02534962 57.38033772 C-11.68207372 57.40654097 -8.33891969 57.41486128 -4.99555016 57.41844749 C-3.39642558 57.42330662 -1.79730621 57.43490143 -0.19828224 57.45348549 C2.04685031 57.47794942 4.29066243 57.47689914 6.53588867 57.4699707 C7.81114914 57.47583694 9.08640961 57.48170319 10.40031433 57.48774719 C14.92725646 56.87435938 17.23588335 55.56579848 21 53 C23.70328624 48.98867203 24.7011114 45.807621 24 41 C21.87087859 37.12195743 19.82793692 34.23349047 16 32 C12.56867932 31.49716457 9.21370439 31.19583677 5.75585938 31.00390625 C3.65234375 30.8203125 3.65234375 30.8203125 0 30 C-2.35688415 27.13562941 -3.44805244 24.00774802 -4.75 20.5625 C-7.34361401 14.62292594 -11.19762306 11.25821005 -17.0625 8.625 C-25.38418521 6.85442868 -32.04183186 8.49238096 -37.875 14.75 Z " fill="#961043" transform="translate(428,8)"/>
</svg>
