<?xml version="1.0" encoding="UTF-8"?>
<svg version="1.1" xmlns="http://www.w3.org/2000/svg" width="512" height="512">
<path d="M0 0 C5.28 0 10.56 0 16 0 C16 5.28 16 10.56 16 16 C21.28 16 26.56 16 32 16 C32 21.28 32 26.56 32 32 C26.72 32 21.44 32 16 32 C14.916542 44.46334454 14.916542 44.46334454 19.45703125 55.53125 C22.38542905 58.37144304 25.65598701 60.67463766 29 63 C30.39309012 64.18743183 31.77092443 65.39326391 33.125 66.625 C33.74632812 67.16382812 34.36765625 67.70265625 35.0078125 68.2578125 C37.36020635 70.31500399 39.68034966 72.40596915 42 74.5 C44.98062721 77.18983431 47.97245233 79.86310364 51 82.5 C54.89512811 85.89253093 58.72782763 89.35194201 62.5625 92.8125 C64.69417481 94.72554149 66.8401911 96.61887612 69 98.5 C72.88461764 101.88337666 76.71090687 105.32864138 80.5234375 108.79296875 C82.12693606 110.22195406 83.7561591 111.62279124 85.4140625 112.98828125 C86.50847656 113.89126953 86.50847656 113.89126953 87.625 114.8125 C88.27726563 115.33457031 88.92953125 115.85664063 89.6015625 116.39453125 C91 118 91 118 91 122 C89.39878513 123.3245331 87.7480119 124.5895729 86.07470703 125.82177734 C79.99816682 131.71130175 79.86650633 137.08520174 79.71972847 145.28992271 C79.71440434 148.47820723 79.75875341 151.66363838 79.8046875 154.8515625 C79.80089648 157.07930644 79.79270109 159.30704685 79.78030396 161.53475952 C79.75956667 167.37149881 79.79831462 173.20635717 79.84979248 179.04284668 C79.89177653 185.00905442 79.87703832 190.97509877 79.8671875 196.94140625 C79.85619438 208.62813371 79.90809303 220.31366019 80 232 C80.63289948 231.96002899 81.26579895 231.92005798 81.9178772 231.87887573 C88.56836657 231.47738425 95.21537866 231.20797611 101.875 231.01123047 C104.35135826 230.92126902 106.82677508 230.79883116 109.29980469 230.64208984 C129.24463714 229.41062924 129.24463714 229.41062924 135.43914795 233.68182373 C139.71288282 237.86863104 142.79125861 242.6970833 145.74249268 247.87127686 C147.30013265 250.50806808 149.15825281 252.72603598 151.2109375 254.9921875 C159.19818542 264.59871263 161.51024797 271.74619538 160.45703125 284.2578125 C160.23080078 286.11019531 160.23080078 286.11019531 160 288 C154.72 288 149.44 288 144 288 C143.97255266 299.14431351 143.97452978 310.28755144 144.02846622 321.43177414 C144.05233104 326.60641189 144.06324396 331.78040484 144.04467773 336.95507812 C144.02723777 341.94809842 144.04366228 346.93995952 144.08367729 351.93283844 C144.09297912 353.83861541 144.09003023 355.74449244 144.07469368 357.65023041 C144.05530288 360.31857578 144.07927316 362.98324664 144.11352539 365.65136719 C144.0977092 366.4411496 144.08189301 367.23093201 144.06559753 368.04464722 C144.05189613 370.53660205 144.05189613 370.53660205 145 374 C147.31 375.32 149.62 376.64 152 378 C152 406.38 152 434.76 152 464 C162.56 464 173.12 464 184 464 C184 424.4 184 384.8 184 344 C189.28 344 194.56 344 200 344 C200.10109344 328.00482978 200.14889411 312.01077675 200.12697029 296.01534462 C200.11811601 288.58751006 200.12775352 281.16057643 200.18164062 273.73291016 C200.22858754 267.2552872 200.24010802 260.77871063 200.2099179 254.30097139 C200.19516039 250.87376055 200.19757813 247.44858634 200.24249649 244.021595 C201.24567698 229.44224936 201.24567698 229.44224936 196.65863037 216.18280029 C193.99018885 213.4632012 193.99018885 213.4632012 191.04782104 211.59017944 C190.3720401 211.06542023 189.69625916 210.54066101 189 210 C189.1047603 205.56581486 192.63673459 202.59239011 195.4375 199.4375 C195.97737549 198.81834717 196.51725098 198.19919434 197.07348633 197.5612793 C201.19357594 192.85494145 205.41408588 188.24380155 209.64453125 183.63671875 C211.97551739 181.0274059 214.18327187 178.3518718 216.375 175.625 C220.23724652 170.83472252 224.33819167 166.33999236 228.54272461 161.85400391 C232.5646081 157.53761621 236.30308549 153.06584956 239.96484375 148.4375 C242 146 242 146 244.703125 143.86328125 C248.14131695 139.57723584 247.78018908 135.53316285 247.8125 130.1875 C247.83763672 129.20845703 247.86277344 128.22941406 247.88867188 127.22070312 C247.9473663 124.81423171 247.97658903 122.40707326 248 120 C242.72 120 237.44 120 232 120 C232 114.72 232 109.44 232 104 C237.28 104 242.56 104 248 104 C248 98.72 248 93.44 248 88 C253.28 88 258.56 88 264 88 C264 93.28 264 98.56 264 104 C269.28 104 274.56 104 280 104 C280 109.28 280 114.56 280 120 C274.72 120 269.44 120 264 120 C262.91015732 133.22911711 262.91015732 133.22911711 267.64453125 145.125 C270.34994781 148.13441888 273.32714418 150.83346458 276.36669922 153.50048828 C278.70612776 155.64828651 280.61366288 158.06095401 282.5625 160.5625 C285.8825224 164.71100505 289.37051167 168.62525296 293 172.5 C297.43012144 177.22985714 301.57721157 182.10179685 305.6328125 187.16015625 C308.92062582 191.10444715 312.40767158 194.84891486 315.92773438 198.5859375 C321.66010336 204.69132916 321.66010336 204.69132916 323 207 C322.76406171 209.91335831 322.11614477 210.88981246 319.97274113 212.92327785 C318.75224646 213.93873983 318.75224646 213.93873983 317.50709534 214.97471619 C312.86333453 219.49572862 311.94244631 222.60523699 311.8167572 228.98898315 C311.85126732 230.6796843 311.85126732 230.6796843 311.88647461 232.40454102 C311.8754068 233.615298 311.86433899 234.82605499 311.85293579 236.07350159 C311.8314977 239.36737419 311.84946172 242.65810111 311.88552547 245.9517529 C311.91381121 249.40315591 311.89093663 252.85422725 311.87367249 256.3056488 C311.84872011 262.82932769 311.86925041 269.35202478 311.90644604 275.87561315 C311.94658161 283.30745626 311.93552135 290.73895372 311.92032993 298.17085755 C311.89024122 313.4475818 311.92570956 328.72340679 312 344 C317.28 344 322.56 344 328 344 C328 383.6 328 423.2 328 464 C330.64 464 333.28 464 336 464 C336 469.28 336 474.56 336 480 C177.6 480 19.2 480 -144 480 C-144 474.72 -144 469.44 -144 464 C-141.36 464 -138.72 464 -136 464 C-136 435.62 -136 407.24 -136 378 C-132.535 376.02 -132.535 376.02 -129 374 C-128.26791016 370.88279942 -128.05097176 368.77498621 -128.11352539 365.65136719 C-128.10274963 364.81197601 -128.09197388 363.97258484 -128.08087158 363.10775757 C-128.05348843 360.33656974 -128.07535486 357.56807147 -128.09765625 354.796875 C-128.08827308 352.87443349 -128.07581648 350.95200472 -128.06040955 349.02960205 C-128.02814112 343.97244812 -128.03764142 338.91619966 -128.05578613 333.85900879 C-128.0669322 328.69757114 -128.03865215 323.53636687 -128.01367188 318.375 C-127.970487 308.24973993 -127.97506234 298.12532173 -128 288 C-133.28 288 -138.56 288 -144 288 C-145.35371933 277.80412978 -145.78569099 269.2983641 -139.62744141 260.62817383 C-137.26696946 257.61646057 -134.85499522 254.6877271 -132.27856445 251.85766602 C-130.37655371 249.47225557 -129.02579509 247.32267702 -127.57104492 244.67163086 C-120.86126292 233.20072554 -120.86126292 233.20072554 -114.15194702 231.11434937 C-106.01228405 229.87702132 -97.86995014 230.44942403 -89.6875 230.9375 C-87.19361793 231.02289249 -84.69945414 231.10043837 -82.20507812 231.16992188 C-76.13051185 231.35610333 -70.0665811 231.63941332 -64 232 C-63.87554278 219.15141189 -63.81082982 206.30401875 -63.82121754 193.45479107 C-63.82418944 187.48740105 -63.80701488 181.52151979 -63.74291992 175.55444336 C-63.68175296 169.7895938 -63.67465534 164.02692364 -63.70416832 158.26185036 C-63.70606374 156.06870582 -63.68886743 153.87545455 -63.65177345 151.68262291 C-63.02138788 138.09664416 -63.02138788 138.09664416 -69.02546978 126.51300526 C-71.21930975 124.47151467 -73.5206016 122.67979614 -76 121 C-74.62291256 118.12953805 -73.38241642 116.16404272 -71.0234375 114.01171875 C-70.43916992 113.47385742 -69.85490234 112.93599609 -69.25292969 112.38183594 C-68.63321289 111.82270508 -68.01349609 111.26357422 -67.375 110.6875 C-66.73981445 110.10645508 -66.10462891 109.52541016 -65.45019531 108.92675781 C-61.64960333 105.46019845 -57.81586496 102.03335351 -53.921875 98.671875 C-51.58894926 96.64241927 -49.29488755 94.572353 -47 92.5 C-43.38323655 89.23609152 -39.73610392 86.01209051 -36.0625 82.8125 C-33.69035571 80.72788836 -31.34443935 78.61571356 -29 76.5 C-25.38732096 73.23977745 -21.74511009 70.01856435 -18.07421875 66.82421875 C-14.81448051 63.95736798 -11.60589216 61.03411516 -8.39453125 58.11328125 C-6 56 -6 56 -3.25 54.37109375 C0.2826427 50.64832618 -0.21871313 46.702483 -0.1875 41.75 C-0.16236328 40.81414063 -0.13722656 39.87828125 -0.11132812 38.9140625 C-0.05254658 36.6098259 -0.02338888 34.30486758 0 32 C-5.28 32 -10.56 32 -16 32 C-16 26.72 -16 21.44 -16 16 C-10.72 16 -5.44 16 0 16 C0 10.72 0 5.44 0 0 Z M-12 85 C-13.051875 85.96099609 -13.051875 85.96099609 -14.125 86.94140625 C-19.03357501 91.4164794 -23.95900535 95.8651887 -28.97265625 100.22265625 C-32.18874722 103.04215797 -35.35491249 105.91672922 -38.52734375 108.78515625 C-41.48172319 111.43149613 -44.4835572 114.01920462 -47.50390625 116.58984375 C-49.11795718 117.94913951 -49.11795718 117.94913951 -50 120 C-40.76 120 -31.52 120 -22 120 C-20.40815677 115.33908302 -18.82095905 110.67710278 -17.24536133 106.01074219 C-16.70768994 104.42291361 -16.16733285 102.83599188 -15.62426758 101.25 C-14.84533647 98.97367165 -14.07603781 96.69428517 -13.30859375 94.4140625 C-13.06282089 93.70255035 -12.81704803 92.99103821 -12.56382751 92.25796509 C-11.98529751 90.52336681 -11.48522182 88.76297701 -11 87 C-11.495 86.01 -11.495 86.01 -12 85 Z M7 85 C5.42960995 89.66181068 3.86312992 94.32490957 2.30029297 98.98925781 C1.76784386 100.57653441 1.23431935 102.16345069 0.69970703 103.75 C-0.06759689 106.02771108 -0.83105112 108.30668093 -1.59375 110.5859375 C-1.95466736 111.65320572 -1.95466736 111.65320572 -2.32287598 112.74203491 C-3.57091837 116.29348889 -3.57091837 116.29348889 -4 120 C3.92 120 11.84 120 20 120 C17.64352886 111.26660272 17.64352886 111.26660272 14.95703125 102.67578125 C14.60576172 101.62841797 14.25449219 100.58105469 13.89257812 99.50195312 C13.53615234 98.44943359 13.17972656 97.39691406 12.8125 96.3125 C12.44447266 95.21744141 12.07644531 94.12238281 11.69726562 92.99414062 C10.80095124 90.32847837 9.90182617 87.6638015 9 85 C8.34 85 7.68 85 7 85 Z M27 85 C29.08027216 93.01079385 31.53370259 100.84989689 34.1875 108.6875 C35.445625 112.420625 36.70375 116.15375 38 120 C47.24 120 56.48 120 66 120 C60.78815312 113.9187878 60.78815312 113.9187878 55.125 108.5 C54.26132813 107.736875 53.39765625 106.97375 52.5078125 106.1875 C51.68023437 105.465625 50.85265625 104.74375 50 104 C49.31679687 103.401875 48.63359375 102.80375 47.9296875 102.1875 C46.64654585 101.06540042 45.36139585 99.94559315 44.07421875 98.828125 C40.80046286 95.94278083 37.59939889 92.97715051 34.39453125 90.015625 C32.04415595 88.03716879 29.67475926 86.50128584 27 85 Z M-48 136 C-48 159.76 -48 183.52 -48 208 C-11.04 208 25.92 208 64 208 C64 184.24 64 160.48 64 136 C27.04 136 -9.92 136 -48 136 Z M252.49609375 160.45703125 C251.47012826 161.5696218 250.451038 162.68857667 249.4375 163.8125 C248.62732422 164.70001953 248.62732422 164.70001953 247.80078125 165.60546875 C243.81652576 170.00514424 240.05814831 174.55796007 236.34375 179.1875 C233.66790649 182.39851222 230.85625964 185.45012602 228 188.5 C219.04577722 197.5734742 219.04577722 197.5734742 212 208 C241.04 208 270.08 208 300 208 C296.40839211 203.21118949 293.20529452 198.97181488 289.1875 194.6875 C285.8674031 191.09031603 282.68760622 187.4435308 279.625 183.625 C275.69352053 178.75080342 271.52942799 174.15279172 267.25292969 169.58374023 C264.53940643 166.68248619 261.90654691 163.75135261 259.375 160.6875 C258.59125 159.800625 257.8075 158.91375 257 158 C254.65324056 157.76653527 254.65324056 157.76653527 252.49609375 160.45703125 Z M-48 224 C-48 234.56 -48 245.12 -48 256 C-38.12972614 253.22170069 -28.28341234 250.42189777 -18.50390625 247.33984375 C-16.28183349 246.64537623 -14.05949184 245.95177415 -11.83712769 245.25823975 C-10.36861829 244.79637655 -8.90172752 244.32933336 -7.43655396 243.85699463 C-5.34959079 243.1846028 -3.25765297 242.53031965 -1.1640625 241.87890625 C0.04813965 241.4929126 1.2603418 241.10691895 2.50927734 240.70922852 C8.71097531 239.44919686 13.94111442 241.148907 19.83203125 243.109375 C20.46230225 243.31670258 21.09257324 243.52403015 21.74194336 243.73764038 C23.07950688 244.17778741 24.4162975 244.6202894 25.75234985 245.06500244 C29.21563393 246.21654042 32.68555269 247.34759615 36.15625 248.4765625 C36.8358931 248.6977475 37.51553619 248.9189325 38.21577454 249.14682007 C43.71569139 250.92752452 49.23937656 252.58978224 54.8125 254.125 C55.53348877 254.32448242 56.25447754 254.52396484 56.99731445 254.72949219 C60.45012719 255.68390376 60.45012719 255.68390376 64 256 C64 245.44 64 234.88 64 224 C27.04 224 -9.92 224 -48 224 Z M216 224 C216 234.56 216 245.12 216 256 C242.4 256 268.8 256 296 256 C296 245.44 296 234.88 296 224 C269.6 224 243.2 224 216 224 Z M-115.95458984 254.55151367 C-117.95963117 257.83855151 -119.71077264 261.08296828 -121.07250977 264.68823242 C-122 267 -122 267 -125 272 C-110.15 272 -95.3 272 -80 272 C-80 269.69 -80 267.38 -80 265 C-79.34773438 264.87882812 -78.69546875 264.75765625 -78.0234375 264.6328125 C-77.14945313 264.46523438 -76.27546875 264.29765625 -75.375 264.125 C-74.51648438 263.96257812 -73.65796875 263.80015625 -72.7734375 263.6328125 C-69.79662182 262.9535954 -66.89663438 261.96554479 -64 261 C-64 256.71 -64 252.42 -64 248 C-92.20731005 243.98117524 -92.20731005 243.98117524 -115.95458984 254.55151367 Z M80 248 C80 252.29 80 256.58 80 261 C82.10251861 261.67184618 84.20707763 262.33730968 86.3125 263 C88.07013672 263.556875 88.07013672 263.556875 89.86328125 264.125 C92.93886676 265.13434772 92.93886676 265.13434772 96 265 C96 267.31 96 269.62 96 272 C110.85 272 125.7 272 141 272 C139.02 269.03 137.04 266.06 135 263 C133.91368286 260.95703735 133.91368286 260.95703735 132.80541992 258.87280273 C130.0506865 253.93152405 127.24518501 249.06179248 121.62213135 247.22198486 C114.86461722 246.13154751 108.10999513 246.63117997 101.3125 247.0625 C99.24308121 247.13784882 97.173398 247.20627129 95.10351562 247.26757812 C90.06241566 247.43186686 85.03414938 247.68991752 80 248 Z M-0.76635742 258.92773438 C-1.46057202 259.13589027 -2.15478662 259.34404617 -2.87003803 259.55850983 C-5.11635945 260.23307787 -7.36092281 260.91330048 -9.60546875 261.59375 C-10.99227845 262.01111619 -12.37920003 262.42811081 -13.76623535 262.84472656 C-18.90801489 264.39197869 -24.04762667 265.9464273 -29.1875 267.5 C-40.675625 270.965 -52.16375 274.43 -64 278 C-64 304.4 -64 330.8 -64 358 C-66.475 358.99 -66.475 358.99 -69 360 C-70.86498071 360.96691315 -72.71427202 361.96442013 -74.55078125 362.984375 C-75.64455078 363.59152344 -76.73832031 364.19867188 -77.86523438 364.82421875 C-79.00283203 365.45972656 -80.14042969 366.09523438 -81.3125 366.75 C-82.37662109 367.33910156 -83.44074219 367.92820312 -84.53710938 368.53515625 C-86.265958 369.49773134 -87.99412595 370.46337774 -89.68545532 371.490448 C-93.75330894 373.92385332 -97.75538265 375.67681083 -102.21826172 377.28955078 C-109.15968328 380.08334118 -115.38884236 382.91662651 -120 389 C-124.52712397 400.43892348 -122.17648146 415.64682692 -121.5 427.375 C-121.005 439.46125 -120.51 451.5475 -120 464 C-88.32 464 -56.64 464 -24 464 C-23.82975434 446.02090873 -23.82975434 446.02090873 -23.70214844 428.04150391 C-23.67275504 425.76983644 -23.64192505 423.49818692 -23.609375 421.2265625 C-23.60824707 420.06858154 -23.60711914 418.91060059 -23.60595703 417.7175293 C-23.43114578 407.69999187 -21.30876034 399.14265215 -14 392 C-4.75955504 385.13184319 4.75933953 383.83135991 16 385 C24.13092913 386.9235574 30.15189183 390.94037887 34.75 397.9375 C37.85268248 402.97418789 39.23870339 407.91781652 39.31884766 413.82177734 C39.33890869 414.95800537 39.35896973 416.0942334 39.37963867 417.26489258 C39.39099854 418.4433374 39.4023584 419.62178223 39.4140625 420.8359375 C39.43170654 421.93075439 39.44935059 423.02557129 39.4675293 424.15356445 C39.53040059 428.22722931 39.57672225 432.30113605 39.625 436.375 C39.74875 445.49125 39.8725 454.6075 40 464 C71.68 464 103.36 464 136 464 C136 439.25 136 414.5 136 389 C126.76 383.72 117.52 378.44 108 373 C102.01111738 369.52656013 96.02300698 366.05270915 90.05078125 362.55078125 C89.01050781 361.94621094 87.97023437 361.34164062 86.8984375 360.71875 C85.54758057 359.92887695 85.54758057 359.92887695 84.16943359 359.12304688 C82.11112617 357.84675935 82.11112617 357.84675935 80 358 C80 331.6 80 305.2 80 278 C62.24703408 272.95585021 62.24703408 272.95585021 44.49194336 267.91918945 C22.19612816 261.57728396 22.19612816 261.57728396 11.55688477 257.80151367 C6.96453892 256.36193844 3.73305063 257.57064182 -0.76635742 258.92773438 Z M216 272 C216 295.76 216 319.52 216 344 C242.4 344 268.8 344 296 344 C296 320.24 296 296.48 296 272 C269.6 272 243.2 272 216 272 Z M-112 288 C-112 313.41 -112 338.82 -112 365 C-107.05 362.36 -102.1 359.72 -97 357 C-95.30174072 356.36980957 -93.60348145 355.73961914 -91.85375977 355.09033203 C-87.03841884 353.28085964 -82.98264388 351.33273959 -80 347 C-77.35304775 337.98936231 -78.31770563 328.24105664 -78.83270264 318.9631958 C-79.00790881 315.47203175 -79.08544997 311.97871744 -79.16992188 308.484375 C-79.34232261 301.64513652 -79.67436527 294.84045759 -80 288 C-90.56 288 -101.12 288 -112 288 Z M96 288 C96 307.47 96 326.94 96 347 C100.5375 349.59875 105.075 352.1975 109.75 354.875 C111.17538086 355.69210449 112.60076172 356.50920898 114.06933594 357.35107422 C115.19629883 357.9957666 116.32326172 358.64045898 117.484375 359.3046875 C118.36053467 359.80754272 118.36053467 359.80754272 119.25439453 360.32055664 C122.13803844 361.96852846 125.02670331 363.51335166 128 365 C128 339.59 128 314.18 128 288 C117.44 288 106.88 288 96 288 Z M200 360 C200 394.32 200 428.64 200 464 C236.96 464 273.92 464 312 464 C312 429.68 312 395.36 312 360 C275.04 360 238.08 360 200 360 Z M-3 405 C-7.10420773 410.21345307 -8.13071441 414.45923783 -8.11352539 420.97387695 C-8.11344986 421.93449539 -8.11337433 422.89511383 -8.11329651 423.88484192 C-8.10813522 424.9089769 -8.10297394 425.93311188 -8.09765625 426.98828125 C-8.0962413 428.04661667 -8.09482635 429.10495209 -8.09336853 430.19535828 C-8.08778159 433.56776789 -8.07523144 436.94011054 -8.0625 440.3125 C-8.05748331 442.60221258 -8.0529207 444.89192621 -8.04882812 447.18164062 C-8.03866835 452.78780682 -8.01909025 458.39382866 -8 464 C2.56 464 13.12 464 24 464 C24.06909532 457.32846337 24.12876333 450.65818239 24.16479492 443.98657227 C24.17982508 441.71992776 24.20025482 439.45331206 24.22631836 437.18676758 C24.26295588 433.91740787 24.2797846 430.64843473 24.29296875 427.37890625 C24.30845261 426.37541641 24.32393646 425.37192657 24.33988953 424.33802795 C24.34142745 417.82020329 24.11693238 410.48458584 19.54777527 405.3764801 C14.80226577 401.31996907 11.60344186 400.64401156 5.5390625 400.72265625 C1.77539598 401.13376444 -0.21790187 402.4828636 -3 405 Z " fill="#961043" transform="translate(160,16)"/>
<path d="M0 0 C4.9988008 4.70359603 8.71404653 9.17065095 9.24050903 16.22077942 C9.2338472 18.04279121 9.2338472 18.04279121 9.22705078 19.90161133 C9.22734283 20.57533783 9.22763489 21.24906433 9.22793579 21.94320679 C9.22654938 24.15628214 9.21102111 26.36901516 9.1953125 28.58203125 C9.19157991 30.12188025 9.1887341 31.66173163 9.18673706 33.20158386 C9.17911994 37.24415708 9.15948808 41.28658539 9.1373291 45.32910156 C9.11322159 50.18497473 9.10408053 55.04089649 9.09242249 59.89681244 C9.07306245 67.26464224 9.03472669 74.63215443 9 82 C-6.84 82 -22.68 82 -39 82 C-39.16043524 65.10082167 -39.16043524 65.10082167 -39.1953125 57.86328125 C-39.21916734 52.93650956 -39.24730057 48.01003697 -39.30175781 43.08349609 C-39.34541523 39.10882299 -39.36917877 35.1344709 -39.37950897 31.15957642 C-39.38686487 29.64778596 -39.401229 28.13601186 -39.42292023 26.62435913 C-39.55199072 17.25150498 -39.3309024 10.34270711 -33.2109375 2.79296875 C-23.43020248 -5.75997187 -10.96023362 -7.79691416 0 0 Z M-18.75 13.0625 C-21.87165804 15.75059442 -22.85367768 18.08470123 -23.16998291 22.2250061 C-23.23177403 25.00259964 -23.22456363 27.77265196 -23.1953125 30.55078125 C-23.1924826 31.56472458 -23.18965271 32.57866791 -23.18673706 33.62333679 C-23.17556625 36.85317927 -23.15046711 40.08274171 -23.125 43.3125 C-23.1149662 45.50585536 -23.10584105 47.69921508 -23.09765625 49.89257812 C-23.07563701 55.2618262 -23.04112825 60.63086566 -23 66 C-17.72 66 -12.44 66 -7 66 C-6.92570463 59.55878203 -6.87132859 53.11781491 -6.83520508 46.67626953 C-6.82014194 44.48612115 -6.79968741 42.29600281 -6.77368164 40.10595703 C-6.73719011 36.95337497 -6.72024861 33.80119263 -6.70703125 30.6484375 C-6.69154739 29.67321136 -6.67606354 28.69798523 -6.66011047 27.69320679 C-6.65880647 22.39586589 -6.90861368 18.52555335 -10 14 C-13.49602776 12.09998491 -15.00662904 11.61619758 -18.75 13.0625 Z " fill="#961043" transform="translate(183,294)"/>
<path d="M0 0 C5.28 0 10.56 0 16 0 C16 13.2 16 26.4 16 40 C10.72 40 5.44 40 0 40 C0 26.8 0 13.6 0 0 Z " fill="#961043" transform="translate(424,304)"/>
<path d="M0 0 C5.28 0 10.56 0 16 0 C16 13.2 16 26.4 16 40 C10.72 40 5.44 40 0 40 C0 26.8 0 13.6 0 0 Z " fill="#961043" transform="translate(392,304)"/>
<path d="M0 0 C5.28 0 10.56 0 16 0 C16 13.2 16 26.4 16 40 C10.72 40 5.44 40 0 40 C0 26.8 0 13.6 0 0 Z " fill="#961043" transform="translate(192,168)"/>
<path d="M0 0 C5.28 0 10.56 0 16 0 C16 13.2 16 26.4 16 40 C10.72 40 5.44 40 0 40 C0 26.8 0 13.6 0 0 Z " fill="#961043" transform="translate(160,168)"/>
<path d="M0 0 C5.28 0 10.56 0 16 0 C16 13.2 16 26.4 16 40 C10.72 40 5.44 40 0 40 C0 26.8 0 13.6 0 0 Z " fill="#961043" transform="translate(128,168)"/>
<path d="M0 0 C5.28 0 10.56 0 16 0 C16 5.28 16 10.56 16 16 C10.72 16 5.44 16 0 16 C0 10.72 0 5.44 0 0 Z " fill="#961043" transform="translate(400,448)"/>
<path d="M0 0 C5.28 0 10.56 0 16 0 C16 5.28 16 10.56 16 16 C10.72 16 5.44 16 0 16 C0 10.72 0 5.44 0 0 Z " fill="#961043" transform="translate(440,432)"/>
<path d="M0 0 C5.28 0 10.56 0 16 0 C16 5.28 16 10.56 16 16 C10.72 16 5.44 16 0 16 C0 10.72 0 5.44 0 0 Z " fill="#961043" transform="translate(216,416)"/>
<path d="M0 0 C5.28 0 10.56 0 16 0 C16 5.28 16 10.56 16 16 C10.72 16 5.44 16 0 16 C0 10.72 0 5.44 0 0 Z " fill="#961043" transform="translate(104,416)"/>
<path d="M0 0 C5.28 0 10.56 0 16 0 C16 5.28 16 10.56 16 16 C10.72 16 5.44 16 0 16 C0 10.72 0 5.44 0 0 Z " fill="#961043" transform="translate(424,400)"/>
<path d="M0 0 C5.28 0 10.56 0 16 0 C16 5.28 16 10.56 16 16 C10.72 16 5.44 16 0 16 C0 10.72 0 5.44 0 0 Z " fill="#961043" transform="translate(208,360)"/>
<path d="M0 0 C5.28 0 10.56 0 16 0 C16 5.28 16 10.56 16 16 C10.72 16 5.44 16 0 16 C0 10.72 0 5.44 0 0 Z " fill="#961043" transform="translate(112,360)"/>
</svg>
