<?xml version="1.0" encoding="UTF-8"?>
<svg version="1.1" xmlns="http://www.w3.org/2000/svg" width="512" height="512">
<path d="M0 0 C0.639375 -0.01289063 1.27875 -0.02578125 1.9375 -0.0390625 C5.27044765 1.03404565 6.80083086 2.9451748 9 5.625 C9.56762695 9.13012695 9.56762695 9.13012695 9.48828125 13.11328125 C9.48120651 13.81647995 9.47413177 14.51967865 9.46684265 15.2441864 C9.43899212 17.47640227 9.3762832 19.70605077 9.3125 21.9375 C9.28740451 23.45634381 9.26459352 24.9752272 9.24414062 26.49414062 C9.18920007 30.20525248 9.10299739 33.91487541 9 37.625 C9.7226001 37.74705811 10.4452002 37.86911621 11.18969727 37.99487305 C16.05583414 39.08595977 20.425864 41.35311845 24.9375 43.4375 C26.00291016 43.92959961 27.06832031 44.42169922 28.16601562 44.92871094 C45.63213678 53.10335201 62.15017434 62.697642 78.44921875 72.984375 C79.38540039 73.56864258 80.32158203 74.15291016 81.28613281 74.75488281 C84 76.625 84 76.625 86.34667969 78.83105469 C95.47413903 87.09307393 106.27928169 85.60376654 117.875 85.375 C120.95973168 85.33597106 124.04346796 85.30867692 127.12844849 85.30426025 C129.03737978 85.29944249 130.94640497 85.27384124 132.85470581 85.22454834 C137.07465899 85.19477673 139.37353632 85.24802185 143.05908203 87.46582031 C145.57753472 90.26748014 146 91.86656686 146 95.625 C144.04749033 100.96871068 144.04749033 100.96871068 141.17089844 102.77099609 C138.81410636 103.6981282 136.97786423 103.93670821 134.453125 104.0390625 C133.60878906 104.07773438 132.76445312 104.11640625 131.89453125 104.15625 C131.02183594 104.1871875 130.14914062 104.218125 129.25 104.25 C128.36183594 104.28867188 127.47367188 104.32734375 126.55859375 104.3671875 C124.3726002 104.46120873 122.18660938 104.54686143 120 104.625 C120.64759277 105.13111816 121.29518555 105.63723633 121.96240234 106.15869141 C129.0864196 111.84246499 135.60380739 117.91726306 142.01660156 124.38085938 C143.62347307 125.99846287 145.24078494 127.60506913 146.859375 129.2109375 C153.35293882 135.69632685 159.27472 142.44178454 165 149.625 C165.92234125 150.70406721 166.8518193 151.77714101 167.79296875 152.83984375 C220.68715596 212.98217407 248.32426815 296.12420696 248.1875 375.5 C248.18656342 376.21421112 248.18562683 376.92842224 248.18466187 377.66427612 C248.07222548 417.64122745 241.19773164 456.60832735 229 494.625 C229.76563766 494.62055878 230.53127533 494.61611755 231.32011414 494.61154175 C238.54417592 494.57142686 245.7681835 494.54099623 252.99232769 494.52137566 C256.7061152 494.51094935 260.41981048 494.49681131 264.13354492 494.47412109 C267.71914893 494.45235144 271.30466435 494.4404227 274.89032936 494.43524551 C276.25663459 494.43155715 277.6229351 494.42435466 278.9892025 494.41353989 C280.90640895 494.39897104 282.823705 494.39818262 284.7409668 494.39794922 C285.83128708 494.393508 286.92160736 494.38906677 288.04496765 494.38449097 C292.00898584 494.707121 294.88514225 495.58702899 297.8125 498.3125 C299.51833914 501.63439726 299.45252566 503.94014818 299 507.625 C297.3619194 510.30833089 297.3619194 510.30833089 295 512.625 C292.14818192 513.25174582 292.14818192 513.25174582 288.77178955 513.2542057 C287.48440258 513.26724444 286.19701561 513.28028318 284.87061691 513.29371703 C283.4388062 513.28290631 282.00699899 513.27162301 280.57519531 513.25991821 C279.05665781 513.2656773 277.53812727 513.27361698 276.01961136 513.28355443 C271.84040325 513.30448072 267.66176398 513.29408668 263.48255348 513.27862334 C258.97803463 513.26733724 254.47361544 513.28475888 249.96911621 513.29852295 C241.14230896 513.32078928 232.31571394 513.31593909 223.48889828 513.30145974 C216.31700329 513.29018083 209.14516791 513.28863075 201.9732666 513.29407883 C200.44381247 513.29522807 200.44381247 513.29522807 198.88346028 513.29640054 C196.81227333 513.29799912 194.74108639 513.29962019 192.66989946 513.3012635 C173.23537118 513.31553095 153.8009607 513.29911266 134.36645174 513.27226166 C117.68044006 513.24992199 100.99460229 513.25380184 84.30859375 513.27685547 C64.94496673 513.30359589 45.58144304 513.31415756 26.21780014 513.29879415 C24.15411124 513.29720136 22.09042233 513.2956295 20.0267334 513.29407883 C19.01128362 513.29330745 17.99583384 513.29253607 16.94961286 513.29174132 C9.78396966 513.28741904 2.61839186 513.29472222 -4.54724121 513.30647659 C-13.2764212 513.32048062 -22.00537632 513.31674592 -30.73453045 513.29007287 C-35.19076608 513.27690634 -39.6466264 513.2718303 -44.1028595 513.28831863 C-48.17903763 513.30317296 -52.25449113 513.29510571 -56.33060312 513.26843087 C-57.80833037 513.26282656 -59.28611832 513.26572991 -60.76380682 513.27780981 C-62.7664261 513.29293035 -64.76921589 513.2744879 -66.77178955 513.2542057 C-68.44310377 513.25298806 -68.44310377 513.25298806 -70.14818192 513.25174582 C-73 512.625 -73 512.625 -75.35801315 510.30442464 C-77.52245416 506.77244959 -77.58268307 504.7037815 -77 500.625 C-74.55373949 496.60614344 -73.65621589 495.78905397 -69 494.625 C-49.2 494.625 -29.4 494.625 -9 494.625 C-9 365.595 -9 236.565 -9 103.625 C-18.24 103.625 -27.48 103.625 -37 103.625 C-42.85062241 98.94450207 -42.85062241 98.94450207 -43.375 94.3125 C-43 90.625 -43 90.625 -40.90356445 87.92504883 C-37.34321324 85.10472857 -35.65704802 85.03784035 -31.16796875 85.13671875 C-29.87568359 85.15283203 -28.58339844 85.16894531 -27.25195312 85.18554688 C-25.89711843 85.22731726 -24.54230072 85.26964191 -23.1875 85.3125 C-21.81319134 85.33759931 -20.43883884 85.36040964 -19.06445312 85.38085938 C-15.70852024 85.43973539 -12.3548191 85.5219358 -9 85.625 C-9.01110306 84.63385696 -9.02220612 83.64271393 -9.03364563 82.62153625 C-9.13502819 73.27844427 -9.20996843 63.93546396 -9.25906086 54.5919466 C-9.28514854 49.78835935 -9.32053133 44.98521634 -9.37719727 40.18188477 C-9.43154682 35.54586106 -9.46142677 30.91026448 -9.47438622 26.27394676 C-9.48362084 24.50567081 -9.50165429 22.7374181 -9.52865028 20.96932411 C-9.56498111 18.49116234 -9.56994387 16.01476243 -9.56762695 13.53637695 C-9.58560333 12.80629425 -9.60357971 12.07621155 -9.62210083 11.32400513 C-9.58225971 7.38236078 -9.11806482 5.76987021 -6.59342957 2.67204285 C-4.08000238 0.68814739 -3.12514767 -0.06300701 0 0 Z M9 56.625 C9 201.165 9 345.705 9 494.625 C75.33 494.625 141.66 494.625 210 494.625 C238.32786407 399.01845877 236.94146523 304.7728622 188.75 215.5 C179.6340102 199.05315788 168.92824397 183.16873933 157 168.625 C156.56913086 168.09938477 156.13826172 167.57376953 155.69433594 167.03222656 C141.52150096 149.8230833 126.22554903 132.42173523 108.609375 118.67578125 C106.18545987 116.77075813 103.85558475 114.78312196 101.53198242 112.7578125 C81.51001418 95.39379043 36.01743895 56.625 9 56.625 Z " fill="#961043" transform="translate(145,-0.625)"/>
<path d="M0 0 C0.96507344 -0.00657338 0.96507344 -0.00657338 1.94964331 -0.01327956 C4.11525076 -0.02668227 6.2808175 -0.03284967 8.44645691 -0.03897095 C9.99527166 -0.04687072 11.54408456 -0.05513959 13.09289551 -0.06375122 C18.18753803 -0.0899844 23.28218883 -0.10527949 28.37687683 -0.11953735 C30.12947279 -0.12489638 31.88206869 -0.13027388 33.63466454 -0.13566971 C40.92376016 -0.15729975 48.21285355 -0.17603734 55.50197315 -0.1872921 C65.95486834 -0.20353707 76.40739214 -0.2367265 86.8601473 -0.29369295 C94.20627725 -0.33236639 101.55230776 -0.35192166 108.89853686 -0.35721266 C113.28798325 -0.36086953 117.67703365 -0.372926 122.06637001 -0.4053154 C126.19591885 -0.43535087 130.32483116 -0.44172436 134.45446587 -0.42993164 C135.9698079 -0.42971053 137.48517907 -0.43804698 139.00041962 -0.45558548 C141.07062766 -0.47824258 143.13852064 -0.47000268 145.20874023 -0.45410156 C146.36667996 -0.45741171 147.52461969 -0.46072186 148.71764851 -0.46413231 C152.74533511 0.344799 154.21675548 2.03031274 156.79484558 5.15390015 C158.09342957 7.81918335 158.09342957 7.81918335 159.04093933 10.7046814 C159.40034607 11.78322388 159.75975281 12.86176636 160.13005066 13.97299194 C160.49380798 15.12581665 160.85756531 16.27864136 161.23234558 17.46640015 C161.61995056 18.6675647 162.00755554 19.86872925 162.40690613 21.10629272 C181.8314243 82.36141609 182.1177685 144.81336288 166.79484558 207.02890015 C166.57014587 207.98006714 166.34544617 208.93123413 166.11393738 209.91122437 C165.88488708 210.79310425 165.65583679 211.67498413 165.41984558 212.58358765 C165.22648621 213.34912964 165.03312683 214.11467163 164.83390808 214.90341187 C163.35074124 218.11577839 161.50494856 219.88296043 158.79484558 222.15390015 C155.61391354 222.78031254 155.61391354 222.78031254 151.95645142 222.78208923 C151.28121542 222.78918362 150.60597942 222.79627801 149.91028172 222.80358738 C147.65434055 222.82114858 145.40012677 222.80307497 143.14421082 222.78500366 C141.52436032 222.79014322 139.9045154 222.79742477 138.28468323 222.8066864 C133.89001218 222.82520277 129.49594772 222.81226117 125.10130191 222.7925961 C120.50272841 222.77621294 115.90419342 222.7850219 111.30560303 222.79011536 C103.58422655 222.79463623 95.86309233 222.77876575 88.14176941 222.75082397 C79.21263222 222.71876071 70.28393169 222.71879218 61.35476345 222.73603874 C52.76635091 222.75189657 44.17809859 222.74517582 35.58969307 222.72810173 C31.93384097 222.72122605 28.27811709 222.72226893 24.62226677 222.72964668 C20.31866619 222.73730205 16.01556326 222.72520826 11.71204758 222.69779778 C10.13181981 222.69090536 8.55154564 222.69082516 6.9713192 222.69801331 C4.81574099 222.70668954 2.66170519 222.69078629 0.5062561 222.66856384 C-1.30362211 222.66435346 -1.30362211 222.66435346 -3.15006351 222.66005802 C-6.80579224 222.05438836 -7.94870333 221.02807579 -10.20515442 218.15390015 C-11.80395577 214.95629745 -11.34936343 211.48688508 -11.34559631 207.97462463 C-11.34856744 207.11889762 -11.35153856 206.2631706 -11.35459971 205.38151246 C-11.36331193 202.49728233 -11.36479709 199.61309359 -11.36628723 196.72885132 C-11.37091362 194.66772879 -11.37593804 192.60660712 -11.3813324 190.54548645 C-11.3944757 184.93387821 -11.40090512 179.32228193 -11.40534306 173.7106607 C-11.40827069 170.20731109 -11.41237491 166.70396479 -11.41684723 163.20061684 C-11.43052729 152.24691698 -11.44019143 141.29322463 -11.44404912 130.33951682 C-11.44853118 117.68125629 -11.46608385 105.02310368 -11.49504972 92.36487597 C-11.51664385 82.58988923 -11.52675219 72.81493289 -11.52809024 63.03992254 C-11.5291399 57.19742745 -11.53508191 51.35503374 -11.55290985 45.51256371 C-11.5693513 40.01737338 -11.57156513 34.52236104 -11.56277084 29.02715492 C-11.56199836 27.00871429 -11.56637088 24.99026424 -11.5762291 22.97184753 C-11.58888692 20.21906016 -11.58310541 17.46690906 -11.57264709 14.71412659 C-11.5807035 13.91295589 -11.5887599 13.1117852 -11.59706044 12.2863366 C-11.55659029 7.7403385 -11.05260799 4.75755655 -8.20515442 1.15390015 C-5.41583024 -0.24076194 -3.12204958 0.01503879 0 0 Z M6.79484558 18.15390015 C6.79484558 29.04390015 6.79484558 39.93390015 6.79484558 51.15390015 C54.31484558 51.15390015 101.83484558 51.15390015 150.79484558 51.15390015 C150.15576475 46.04125346 149.66795887 42.14545169 148.20109558 37.41171265 C147.89300964 36.40882202 147.58492371 35.4059314 147.26750183 34.37265015 C146.78603699 32.8412439 146.78603699 32.8412439 146.29484558 31.27890015 C145.81338074 29.71268921 145.81338074 29.71268921 145.32218933 28.11483765 C143.8282166 23.02903501 143.8282166 23.02903501 141.79484558 18.15390015 C97.24484558 18.15390015 52.69484558 18.15390015 6.79484558 18.15390015 Z M6.79484558 69.15390015 C6.79484558 80.04390015 6.79484558 90.93390015 6.79484558 102.15390015 C56.95484558 102.15390015 107.11484558 102.15390015 158.79484558 102.15390015 C158.81793607 94.62510115 158.81793607 94.62510115 158.17375183 87.27890015 C158.04291199 86.27472046 157.91207214 85.27054077 157.77726746 84.2359314 C157.56940613 82.71032593 157.56940613 82.71032593 157.35734558 81.15390015 C157.22263855 80.10589233 157.08793152 79.05788452 156.94914246 77.9781189 C156.72215201 73.20562502 156.72215201 73.20562502 154.79484558 69.15390015 C152.88389619 69.0573111 150.96932692 69.03202823 149.05593872 69.03364563 C147.18593452 69.03158363 147.18593452 69.03158363 145.27815247 69.02947998 C143.88389564 69.03301959 142.48963905 69.03665441 141.09538269 69.04037476 C139.63712567 69.04065662 138.17886851 69.04049891 136.72061157 69.03993225 C132.74971073 69.03964425 128.77883983 69.04554138 124.80794597 69.05250621 C120.66259457 69.05873933 116.51724256 69.05934351 112.37188721 69.06053162 C104.51665231 69.06364506 96.66143126 69.07185861 88.80620247 69.08188111 C79.86560159 69.09304185 70.92500006 69.0985526 61.98439395 69.10357654 C43.58786837 69.11404122 25.19136179 69.13238685 6.79484558 69.15390015 Z M6.79484558 120.15390015 C6.79484558 131.04390015 6.79484558 141.93390015 6.79484558 153.15390015 C56.62484558 153.15390015 106.45484558 153.15390015 157.79484558 153.15390015 C158.56875168 148.51046355 159.06860059 144.14590233 159.35734558 139.46640015 C159.44113464 138.16315796 159.52492371 136.85991577 159.61125183 135.5171814 C159.82655693 130.40024969 159.79484558 125.27535955 159.79484558 120.15390015 C109.30484558 120.15390015 58.81484558 120.15390015 6.79484558 120.15390015 Z M6.79484558 171.15390015 C6.79484558 182.04390015 6.79484558 192.93390015 6.79484558 204.15390015 C53.32484558 204.15390015 99.85484558 204.15390015 147.79484558 204.15390015 C150.16507726 197.24384577 150.16507726 197.24384577 151.96281433 190.29452515 C152.13361511 189.48886108 152.30441589 188.68319702 152.48039246 187.8531189 C152.64603699 187.04487671 152.81168152 186.23663452 152.98234558 185.40390015 C153.15959167 184.58018921 153.33683777 183.75647827 153.51945496 182.9078064 C154.37823262 178.78965248 154.79484558 175.43332494 154.79484558 171.15390015 C105.95484558 171.15390015 57.11484558 171.15390015 6.79484558 171.15390015 Z " fill="#961043" transform="translate(181.2051544189453,255.84609985351563)"/>
<path d="M0 0 C2.67700557 1.12000125 4.86815628 2.19874437 7.3125 3.6875 C7.98837158 4.08396729 8.66424316 4.48043457 9.3605957 4.88891602 C22.87276739 12.9624194 35.71108775 22.17874081 48 32 C48.95261719 32.75925781 49.90523437 33.51851562 50.88671875 34.30078125 C56.30391342 38.67533594 61.54013625 43.20964309 66.68359375 47.90234375 C68.67524817 49.70591613 70.70021857 51.45106096 72.75 53.1875 C81.77603621 61.05540936 90.38632384 69.75933495 98 79 C98.44633789 79.53254395 98.89267578 80.06508789 99.35253906 80.61376953 C107.79673325 90.69884255 115.63577331 101.10151871 123 112 C123.68707031 113.00546875 124.37414062 114.0109375 125.08203125 115.046875 C127.4804581 118.75404531 128.89774219 121.43293397 129.6875 125.8125 C129.00199007 128.9907733 128.23871099 130.72891934 125.86239815 132.9568615 C121.54822312 135.37325247 116.18045284 134.67750168 111.37866211 134.63110352 C110.09688583 134.63825882 108.81510956 134.64541412 107.49449158 134.65278625 C103.98610218 134.67128039 100.47847396 134.658376 96.97011638 134.63869596 C93.29643942 134.6222947 89.62281011 134.63112422 85.94911194 134.63621521 C79.7812994 134.64073398 73.61379035 134.62487866 67.44604492 134.59692383 C60.31641556 134.5648584 53.18733308 134.56489367 46.05766481 134.5821386 C39.19598724 134.59800351 32.33451007 134.59127138 25.47284126 134.57420158 C22.55382512 134.5673311 19.63496962 134.56836336 16.71595573 134.57574654 C12.64097592 134.58483197 8.56684084 134.56087454 4.49194336 134.53344727 C2.67385162 134.54323608 2.67385162 134.54323608 0.81903076 134.55322266 C-0.84438103 134.53413597 -0.84438103 134.53413597 -2.54139709 134.5146637 C-3.50462922 134.51185678 -4.46786135 134.50904985 -5.46028233 134.50615788 C-8.73271306 133.85397255 -9.90978842 132.54131762 -12 130 C-13.23152559 127.53694881 -13.13124701 125.91671198 -13.14044189 123.1615448 C-13.14615204 122.13949448 -13.15186218 121.11744415 -13.15774536 120.06442261 C-13.15886322 118.93867828 -13.15998108 117.81293396 -13.16113281 116.65307617 C-13.16609772 115.47087997 -13.17106262 114.28868378 -13.17617798 113.07066345 C-13.18829935 109.82261004 -13.19574826 106.57459264 -13.20018864 103.32652068 C-13.20311881 101.29725538 -13.20722354 99.26799574 -13.21169281 97.23873329 C-13.22537023 90.8896974 -13.2350353 84.54067443 -13.2388947 78.19162482 C-13.24337418 70.86265798 -13.26091574 63.53387777 -13.2898953 56.20496768 C-13.31151628 50.54034868 -13.32159922 44.87578216 -13.32293582 39.21112233 C-13.3239837 35.82781607 -13.32988731 32.44468517 -13.34775543 29.06142235 C-13.36477405 25.28583955 -13.36294556 21.51071282 -13.35644531 17.73510742 C-13.3656601 16.61543579 -13.37487488 15.49576416 -13.3843689 14.34216309 C-13.37879974 13.31165329 -13.37323059 12.28114349 -13.36749268 11.21940613 C-13.36895924 10.32694278 -13.3704258 9.43447943 -13.3719368 8.51497173 C-12.91439128 5.42112876 -11.81115572 3.52820477 -10 1 C-6.77954211 -0.61022894 -3.49554145 -0.41908614 0 0 Z M5 25 C5 55.03 5 85.06 5 116 C37.34 116 69.68 116 103 116 C99.00156744 110.00235116 95.07948227 104.38033839 90.5 98.875 C89.89760498 98.14780762 89.29520996 97.42061523 88.67456055 96.67138672 C76.90107915 82.59575968 64.12724347 68.7457278 50 57 C49.46842285 56.55462891 48.9368457 56.10925781 48.38916016 55.65039062 C28.29323345 36.43058981 28.29323345 36.43058981 5 25 Z " fill="#961043" transform="translate(183,88)"/>
</svg>
