<?xml version="1.0" encoding="UTF-8"?>
<svg version="1.1" xmlns="http://www.w3.org/2000/svg" width="512" height="512">
<path d="M0 0 C5.06566973 1.71060862 9.00262997 4.76087463 13.18359375 7.98632812 C15.61010028 9.75910525 17.36857119 10.97755827 20.41796875 11.0859375 C24.20659509 9.49253641 27.44727445 7.27866648 30.8125 4.9375 C31.50537109 4.46505859 32.19824219 3.99261719 32.91210938 3.50585938 C34.6130648 2.3445174 36.30722395 1.1732322 38 0 C42.10088936 1.50607883 43.53509554 3.96188878 45.75 7.625 C46.36359375 8.62789062 46.9771875 9.63078125 47.609375 10.6640625 C48.06828125 11.43492188 48.5271875 12.20578125 49 13 C46.2779758 16.02798816 43.91879921 18.1849192 40.265625 20.0078125 C32.73475082 23.66776407 32.73475082 23.66776407 28.21337891 30.31640625 C27.31402573 35.89346025 27.54488018 41.38877594 28 47 C33.28 47 38.56 47 44 47 C44 65.48 44 83.96 44 103 C73.04 103 102.08 103 132 103 C132 108.28 132 113.56 132 119 C126.72 119 121.44 119 116 119 C116 126.92 116 134.84 116 143 C126.23 143 136.46 143 147 143 C152.445 159.83 152.445 159.83 158 177 C162.95796956 173.71369176 162.95796956 173.71369176 167.5859375 170.125 C168.20726562 169.61453125 168.82859375 169.1040625 169.46875 168.578125 C170.73495366 167.52987443 171.99800955 166.47780942 173.2578125 165.421875 C182.30153456 158.02246604 190.30279126 155.19882132 202 156 C209.88565908 157.13442815 215.85522735 162.17836113 222.05859375 166.8203125 C226.25161087 169.92748854 228.15971397 170.22905569 233.40185547 169.57470703 C238.16254383 168.52164742 242.28660638 166.21818574 246.5625 163.9375 C247.47580078 163.46505859 248.38910156 162.99261719 249.33007812 162.50585938 C251.56037286 161.34984273 253.78298898 160.1812337 256 159 C258.25073569 161.93540413 260.03885246 164.80790135 261.6875 168.125 C262.12449219 168.99382812 262.56148438 169.86265625 263.01171875 170.7578125 C264 173 264 173 264 175 C260.08661969 176.98571454 256.16876034 178.96242685 252.25 180.9375 C251.13882812 181.50146484 250.02765625 182.06542969 248.8828125 182.64648438 C247.81289063 183.18466797 246.74296875 183.72285156 245.640625 184.27734375 C244.65610352 184.77484131 243.67158203 185.27233887 242.65722656 185.78491211 C235.20741899 189.1915358 226.19971463 189.16953052 218.5390625 186.328125 C213.67739136 183.78509702 209.32589151 180.46057823 204.94140625 177.1796875 C200.61454396 173.97332739 198.44226899 173.39530345 193 174 C186.44727547 177.52899364 180.72571755 182.5336891 175.0625 187.3125 C173.57561641 188.56026116 172.08740104 189.80643757 170.59765625 191.05078125 C169.95320557 191.59387939 169.30875488 192.13697754 168.64477539 192.6965332 C167 194 167 194 165 195 C165.57690814 199.79012388 166.54146551 204.12702182 168.06274414 208.70239258 C168.27163489 209.33623525 168.48052565 209.97007792 168.69574642 210.62312794 C169.38674057 212.71545388 170.08597431 214.80492865 170.78515625 216.89453125 C171.27824253 218.38306015 171.77074252 219.87178337 172.26269531 221.36068726 C173.31047926 224.52865986 174.3616427 227.69548156 175.41555786 230.86141968 C177.91826228 238.38070587 180.40283329 245.90599005 182.8882122 253.43101692 C183.44289975 255.11022822 183.99779782 256.78937 184.55290413 258.46844292 C189.14134594 272.34805324 193.64070978 286.25383148 198.0625 300.1875 C204.65111724 320.92725461 211.43594027 341.59994081 218.24723434 362.26731873 C225.61779306 384.63277164 232.90724457 407.02050258 240.04101562 429.46289062 C240.34033997 430.40411774 240.63966431 431.34534485 240.94805908 432.31509399 C241.51731328 434.10556993 242.08598438 435.89623139 242.6539917 437.68710327 C243.91608862 441.65423424 245.19719575 445.61259125 246.53417969 449.55517578 C246.77095428 450.25377213 247.00772888 450.95236847 247.25167847 451.6721344 C247.87883795 453.51105791 248.51308309 455.34756077 249.14794922 457.18383789 C250 460 250 460 250 463 C253.3 463 256.6 463 260 463 C260 468.28 260 473.56 260 479 C101.6 479 -56.8 479 -220 479 C-220 473.72 -220 468.44 -220 463 C-216.7 463 -213.4 463 -210 463 C-209.7436377 461.74501709 -209.48727539 460.49003418 -209.22314453 459.19702148 C-207.98101811 453.6230623 -206.23414855 448.26123067 -204.4296875 442.84765625 C-204.07696274 441.77699921 -203.72423798 440.70634216 -203.36082458 439.60324097 C-202.60038782 437.29592637 -201.83809506 434.98922279 -201.0741272 432.68307495 C-199.22110413 427.08816481 -197.37975246 421.48942401 -195.53927803 415.89037514 C-195.11853564 414.61046062 -194.69765029 413.33059309 -194.27662468 412.05077171 C-190.53778455 400.68369249 -186.87676738 389.2929782 -183.2510376 377.88937378 C-176.46590142 356.54886956 -169.50825454 335.26796688 -162.5 314 C-155.07988914 291.48183651 -147.73387353 268.94347782 -140.5390625 246.35205078 C-139.92063651 244.41046151 -139.30214761 242.46889228 -138.68359375 240.52734375 C-138.38331268 239.58477722 -138.08303162 238.64221069 -137.77365112 237.67108154 C-132.2699494 220.41925303 -126.62794991 203.21161387 -121 186 C-124.98741412 182.55314566 -124.98741412 182.55314566 -129.875 181 C-130.79925781 180.8453125 -130.79925781 180.8453125 -131.7421875 180.6875 C-138.38990409 181.60759918 -144.54650678 187.48091926 -149.75 191.46484375 C-155.3722933 195.61881492 -160.76459441 197.29355603 -167.8125 197.1875 C-169.35744141 197.17009766 -169.35744141 197.17009766 -170.93359375 197.15234375 C-174.55714339 196.97232026 -178.08259792 196.48982719 -181.6484375 195.828125 C-185.99712076 196.14596896 -188.78765525 198.71244068 -191.66064453 201.76367188 C-193.4458384 203.84971816 -195.16738419 205.9750344 -196.875 208.125 C-197.48706299 208.88039062 -198.09912598 209.63578125 -198.72973633 210.4140625 C-201.37680896 213.68795352 -203.99516542 216.98304726 -206.58203125 220.3046875 C-207.27683594 221.19414062 -207.97164062 222.08359375 -208.6875 223 C-209.26886719 223.763125 -209.85023438 224.52625 -210.44921875 225.3125 C-212 227 -212 227 -215 228 C-217.1962951 226.59166619 -219.16069889 225.18346343 -221.1875 223.5625 C-221.74630859 223.12873047 -222.30511719 222.69496094 -222.88085938 222.24804688 C-224.26108832 221.17453547 -225.63150539 220.0884306 -227 219 C-225.70891619 216.23344582 -224.2935196 213.95037933 -222.34765625 211.6015625 C-221.82389404 210.96387939 -221.30013184 210.32619629 -220.76049805 209.66918945 C-220.20015869 208.99460693 -219.63981934 208.32002441 -219.0625 207.625 C-215.63096555 203.47058491 -212.20996769 199.3232847 -208.9765625 195.01171875 C-202.54389306 186.44740226 -196.98333864 180.0477411 -186 178 C-180.85117542 177.7212887 -175.9921842 177.6214052 -171 179 C-163.9444306 179.96841149 -160.38938752 177.03983549 -155 173 C-146.20926719 166.43809866 -138.32808517 161.56271374 -127 163 C-122.22538519 164.08419201 -118.0908334 165.27277773 -114 168 C-113.773125 166.845 -113.54625 165.69 -113.3125 164.5 C-111.7057842 157.19354786 -109.27350432 150.11965826 -107 143 C-96.77 143 -86.54 143 -76 143 C-76 135.08 -76 127.16 -76 119 C-81.28 119 -86.56 119 -92 119 C-92 113.72 -92 108.44 -92 103 C-62.96 103 -33.92 103 -4 103 C-4 84.52 -4 66.04 -4 47 C1.28 47 6.56 47 12 47 C12.77659539 40.60490582 13.45190408 34.09903609 11 28 C6.34178226 22.73356274 0.00120278 19.36371909 -6.15820312 16.11889648 C-8 15 -8 15 -9 13 C-7.68889201 11.01989841 -6.37618664 9.04088963 -5.0625 7.0625 C-4.68931641 6.49853516 -4.31613281 5.93457031 -3.93164062 5.35351562 C-1.11328125 1.11328125 -1.11328125 1.11328125 0 0 Z M12 63 C12 76.2 12 89.4 12 103 C17.28 103 22.56 103 28 103 C28 89.8 28 76.6 28 63 C22.72 63 17.44 63 12 63 Z M-60 119 C-60 126.92 -60 134.84 -60 143 C-7.2 143 45.6 143 100 143 C100 135.08 100 127.16 100 119 C47.2 119 -5.6 119 -60 119 Z M-94 159 C-95.155 162.403125 -96.31 165.80625 -97.5 169.3125 C-97.86544922 170.38153564 -98.23089844 171.45057129 -98.60742188 172.55200195 C-98.89166016 173.39722412 -99.17589844 174.24244629 -99.46875 175.11328125 C-99.76201172 175.97735596 -100.05527344 176.84143066 -100.35742188 177.73168945 C-101.13627972 180.08814103 -101.13627972 180.08814103 -101 183 C-91.1 183 -81.2 183 -71 183 C-69.2675 177.8953125 -69.2675 177.8953125 -67.5 172.6875 C-66.95182617 171.08394653 -66.95182617 171.08394653 -66.39257812 169.44799805 C-66.10833984 168.60277588 -65.82410156 167.75755371 -65.53125 166.88671875 C-65.23798828 166.02264404 -64.94472656 165.15856934 -64.64257812 164.26831055 C-63.86372028 161.91185897 -63.86372028 161.91185897 -64 159 C-73.9 159 -83.8 159 -94 159 Z M-46 159 C-48.61290297 166.89988319 -51.22102263 174.80132233 -53.82302856 182.70480061 C-55.03135753 186.37453955 -56.24133499 190.04371777 -57.45507812 193.71166992 C-58.62605884 197.25059623 -59.79271126 200.79092216 -60.95635986 204.33226585 C-61.40136439 205.68398108 -61.84793356 207.03518223 -62.29608154 208.38585854 C-62.92286542 210.27581463 -63.54360554 212.16777185 -64.1640625 214.05981445 C-64.51936035 215.13681107 -64.8746582 216.21380768 -65.24072266 217.32344055 C-66.13645414 220.01732495 -66.13645414 220.01732495 -66 223 C-58.74 223 -51.48 223 -44 223 C-44 201.88 -44 180.76 -44 159 C-44.66 159 -45.32 159 -46 159 Z M-28 159 C-28 180.12 -28 201.24 -28 223 C-22.72 223 -17.44 223 -12 223 C-11.9175 220.56625 -11.835 218.1325 -11.75 215.625 C-11.24183537 205.98159893 -9.06726735 197.90664764 -2 191 C7.24044496 184.13184319 16.75933953 182.83135991 28 184 C36.13092913 185.9235574 42.15189183 189.94037887 46.75 196.9375 C50.38985176 202.84619268 51.32933109 208.58582533 51.625 215.375 C51.74875 217.89125 51.8725 220.4075 52 223 C57.28 223 62.56 223 68 223 C68 201.88 68 180.76 68 159 C36.32 159 4.64 159 -28 159 Z M84 159 C84 180.12 84 201.24 84 223 C91.26 223 98.52 223 106 223 C104.30537556 215.35298138 104.30537556 215.35298138 102.12060547 207.92944336 C101.760383 206.82898178 101.40016052 205.7285202 101.02902222 204.5947113 C100.64561676 203.43810501 100.2622113 202.28149872 99.8671875 201.08984375 C99.47048859 199.88179581 99.07378967 198.67374786 98.66506958 197.42909241 C97.6193085 194.24706514 96.56986529 191.06630293 95.51855469 187.8861084 C94.44281191 184.62888497 93.37201704 181.37003598 92.30078125 178.11132812 C90.20503488 171.73939178 88.10441195 165.36907933 86 159 C85.34 159 84.68 159 84 159 Z M104 159 C105.31003923 164.89517654 106.66590326 170.40555941 108.625 176.0625 C109.40875 178.351875 110.1925 180.64125 111 183 C120.9 183 130.8 183 141 183 C139.68996077 177.10482346 138.33409674 171.59444059 136.375 165.9375 C135.59125 163.648125 134.8075 161.35875 134 159 C124.1 159 114.2 159 104 159 Z M-107 199 C-108.155 202.403125 -109.31 205.80625 -110.5 209.3125 C-110.86544922 210.38153564 -111.23089844 211.45057129 -111.60742188 212.55200195 C-111.89166016 213.39722412 -112.17589844 214.24244629 -112.46875 215.11328125 C-112.76201172 215.97735596 -113.05527344 216.84143066 -113.35742188 217.73168945 C-114.13627972 220.08814103 -114.13627972 220.08814103 -114 223 C-104.1 223 -94.2 223 -84 223 C-82.2675 217.8953125 -82.2675 217.8953125 -80.5 212.6875 C-79.95182617 211.08394653 -79.95182617 211.08394653 -79.39257812 209.44799805 C-79.10833984 208.60277588 -78.82410156 207.75755371 -78.53125 206.88671875 C-78.23798828 206.02264404 -77.94472656 205.15856934 -77.64257812 204.26831055 C-76.86372028 201.91185897 -76.86372028 201.91185897 -77 199 C-86.9 199 -96.8 199 -107 199 Z M117 199 C118.31003923 204.89517654 119.66590326 210.40555941 121.625 216.0625 C122.40875 218.351875 123.1925 220.64125 124 223 C133.9 223 143.8 223 154 223 C152.68996077 217.10482346 151.33409674 211.59444059 149.375 205.9375 C148.59125 203.648125 147.8075 201.35875 147 199 C137.1 199 127.2 199 117 199 Z M9 204 C3.80860184 210.59447875 4 214.53544909 4 223 C14.56 223 25.12 223 36 223 C36.14692785 212.93800962 36.14692785 212.93800962 31.53515625 204.35546875 C26.78137267 200.32230762 23.59874226 199.64407251 17.5390625 199.72265625 C13.77539598 200.13376444 11.78209813 201.4828636 9 204 Z M-120 239 C-121.155 242.403125 -122.31 245.80625 -123.5 249.3125 C-123.86544922 250.38153564 -124.23089844 251.45057129 -124.60742188 252.55200195 C-124.89166016 253.39722412 -125.17589844 254.24244629 -125.46875 255.11328125 C-125.76201172 255.97735596 -126.05527344 256.84143066 -126.35742188 257.73168945 C-127.13627972 260.08814103 -127.13627972 260.08814103 -127 263 C-117.1 263 -107.2 263 -97 263 C-95.2675 257.8953125 -95.2675 257.8953125 -93.5 252.6875 C-92.95182617 251.08394653 -92.95182617 251.08394653 -92.39257812 249.44799805 C-92.10833984 248.60277588 -91.82410156 247.75755371 -91.53125 246.88671875 C-91.23798828 246.02264404 -90.94472656 245.15856934 -90.64257812 244.26831055 C-89.86372028 241.91185897 -89.86372028 241.91185897 -90 239 C-99.9 239 -109.8 239 -120 239 Z M-68 239 C-68 273.32 -68 307.64 -68 343 C-57.44 343 -46.88 343 -36 343 C-35.96132812 339.41898438 -35.96132812 339.41898438 -35.921875 335.765625 C-35.88328594 333.41216035 -35.83818089 331.0589025 -35.79248047 328.70556641 C-35.76453361 327.09010968 -35.74319062 325.47452288 -35.72900391 323.85888672 C-35.57509169 307.30819314 -32.20122168 291.20122168 -20 279 C-4.50289415 266.18361262 11.22778092 262.26334721 31 264 C42.81140122 265.96691122 53.03327965 272.1480885 61 281 C61.46792969 281.4640625 61.93585938 281.928125 62.41796875 282.40625 C70.98821845 291.39509802 75.22036373 304.1078593 75.4140625 316.33984375 C75.44311172 317.49027916 75.44311172 317.49027916 75.4727478 318.66395569 C75.53202558 321.08836106 75.57871911 323.51281528 75.625 325.9375 C75.66322762 327.59181638 75.70228206 329.24611387 75.7421875 330.90039062 C75.83922447 334.93348957 75.91920068 338.96641307 76 343 C86.56 343 97.12 343 108 343 C108 308.68 108 274.36 108 239 C49.92 239 -8.16 239 -68 239 Z M130 239 C131.31003923 244.89517654 132.66590326 250.40555941 134.625 256.0625 C135.40875 258.351875 136.1925 260.64125 137 263 C146.9 263 156.8 263 167 263 C165.68996077 257.10482346 164.33409674 251.59444059 162.375 245.9375 C161.59125 243.648125 160.8075 241.35875 160 239 C150.1 239 140.2 239 130 239 Z M-133 279 C-134.155 282.403125 -135.31 285.80625 -136.5 289.3125 C-136.86544922 290.38153564 -137.23089844 291.45057129 -137.60742188 292.55200195 C-137.89166016 293.39722412 -138.17589844 294.24244629 -138.46875 295.11328125 C-138.76201172 295.97735596 -139.05527344 296.84143066 -139.35742188 297.73168945 C-140.13627972 300.08814103 -140.13627972 300.08814103 -140 303 C-130.1 303 -120.2 303 -110 303 C-108.2675 297.8953125 -108.2675 297.8953125 -106.5 292.6875 C-105.95182617 291.08394653 -105.95182617 291.08394653 -105.39257812 289.44799805 C-105.10833984 288.60277588 -104.82410156 287.75755371 -104.53125 286.88671875 C-104.23798828 286.02264404 -103.94472656 285.15856934 -103.64257812 284.26831055 C-102.86372028 281.91185897 -102.86372028 281.91185897 -103 279 C-112.9 279 -122.8 279 -133 279 Z M-85 279 C-87.61290297 286.89988319 -90.22102263 294.80132233 -92.82302856 302.70480061 C-94.03135753 306.37453955 -95.24133499 310.04371777 -96.45507812 313.71166992 C-97.62605884 317.25059623 -98.79271126 320.79092216 -99.95635986 324.33226585 C-100.40136439 325.68398108 -100.84793356 327.03518223 -101.29608154 328.38585854 C-101.92286542 330.27581463 -102.54360554 332.16777185 -103.1640625 334.05981445 C-103.51936035 335.13681107 -103.8746582 336.21380768 -104.24072266 337.32344055 C-105.13645414 340.01732495 -105.13645414 340.01732495 -105 343 C-98.07 343 -91.14 343 -84 343 C-84 321.88 -84 300.76 -84 279 C-84.33 279 -84.66 279 -85 279 Z M124 279 C124 300.12 124 321.24 124 343 C130.93 343 137.86 343 145 343 C143.30537556 335.35298138 143.30537556 335.35298138 141.12060547 327.92944336 C140.760383 326.82898178 140.40016052 325.7285202 140.02902222 324.5947113 C139.64561676 323.43810501 139.2622113 322.28149872 138.8671875 321.08984375 C138.47048859 319.88179581 138.07378967 318.67374786 137.66506958 317.42909241 C136.6193085 314.24706514 135.56986529 311.06630293 134.51855469 307.8861084 C133.44281191 304.62888497 132.37201704 301.37003598 131.30078125 298.11132812 C129.20503488 291.73939178 127.10441195 285.36907933 125 279 C124.67 279 124.34 279 124 279 Z M143 279 C144.31003923 284.89517654 145.66590326 290.40555941 147.625 296.0625 C148.40875 298.351875 149.1925 300.64125 150 303 C159.9 303 169.8 303 180 303 C178.68996077 297.10482346 177.33409674 291.59444059 175.375 285.9375 C174.59125 283.648125 173.8075 281.35875 173 279 C163.1 279 153.2 279 143 279 Z M-7.875 290.25 C-18.88058488 302.41265126 -20.18362045 315.79935976 -20.0625 331.5 C-20.041875 335.295 -20.02125 339.09 -20 343 C-9.44 343 1.12 343 12 343 C12 322.54 12 302.08 12 281 C4.67050705 281 -2.57826162 285.26134931 -7.875 290.25 Z M28 281 C28 301.46 28 321.92 28 343 C38.56 343 49.12 343 60 343 C60.86967289 313.76600083 60.86967289 313.76600083 46.609375 289.2734375 C41.31027103 284.6565535 35.11052277 281 28 281 Z M-146 319 C-147.155 322.403125 -148.31 325.80625 -149.5 329.3125 C-149.86544922 330.38153564 -150.23089844 331.45057129 -150.60742188 332.55200195 C-150.89166016 333.39722412 -151.17589844 334.24244629 -151.46875 335.11328125 C-151.76201172 335.97735596 -152.05527344 336.84143066 -152.35742188 337.73168945 C-153.13627972 340.08814103 -153.13627972 340.08814103 -153 343 C-143.1 343 -133.2 343 -123 343 C-121.2675 337.8953125 -121.2675 337.8953125 -119.5 332.6875 C-118.95182617 331.08394653 -118.95182617 331.08394653 -118.39257812 329.44799805 C-118.10833984 328.60277588 -117.82410156 327.75755371 -117.53125 326.88671875 C-117.23798828 326.02264404 -116.94472656 325.15856934 -116.64257812 324.26831055 C-115.86372028 321.91185897 -115.86372028 321.91185897 -116 319 C-125.9 319 -135.8 319 -146 319 Z M156 319 C157.31003923 324.89517654 158.66590326 330.40555941 160.625 336.0625 C161.40875 338.351875 162.1925 340.64125 163 343 C172.9 343 182.8 343 193 343 C191.68996077 337.10482346 190.33409674 331.59444059 188.375 325.9375 C187.59125 323.648125 186.8075 321.35875 186 319 C176.1 319 166.2 319 156 319 Z M-159 359 C-160.155 362.403125 -161.31 365.80625 -162.5 369.3125 C-162.86544922 370.38153564 -163.23089844 371.45057129 -163.60742188 372.55200195 C-163.89166016 373.39722412 -164.17589844 374.24244629 -164.46875 375.11328125 C-164.76201172 375.97735596 -165.05527344 376.84143066 -165.35742188 377.73168945 C-166.13627972 380.08814103 -166.13627972 380.08814103 -166 383 C-156.1 383 -146.2 383 -136 383 C-134.2675 377.8953125 -134.2675 377.8953125 -132.5 372.6875 C-131.95182617 371.08394653 -131.95182617 371.08394653 -131.39257812 369.44799805 C-131.10833984 368.60277588 -130.82410156 367.75755371 -130.53125 366.88671875 C-130.23798828 366.02264404 -129.94472656 365.15856934 -129.64257812 364.26831055 C-128.86372028 361.91185897 -128.86372028 361.91185897 -129 359 C-138.9 359 -148.8 359 -159 359 Z M-100 359 C-100 393.32 -100 427.64 -100 463 C-94.72 463 -89.44 463 -84 463 C-84 436.6 -84 410.2 -84 383 C-78.72 383 -73.44 383 -68 383 C-68 409.4 -68 435.8 -68 463 C-62.72 463 -57.44 463 -52 463 C-51.96132812 461.09541016 -51.96132812 461.09541016 -51.921875 459.15234375 C-51.30244984 437.78530412 -46.28690654 419.08631115 -30.84765625 403.65234375 C-22.81168239 396.16753408 -14.22414572 390.99264085 -4 387 C-3.12601562 386.65839844 -2.25203125 386.31679688 -1.3515625 385.96484375 C16.72854745 380.26510234 38.05881554 383.11762112 54.6875 391.5625 C71.57223711 400.77017003 82.56898376 415.85255627 89 433.7890625 C91.77713189 443.2686954 91.71900304 453.19417494 92 463 C97.28 463 102.56 463 108 463 C108 436.6 108 410.2 108 383 C113.28 383 118.56 383 124 383 C124 409.4 124 435.8 124 463 C129.28 463 134.56 463 140 463 C140 428.68 140 394.36 140 359 C60.8 359 -18.4 359 -100 359 Z M169 359 C170.31003923 364.89517654 171.66590326 370.40555941 173.625 376.0625 C174.40875 378.351875 175.1925 380.64125 176 383 C185.9 383 195.8 383 206 383 C204.68996077 377.10482346 203.33409674 371.59444059 201.375 365.9375 C200.59125 363.648125 199.8075 361.35875 199 359 C189.1 359 179.2 359 169 359 Z M-117 377 C-117.41889496 378.2942691 -117.41889496 378.2942691 -117.84625244 379.61468506 C-120.49339213 387.79329385 -123.14103747 395.97173874 -125.78923416 404.15000534 C-127.15029046 408.353333 -128.51115925 412.55672116 -129.87158203 416.76025391 C-131.18736609 420.82583417 -132.50366553 424.89124724 -133.82030487 428.9565506 C-134.31957664 430.49841767 -134.8186706 432.04034234 -135.31757355 433.5823288 C-136.02275113 435.76174994 -136.7286118 437.9409489 -137.43457031 440.12011719 C-137.65452793 440.80054958 -137.87448555 441.48098198 -138.10110855 442.18203354 C-139.78085089 447.36468487 -141.52842672 452.52256112 -143.31561279 457.66925049 C-144.14086958 460.07488686 -144.14086958 460.07488686 -144 463 C-134.76 463 -125.52 463 -116 463 C-116 434.62 -116 406.24 -116 377 C-116.33 377 -116.66 377 -117 377 Z M156 377 C156 405.38 156 433.76 156 463 C165.24 463 174.48 463 184 463 C182.75841221 457.41285495 181.57537918 452.34766039 179.80102539 446.98657227 C179.4859478 446.02846146 179.4859478 446.02846146 179.164505 445.05099487 C178.47958262 442.97144455 177.78862983 440.89395287 177.09765625 438.81640625 C176.61403773 437.35120718 176.13084542 435.88586738 175.64805603 434.4203949 C174.38216933 430.58110223 173.11133463 426.74346714 171.83917236 422.90625 C169.80596664 416.77068224 167.78041369 410.63258402 165.75475883 404.49452019 C165.05229583 402.36828483 164.34775168 400.24274862 163.64283752 398.11732483 C161.32248121 391.10832211 159.06055769 384.09034705 157 377 C156.67 377 156.34 377 156 377 Z M-172 399 C-173.155 402.403125 -174.31 405.80625 -175.5 409.3125 C-175.86544922 410.38153564 -176.23089844 411.45057129 -176.60742188 412.55200195 C-176.89166016 413.39722412 -177.17589844 414.24244629 -177.46875 415.11328125 C-177.76201172 415.97735596 -178.05527344 416.84143066 -178.35742188 417.73168945 C-179.13627972 420.08814103 -179.13627972 420.08814103 -179 423 C-169.1 423 -159.2 423 -149 423 C-147.2675 417.8953125 -147.2675 417.8953125 -145.5 412.6875 C-144.95182617 411.08394653 -144.95182617 411.08394653 -144.39257812 409.44799805 C-144.10833984 408.60277588 -143.82410156 407.75755371 -143.53125 406.88671875 C-143.23798828 406.02264404 -142.94472656 405.15856934 -142.64257812 404.26831055 C-141.86372028 401.91185897 -141.86372028 401.91185897 -142 399 C-151.9 399 -161.8 399 -172 399 Z M182 399 C183.31003923 404.89517654 184.66590326 410.40555941 186.625 416.0625 C187.40875 418.351875 188.1925 420.64125 189 423 C198.9 423 208.8 423 219 423 C217.68996077 417.10482346 216.33409674 411.59444059 214.375 405.9375 C213.59125 403.648125 212.8075 401.35875 212 399 C202.1 399 192.2 399 182 399 Z M28 400 C28 420.79 28 441.58 28 463 C43.84 463 59.68 463 76 463 C75.02778106 445.50005916 73.97031725 434.67609888 64 421 C63.56171875 420.36578125 63.1234375 419.7315625 62.671875 419.078125 C54.38619504 408.19693084 41.12778053 402.18796342 28 400 Z M-14 411 C-14.70769531 411.50015625 -15.41539062 412.0003125 -16.14453125 412.515625 C-26.3458491 420.48351823 -32.25513011 432.64808548 -35 445 C-35.33 450.94 -35.66 456.88 -36 463 C-20.16 463 -4.32 463 12 463 C12 442.21 12 421.42 12 400 C2.50602227 400 -6.61616608 405.57514242 -14 411 Z M-185 439 C-186.155 442.403125 -187.31 445.80625 -188.5 449.3125 C-188.86544922 450.38153564 -189.23089844 451.45057129 -189.60742188 452.55200195 C-189.89166016 453.39722412 -190.17589844 454.24244629 -190.46875 455.11328125 C-190.76201172 455.97735596 -191.05527344 456.84143066 -191.35742188 457.73168945 C-192.13627972 460.08814103 -192.13627972 460.08814103 -192 463 C-182.1 463 -172.2 463 -162 463 C-160.2675 457.8953125 -160.2675 457.8953125 -158.5 452.6875 C-157.95182617 451.08394653 -157.95182617 451.08394653 -157.39257812 449.44799805 C-157.10833984 448.60277588 -156.82410156 447.75755371 -156.53125 446.88671875 C-156.23798828 446.02264404 -155.94472656 445.15856934 -155.64257812 444.26831055 C-154.86372028 441.91185897 -154.86372028 441.91185897 -155 439 C-164.9 439 -174.8 439 -185 439 Z M195 439 C196.31003923 444.89517654 197.66590326 450.40555941 199.625 456.0625 C200.40875 458.351875 201.1925 460.64125 202 463 C211.9 463 221.8 463 232 463 C230.68996077 457.10482346 229.33409674 451.59444059 227.375 445.9375 C226.59125 443.648125 225.8075 441.35875 225 439 C215.1 439 205.2 439 195 439 Z " fill="#961043" transform="translate(236,17)"/>
</svg>
