<?xml version="1.0" encoding="UTF-8"?>
<svg version="1.1" xmlns="http://www.w3.org/2000/svg" width="512" height="512">
<path d="M0 0 C4.44459042 2.67345584 8.44789198 5.90048682 12.5 9.125 C14.09723852 10.37162915 15.69489345 11.61772496 17.29296875 12.86328125 C19.90778786 14.91169369 22.49640739 16.98234232 25.05078125 19.10546875 C30.55785645 23.65193888 30.55785645 23.65193888 37.375 24.5 C38.84510272 24.17417936 40.30503864 23.79861277 41.75 23.375 C57.70092025 19.38726994 57.70092025 19.38726994 65.1875 23.0625 C72.83278535 29.96190385 75.53749564 39.12651659 76.5 49.25 C76.13121242 56.01833683 72.35107434 61.80946926 69.19824219 67.63964844 C66.43778173 72.85343788 63.84060911 78.15132551 61.21539307 83.43414307 C59.65916273 86.56283804 58.09495567 89.68753645 56.53125 92.8125 C55.99564453 93.88371094 55.46003906 94.95492187 54.90820312 96.05859375 C54.52599609 96.82300781 54.14378906 97.58742188 53.75 98.375 C55.99743196 100.04522266 58.24762969 101.71145627 60.5 103.375 C61.17651611 103.87684814 61.85303223 104.37869629 62.55004883 104.89575195 C65.73335653 107.23865147 68.91435367 109.5263717 72.27734375 111.60546875 C78.29896885 115.3345592 82.95464583 118.23701929 84.75 125.375 C85.96901358 133.60334165 81.49320204 141.26291613 77.75 148.375 C78.40579544 148.5499147 79.06159088 148.72482941 79.73725891 148.90504456 C86.7560351 150.79571663 93.71687951 152.84005855 100.66796875 154.96484375 C101.78818924 155.30566483 102.90840973 155.6464859 104.06257629 155.99763489 C107.6880609 157.1009237 111.31286425 158.20642583 114.9375 159.3125 C135.96875192 165.73511467 135.96875192 165.73511467 157.05078125 171.98828125 C158.89367404 172.5292489 160.73653014 173.07034158 162.5793457 173.61157227 C165.13356061 174.36146977 167.68853348 175.10741636 170.24789429 175.83956909 C190.65774034 181.67850089 190.65774034 181.67850089 194.71044922 188.83862305 C197.13720438 193.94212718 198.84896448 199.25502612 200.5703125 204.62890625 C200.91504608 205.68859116 201.25977966 206.74827606 201.61495972 207.84007263 C202.70754941 211.20399935 203.79124405 214.57071834 204.875 217.9375 C205.6101258 220.20265294 206.34579768 222.46762874 207.08203125 224.73242188 C216.3437615 253.29273371 216.3437615 253.29273371 213.63671875 260.2265625 C211.32381921 264.08618367 208.58668148 266.71284868 205.25 269.6875 C204.62488525 270.25654053 203.99977051 270.82558105 203.35571289 271.41186523 C198.87374662 275.45941059 194.24225794 279.2930902 189.52734375 283.06640625 C186.32557201 285.72779458 183.28765082 288.52962246 180.25 291.375 C175.51135857 295.81334906 170.62880421 299.96642453 165.5625 304.03125 C162.35150066 306.70708278 159.29972364 309.51859707 156.25 312.375 C151.48911006 316.83374444 146.5853218 321.0129783 141.49609375 325.09765625 C138.48681042 327.5932639 135.61059714 330.21263481 132.75 332.875 C129.04138312 336.32661936 125.26494105 339.64022148 121.3125 342.8125 C116.53378372 346.65610057 112.05842313 350.74460164 107.58618164 354.93334961 C103.40682215 358.82554446 99.05065392 362.43182885 94.59375 366.00390625 C90.61681561 369.31983918 86.84289508 372.8392687 83.07617188 376.390625 C80.71211175 378.61114244 78.45655574 380.57062951 75.75 382.375 C75.19768907 384.70569783 75.19768907 384.70569783 75.125 387.42578125 C75.05796875 388.43447266 74.9909375 389.44316406 74.921875 390.48242188 C74.86515625 391.54009766 74.8084375 392.59777344 74.75 393.6875 C74.6372144 395.76762533 74.51260511 397.84715025 74.375 399.92578125 C74.32601562 400.85044189 74.27703125 401.77510254 74.2265625 402.7277832 C73.5408177 406.53696909 72.03974436 409.39657324 68.9375 411.75 C65.88006649 412.62355243 63.79430038 412.21704053 60.75 411.375 C59.08203125 410.3203125 59.08203125 410.3203125 57.75 408.375 C57.50023217 405.64242103 57.42035073 403.16192121 57.5 400.4375 C57.52078613 399.29776733 57.52078613 399.29776733 57.54199219 398.13500977 C57.59240063 395.88065879 57.66824382 393.62840484 57.75 391.375 C57.7809375 390.21742188 57.811875 389.05984375 57.84375 387.8671875 C58.35365282 377.89858731 60.96413841 372.68895209 68.3125 365.9375 C73.23167603 361.54994179 78.32319711 357.36351802 83.47265625 353.25 C85.94824192 351.27320197 85.94824192 351.27320197 88.75 348.375 C44.86 348.045 0.97 347.715 -44.25 347.375 C-42.69974087 353.80599441 -42.69974087 353.80599441 -40.54858398 359.85522461 C-40.22253677 360.64486603 -39.89648956 361.43450745 -39.56056213 362.24807739 C-39.03365028 363.50006424 -39.03365028 363.50006424 -38.49609375 364.77734375 C-38.12358994 365.67516571 -37.75108612 366.57298767 -37.36729431 367.49801636 C-36.14592595 370.43838432 -34.9167283 373.3754103 -33.6875 376.3125 C-32.82644159 378.38152821 -31.96593509 380.45078619 -31.10595703 382.52026367 C-29.34442755 386.75719204 -27.57996124 390.99287803 -25.81298828 395.22753906 C-23.47019748 400.8437058 -21.13686908 406.46373962 -18.80859375 412.0859375 C-18.45868378 412.93081726 -18.1087738 413.77569702 -17.7482605 414.6461792 C-17.0518336 416.32782943 -16.35543237 418.00949029 -15.65905762 419.69116211 C-13.93441703 423.8546493 -12.20750608 428.01719404 -10.48046875 432.1796875 C-9.96783981 433.41528412 -9.96783981 433.41528412 -9.44485474 434.67584229 C-7.20998005 440.06222903 -4.97429609 445.44827958 -2.73840332 450.83424377 C-1.17960747 454.58949737 0.37870571 458.34495115 1.93695068 462.10043335 C3.03055806 464.73553433 4.12488474 467.37033579 5.21923828 470.00512695 C8.44471627 477.77594921 11.66573955 485.54668129 14.75 493.375 C21.80607343 488.39424228 27.96478952 482.64027837 34.25927734 476.75683594 C36.16427914 474.99098101 38.1045893 473.26939651 40.0625 471.5625 C40.62678711 471.05895996 41.19107422 470.55541992 41.77246094 470.03662109 C43.75 468.375 43.75 468.375 45.79858398 467.03125 C49.38839895 464.48721338 51.42063082 462.5685787 52.61254883 458.24926758 C53.06542508 454.5557423 53.32870307 450.90464328 53.5 447.1875 C53.64548146 444.67220207 53.8062847 442.15773088 53.984375 439.64453125 C54.03819336 438.53698486 54.09201172 437.42943848 54.14746094 436.28833008 C54.87480905 432.77153712 55.9486605 431.56118482 58.75 429.375 C62.43451718 428.19909026 64.03254275 428.04018662 67.5625 429.6875 C69.75 431.375 69.75 431.375 70.75 433.375 C71.1993085 440.44921896 70.55206116 447.57932242 69.9375 454.625 C69.83211914 456.05585937 69.83211914 456.05585937 69.72460938 457.515625 C69.05154061 465.26937722 67.27393598 470.30323875 61.5625 475.8125 C60.36367188 476.97072266 60.36367188 476.97072266 59.140625 478.15234375 C56.42240978 480.67957326 53.66316652 483.14440768 50.84765625 485.5625 C48.45082688 487.63350341 46.09999818 489.75103218 43.75 491.875 C23.0825251 510.48836806 23.0825251 510.48836806 15.0625 510.75 C14.04800781 510.79898438 13.03351563 510.84796875 11.98828125 510.8984375 C7.53440051 510.17850985 4.85216678 508.64932989 1.75 505.375 C-0.30656226 502.07798964 -1.73366768 498.59664215 -3.1875 495 C-3.6422168 493.92274658 -4.09693359 492.84549316 -4.56542969 491.7355957 C-5.86222308 488.64553332 -7.13795908 485.54829873 -8.40374756 482.44549561 C-9.28740777 480.28347576 -10.17729747 478.12410969 -11.06884766 475.96533203 C-14.44586151 467.78776443 -17.8025592 459.60210282 -21.14453125 451.41015625 C-24.94886815 442.08855537 -28.80737334 432.79026724 -32.6875 423.5 C-33.29431663 422.04616169 -33.90108736 420.59230423 -34.5078125 419.13842773 C-34.81127594 418.41125046 -35.11473938 417.68407318 -35.42739868 416.93486023 C-35.7336618 416.20096573 -36.03992493 415.46707123 -36.35546875 414.7109375 C-36.81788467 413.60302605 -36.81788467 413.60302605 -37.28964233 412.47273254 C-40.98853211 403.60863741 -44.67719715 394.74030071 -48.36013794 385.86956787 C-49.11195665 384.05933351 -49.86428506 382.24931074 -50.61715698 380.43951416 C-51.66796308 377.91334575 -52.71700373 375.38645098 -53.765625 372.859375 C-54.22869804 371.74763412 -54.22869804 371.74763412 -54.7011261 370.61343384 C-55.28222939 369.21094192 -55.85760063 367.80605835 -56.42662048 366.39862061 C-56.97284311 365.05616875 -57.53637881 363.72062425 -58.1174469 362.3928833 C-60.25775997 357.25829006 -60.7039188 352.73669755 -60.68359375 347.203125 C-60.6888356 346.35828552 -60.69407745 345.51344604 -60.69947815 344.64300537 C-60.70585905 342.87155246 -60.70461277 341.10005696 -60.69604492 339.32861328 C-60.68747805 336.61805654 -60.71643998 333.90957093 -60.74804688 331.19921875 C-60.74965776 329.47135479 -60.74908352 327.74348712 -60.74609375 326.015625 C-60.75732773 325.20828918 -60.76856171 324.40095337 -60.78013611 323.56915283 C-60.73481048 319.92276349 -60.58533269 317.81565301 -58.34399414 314.87036133 C-56.09030892 313.26096154 -54.99131878 312.80714586 -52.25 312.8125 C-51.59 312.79058594 -50.93 312.76867187 -50.25 312.74609375 C-47.08474592 313.74141779 -46.03888438 315.64385588 -44.25 318.375 C-43.859375 321.70703125 -43.859375 321.70703125 -44 325.1875 C-44.03609375 326.34894531 -44.0721875 327.51039063 -44.109375 328.70703125 C-44.15578125 329.58746094 -44.2021875 330.46789062 -44.25 331.375 C-24.37803033 331.50160334 -4.50680732 331.56491351 15.36557388 331.55378246 C24.5936924 331.55007402 33.82091888 331.56673292 43.04882812 331.63208008 C51.09611513 331.68901421 59.14240704 331.70697914 67.18986297 331.6790064 C71.44768299 331.66554464 75.70350402 331.67101336 79.9610672 331.72322655 C83.97743218 331.77186411 87.99048259 331.76798178 92.00688553 331.72558594 C93.4725376 331.7190484 94.9384193 331.73092315 96.40372086 331.76363564 C103.76031823 331.91728734 109.2159868 331.45304062 114.82372451 326.56298476 C116.30932693 325.13536285 117.73466308 323.67491478 119.13888168 322.16746998 C121.66395251 319.46702381 124.28101732 317.21394682 127.1875 314.9375 C131.37237307 311.57153735 135.33314398 308.04323983 139.25 304.375 C144.01091334 299.91627805 148.91467563 295.73702376 154.00390625 291.65234375 C157.01318958 289.1567361 159.88940286 286.53736519 162.75 283.875 C166.45861688 280.42338064 170.23505895 277.10977852 174.1875 273.9375 C182.49088534 267.24899657 190.22959068 259.92553535 197.75 252.375 C197.43053406 251.3890107 197.43053406 251.3890107 197.10461426 250.38310242 C194.89343379 243.55567349 192.68834329 236.72629966 190.48681641 229.89575195 C189.66433145 227.34495086 188.83967689 224.7948664 188.01318359 222.24536133 C186.82761012 218.58545473 185.64762924 214.92378624 184.46875 211.26171875 C184.09689575 210.1178923 183.7250415 208.97406586 183.34191895 207.795578 C183.00156616 206.73470474 182.66121338 205.67383148 182.31054688 204.58081055 C182.0085437 203.64593307 181.70654053 202.7110556 181.39538574 201.74784851 C180.75 199.375 180.75 199.375 180.75 196.375 C180.20185733 196.2728846 179.65371466 196.1707692 179.0889616 196.06555939 C174.23503344 195.08521274 169.8838254 193.72369973 165.35011482 191.74749756 C120.49616552 172.39602437 71.40823405 176.28457603 23.62924683 176.77719021 C11.61875453 176.8977289 -0.39145011 176.92331188 -12.40246356 176.94306469 C-37.01929367 176.9855673 -61.63429843 177.1406089 -86.25 177.375 C-85.75016602 178.33369995 -85.75016602 178.33369995 -85.24023438 179.31176758 C-83.72024744 182.25900099 -82.23519181 185.22259006 -80.75 188.1875 C-80.22535156 189.19232422 -79.70070312 190.19714844 -79.16015625 191.23242188 C-75.7906536 198.03706684 -74.11091316 203.75750747 -75.25 211.375 C-77.59436825 216.53261015 -81.07056649 219.26525231 -86.25 221.375 C-89.83920608 222.07926668 -93.4152755 222.33848138 -97.0625 222.5625 C-98.94424362 222.69863696 -100.825771 222.83780763 -102.70703125 222.98046875 C-103.9441687 223.06010864 -103.9441687 223.06010864 -105.20629883 223.14135742 C-107.31362477 223.26400933 -107.31362477 223.26400933 -109.25 224.375 C-108.92 225.365 -108.59 226.355 -108.25 227.375 C-105.39747616 228.48707925 -105.39747616 228.48707925 -102 229.3125 C-97.15175361 230.57940601 -93.91260503 231.90172749 -90.25 235.375 C-87.62471127 240.17294146 -86.6556227 243.92654139 -87.25 249.375 C-88.23422146 251.38281177 -89.23234073 253.38392752 -90.25 255.375 C-90.03310021 259.64973342 -87.12874492 261.79544792 -84.1875 264.625 C-83.26839844 265.51703125 -82.34929687 266.4090625 -81.40234375 267.328125 C-80.69207031 268.00359375 -79.98179688 268.6790625 -79.25 269.375 C-78.63125 268.79492188 -78.63125 268.79492188 -78 268.203125 C-72.7600582 263.47782034 -67.42341096 259.25723991 -60.125 258.9375 C-54.58909245 259.56252182 -51.11317225 261.16424132 -47.4375 265.3125 C-43.70811401 270.53364039 -43.97894053 275.58079261 -43.875 281.8125 C-43.83761719 282.65876953 -43.80023438 283.50503906 -43.76171875 284.37695312 C-43.69852206 288.86040745 -43.78249069 290.76285989 -46.5859375 294.43359375 C-49.25 296.375 -49.25 296.375 -52.25 297 C-55.23752603 296.37759874 -57.19046879 295.70308539 -59.28125 293.41796875 C-61.58558817 288.55841688 -61.17129955 282.66223918 -61.25 277.375 C-61.94867188 277.94089844 -62.64734375 278.50679688 -63.3671875 279.08984375 C-64.27726562 279.82332031 -65.18734375 280.55679687 -66.125 281.3125 C-67.02992187 282.04339844 -67.93484375 282.77429688 -68.8671875 283.52734375 C-72.14986619 286.07276509 -73.90324438 286.55051353 -78 286.625 C-78.84046875 286.65078125 -79.6809375 286.6765625 -80.546875 286.703125 C-88.20994372 285.77292591 -92.85061387 280.22887923 -98 275 C-98.76699219 274.24460937 -99.53398438 273.48921875 -100.32421875 272.7109375 C-101.05769531 271.97359375 -101.79117188 271.23625 -102.546875 270.4765625 C-103.21041992 269.80963379 -103.87396484 269.14270508 -104.55761719 268.45556641 C-107.84692275 264.41178943 -108.63355351 260.56385444 -108.515625 255.375 C-108.06693599 251.99663572 -106.67987358 248.80487358 -104.25 246.375 C-105.13042969 246.14425781 -106.01085937 245.91351563 -106.91796875 245.67578125 C-114.81348449 243.45872744 -119.35950961 241.71073559 -124 234.75 C-126.52406934 229.95426825 -126.94505223 225.67809224 -125.82421875 220.3515625 C-124.09748726 214.82178435 -121.17942998 211.39851677 -116.25 208.375 C-110.06698451 206.09704693 -103.77633998 205.96471163 -97.2265625 205.62109375 C-94.32382292 205.56690965 -94.32382292 205.56690965 -92.25 204.375 C-92.58322266 203.68986328 -92.91644531 203.00472656 -93.25976562 202.29882812 C-94.77268708 199.16507055 -96.26142545 196.02039095 -97.75 192.875 C-98.27464844 191.79734375 -98.79929687 190.7196875 -99.33984375 189.609375 C-102.75103817 182.34397389 -104.90132117 177.05374332 -102.125 169.1875 C-98.35534974 163.53302462 -93.5814411 160.78158368 -87.390625 158.26171875 C-86.76017273 158.00244095 -86.12972046 157.74316315 -85.48016357 157.47602844 C-84.16120506 156.9358959 -82.84014047 156.40087956 -81.51708984 155.87084961 C-79.48709018 155.05732638 -77.46395597 154.22833556 -75.44140625 153.39648438 C-65.57977272 149.375 -65.57977272 149.375 -63.25 149.375 C-63.02183594 148.86195313 -62.79367188 148.34890625 -62.55859375 147.8203125 C-60.74526058 144.4318153 -58.54423472 141.37378453 -56.3125 138.25 C-55.64831055 137.30060547 -55.64831055 137.30060547 -54.97070312 136.33203125 C-52.89273551 133.41482485 -51.25897408 131.38098272 -48.25 129.375 C-45.375 128.9375 -45.375 128.9375 -42.25 129.375 C-39.09711807 131.70539099 -37.46689348 133.12831818 -36.78515625 137.046875 C-37.44629314 141.78039294 -39.77241386 144.70717168 -42.5625 148.5 C-43.31176758 149.55380859 -43.31176758 149.55380859 -44.07617188 150.62890625 C-46.42070776 153.91436184 -48.82806033 157.1457471 -51.25 160.375 C-12.64 160.375 25.97 160.375 65.75 160.375 C64.43 158.395 63.11 156.415 61.75 154.375 C59.37161547 147.38849544 61.64194576 141.7222926 64.75 135.375 C65.74525787 133.37263595 66.74422385 131.37210149 67.75 129.375 C62.84930387 125.72749644 57.94098089 122.12552673 52.8203125 118.79296875 C52.15588135 118.35968262 51.4914502 117.92639648 50.80688477 117.47998047 C49.50218415 116.63445653 48.19291616 115.79592865 46.87866211 114.96533203 C42.14765298 111.89653549 38.59160542 108.89981625 36.75 103.375 C35.42198134 94.66909988 39.32416672 88.51643543 43.29736328 81.09570312 C46.02484462 75.98729101 48.70186463 70.85458376 51.33953857 65.69937134 C52.29997191 63.83679582 53.28160062 61.98647203 54.26416016 60.13549805 C54.85890137 58.97574463 55.45364258 57.81599121 56.06640625 56.62109375 C56.60724854 55.58654053 57.14809082 54.5519873 57.70532227 53.48608398 C58.9805361 49.68845606 58.57111016 47.25865998 57.75 43.375 C57.564375 42.240625 57.37875 41.10625 57.1875 39.9375 C56.9709375 38.6690625 56.9709375 38.6690625 56.75 37.375 C54.99236328 37.808125 54.99236328 37.808125 53.19921875 38.25 C32.17483324 43.29047601 32.17483324 43.29047601 25.68359375 40.48046875 C23.22110823 38.93382225 21.02100034 37.19441814 18.75 35.375 C17.41136408 34.35606911 16.06995823 33.34077213 14.7265625 32.328125 C8.56563812 27.66780779 2.46734377 22.98252522 -3.4375 18 C-6.08408746 15.96066014 -6.83932015 15.40066749 -10.25 15.1875 C-13.62444843 16.52321917 -16.93395932 17.95046212 -20.19921875 19.53515625 C-22.25 20.375 -22.25 20.375 -25.25 20.375 C-24.62351562 21.12265625 -23.99703125 21.8703125 -23.3515625 22.640625 C-22.53429687 23.62546875 -21.71703125 24.6103125 -20.875 25.625 C-20.06289062 26.59953125 -19.25078125 27.5740625 -18.4140625 28.578125 C-14.2916095 33.90606064 -13.5649276 37.74625479 -14.25 44.375 C-15.06873274 48.02623444 -16.16711519 51.56440244 -17.3125 55.125 C-17.89729621 56.94976891 -18.4719125 58.77783885 -19.03515625 60.609375 C-19.29176025 61.40569336 -19.54836426 62.20201172 -19.81274414 63.02246094 C-20.33260875 65.81945447 -20.05864523 67.65639334 -19.25 70.375 C-17.66092093 72.66473122 -16.07328405 74.79146727 -14.3125 76.9375 C-9.41182504 83.00269178 -6.68175123 86.809476 -6.87890625 94.73046875 C-8.147173 103.76853811 -16.01414278 112.13914278 -22.25 118.375 C-25.25887945 118.7147122 -27.34715473 118.92465117 -30.25 118.375 C-32.8125 116.3125 -32.8125 116.3125 -34.25 113.375 C-34.02162985 107.43737605 -32.12572403 104.0235538 -28.6875 99.4375 C-28.05038086 98.55481445 -28.05038086 98.55481445 -27.40039062 97.65429688 C-26.3620372 96.21926911 -25.3076415 94.79587191 -24.25 93.375 C-26.24830577 88.72751172 -29.58079316 84.98624141 -32.70507812 81.06445312 C-36.70250675 75.97521579 -37.68289096 72.37123756 -37.69140625 66.02734375 C-36.99380213 60.2551327 -35.11687093 54.84769764 -33.20874023 49.36938477 C-31.53617081 44.53730024 -31.53617081 44.53730024 -31.81640625 39.53515625 C-33.4306349 37.10281717 -35.21489427 35.2165814 -37.3125 33.1875 C-41.02013124 29.13607023 -42.38222781 26.22088042 -42.484375 20.73046875 C-41.97706717 15.63202509 -40.3869749 12.4596601 -36.703125 8.9453125 C-27.41958987 1.48224363 -11.30370402 -5.65185201 0 0 Z " fill="#961043" transform="translate(138.25,1.625)"/>
<path d="M0 0 C0.88544495 0.38246887 1.77088989 0.76493774 2.6831665 1.15899658 C4.5404739 1.96500873 6.39590552 2.77535594 8.24951172 3.58984375 C11.07698855 4.8276275 13.91479095 6.03919361 16.75390625 7.25 C18.56579243 8.04009016 20.37701454 8.83170534 22.1875 9.625 C23.45167755 10.15972931 23.45167755 10.15972931 24.74139404 10.70526123 C30.00582764 13.05645725 33.03576732 15.31298788 36.328125 20.078125 C37.17578125 22.421875 37.17578125 22.421875 37.390625 24.578125 C37.48472656 25.2896875 37.57882812 26.00125 37.67578125 26.734375 C36.76670461 32.86298156 31.32862181 37.36321658 27.078125 41.515625 C26.5011084 42.08692139 25.9240918 42.65821777 25.32958984 43.24682617 C22.28902486 46.23587781 19.20159306 49.12624238 15.953125 51.890625 C14.74075394 52.94851541 13.53284156 54.01152587 12.328125 55.078125 C11.73789551 55.58287354 11.14766602 56.08762207 10.53955078 56.60766602 C4.23435396 62.76381823 3.61657243 69.77206544 2.578125 78.203125 C2.22271992 80.87472477 1.84769032 83.54245564 1.46875 86.2109375 C1.31954102 87.38543457 1.17033203 88.55993164 1.01660156 89.77001953 C0.09395729 94.20329252 -1.28002114 97.81675744 -4.671875 100.890625 C-7.97447627 102.8515445 -10.60217461 103.19507718 -14.359375 103.140625 C-15.16761719 103.13160156 -15.97585938 103.12257813 -16.80859375 103.11328125 C-17.42347656 103.10167969 -18.03835938 103.09007812 -18.671875 103.078125 C-18.72794922 103.93470703 -18.72794922 103.93470703 -18.78515625 104.80859375 C-20.38291082 124.51423342 -20.38291082 124.51423342 -26.671875 131.078125 C-30.76925825 133.72367954 -34.94162701 133.97912462 -39.671875 133.078125 C-43.54093471 130.98380094 -46.64997972 128.27470324 -49.5 124.9375 C-52.3520178 122.49584447 -54.40421039 122.42079918 -58.109375 122.078125 C-63.22882657 121.60355243 -66.01596358 120.79206676 -69.671875 117.078125 C-72.3711832 112.5901186 -71.96855705 107.65868773 -71.921875 102.578125 C-71.93347656 101.31548828 -71.93347656 101.31548828 -71.9453125 100.02734375 C-71.93137858 95.60332423 -71.74809227 92.09873622 -69.671875 88.078125 C-70.57111694 88.07981689 -70.57111694 88.07981689 -71.48852539 88.08154297 C-74.23824846 88.06934202 -76.98526164 88.01157791 -79.734375 87.953125 C-80.67732422 87.95570313 -81.62027344 87.95828125 -82.59179688 87.9609375 C-88.29580703 87.8019407 -92.05528204 87.1355129 -96.1628418 83.02246094 C-99.09019726 79.2506669 -101.05297587 75.08337586 -103.046875 70.765625 C-103.98752471 68.79979488 -104.9302605 66.83496168 -105.875 64.87109375 C-106.57206055 63.41002197 -106.57206055 63.41002197 -107.28320312 61.91943359 C-109.66985001 57.03620637 -112.28531423 52.27439648 -114.94287109 47.53393555 C-117.62903163 42.60722463 -119.18586957 38.59669841 -118.046875 33.015625 C-116.18141925 29.03033317 -113.64641956 26.06539728 -109.671875 24.078125 C-106.11722489 23.73066578 -102.55378512 23.70727851 -98.984375 23.640625 C-98.00275391 23.59486328 -97.02113281 23.54910156 -96.00976562 23.50195312 C-91.16387467 23.42720095 -87.62333695 23.52718144 -83.73828125 26.6171875 C-80.44199128 29.94698737 -78.400559 33.74648386 -76.296875 37.890625 C-73.62807266 42.97184188 -73.62807266 42.97184188 -69.09765625 46.2734375 C-66.36631683 46.6256033 -66.36631683 46.6256033 -62.671875 46.078125 C-62.72408203 44.593125 -62.72408203 44.593125 -62.77734375 43.078125 C-62.8055124 41.74480884 -62.83280922 40.41147406 -62.859375 39.078125 C-62.89417969 37.77875 -62.92898438 36.479375 -62.96484375 35.140625 C-62.79153535 30.15212092 -61.75115021 25.38995323 -58.33813477 21.59521484 C-56.7362442 20.2150065 -55.08720051 18.98419419 -53.359375 17.765625 C-52.09985341 16.82867188 -50.84075108 15.89115494 -49.58203125 14.953125 C-48.93637207 14.48132813 -48.29071289 14.00953125 -47.62548828 13.5234375 C-44.45670124 11.17912117 -41.38335235 8.71657701 -38.296875 6.265625 C-37.13488621 5.35448382 -35.97215326 4.44429071 -34.80859375 3.53515625 C-32.9288445 2.06272502 -31.05451996 0.58326876 -29.19140625 -0.91015625 C-19.33754976 -8.65643368 -10.67893173 -4.66444688 0 0 Z M-24.234375 16.015625 C-25.15766602 16.71848633 -25.15766602 16.71848633 -26.09960938 17.43554688 C-27.64381237 18.62405305 -29.16036205 19.84831265 -30.671875 21.078125 C-30.671875 21.408125 -30.671875 21.738125 -30.671875 22.078125 C-18.131875 22.078125 -5.591875 22.078125 7.328125 22.078125 C4.70171434 20.32718456 2.36060645 19.14667568 -0.5234375 17.9140625 C-1.45671875 17.51445312 -2.39 17.11484375 -3.3515625 16.703125 C-4.32351563 16.290625 -5.29546875 15.878125 -6.296875 15.453125 C-7.2765625 15.03289062 -8.25625 14.61265625 -9.265625 14.1796875 C-16.89867359 10.92348394 -17.61354472 10.90174872 -24.234375 16.015625 Z M-46.671875 38.078125 C-47.001875 43.358125 -47.331875 48.638125 -47.671875 54.078125 C-52.36455515 59.94397519 -52.36455515 59.94397519 -57.671875 61.078125 C-60.65799225 61.35991453 -63.61141565 61.40306467 -66.609375 61.390625 C-67.76856445 61.41479492 -67.76856445 61.41479492 -68.95117188 61.43945312 C-74.1563109 61.44385307 -78.15399746 60.90717689 -82.671875 58.078125 C-85.45140639 54.43840469 -87.45633769 50.37535122 -89.57617188 46.33007812 C-90.83097257 44.08015329 -91.98874619 42.02985675 -93.671875 40.078125 C-96.90600573 39.3392904 -96.90600573 39.3392904 -99.671875 40.078125 C-98.23061836 43.85736243 -96.5338204 47.41241529 -94.66796875 51 C-93.80461914 52.66095703 -93.80461914 52.66095703 -92.92382812 54.35546875 C-92.32505859 55.50144531 -91.72628906 56.64742187 -91.109375 57.828125 C-90.50673828 58.98957031 -89.90410156 60.15101563 -89.28320312 61.34765625 C-86.92919536 66.52216361 -86.92919536 66.52216361 -83.671875 71.078125 C-81.97423593 71.19951916 -80.27199899 71.25778888 -78.5703125 71.2890625 C-76.99830078 71.33160156 -76.99830078 71.33160156 -75.39453125 71.375 C-73.18635544 71.42653269 -70.97800085 71.4709608 -68.76953125 71.5078125 C-62.68305732 71.68617071 -58.01061207 72.05018457 -52.671875 75.078125 C-49.81441406 78.30192708 -48.78136761 80.31167673 -48.171875 84.578125 C-48.83671051 89.23197356 -50.69566869 92.40119994 -54.296875 95.45703125 C-56.14306554 97.63364794 -55.98152921 98.95607824 -55.859375 101.765625 C-55.83230469 102.57386719 -55.80523437 103.38210937 -55.77734375 104.21484375 C-55.72513672 105.13716797 -55.72513672 105.13716797 -55.671875 106.078125 C-55.09179688 106.10390625 -54.51171875 106.1296875 -53.9140625 106.15625 C-48.39627211 106.55688165 -45.12035047 107.56072579 -40.671875 111.078125 C-39.34055934 112.08080959 -38.00759686 113.08131765 -36.671875 114.078125 C-36.42953125 112.84835938 -36.1871875 111.61859375 -35.9375 110.3515625 C-35.5996472 108.71860732 -35.26106692 107.08580254 -34.921875 105.453125 C-34.76460938 104.64488281 -34.60734375 103.83664063 -34.4453125 103.00390625 C-33.24342908 97.31807314 -31.77372212 92.19978843 -26.71875 88.7421875 C-24.42746644 87.99883215 -22.32071872 87.66478768 -19.921875 87.453125 C-19.12265625 87.37835938 -18.3234375 87.30359375 -17.5 87.2265625 C-16.89671875 87.17757812 -16.2934375 87.12859375 -15.671875 87.078125 C-13.24412106 79.61224451 -12.38362846 71.91117374 -11.34765625 64.15039062 C-10.10470024 55.70738459 -8.36977724 50.95002239 -1.609375 45.453125 C1.30273415 43.07201464 2.99130299 41.19388769 5.328125 38.078125 C-11.831875 38.078125 -28.991875 38.078125 -46.671875 38.078125 Z " fill="#961043" transform="translate(462.671875,140.921875)"/>
<path d="M0 0 C11.32847053 9.82029291 19.69619314 21.69499425 21.26953125 36.92578125 C22.3362448 53.09792064 18.73953856 67.79982168 7.95703125 80.23828125 C-3.99702342 92.69125306 -16.89625678 98.81914972 -34.16796875 99.23828125 C-47.48329503 98.99812506 -62.29006833 94.09221044 -72.15234375 84.703125 C-83.98696242 71.37453219 -89.44821841 57.61715181 -88.97265625 39.91796875 C-88.05929047 24.86216503 -81.49201698 12.56665122 -70.5546875 2.30078125 C-50.41622853 -14.63446502 -21.18435882 -16.09283911 0 0 Z M-25.73046875 5.92578125 C-25.73046875 13.84578125 -25.73046875 21.76578125 -25.73046875 29.92578125 C-22.45109375 28.06953125 -22.45109375 28.06953125 -19.10546875 26.17578125 C-18.42919434 25.79454102 -17.75291992 25.41330078 -17.05615234 25.02050781 C-13.16470182 22.8068559 -9.42749906 20.45113734 -5.73046875 17.92578125 C-10.73050562 10.75906174 -17.24132613 7.62360977 -25.73046875 5.92578125 Z M-61.73046875 16.92578125 C-58.31453883 20.75443278 -54.42286888 23.11701943 -50.04296875 25.67578125 C-49.35396484 26.08699219 -48.66496094 26.49820313 -47.95507812 26.921875 C-45.02471975 28.99709794 -45.02471975 28.99709794 -41.73046875 29.92578125 C-41.73046875 22.00578125 -41.73046875 14.08578125 -41.73046875 5.92578125 C-49.68889621 5.92578125 -56.40373261 11.62880341 -61.73046875 16.92578125 Z M-70.73046875 31.92578125 C-73.76090806 38.74426971 -73.62773698 46.56102538 -71.73046875 53.67578125 C-71.40046875 54.41828125 -71.07046875 55.16078125 -70.73046875 55.92578125 C-66.12778593 54.28132758 -62.09216124 51.9263023 -57.91796875 49.42578125 C-56.87866211 48.82056641 -56.87866211 48.82056641 -55.81835938 48.203125 C-54.0862343 47.16896954 -52.40316311 46.05353493 -50.73046875 44.92578125 C-50.73046875 44.26578125 -50.73046875 43.60578125 -50.73046875 42.92578125 C-52.40894968 41.59957988 -52.40894968 41.59957988 -54.59765625 40.32421875 C-55.80228516 39.58945313 -55.80228516 39.58945313 -57.03125 38.83984375 C-57.88074219 38.33195312 -58.73023438 37.8240625 -59.60546875 37.30078125 C-60.86810547 36.52734375 -60.86810547 36.52734375 -62.15625 35.73828125 C-66.17564907 32.98592788 -66.17564907 32.98592788 -70.73046875 31.92578125 Z M-2.86328125 34.33203125 C-3.66894531 34.82832031 -4.47460938 35.32460937 -5.3046875 35.8359375 C-6.14644531 36.36058594 -6.98820312 36.88523437 -7.85546875 37.42578125 C-8.70496094 37.95042969 -9.55445313 38.47507812 -10.4296875 39.015625 C-12.53243 40.31507261 -14.63252917 41.61859865 -16.73046875 42.92578125 C-15.57471555 46.39304086 -15.01894024 46.64368774 -11.984375 48.40625 C-11.22962891 48.84775391 -10.47488281 49.28925781 -9.69726562 49.74414062 C-8.90384766 50.19595703 -8.11042969 50.64777344 -7.29296875 51.11328125 C-6.10864258 51.8084082 -6.10864258 51.8084082 -4.90039062 52.51757812 C-1.05250836 55.00732663 -1.05250836 55.00732663 3.26953125 55.92578125 C6.29997056 49.10729279 6.16679948 41.29053712 4.26953125 34.17578125 C3.93953125 33.43328125 3.60953125 32.69078125 3.26953125 31.92578125 C0.6051999 31.92578125 -0.60230539 32.93086311 -2.86328125 34.33203125 Z M-52.35546875 63.73828125 C-53.15726563 64.19009766 -53.9590625 64.64191406 -54.78515625 65.10742188 C-55.543125 65.54892578 -56.30109375 65.99042969 -57.08203125 66.4453125 C-57.78150879 66.84854736 -58.48098633 67.25178223 -59.20166016 67.66723633 C-59.70616699 68.08255615 -60.21067383 68.49787598 -60.73046875 68.92578125 C-61.04965152 71.85809015 -61.04965152 71.85809015 -59.515625 73.390625 C-54.44945095 77.72157197 -48.61544904 81.92578125 -41.73046875 81.92578125 C-41.73046875 74.33578125 -41.73046875 66.74578125 -41.73046875 58.92578125 C-45.61888887 58.92578125 -49.06899822 61.82028425 -52.35546875 63.73828125 Z M-25.73046875 58.92578125 C-25.73046875 66.51578125 -25.73046875 74.10578125 -25.73046875 81.92578125 C-18.64059573 80.30189978 -18.64059573 80.30189978 -12.91796875 77.05078125 C-12.18964844 76.55835938 -11.46132812 76.0659375 -10.7109375 75.55859375 C-8.6545511 73.86319036 -7.23371167 72.1166274 -5.73046875 69.92578125 C-7.79275129 68.65459392 -9.85528766 67.3838216 -11.91796875 66.11328125 C-12.49611328 65.75685547 -13.07425781 65.40042969 -13.66992188 65.03320312 C-15.35543868 63.9952295 -17.042929 62.96046272 -18.73046875 61.92578125 C-19.65472656 61.34441406 -20.57898438 60.76304687 -21.53125 60.1640625 C-23.60028055 58.76223838 -23.60028055 58.76223838 -25.73046875 58.92578125 Z " fill="#961043" transform="translate(219.73046875,212.07421875)"/>
</svg>
