<?xml version="1.0" encoding="UTF-8"?>
<svg version="1.1" xmlns="http://www.w3.org/2000/svg" width="512" height="512">
<path d="M0 0 C4.45977125 1.15262145 8.77498315 2.66788798 13.1171875 4.19921875 C14.38186786 4.63652504 15.6468583 5.07293549 16.91213989 5.50849915 C19.55565387 6.42142935 22.19609728 7.34259015 24.83447266 8.27026367 C28.18730992 9.44880544 31.54569228 10.61043581 34.90640068 11.76631451 C37.51825224 12.66602694 40.12758123 13.57287604 42.73617935 14.48197365 C44.56618017 15.11896402 46.39767924 15.75164496 48.22921753 16.38420105 C67.06317911 23.02452448 67.06317911 23.02452448 72.375 29.125 C72.98085937 29.78757812 73.58671875 30.45015625 74.2109375 31.1328125 C79.53742228 39.669144 80.65921056 48.43435564 81.125 58.3125 C81.24547925 60.57981691 81.37285446 62.84678008 81.5078125 65.11328125 C81.55566895 66.10110596 81.60352539 67.08893066 81.65283203 68.10668945 C82.23415762 72.95147816 83.64766537 76.93544762 86.546875 80.85546875 C87.05573242 81.55148193 87.56458984 82.24749512 88.08886719 82.96459961 C88.63704102 83.69815674 89.18521484 84.43171387 89.75 85.1875 C90.3162207 85.95908447 90.88244141 86.73066895 91.46582031 87.52563477 C93.30184069 90.02365756 95.14933388 92.51281114 97 95 C98.95755035 97.63276901 100.91455359 100.26591707 102.86816406 102.90161133 C104.1053278 104.5687649 105.34674851 106.23276937 106.59277344 107.89331055 C107.15512695 108.649104 107.71748047 109.40489746 108.296875 110.18359375 C108.79541992 110.84931396 109.29396484 111.51503418 109.80761719 112.20092773 C111 114 111 114 112 117 C115.05666664 114.09343752 117.53005241 111.03988966 120 107.625 C128.36829911 96.33611597 137.65899719 86.15659472 147.5625 76.1875 C148.42456055 75.31617432 149.28662109 74.44484863 150.17480469 73.54711914 C156.14008841 67.61063412 162.39344354 62.20951409 169 57 C169.68537842 56.45529053 170.37075684 55.91058105 171.0769043 55.34936523 C178.58108123 49.44683926 186.33989338 43.90644381 194.375 38.75 C195.4434314 38.03287842 195.4434314 38.03287842 196.53344727 37.30126953 C201.92879206 33.94186865 206.67931517 32.83330971 213 34 C216.328125 35.765625 216.328125 35.765625 219.25 38.25 C219.795354 38.7047168 220.34070801 39.15943359 220.90258789 39.62792969 C222.05026941 40.59036391 223.18900542 41.56355968 224.31884766 42.546875 C225.90928143 43.92158627 227.52873554 45.24664603 229.16796875 46.5625 C236.9876294 52.93096777 244.16650721 59.95772343 251.3125 67.0625 C252.231521 67.97225586 253.15054199 68.88201172 254.09741211 69.81933594 C260.15594435 75.90577255 265.67473361 82.26644229 271 89 C271.9893467 90.22675338 272.97889473 91.45334445 273.96875 92.6796875 C279.98190314 100.24006457 285.60715177 107.98396387 291 116 C296.33468871 109.68599645 301.35936727 103.25690211 306.10668945 96.49584961 C308.36988578 93.27408169 310.66859851 90.09028927 313.04296875 86.94921875 C313.54650879 86.27922852 314.05004883 85.60923828 314.56884766 84.91894531 C315.54206948 83.62789132 316.52191496 82.34179555 317.50927734 81.06152344 C321.47573177 75.77388225 322.05125708 71.63756596 322.39453125 65.17578125 C322.46349609 64.06396484 322.53246094 62.95214844 322.60351562 61.80664062 C322.7416342 59.49734964 322.86942583 57.18741529 322.98632812 54.87695312 C323.67633168 44.28265081 326.34958912 34.71700974 334 27 C342.85821698 19.94458904 354.50461707 17.0615007 365.0625 13.5 C366.94502692 12.85653695 368.82719132 12.2120123 370.70898438 11.56640625 C373.48524958 10.61397308 376.26217951 9.66401902 379.04263306 8.72387695 C383.3430161 7.26829875 387.62517426 5.7838904 391.87841797 4.1953125 C392.63988632 3.91409546 393.40135468 3.63287842 394.18589783 3.34313965 C395.58434785 2.82355827 396.97914059 2.29395527 398.36891174 1.75158691 C403.17463972 -0.02374663 406.95305011 -0.47019416 412 0 C413.7056427 1.28552246 413.7056427 1.28552246 415 3 C415.91639393 11.23370896 413.50310978 18.69682848 411.2734375 26.5625 C410.88369371 27.96281818 410.49451335 29.36329328 410.10586548 30.76391602 C409.29148913 33.68765515 408.46833097 36.60874396 407.63916016 39.52832031 C406.58472009 43.24486601 405.55563969 46.96789236 404.53351402 50.69343567 C403.73668323 53.58453098 402.92474225 56.47122327 402.10853958 59.35690308 C401.72328455 60.72685281 401.34294077 62.09819471 400.96790695 63.47097778 C397.8091659 74.98718936 393.44528924 85.35928631 383 92 C371.56433898 97.22773075 357.48108469 98.24040613 345 98 C344.7628125 98.70253906 344.525625 99.40507813 344.28125 100.12890625 C342.76751469 103.52096557 340.81525072 106.03244648 338.5 108.9375 C334.52089775 113.99741733 330.68234032 119.12569354 326.98925781 124.39819336 C324.53844454 127.887185 322.0153329 131.29997233 319.41015625 134.67578125 C318.80341064 135.47604736 318.19666504 136.27631348 317.5715332 137.10083008 C316.37680237 138.67442877 315.16610815 140.23606094 313.93823242 141.78393555 C310.64815156 145.93579819 310.64815156 145.93579819 310.40625 150.98828125 C311.19515625 152.47908203 311.19515625 152.47908203 312 154 C312.58772288 155.35394696 313.16502436 156.71244402 313.734375 158.07421875 C314.05817139 158.81397949 314.38196777 159.55374023 314.71557617 160.31591797 C325.1441244 184.22503231 331.09978818 209.12035281 334 235 C334.13277344 236.13179687 334.26554687 237.26359375 334.40234375 238.4296875 C338.85448931 284.41486218 330.76517064 336.42582125 307.72705078 376.82836914 C306.7532601 378.99438983 306.7532601 378.99438983 307.75244141 381.10888672 C309.52941495 383.80251433 311.3575733 386.44934536 313.25 389.0625 C313.68473633 389.66682861 314.11947266 390.27115723 314.56738281 390.89379883 C320.04686521 398.48775048 325.61877223 406.0144034 331.18554688 413.54443359 C334.12794685 417.52649212 337.0637044 421.51343938 340 425.5 C341.16663334 427.08335789 342.33330004 428.6666912 343.5 430.25 C345.83333333 433.41666667 348.16666667 436.58333333 350.5 439.75 C351.0782251 440.53463623 351.6564502 441.31927246 352.25219727 442.12768555 C353.41191774 443.70178862 354.57126385 445.27616757 355.73022461 446.85083008 C358.75006403 450.95279634 361.77740011 455.04892726 364.81640625 459.13671875 C365.44353516 459.98234375 366.07066406 460.82796875 366.71679688 461.69921875 C367.90707443 463.30388924 369.09961592 464.90688411 370.29492188 466.5078125 C379.62909716 479.1083955 379.62909716 479.1083955 380.625 484.1875 C379.75613824 488.09737793 378.07029639 489.47639401 375 492 C370.74504582 492.92055853 366.53706821 492.84514765 362.18994141 492.81665039 C360.13461103 492.81251932 358.08914386 492.87755125 356.03515625 492.94726562 C346.40888391 492.97097566 346.40888391 492.97097566 342.65771484 490.38574219 C340.84887791 488.35341773 339.41825507 486.3183117 338 484 C337.20189881 482.92476732 336.39774397 481.85398554 335.5859375 480.7890625 C334.49152344 479.22285156 334.49152344 479.22285156 333.375 477.625 C332.51356683 476.401959 331.65155845 475.179323 330.7890625 473.95703125 C330.11278809 472.99531006 330.11278809 472.99531006 329.42285156 472.01416016 C326.89019359 468.42898029 324.32031074 464.87073769 321.75 461.3125 C320.93281494 460.18062256 320.93281494 460.18062256 320.09912109 459.02587891 C315.52524584 452.70234658 310.89802483 446.41899377 306.2578125 440.14404297 C301.47808397 433.67238699 296.76428828 427.15467328 292.0859375 420.609375 C291.57804687 419.90167969 291.07015625 419.19398438 290.546875 418.46484375 C290.10182617 417.842146 289.65677734 417.21944824 289.19824219 416.57788086 C287.94840064 414.85807373 287.94840064 414.85807373 286 413 C284.35293099 414.93646058 282.7072704 416.8740882 281.0625 418.8125 C280.55887939 419.40490479 280.05525879 419.99730957 279.53637695 420.60766602 C276.51907688 424.16784158 273.58308272 427.77704638 270.6875 431.4375 C262.80364677 441.12216143 253.63958639 450.06537447 244 458 C243.17725586 458.68545898 243.17725586 458.68545898 242.33789062 459.38476562 C235.11627702 465.39404617 227.82226055 471.27104356 220.1875 476.75 C219.60726074 477.16805908 219.02702148 477.58611816 218.42919922 478.0168457 C213.49978302 481.49656341 210.05228851 482.49864375 204 482 C201.26018784 480.94836936 198.81858686 479.51764986 196.3125 478 C195.61479492 477.59136719 194.91708984 477.18273437 194.19824219 476.76171875 C166.93798424 460.62784185 140.12653458 439.17783238 121.64453125 413.203125 C120.18690196 410.90626523 120.18690196 410.90626523 118 410 C117.66935547 411.01513672 117.66935547 411.01513672 117.33203125 412.05078125 C115.6077806 415.86840366 113.24487616 418.88936942 110.6875 422.1875 C109.59494317 423.62001871 108.50384901 425.0536539 107.4140625 426.48828125 C106.84977539 427.23029785 106.28548828 427.97231445 105.70410156 428.73681641 C102.93726019 432.41140372 100.24783724 436.14063285 97.5625 439.875 C97.02326904 440.62418701 96.48403809 441.37337402 95.9284668 442.14526367 C94.83226446 443.66913311 93.73648038 445.19330351 92.64111328 446.71777344 C89.39916216 451.22621722 86.14478024 455.72570208 82.890625 460.2253418 C80.08551114 464.105721 77.28855116 467.99161838 74.50390625 471.88671875 C73.92769531 472.69044922 73.35148437 473.49417969 72.7578125 474.32226562 C71.66534685 475.84643142 70.57531188 477.37234384 69.48828125 478.90039062 C68.49151961 480.28892069 67.47759167 481.6653148 66.44555664 483.02783203 C64.97097839 484.96475871 64.97097839 484.96475871 63.81811523 487.04638672 C62.36077283 489.28213075 61.25993835 490.55617277 59 492 C54.64706241 492.8502842 50.43143082 492.92515848 46.00463867 492.80273438 C43.93760033 492.75000256 41.87803136 492.76159477 39.81054688 492.78125 C29.80573964 492.66314111 29.80573964 492.66314111 26.11547852 489.62597656 C24 487 24 487 23.3125 484.25 C24.97160754 476.40694617 31.83356176 469.40895007 36.5625 463.0625 C41.2501158 456.73770204 45.90297495 450.39095162 50.5 444 C57.83965101 433.80616424 65.30455069 423.70597748 72.77050781 413.60449219 C81.25441978 402.1224004 89.66616175 390.5915352 98 379 C97.76925781 378.49887695 97.53851563 377.99775391 97.30078125 377.48144531 C85.27387383 351.27657291 75.51000571 325.60471119 71 297 C70.88140625 296.26233398 70.7628125 295.52466797 70.640625 294.76464844 C63.96279912 251.06066296 69.45802453 198.91804878 89.77099609 159.49194336 C93.23042645 153.07197186 93.23042645 153.07197186 93.36328125 146.01171875 C91.517627 142.99521362 89.39585944 140.60214945 87 138 C85.58516133 136.17478567 84.22109365 134.3173925 82.85620117 132.45458984 C81.3510046 130.40482323 79.81744449 128.37910897 78.27734375 126.35546875 C73.17489118 119.61255524 68.26960893 112.72470279 63.34350586 105.85253906 C62.36926902 104.50917923 61.35995812 103.19103349 60.33032227 101.88964844 C59 100 59 100 59 98 C57.65421875 97.92652344 57.65421875 97.92652344 56.28125 97.8515625 C52.18385813 97.60605762 48.09217522 97.31991542 44 97 C43.30052246 96.94618164 42.60104492 96.89236328 41.88037109 96.83691406 C33.09792419 96.10966583 25.56478591 94.86842658 18 90 C17.0925 89.443125 16.185 88.88625 15.25 88.3125 C8.76474928 81.64710343 5.81412708 73.40001789 3.4921875 64.578125 C3.19941925 63.51567566 2.906651 62.45322632 2.60501099 61.35858154 C1.68083091 57.9927348 0.77745072 54.62173008 -0.125 51.25 C-0.73687815 49.00482548 -1.35014869 46.76002993 -1.96484375 44.515625 C-3.13660368 40.23302245 -4.29939473 35.94814588 -5.45581055 31.66137695 C-6.99563814 25.97586422 -8.62760772 20.32232194 -10.32397461 14.68139648 C-11.42776687 10.30329955 -12.38311504 5.34025168 -9.97265625 1.26171875 C-6.7915241 -0.77294597 -3.62163319 -0.43345279 0 0 Z M5 16 C5.62801402 22.411367 7.02832057 28.36647273 8.765625 34.5625 C9.04090027 35.5532251 9.31617554 36.5439502 9.59979248 37.56469727 C10.18175523 39.64979347 10.76687471 41.73401092 11.35498047 43.81738281 C12.24624538 46.98664886 13.11759735 50.16096482 13.98828125 53.3359375 C14.55868111 55.37013267 15.13025702 57.40399852 15.703125 59.4375 C15.95854065 60.37730713 16.2139563 61.31711426 16.47711182 62.28540039 C18.52356522 69.41771529 21.06346839 75.62578296 26.9375 80.375 C32.52384239 83.10237915 38.90223774 83.35417446 45 84 C46.65240309 84.1869763 48.3047441 84.37450192 49.95703125 84.5625 C59.45314765 85.72268777 59.45314765 85.72268777 69 86 C69.28945606 77.01078113 68.86747727 68.0915303 68.25 59.125 C68.1574292 57.52120483 68.1574292 57.52120483 68.06298828 55.88500977 C67.47025186 47.99274283 66.22584329 42.228405 60.54052734 36.53857422 C56.24741454 33.09576727 51.20609322 31.58331952 46.0546875 29.828125 C44.48353683 29.27629547 44.48353683 29.27629547 42.88064575 28.71331787 C39.54950036 27.54680707 36.21241755 26.39842604 32.875 25.25 C30.62329975 24.46337841 28.37199294 23.67562963 26.12109375 22.88671875 C22.00472117 21.4494137 17.8876661 20.01428697 13.76513672 18.59472656 C12.93940155 18.31002502 12.11366638 18.02532349 11.26290894 17.73199463 C9.18862987 17.06101706 7.12144089 16.49893436 5 16 Z M398 16 C391.16104419 18.29055107 384.33021227 20.60418615 377.50439453 22.93359375 C375.18423818 23.72238872 372.8623108 24.50599508 370.53857422 25.28417969 C367.18752096 26.40742171 363.84340314 27.54952932 360.5 28.6953125 C359.4694751 29.03619904 358.4389502 29.37708557 357.37719727 29.728302 C349.82400603 32.3469206 342.82884092 35.53611383 338.578125 42.6171875 C336.29696688 47.89894591 336.07788878 53.44430552 335.75 59.125 C335.67410645 60.22706787 335.59821289 61.32913574 335.52001953 62.46459961 C335.01087802 70.31588492 334.74666976 78.13268857 335 86 C343.325482 85.52710267 351.63602059 84.91514968 359.9375 84.125 C360.71714111 84.05877441 361.49678223 83.99254883 362.30004883 83.92431641 C368.84089963 83.27016159 375.94341474 81.99369095 380.625 77 C385.39029795 70.97898165 387.08631738 63.55470601 389.09326172 56.28125 C389.76858322 53.83743713 390.45485419 51.39827072 391.15283203 48.9609375 C392.21577098 45.24892113 393.26586252 41.53349626 394.30645752 37.81515503 C394.72616968 36.31689344 395.14815702 34.81926729 395.57244873 33.32229614 C396.17179041 31.19800871 396.75761411 29.07043859 397.33984375 26.94140625 C397.68394287 25.70076416 398.02804199 24.46012207 398.38256836 23.18188477 C398.97805823 20.11307514 398.86124576 18.88014812 398 16 Z M178 67 C177.21012695 67.64340332 177.21012695 67.64340332 176.40429688 68.29980469 C165.71351842 77.06156661 154.66130781 86.15749909 145.8125 96.8203125 C144.37021649 98.55478276 142.88032451 100.24963782 141.375 101.9296875 C125.82191878 119.35741275 113.4242092 139.45390243 103.25 160.4375 C102.90219482 161.14148926 102.55438965 161.84547852 102.19604492 162.57080078 C100.97363389 165.18241732 99.98541256 167.34917573 100.05078125 170.265625 C101.31342829 172.57268379 102.84799799 173.71507755 104.9375 175.3125 C123.54844797 191.3492787 131.6511709 219.75402306 133.71875 243.44140625 C136.03145625 276.89410911 131.31934441 311.33341373 110.2578125 338.44921875 C107.56181398 341.49504407 104.66251345 343.97226068 101.3359375 346.3046875 C99.73906858 347.9741885 99.73906858 347.9741885 99.984375 350.55078125 C101.41901862 355.42305171 103.57916276 359.79191132 105.875 364.3125 C106.36532715 365.28364746 106.8556543 366.25479492 107.36083984 367.25537109 C123.43615301 398.51834048 147.55396562 427.29545102 176 448 C177.14994831 448.85649066 178.29968589 449.71326433 179.44921875 450.5703125 C185.47942477 455.01633332 191.66728741 459.15924486 198.0625 463.0625 C198.68181396 463.44486816 199.30112793 463.82723633 199.93920898 464.22119141 C204.67665896 467.18436325 204.67665896 467.18436325 210 468 C212.97859425 466.35091391 215.55108381 464.26848935 218.1875 462.125 C218.94345459 461.52800293 219.69940918 460.93100586 220.47827148 460.31591797 C225.44062976 456.36282588 230.24748119 452.27715316 234.89453125 447.95703125 C236.80391744 446.18225856 238.75920568 444.49444992 240.75 442.8125 C250.74205094 434.07705587 259.87637243 424.48929933 268 414 C268.78632813 413.01902344 269.57265625 412.03804688 270.3828125 411.02734375 C280.33770426 398.52132671 288.56058921 385.20247955 296 371.0625 C296.55212158 370.02061523 297.10424316 368.97873047 297.6730957 367.90527344 C300.85275395 361.73991658 303.30039035 355.73041694 305 349 C304.28714844 348.39414062 303.57429687 347.78828125 302.83984375 347.1640625 C280.81429092 327.89540929 272.12308521 299.52404295 270 271 C268.16310502 238.83247014 273.8349837 203.12405881 295.8125 178.25 C298.37018874 175.51061752 300.94387514 173.17019204 304 171 C296.29282495 144.50658577 279.19646124 120.2202167 262 99 C261.56091309 98.45649902 261.12182617 97.91299805 260.66943359 97.35302734 C253.40847674 88.46421496 245.46170601 80.2565461 237.375 72.125 C236.89398834 71.63872131 236.41297668 71.15244263 235.91738892 70.65142822 C227.28748322 61.9484984 218.18013151 53.86052341 208 47 C199.22184225 47 184.76635153 61.4734458 178 67 Z M79 96 C78.34 96.66 77.68 97.32 77 98 C77.32852355 101.66719591 78.4132679 104.01097395 80.58984375 106.93359375 C81.12262939 107.65885254 81.65541504 108.38411133 82.2043457 109.13134766 C83.06225708 110.27289307 83.06225708 110.27289307 83.9375 111.4375 C85.11757535 113.03747443 86.29725788 114.63773865 87.4765625 116.23828125 C88.36263184 117.43251709 88.36263184 117.43251709 89.26660156 118.65087891 C91.82193334 122.11389332 94.3195093 125.61697639 96.8125 129.125 C97.63140553 130.27351229 98.45040472 131.42195781 99.26953125 132.5703125 C99.84058594 133.37210938 100.41164063 134.17390625 101 135 C103.14567913 133.27144074 103.14567913 133.27144074 105 131 C104.63454015 127.77398619 103.26917438 125.67418274 101.375 123.09375 C100.8372998 122.35503662 100.29959961 121.61632324 99.74560547 120.85522461 C99.16955566 120.07800049 98.59350586 119.30077637 98 118.5 C97.41492676 117.70279541 96.82985352 116.90559082 96.22705078 116.08422852 C95.04508493 114.47615247 93.86037586 112.87008893 92.67285156 111.26611328 C91.1828373 109.2476789 89.70900841 107.21890333 88.2421875 105.18359375 C87.45362226 104.10120006 86.66459773 103.01914073 85.875 101.9375 C85.19179687 100.99777344 84.50859375 100.05804688 83.8046875 99.08984375 C82.09211894 96.74663164 82.09211894 96.74663164 79 96 Z M323 97 C318.12790591 102.14970629 314.03691491 107.89677303 309.875 113.625 C308.66501773 115.28455105 307.45410636 116.94342515 306.2421875 118.6015625 C305.68249268 119.36903809 305.12279785 120.13651367 304.54614258 120.92724609 C303.26845091 122.64011555 301.92539556 124.30401438 300.56640625 125.953125 C298.77203957 127.85198868 298.77203957 127.85198868 299.0625 130.125 C300.09572338 132.19144675 301.34383891 133.41116253 303 135 C303.33620361 134.53327881 303.67240723 134.06655762 304.01879883 133.58569336 C305.03404171 132.17683059 306.04979699 130.768337 307.06591797 129.36010742 C308.23733833 127.73528156 309.40691436 126.10912455 310.57470703 124.48168945 C313.44544915 120.49081949 316.33956864 116.52932554 319.34765625 112.640625 C319.85901123 111.97168213 320.37036621 111.30273926 320.8972168 110.61352539 C321.8642452 109.35317728 322.84320452 108.10187252 323.83520508 106.86108398 C325.94787681 104.08699951 327.04592879 102.63534828 326.7890625 99.08203125 C326.52867187 98.39496094 326.26828125 97.70789063 326 97 C325.01 97 324.02 97 323 97 Z M94 184 C89.64106959 198.21011312 86.26596206 212.30806849 84 227 C83.82210937 228.08933838 83.82210937 228.08933838 83.640625 229.20068359 C78.00632538 264.5911281 82.59551229 302.23252243 94 336 C111.66644246 322.29949361 118.11805189 299.0204146 121.17504883 277.72436523 C124.85710032 248.44995584 120.56205554 214.73369425 102.1875 190.6875 C100.24520436 188.33921383 98.27822229 186.0285541 96 184 C95.34 184 94.68 184 94 184 Z M308 184 C287.84084543 204.26638412 281.69894884 233.7660048 281.75561523 261.49804688 C282.11785726 288.94320713 289.22482015 316.13326839 309 336 C311.19874272 335.1890271 311.19874272 335.1890271 311.73022461 332.953125 C311.95202393 332.06109375 312.17382324 331.1690625 312.40234375 330.25 C312.65145508 329.25790527 312.90056641 328.26581055 313.15722656 327.24365234 C313.4147168 326.17324707 313.67220703 325.1028418 313.9375 324 C314.20401367 322.90510254 314.47052734 321.81020508 314.74511719 320.68212891 C324.79780383 278.71800675 324.56208219 235.82718966 312.875 194.1875 C312.49456543 192.8252832 312.49456543 192.8252832 312.10644531 191.43554688 C311.86249023 190.60474609 311.61853516 189.77394531 311.3671875 188.91796875 C311.15175293 188.18344482 310.93631836 187.4489209 310.71435547 186.69213867 C310.12886241 184.79356605 310.12886241 184.79356605 308 184 Z M106 391 C104.20829194 393.26743744 102.46952918 395.55344688 100.75 397.875 C100.2142334 398.59389404 99.6784668 399.31278809 99.12646484 400.0534668 C94.69358346 406.02041097 90.33747202 412.04172055 85.99682617 418.07592773 C80.31994155 425.96305759 74.55018583 433.78048935 68.77490234 441.59570312 C66.98903218 444.0148571 65.20681718 446.43666019 63.42578125 448.859375 C62.24225311 450.46879825 61.05865992 452.07817367 59.875 453.6875 C59.30257568 454.46585205 58.73015137 455.2442041 58.14038086 456.04614258 C55.26404301 459.95059039 52.3727876 463.84266139 49.453125 467.71484375 C48.89254395 468.45839111 48.33196289 469.20193848 47.75439453 469.96801758 C46.68994283 471.37713217 45.62330347 472.7845976 44.55419922 474.19018555 C42.11648708 476.83749511 42.11648708 476.83749511 41 480 C45.00807864 481.13614828 48.00372695 481.25583246 52 480 C56.37192203 476.17647721 59.4309795 470.97895723 62.58300781 466.15429688 C64.23334482 463.64523869 65.97210873 461.21303464 67.73535156 458.78271484 C68.96299167 457.08984801 70.17437575 455.38630589 71.3828125 453.6796875 C74.33569032 449.51933005 77.32322743 445.38425133 80.3125 441.25 C80.8588208 440.49436768 81.4051416 439.73873535 81.96801758 438.96020508 C83.08457613 437.41597275 84.2011944 435.87178361 85.31787109 434.32763672 C86.99090897 432.01257966 88.66181808 429.69600186 90.33203125 427.37890625 C97.17647867 417.88597283 104.06295311 408.42548656 111 399 C109.68 396.36 108.36 393.72 107 391 C106.67 391 106.34 391 106 391 Z M298 393 C296.68 395.64 295.36 398.28 294 401 C294.60585938 401.77601563 295.21171875 402.55203125 295.8359375 403.3515625 C301.62131611 410.79657565 307.17531518 418.37395753 312.62548828 426.06640625 C320.26611265 436.81485119 328.00047918 447.50464894 335.90258789 458.0625 C338.7058642 461.81741176 341.41417776 465.5841238 343.94140625 469.53125 C348.24611558 476.74239716 348.24611558 476.74239716 355.125 480.921875 C357.93115653 480.93619213 360.27076346 480.57881957 363 480 C358.88043387 473.66329642 354.51041953 467.57820591 349.9375 461.5625 C344.98779496 455.01014389 340.09953985 448.4221597 335.3125 441.75 C330.79744162 435.45908723 326.20229967 429.23808681 321.53417969 423.06005859 C317.07821812 417.14580914 312.74775872 411.14412678 308.45117188 405.11328125 C305.45416178 400.92734319 302.40651845 396.86356476 299 393 C298.67 393 298.34 393 298 393 Z " fill="#961043" transform="translate(54,10)"/>
<path d="M0 0 C3.3125 1 3.3125 1 5.3125 4 C5.55859566 6.64927959 5.55859566 6.64927959 5.55300903 9.90348816 C5.55575836 11.13607864 5.55850769 12.36866913 5.56134033 13.63861084 C5.55426207 15.00671484 5.54699245 16.37481785 5.53955078 17.74291992 C5.53898671 19.1817677 5.53930314 20.62061606 5.54043579 22.0594635 C5.54101047 25.96830237 5.52923753 29.87701891 5.51528788 33.78582931 C5.50279974 37.86977124 5.50161153 41.95371587 5.49923706 46.03767395 C5.49301665 53.7724484 5.47659825 61.50716642 5.45653808 69.241916 C5.43419653 78.04713055 5.42319004 86.85234777 5.41314721 95.65758359 C5.3922325 113.7717544 5.35704563 131.88587267 5.3125 150 C6.3025 150 7.2925 150 8.3125 150 C8.30973462 149.26247151 8.30696924 148.52494303 8.30412006 147.76506519 C8.23787323 129.82115246 8.18822576 111.87726412 8.15706348 93.9332552 C8.14159317 85.25567038 8.12050053 76.57816719 8.08618164 67.90063477 C8.05628429 60.3374853 8.03692619 52.77439494 8.03023452 45.21118802 C8.02632282 41.20633864 8.01712644 37.20165837 7.99530983 33.19686317 C7.97493932 29.42696125 7.9686673 25.65729801 7.97317696 21.88734627 C7.972352 20.50424655 7.96638954 19.12113881 7.95488358 17.7380867 C7.93993258 15.8481398 7.94533985 13.95806467 7.95173645 12.06806946 C7.94897107 11.01077291 7.94620569 9.95347635 7.94335651 8.86414051 C8.37221923 5.53664558 9.2968884 3.665027 11.3125 1 C14.1875 -0.125 14.1875 -0.125 17.3125 0 C35.55757326 15.15470254 42.22703452 48.86058177 46.3125 71 C46.55742187 72.2890625 46.80234375 73.578125 47.0546875 74.90625 C51.40831981 102.81720782 47.99212972 130.9322612 39.92919922 157.76196289 C39.2609861 160.18694692 38.63722749 162.50247108 38.3125 165 C39.24989262 166.37261062 40.19517456 167.74078144 41.1875 169.07421875 C45.48953455 176.4384654 46.5521857 186.1227389 44.48046875 194.2734375 C41.85293027 203.1893546 41.85293027 203.1893546 39.3125 207 C39.64364989 211.60184153 40.7654667 215.8862877 42.02661133 220.30004883 C49.83466477 247.76812898 51.02674176 276.97996807 45.3125 305 C45.14621094 305.82081055 44.97992188 306.64162109 44.80859375 307.48730469 C40.76567347 326.69117604 33.59061735 344.74912814 24.3125 362 C23.63574219 363.36705078 23.63574219 363.36705078 22.9453125 364.76171875 C21.75 367 21.75 367 19.3125 370 C14.82184923 370.77425013 13.11060066 370.53206711 9.3125 368 C8.25335454 364.82256362 8.18929957 362.58608213 8.19224548 359.24836731 C8.19087082 358.04943344 8.18949615 356.85049957 8.18807983 355.61523438 C8.19347275 353.63970581 8.19347275 353.63970581 8.19897461 351.62426758 C8.19925665 350.2248281 8.19909841 348.82538848 8.1985321 347.4259491 C8.19824479 343.62458216 8.20413085 339.82324668 8.21110606 336.02188706 C8.2173506 332.05004933 8.21794427 328.0782109 8.21913147 324.10636902 C8.22224153 316.58411051 8.23045056 309.0618665 8.24048096 301.53961438 C8.25165217 292.97622727 8.25715509 284.41283947 8.26217639 275.84944689 C8.27263343 258.23295637 8.2902266 240.61647935 8.3125 223 C7.3225 223 6.3325 223 5.3125 223 C5.31526538 223.73937207 5.31803076 224.47874414 5.32087994 225.24052143 C5.38708447 243.21711349 5.4367536 261.19368127 5.46793652 279.17036915 C5.48341651 287.8637053 5.50452758 296.55696016 5.53881836 305.25024414 C5.56868614 312.82582629 5.58806676 320.40134958 5.59476548 327.97698897 C5.59868221 331.98959906 5.60791038 336.00204074 5.62969017 340.01459694 C5.65001404 343.78941722 5.65634219 347.5639993 5.65182304 351.33886909 C5.65265009 352.72603397 5.65864029 354.1132066 5.67011642 355.50032425 C5.6849945 357.39097111 5.67967698 359.28174505 5.67326355 361.17243958 C5.67602893 362.23157971 5.67879431 363.29071985 5.68164349 364.38195515 C5.3125 367 5.3125 367 4.00479603 368.83297253 C1.08346171 370.84755942 -1.27356702 370.47914849 -4.6875 370 C-28.16327321 344.86711339 -35.74586281 297.21446132 -34.77636719 264.15625 C-34.03521992 246.17324826 -31.4690973 227.87788717 -25.24145508 210.92041016 C-23.83474172 206.04372119 -25.90105302 201.2547701 -27.25 196.5625 C-29.77718158 187.39991061 -28.58534793 179.97269429 -25.6875 171 C-25.0275 170.01 -24.3675 169.02 -23.6875 168 C-24.04545092 162.91462824 -25.4431265 158.29953851 -27.0625 153.5 C-41.68308147 108.05054772 -34.65593099 58.84287962 -14.5 16.3125 C-14.00113281 15.25522705 -13.50226563 14.1979541 -12.98828125 13.10864258 C-6.56056964 0 -6.56056964 0 0 0 Z M21.3125 35 C21.24248345 50.22032514 21.18954797 65.44064285 21.15706348 80.66109276 C21.14158085 87.72789257 21.12046486 94.79459245 21.08618164 101.86132812 C21.05313756 108.67587868 21.0356671 115.49032512 21.02786827 122.30495071 C21.02230759 124.91018945 21.01144965 127.51542224 20.99530983 130.12061691 C20.97366261 133.75810993 20.97052778 137.39516822 20.97192383 141.03271484 C20.961138 142.1195607 20.95035217 143.20640656 20.9392395 144.32618713 C20.94336349 145.31339249 20.94748749 146.30059784 20.95173645 147.31771851 C20.94897107 148.17867315 20.94620569 149.0396278 20.94335651 149.92667198 C21.06517386 150.61087023 21.18699121 151.29506847 21.3125 152 C24.12759993 154.2773501 24.12759993 154.2773501 27.3125 154 C39.18249481 115.57499705 39.44843538 72.09303085 22.3125 35 C21.9825 35 21.6525 35 21.3125 35 Z M-8.6875 36 C-22.70949731 75.76052021 -26.14130352 115.43474393 -12.6875 156 C-10.2125 155.01 -10.2125 155.01 -7.6875 154 C-7.6875 115.06 -7.6875 76.12 -7.6875 36 C-8.0175 36 -8.3475 36 -8.6875 36 Z M-11.5 173.05859375 C-15.13868619 179.0073669 -16.32735857 184.67198106 -15.3203125 191.58203125 C-13.4796357 198.61523457 -8.6660578 204.02273909 -2.6875 208 C3.31519077 210.90677563 10.30712869 211.21474376 16.6953125 209.27734375 C24.26028208 205.7249721 29.14725419 199.77398884 32.0625 192 C32.95588053 184.85295578 31.95116053 179.21968373 28.3125 173 C23.38370326 167.37911415 18.58267733 163.65302372 11.07421875 162.72265625 C1.98168891 162.14288374 -5.95996551 165.77155975 -11.5 173.05859375 Z M-12.6875 217 C-15.69557026 223.17446002 -17.01452338 229.40403202 -18.3125 236.125 C-18.64060669 237.80396362 -18.64060669 237.80396362 -18.9753418 239.5168457 C-20.40552089 247.03664308 -21.54149234 254.33459783 -21.6875 262 C-21.72617188 263.06089844 -21.76484375 264.12179687 -21.8046875 265.21484375 C-22.29740451 289.11161895 -17.35659007 312.80593779 -8.6875 335 C-8.3575 335 -8.0275 335 -7.6875 335 C-7.57075726 320.05778192 -7.48255643 305.11559916 -7.42843914 290.17302227 C-7.40264481 283.23506626 -7.36747155 276.29739341 -7.31030273 269.35961914 C-7.25519039 262.66822717 -7.22610442 255.97719061 -7.21311378 249.28556252 C-7.20385249 246.72856824 -7.18576807 244.17159066 -7.15884972 241.6147213 C-7.12272037 238.04186126 -7.11754814 234.47022915 -7.11987305 230.8972168 C-7.10189667 229.83266769 -7.08392029 228.76811859 -7.06539917 227.67131042 C-7.08418672 225.01512197 -7.12132871 222.59506903 -7.6875 220 C-10.02213148 217.71242721 -10.02213148 217.71242721 -12.6875 217 Z M21.3125 221 C21.3125 258.95 21.3125 296.9 21.3125 336 C38.54449288 310.15201068 38.56631899 266.28834369 32.79638672 237.26953125 C31.48735111 231.12987683 29.97767316 225.05210145 28.3125 219 C25.0143576 218.7763932 25.0143576 218.7763932 21.3125 221 Z " fill="#961043" transform="translate(251.6875,83)"/>
</svg>
