<?xml version="1.0" encoding="UTF-8"?>
<svg version="1.1" xmlns="http://www.w3.org/2000/svg" width="512" height="512">
<path d="M0 0 C2.5 1.625 2.5 1.625 4 4 C4.25 7.25 4.25 7.25 4 10 C4.9075 9.896875 5.815 9.79375 6.75 9.6875 C10 10 10 10 12.4375 12.0625 C14.47631034 15.89546344 14.14831346 17.86607156 13 22 C11.8125 23.9375 11.8125 23.9375 10 25 C8.00045481 25.04265027 5.99947102 25.04599595 4 25 C3.77859237 34.03363172 3.77859237 34.03363172 7.5625 41.875 C8.67202562 42.95525755 9.82066557 43.99641952 11 45 C11.64839844 45.56976563 12.29679687 46.13953125 12.96484375 46.7265625 C14.31721124 47.90501709 15.67527935 49.07696281 17.0390625 50.2421875 C22.50590268 55.14274144 26.62094515 59.79101428 27.30078125 67.33984375 C27.30464844 68.52707031 27.30851562 69.71429688 27.3125 70.9375 C27.32925781 72.12214844 27.34601563 73.30679688 27.36328125 74.52734375 C26.85378301 79.39770867 25.26944749 82.63585127 21.93823242 86.21557617 C18.09951085 91.73020265 19.13096136 99.21618425 19.125 105.75 C19.11854462 106.56269348 19.11208923 107.37538696 19.10543823 108.21270752 C19.07054388 122.53622719 21.73156399 135.0804456 26.52978516 148.52636719 C26.76129776 149.18148285 26.99281036 149.83659851 27.2313385 150.51156616 C27.86402082 152.27019746 28.52858245 154.0172694 29.19555664 155.76318359 C30.13805797 159.55550003 29.86941939 162.21031191 29 166 C26.76774103 168.562964 25.41948631 168.93752331 22.0625 169.4375 C18.17820532 168.88260076 16.80492475 167.72176436 14 165 C12.60620117 161.91552734 12.60620117 161.91552734 11.54296875 158.3359375 C11.25393425 157.38601425 11.25393425 157.38601425 10.95906067 156.41690063 C10.35223736 154.40739579 9.76999312 152.39167457 9.1875 150.375 C8.77821785 149.01256174 8.36742511 147.65057631 7.95507812 146.2890625 C5 136.43017997 5 136.43017997 5 134 C-0.94 134 -6.88 134 -13 134 C-13.37769531 135.60359375 -13.75539063 137.2071875 -14.14453125 138.859375 C-16.28907918 147.43756673 -19.00558795 155.82850381 -21.6875 164.25 C-22.20410644 165.88140583 -22.72038479 167.51291559 -23.23632812 169.14453125 C-24.48711253 173.09756054 -25.74230649 177.04916375 -27 181 C-26.04422058 181.00142502 -25.08844116 181.00285004 -24.10369873 181.00431824 C-15.0984315 181.02098433 -6.09361639 181.06374566 2.91141129 181.13209057 C7.54110448 181.16638865 12.17046671 181.19147489 16.80029297 181.19555664 C21.26801412 181.19983361 25.73498833 181.22824565 30.2024765 181.27343178 C31.90727132 181.28642616 33.61215545 181.29070758 35.31699371 181.28615379 C37.70466356 181.28126122 40.09013893 181.30727589 42.47753906 181.34057617 C43.18316483 181.33195053 43.88879059 181.32332489 44.61579895 181.31443787 C48.33910687 181.40155292 49.74862359 181.7536056 52.45062256 184.40205383 C54.16888749 187.2831851 54.42649491 188.35165158 54 191.625 C53.82017578 193.05005859 53.82017578 193.05005859 53.63671875 194.50390625 C53.1408581 197.22657666 52.58132393 199.89596298 51.95703125 202.58984375 C51.77076172 203.4082373 51.58449219 204.22663086 51.39257812 205.06982422 C51.01499918 206.69233306 50.61752162 208.31038136 50.19726562 209.92236328 C47.84325736 219.85203594 51.47122633 229.01416119 54.4765625 238.484375 C55.15382176 240.65749726 55.83089979 242.83067601 56.5078125 245.00390625 C57.5692563 248.3907694 58.63343393 251.77673679 59.70117188 255.16162109 C60.73776644 258.45447309 61.7639675 261.75042816 62.7890625 265.046875 C63.11089508 266.05635193 63.43272766 267.06582886 63.76431274 268.105896 C66.62373661 277.33339078 66.62373661 277.33339078 66 282 C63.54405875 285.32274404 62.0743356 286.77618008 58 287.625 C53.80673158 286.75140241 52.55031982 285.44637813 50 282 C48.74831527 278.72058602 47.814943 275.4121597 47 272 C42.84316202 272 41.23288524 273.42688726 38 276 C35.05285676 280.0932545 33.845822 283.23652468 33 288.1875 C32.44637277 291.29632983 32.04641697 292.92779582 30.3125 295.625 C27.02177263 297.58164871 24.76040762 297.47005095 21 297 C17.89839831 295.35495159 17.12434539 294.39573824 16.05859375 291.00390625 C15.85363281 289.86824219 15.64867187 288.73257812 15.4375 287.5625 C14.62988552 283.15322591 13.84507839 280.45980446 11 277 C11 276.34 11 275.68 11 275 C3.39857187 270.88255976 -2.4733767 268.98309889 -11 271 C-15.72516679 272.66505877 -19.35497933 275.47120356 -21.61328125 279.96875 C-22.27275289 283.43264146 -20.70043304 285.96067793 -19.1940918 289.03564453 C-17.86900128 292.32520681 -17.33628407 295.32726487 -16.8515625 298.8359375 C-16.68736816 299.99399902 -16.52317383 301.15206055 -16.35400391 302.34521484 C-16.23718262 303.22129395 -16.12036133 304.09737305 -16 305 C-15.42006287 304.99555878 -14.84012573 304.99111755 -14.24261475 304.98654175 C-8.20815494 304.94230431 -2.17374118 304.91213184 3.86083984 304.89013672 C6.11313752 304.88007747 8.36542214 304.86642854 10.61767578 304.84912109 C13.85452498 304.82486969 17.09120155 304.8135161 20.328125 304.8046875 C21.33554749 304.79436493 22.34296997 304.78404236 23.38092041 304.77340698 C24.32159363 304.77325592 25.26226685 304.77310486 26.23144531 304.77294922 C27.47054657 304.76628738 27.47054657 304.76628738 28.73468018 304.75949097 C31.29550399 305.03137366 32.85590107 305.5773078 35 307 C36.83066825 311.13890213 37.33931409 313.08385195 35.75 317.375 C34 320 34 320 32 321 C30.39645548 321.09016377 28.78917778 321.11756075 27.18310547 321.11352539 C26.18221893 321.11344986 25.1813324 321.11337433 24.15011597 321.11329651 C23.06674957 321.10813522 21.98338318 321.10297394 20.8671875 321.09765625 C19.76021515 321.0962413 18.6532428 321.09482635 17.51272583 321.09336853 C13.96679007 321.08775772 10.42091677 321.07520337 6.875 321.0625 C4.47526133 321.05748639 2.07552167 321.05292325 -0.32421875 321.04882812 C-6.21616725 321.03778478 -12.10807916 321.0210361 -18 321 C-18.14695312 321.54527344 -18.29390625 322.09054687 -18.4453125 322.65234375 C-20.30233582 328.89578423 -23.17010495 333.75713396 -27 339 C-26.30508957 339.00586624 -25.61017914 339.01173248 -24.89421082 339.01777649 C-18.34623991 339.07567341 -11.79859611 339.14773227 -5.25095654 339.23571491 C-1.88469523 339.28044841 1.48144423 339.31969739 4.84790039 339.34643555 C8.71791721 339.3798898 12.58728447 339.43220252 16.45703125 339.48828125 C17.66647903 339.49467117 18.87592682 339.5010611 20.12202454 339.50764465 C21.80342781 339.53733589 21.80342781 339.53733589 23.51879883 339.56762695 C24.50697098 339.57873001 25.49514313 339.58983307 26.51325989 339.60127258 C29.40691849 340.06524588 30.28592995 340.66293777 32 343 C33.07455528 346.53068164 33.28227934 348.30998383 31.875 351.75 C29.64434695 354.42678365 28.31018655 354.97455058 25 356 C21.74125671 356.24050903 21.74125671 356.24050903 18.0065918 356.22705078 C17.32311172 356.22734283 16.63963165 356.22763489 15.93544006 356.22793579 C13.68990109 356.22654917 11.44469933 356.21101987 9.19921875 356.1953125 C7.63694948 356.19157999 6.07467785 356.18873414 4.5124054 356.18673706 C0.41064941 356.17911935 -3.6909638 356.15948696 -7.79266357 356.1373291 C-12.71945495 356.11322321 -17.64629421 356.10408081 -22.57312775 356.09242249 C-30.04885098 356.07306138 -37.52426124 356.03472601 -45 356 C-45 371.51 -45 387.02 -45 403 C-38.73 403 -32.46 403 -26 403 C-26.04640625 400.95296875 -26.0928125 398.9059375 -26.140625 396.796875 C-26.16844423 394.80779973 -26.19611952 392.81871957 -26.21972656 390.82958984 C-26.23980642 389.4502332 -26.26707666 388.07096131 -26.30175781 386.69189453 C-26.35042817 384.70643021 -26.37086418 382.72033746 -26.390625 380.734375 C-26.41157227 379.54038086 -26.43251953 378.34638672 -26.45410156 377.11621094 C-26 374 -26 374 -24.19433594 371.60644531 C-21.02011801 369.28264091 -18.83687484 369.52039065 -15 370 C-11.8149643 371.76015131 -11.16703028 372.49890916 -10 376 C-9.91684248 378.06498892 -9.89264122 380.1325789 -9.90234375 382.19921875 C-9.90556641 383.40771484 -9.90878906 384.61621094 -9.91210938 385.86132812 C-9.92048828 387.12396484 -9.92886719 388.38660156 -9.9375 389.6875 C-9.94201172 390.96173828 -9.94652344 392.23597656 -9.95117188 393.54882812 C-9.96297117 396.6992387 -9.98090682 399.84962519 -10 403 C-2.74 403 4.52 403 12 403 C12.3403125 400.091875 12.3403125 400.091875 12.6875 397.125 C15.69255597 378.12728317 31.35139133 365.70486588 45.8125 354.4375 C54.47686026 347.42587898 59.103969 340.0322779 60.328125 329.05859375 C60.58873253 326.37365039 60.81203411 323.69088017 61 321 C60.0925 321.0825 59.185 321.165 58.25 321.25 C55 321 55 321 52.625 319.5 C50.65210829 316.46478198 50.36028979 314.47802406 50.546875 310.90625 C51 309 51 309 53.1875 306.5 C56.13991985 304.92537608 57.71576929 304.62465935 61 305 C60.896875 304.0925 60.79375 303.185 60.6875 302.25 C61 299 61 299 63.0625 296.5625 C66.89546344 294.52368966 68.86607156 294.85168654 73 296 C74.875 297.1875 74.875 297.1875 76 299 C76.6875 302.1875 76.6875 302.1875 77 305 C77.94875 305.144375 78.8975 305.28875 79.875 305.4375 C83 306 83 306 85 307 C85.23783203 305.47632813 85.23783203 305.47632813 85.48046875 303.921875 C89.63760568 278.75799441 104.17020053 262.87388059 123.04296875 246.71484375 C134.32122443 236.83230035 144.3182017 226.00976413 145.4140625 210.37890625 C145.49267884 208.77382269 145.56288982 207.16830699 145.625 205.5625 C145.66367187 204.73556641 145.70234375 203.90863281 145.7421875 203.05664062 C145.83553092 201.03808927 145.91880961 199.01907669 146 197 C145.06027344 197.04253906 144.12054688 197.08507812 143.15234375 197.12890625 C140 197 140 197 137.5625 194.9375 C135.52368966 191.10453656 135.85168654 189.13392844 137 185 C138.1875 183.0625 138.1875 183.0625 140 182 C143.1875 181.8125 143.1875 181.8125 146 182 C146.103125 180.906875 146.20625 179.81375 146.3125 178.6875 C147 175 147 175 148.0625 173.0625 C151.26225258 171.30779697 154.4994894 171.373148 158 172 C160.5 173.625 160.5 173.625 162 176 C162.25 179.25 162.25 179.25 162 182 C162.9075 181.9175 163.815 181.835 164.75 181.75 C168 182 168 182 170.375 183.5625 C172.62340519 186.93510779 172.56783945 189.02512383 172 193 C170.375 195.4375 170.375 195.4375 168 197 C166.00096138 197.06200492 163.9988282 197.06845302 162 197 C163.70675594 222.77965694 172.74108559 235.75153169 191.65234375 252.66235352 C193.67815337 254.67311636 193.99471008 255.96032557 194.375 258.8125 C194 262 194 262 191.875 264.875 C188.42599187 267.42426688 187.19701121 267.52786084 183 267 C180.18359375 265.171875 180.18359375 265.171875 177.4375 262.75 C176.52871094 261.96109375 175.61992187 261.1721875 174.68359375 260.359375 C173.79800781 259.58078125 172.91242188 258.8021875 172 258 C170.34048359 256.65777765 168.67608701 255.32147186 167 254 C167.28496338 254.51981445 167.56992676 255.03962891 167.86352539 255.57519531 C174.20001206 267.14257395 180.47608506 278.74013562 186.6875 290.375 C191.99907408 300.32331014 197.39328484 310.21483858 203 320 C205.55674328 316.16488508 205.38408268 312.95233131 205.375 308.5 C205.37338867 307.69208008 205.37177734 306.88416016 205.37011719 306.05175781 C205.20695381 298.05035357 203.45486755 291.25751147 198.75 284.6875 C196.61667567 281.41132335 196.26567274 279.83482016 197 276 C199.46040728 272.67121368 200.89610387 271.20698052 205 270.4375 C208.77042529 271.14445474 210.20734281 272.37893465 213 275 C214.94921875 278.171875 214.94921875 278.171875 216.6875 281.75 C217.26886719 282.92046875 217.85023438 284.0909375 218.44921875 285.296875 C224.03522967 297.9321797 223.99360807 314.09061697 220 327.1875 C217.25268435 334.20669802 213.42349962 341.93400893 207.06474304 346.34135437 C203.70998278 348.758394 201.39775387 350.65860513 200.19798279 354.70474243 C199.84193206 357.99760359 199.73410545 361.20729305 199.7265625 364.51953125 C199.69373672 366.33840096 199.69373672 366.33840096 199.6602478 368.1940155 C199.62856745 370.7599494 199.61811067 373.32622149 199.62744141 375.89233398 C199.62502843 379.76685043 199.50595988 383.62587743 199.37890625 387.49804688 C199.16368389 402.71515132 200.98672052 412.1596222 211.46923828 423.42993164 C212.64170505 424.62434277 213.81815356 425.8148691 215 427 C222.81461769 435.35594034 223.04442315 442.7669297 222.80273438 453.77001953 C222.74966658 456.39147034 222.76168057 459.00709203 222.78125 461.62890625 C222.76944782 463.30211467 222.75395546 464.97530203 222.734375 466.6484375 C222.73822205 467.42762543 222.74206909 468.20681335 222.74603271 469.00961304 C222.63110183 472.77685582 222.3131358 474.64549491 219.78613281 477.50634766 C216.74739068 479.13542445 215.09633257 479.4318044 211.6875 479.25 C210.80449219 479.21390625 209.92148437 479.1778125 209.01171875 479.140625 C208.34785156 479.09421875 207.68398438 479.0478125 207 479 C207.01571045 479.89307861 207.0314209 480.78615723 207.04760742 481.70629883 C207.09875439 485.02178756 207.13635812 488.33685675 207.16479492 491.65258789 C207.17987589 493.08722552 207.2003438 494.52181708 207.22631836 495.95629883 C207.26273437 498.01915859 207.27973243 500.08140858 207.29296875 502.14453125 C207.3086792 503.38565674 207.32438965 504.62678223 207.34057617 505.90551758 C207 509 207 509 205.61645508 510.90356445 C203.48536052 512.34907807 202.06029907 512.40060299 199.5 512.375 C198.7265625 512.38273438 197.953125 512.39046875 197.15625 512.3984375 C195 512 195 512 192 509 C192 499.1 192 489.2 192 479 C152.4 479.495 152.4 479.495 112 480 C119.0253844 490.40812107 119.0253844 490.40812107 127 500 C127.203125 501.9609375 127.203125 501.9609375 127.25 504.375 C127.27578125 505.16648437 127.3015625 505.95796875 127.328125 506.7734375 C127 509 127 509 125.73828125 510.73046875 C122.9753505 512.74833952 120.88851485 512.98031096 117.5078125 512.828125 C111.73163534 510.92072693 108.42725032 504.75248363 105 500 C103.76509751 498.33439582 102.52798552 496.67042828 101.2890625 495.0078125 C98.24628686 490.91320369 95.23324644 486.79816284 92.23999023 482.66723633 C91.10420859 481.05574249 91.10420859 481.05574249 90 480 C84.0959199 479.41288284 78.19610415 479.17150297 72.26708984 478.99072266 C70.2756417 478.91433923 68.28513916 478.80559129 66.29736328 478.66259766 C55.02326858 477.62361494 55.02326858 477.62361494 44.8531189 481.60684204 C40.98921794 485.57360729 38.09540532 490.05379511 35.32023621 494.8228302 C33.25092115 498.23528793 30.79008728 501.31606951 28.3125 504.4375 C27.52488281 505.46746094 26.73726563 506.49742187 25.92578125 507.55859375 C24 510 24 510 22 512 C15.0726257 512.67039106 15.0726257 512.67039106 11.5 510.4375 C9.35348895 506.94941955 9.48758008 505.07902525 10 501 C11.78804993 497.69361654 14.05521196 494.82391336 16.375 491.875 C17.00752686 491.02446045 17.64005371 490.1739209 18.29174805 489.29760742 C21.04335867 485.62821341 23.74169301 482.10797242 27.12109375 478.99609375 C35.99297725 470.14996317 35.11344579 459.50672773 35.15551758 447.71801758 C35.14657689 444.14425244 35.0875067 440.57276441 35 437 C34.21753906 436.70125977 33.43507813 436.40251953 32.62890625 436.09472656 C25.99206673 433.33102036 19.213613 426.42722601 16 420 C-0.83 420 -17.66 420 -35 420 C-31.04 425.28 -27.08 430.56 -23 436 C-20.61763376 440.76473248 -21.6877454 447.96058598 -21.64990234 453.25708008 C-21.63335176 454.95546174 -21.60607315 456.65377401 -21.56787109 458.35180664 C-21.51300342 460.80391463 -21.49121487 463.25439147 -21.4765625 465.70703125 C-21.45389313 466.46240677 -21.43122375 467.21778229 -21.40786743 467.99604797 C-21.42347009 471.90440345 -21.86649549 473.81807901 -24.20068359 476.9987793 C-27.2993833 479.21402799 -28.57605615 479.56159626 -32.3125 479.3125 C-33.63701172 479.24482422 -33.63701172 479.24482422 -34.98828125 479.17578125 C-35.65214844 479.11777344 -36.31601563 479.05976563 -37 479 C-36.97905273 479.82201904 -36.95810547 480.64403809 -36.93652344 481.4909668 C-36.85326691 485.22301964 -36.80130753 488.95487694 -36.75 492.6875 C-36.71648437 493.98107422 -36.68296875 495.27464844 -36.6484375 496.60742188 C-36.63554687 497.85458984 -36.62265625 499.10175781 -36.609375 500.38671875 C-36.58842773 501.53358154 -36.56748047 502.68044434 -36.54589844 503.86206055 C-37.09584575 507.66231471 -38.32823994 509.29594531 -41 512 C-43 512.62890625 -43 512.62890625 -45 512.5625 C-45.66 512.56378906 -46.32 512.56507813 -47 512.56640625 C-49 512 -49 512 -53 508 C-53 498.43 -53 488.86 -53 479 C-77.42 479 -101.84 479 -127 479 C-127 487.91 -127 496.82 -127 506 C-130 511 -130 511 -131 512 C-132.9609375 512.23828125 -132.9609375 512.23828125 -135.375 512.3125 C-136.16648437 512.34988281 -136.95796875 512.38726563 -137.7734375 512.42578125 C-140 512 -140 512 -143 508 C-143 498.43 -143 488.86 -143 479 C-167.75 479 -192.5 479 -218 479 C-218 488.57 -218 498.14 -218 508 C-222 512 -222 512 -224 512.56640625 C-224.66 512.56511719 -225.32 512.56382812 -226 512.5625 C-226.66 512.58441406 -227.32 512.60632813 -228 512.62890625 C-231.15542573 511.63667277 -232.20597346 509.71456047 -234 507 C-234.45410156 503.86206055 -234.45410156 503.86206055 -234.390625 500.38671875 C-234.37128906 498.5159668 -234.37128906 498.5159668 -234.3515625 496.60742188 C-234.31804687 495.31384766 -234.28453125 494.02027344 -234.25 492.6875 C-234.22292969 490.71813477 -234.22292969 490.71813477 -234.1953125 488.70898438 C-234.14822786 485.47191512 -234.08247042 482.23632947 -234 479 C-234.67546875 479.03480469 -235.3509375 479.06960938 -236.046875 479.10546875 C-236.93890625 479.13253906 -237.8309375 479.15960938 -238.75 479.1875 C-239.63171875 479.22230469 -240.5134375 479.25710938 -241.421875 479.29296875 C-244.50493103 478.94262147 -245.78515964 478.14001467 -248 476 C-249.18090212 472.45729365 -249.19968702 469.20562321 -249.23828125 465.515625 C-249.246353 464.78180603 -249.25442474 464.04798706 -249.26274109 463.29193115 C-249.27656199 461.73858996 -249.28729306 460.18521866 -249.29516602 458.63183594 C-249.30667055 457.05101561 -249.32709844 455.47023366 -249.35668945 453.88964844 C-249.39957923 451.59804048 -249.41556465 449.30758562 -249.42578125 447.015625 C-249.44328934 446.31745667 -249.46079742 445.61928833 -249.47883606 444.89996338 C-249.44727157 437.66588268 -246.04956409 433.09185418 -241.6875 427.5546875 C-241.08679688 426.78769531 -240.48609375 426.02070313 -239.8671875 425.23046875 C-239.25101563 424.45316406 -238.63484375 423.67585938 -238 422.875 C-237.38382813 422.08996094 -236.76765625 421.30492187 -236.1328125 420.49609375 C-231.10021545 414.09195201 -231.10021545 414.09195201 -228.84155273 412.01953125 C-225.87124407 407.14921738 -226.28861472 402.10884412 -226.22265625 396.5078125 C-226.20222763 395.28851044 -226.18179901 394.06920837 -226.16075134 392.81295776 C-226.12738245 390.23593946 -226.10540626 387.65875203 -226.09399414 385.08154297 C-226.06265005 381.14385013 -225.95142626 377.21340998 -225.83789062 373.27734375 C-225.8153671 370.77087289 -225.79763077 368.26435351 -225.78515625 365.7578125 C-225.74093033 364.58469513 -225.69670441 363.41157776 -225.65113831 362.20291138 C-225.68836853 358.79886768 -225.838906 356.20459387 -227 353 C-230.33061933 349.89531787 -233.95299058 348.02112781 -238 346 C-249.25888517 337.69916025 -257.0937266 324.57123684 -260 311 C-260.41113509 307.21735534 -260.47793962 303.4900977 -260.4375 299.6875 C-260.42920166 298.6763916 -260.42090332 297.6652832 -260.41235352 296.62353516 C-260.23703729 288.85097453 -259.22339552 282.13958052 -256 275 C-255.53722656 273.94039063 -255.07445312 272.88078125 -254.59765625 271.7890625 C-250.49519498 263.34340873 -244.91403865 256.96485924 -238.36572266 250.37597656 C-237.200085 249.20158725 -236.05660429 248.00527507 -234.91796875 246.8046875 C-227.50382671 239.07255742 -227.50382671 239.07255742 -223 237 C-219.39781326 237 -217.1735264 237.25676661 -214.125 239.1875 C-212.47738308 241.84199392 -212.12466901 243.88327487 -212 247 C-214.07226206 251.31543232 -217.13082811 254.15992258 -220.6875 257.25 C-230.49804535 266.07875151 -240.64957803 276.33817228 -243 290 C-243.03888349 292.33300933 -243.0448635 294.66709801 -243 297 C-242.65461182 296.56502197 -242.30922363 296.13004395 -241.95336914 295.68188477 C-238.1906263 291.10021026 -234.17832307 287.47750213 -229.4375 283.9375 C-228.71296631 283.38876221 -227.98843262 282.84002441 -227.24194336 282.2746582 C-220.45614679 277.20411842 -213.40806913 272.55081122 -206.33691406 267.89160156 C-191.23897101 257.91426992 -178.3286524 247.41609702 -174 229 C-173.78524301 226.179391 -173.80776441 223.38898081 -173.875 220.5625 C-173.88402344 219.83095703 -173.89304687 219.09941406 -173.90234375 218.34570312 C-173.92563847 216.56365702 -173.9614981 214.78178241 -174 213 C-175.17755859 214.41152344 -175.17755859 214.41152344 -176.37890625 215.8515625 C-177.4398089 217.10962405 -178.50102361 218.36742249 -179.5625 219.625 C-180.07619141 220.24246094 -180.58988281 220.85992187 -181.11914062 221.49609375 C-189.75379673 231.68606058 -189.75379673 231.68606058 -195.625 234.0625 C-198.84159458 233.97785277 -200.45708121 232.92437097 -203 231 C-205 228 -205 228 -205.125 224.8125 C-203.75407781 220.16659702 -201.74094116 218.45749666 -198.26171875 215.234375 C-187.36737224 204.47173907 -182.00319871 192.10294394 -181.375 177 C-181.33632812 176.22527344 -181.29765625 175.45054687 -181.2578125 174.65234375 C-181.16478643 172.76856585 -181.08136825 170.88431744 -181 169 C-181.928125 168.87625 -182.85625 168.7525 -183.8125 168.625 C-187 168 -187 168 -190 166 C-190.8011614 162.94557217 -191.29156696 161.04979037 -191 158 C-188.875 155 -188.875 155 -186 153 C-183.1875 152.6875 -183.1875 152.6875 -181 153 C-180.9175 151.906875 -180.835 150.81375 -180.75 149.6875 C-180 146 -180 146 -178.375 144.0625 C-175.02317947 142.56300134 -172.63019782 142.54622527 -169 143 C-166.5625 144.625 -166.5625 144.625 -165 147 C-164.75 150.25 -164.75 150.25 -165 153 C-164.0925 152.9175 -163.185 152.835 -162.25 152.75 C-159 153 -159 153 -156.625 154.5625 C-154.3914431 157.91283535 -154.50601791 160.0481433 -155 164 C-156.0625 166.375 -156.0625 166.375 -158 168 C-160.32515583 168.38627184 -162.65919555 168.7239745 -165 169 C-164.20430671 189.33133552 -158.78430242 204.46935437 -144.03125 218.9296875 C-142.06121495 220.67433718 -140.03937758 222.33685243 -138 224 C-136.95107201 224.89473421 -135.90437989 225.79209318 -134.859375 226.69140625 C-129.40608067 231.37439922 -123.96751563 235.97539643 -118 240 C-109.99080223 236.59296932 -104.34483174 227.76381677 -101 220 C-98.47546582 212.63446347 -98.41663003 204.70765559 -98 197 C-99.41152344 197.04833984 -99.41152344 197.04833984 -100.8515625 197.09765625 C-104 197 -104 197 -106.375 195.4375 C-108.62340519 192.06489221 -108.56783945 189.97487617 -108 186 C-106.375 183.5625 -106.375 183.5625 -104 182 C-100.75 181.75 -100.75 181.75 -98 182 C-98.0825 181.0925 -98.165 180.185 -98.25 179.25 C-98 176 -98 176 -96.5 173.625 C-93.46478198 171.65210829 -91.47802406 171.36028979 -87.90625 171.546875 C-86 172 -86 172 -83.5 174.1875 C-81.92537608 177.13991985 -81.62465935 178.71576929 -82 182 C-81.071875 181.938125 -80.14375 181.87625 -79.1875 181.8125 C-76 182 -76 182 -74.1875 183.125 C-72.48943073 185.806162 -72.1266856 187.83285993 -72 191 C-73.13779872 193.32731556 -74.16840714 195.16840714 -76 197 C-77.99958364 197.04080783 -80.00045254 197.04254356 -82 197 C-81.77220171 215.63804175 -77.60198598 227.67065962 -64 241 C-56.77446078 225.99423864 -56.79467725 214.92069024 -60.66015625 198.8515625 C-62.66053976 190.51071293 -62.66053976 190.51071293 -62 186 C-59.73859457 182.98777357 -58.50761875 182.09563831 -54.765625 181.390625 C-53.60546875 181.34421875 -52.4453125 181.2978125 -51.25 181.25 C-50.07953125 181.19328125 -48.9090625 181.1365625 -47.703125 181.078125 C-46.36507812 181.03945313 -46.36507812 181.03945313 -45 181 C-31.23647632 143.6923182 -31.23647632 143.6923182 -26.5625 104.5625 C-26.56926758 103.43251083 -26.56926758 103.43251083 -26.57617188 102.2796936 C-26.69116188 94.63233003 -27.19267691 88.30140182 -32.64038086 82.49584961 C-36.25087261 78.52359553 -35.32854708 72.51603096 -35.26171875 67.50390625 C-34.47269659 56.94043047 -26.41260282 50.73116002 -18.828125 44.1015625 C-18.20421875 43.57304688 -17.5803125 43.04453125 -16.9375 42.5 C-13.61595109 39.67314987 -13.12326879 39.18398915 -12.68359375 34.9609375 C-12.56177734 33.18589844 -12.56177734 33.18589844 -12.4375 31.375 C-12.35371094 30.18648437 -12.26992188 28.99796875 -12.18359375 27.7734375 C-12.12300781 26.85820312 -12.06242188 25.94296875 -12 25 C-12.94101562 25.04382813 -13.88203125 25.08765625 -14.8515625 25.1328125 C-18 25 -18 25 -20.375 22.875 C-22.28071139 19.50335677 -22.64850195 17.80994895 -22 14 C-20.375 11.625 -20.375 11.625 -18 10 C-14.75 9.75 -14.75 9.75 -12 10 C-12.0825 9.0925 -12.165 8.185 -12.25 7.25 C-12 4 -12 4 -10.5 1.625 C-6.99359333 -0.65416433 -4.07099353 -0.81753559 0 0 Z M-11.5625 59.9375 C-12.16513672 60.50146484 -12.76777344 61.06542969 -13.38867188 61.64648438 C-17.88444104 65.29557391 -17.88444104 65.29557391 -19.125 70.4375 C-19.2526281 73.84105584 -19.2526281 73.84105584 -18 76 C-8.76 76 0.48 76 10 76 C11.50889469 72.98221063 11.50026276 71.37677363 11 68 C7.41253653 62.65606332 2.2852511 57.68154694 -3 54 C-6.62753297 54 -9.03533095 57.54090589 -11.5625 59.9375 Z M-11 92 C-11 100.58 -11 109.16 -11 118 C-6.38 118 -1.76 118 3 118 C3 109.42 3 100.84 3 92 C-1.62 92 -6.24 92 -11 92 Z M-44 197 C-43.88382356 198.37577361 -43.75654223 199.75061045 -43.625 201.125 C-43.55539063 201.89070312 -43.48578125 202.65640625 -43.4140625 203.4453125 C-42.9677549 206.63131136 -42.9677549 206.63131136 -41 212 C-16.58 212 7.84 212 33 212 C35.07876361 205.07124906 35.07876361 205.07124906 36 198 C9.33600764 196.81647254 -17.31502186 196.89127895 -44 197 Z M-42 228 C-44.64 235.92 -47.28 243.84 -50 252 C-47.29768546 255.37789318 -45.23715812 257.85303931 -42.0625 260.5625 C-41.37285156 261.15289062 -40.68320313 261.74328125 -39.97265625 262.3515625 C-37.67620782 264.27057485 -35.35836503 266.15752732 -33 268 C-32.54625 267.29875 -32.0925 266.5975 -31.625 265.875 C-25.01551219 258.63603716 -15.63777055 254.61689685 -5.96875 253.8359375 C4.56974049 253.42775653 13.80080534 257.19074494 21.5 264.3125 C21.995 264.869375 22.49 265.42625 23 266 C25.9221804 264.64581884 28.30185504 263.07203863 30.8125 261.0625 C34.39733145 258.31166311 37.77903764 256.58286089 42 255 C39.88110134 245.74919854 37.02027538 237.06082615 34 228 C8.92 228 -16.16 228 -42 228 Z M-158 231 C-158.13535156 231.71542969 -158.27070313 232.43085938 -158.41015625 233.16796875 C-164.02326802 259.14961785 -183.89133491 272.86560774 -204.83203125 286.64282227 C-223.50023726 298.28340243 -223.50023726 298.28340243 -235 316 C-235.350625 317.258125 -235.70125 318.51625 -236.0625 319.8125 C-236.3324582 322.4720882 -236.17009443 323.6968385 -234.8515625 326.046875 C-230.06703251 331.84222118 -223.71986755 336.64006622 -217 340 C-215.00039988 340.039992 -212.99952758 340.04346799 -211 340 C-210.79246094 339.17757812 -210.58492187 338.35515625 -210.37109375 337.5078125 C-205.44345643 319.65285885 -193.43900797 309.25027918 -178.83154297 298.8918457 C-166.85075646 290.38326167 -156.58970363 282.57627358 -150.5625 268.6875 C-148.52559234 255.33443865 -150.8130857 243.3598093 -156 231 C-156.66 231 -157.32 231 -158 231 Z M-134 249 C-134 250.98 -134 252.96 -134 255 C-132.68 254.34 -131.36 253.68 -130 253 C-131.32 251.68 -132.64 250.36 -134 249 Z M142.0546875 250.75 C140.97574219 251.86375 140.97574219 251.86375 139.875 253 C139.15054687 253.7425 138.42609375 254.485 137.6796875 255.25 C137.12539063 255.8275 136.57109375 256.405 136 257 C137.3811351 261.54799764 139.24174811 265.64362856 141.4921875 269.8125 C141.83410629 270.45458405 142.17602509 271.09666809 142.52830505 271.75820923 C143.63924427 273.84131619 144.75693082 275.92071253 145.875 278 C146.65027896 279.44954917 147.42526025 280.89925757 148.19995117 282.34912109 C153.91808917 293.03800421 159.6989611 303.69237208 165.53222656 314.31884766 C167.15070729 317.27529399 168.75966074 320.23680278 170.3671875 323.19921875 C171.19996216 324.73231689 171.19996216 324.73231689 172.04956055 326.29638672 C173.11994872 328.26740707 174.18917231 330.23906043 175.25708008 332.21142578 C175.73298584 333.08653809 176.2088916 333.96165039 176.69921875 334.86328125 C177.12033936 335.63969971 177.54145996 336.41611816 177.9753418 337.21606445 C178.87494431 338.96193512 178.87494431 338.96193512 180 340 C181.62139437 340.12494616 183.24884122 340.17571624 184.875 340.1875 C185.75929688 340.20167969 186.64359375 340.21585937 187.5546875 340.23046875 C190.25766726 340.17068424 190.25766726 340.17068424 193 338 C191.40014126 332.32188863 188.67030647 327.49111194 185.8125 322.375 C184.72160114 320.39901964 183.63181004 318.42242741 182.54296875 316.4453125 C181.96595215 315.39891602 181.38893555 314.35251953 180.79443359 313.27441406 C177.69667714 307.62174609 174.66240084 301.93525976 171.625 296.25 C170.36098588 293.88655352 169.0964952 291.52336209 167.83203125 289.16015625 C167.36055161 288.2787925 167.36055161 288.2787925 166.87954712 287.37962341 C163.36527685 280.81123549 159.84098455 274.24826139 156.3125 267.6875 C155.7364502 266.61467773 155.16040039 265.54185547 154.56689453 264.43652344 C151.77655827 259.25103094 148.95327516 254.09457929 146 249 C143.81170957 248.77706675 143.81170957 248.77706675 142.0546875 250.75 Z M-99 258 C-110.74302307 275.52754925 -120.03189114 292.83134236 -117.59765625 314.59765625 C-115.5262976 325.07701512 -110.79443563 331.85927789 -102.83203125 338.78515625 C-100.94966313 340.27632406 -100.94966313 340.27632406 -98 340 C-98 312.94 -98 285.88 -98 258 C-98.33 258 -98.66 258 -99 258 Z M-82 259 C-82 285.73 -82 312.46 -82 340 C-75.47516243 338.36879061 -72.30768657 334.82847683 -68.8125 329.3125 C-61.65552542 316.53889707 -61.33251695 303.23622351 -64.94580078 289.14233398 C-68.13447326 278.21867078 -74.15889441 268.02368817 -81 259 C-81.33 259 -81.66 259 -82 259 Z M120.93359375 270.96875 C120.10988281 271.8040625 119.28617187 272.639375 118.4375 273.5 C117.61121094 274.3353125 116.78492188 275.170625 115.93359375 276.03125 C114.97646484 277.00578125 114.97646484 277.00578125 114 278 C115.29565805 282.20116732 116.89146753 285.93373258 118.984375 289.796875 C119.58362793 290.90885254 120.18288086 292.02083008 120.80029297 293.16650391 C121.45011968 294.36104375 122.10002378 295.5555415 122.75 296.75 C123.41728952 297.98461472 124.08411245 299.21948173 124.75048828 300.45458984 C126.13169523 303.01303638 127.51547497 305.57006506 128.90136719 308.12597656 C131.61428096 313.13077501 134.31137259 318.14406467 137.00878906 323.15722656 C138.23638014 325.43832332 139.4648707 327.71893627 140.69433594 329.99902344 C141.24637695 331.02286133 141.79841797 332.04669922 142.3671875 333.1015625 C142.85300293 334.00213379 143.33881836 334.90270508 143.83935547 335.83056641 C144.57777447 337.21079174 145.29995935 338.59991869 146 340 C150.95 340 155.9 340 161 340 C159.67415848 336.02247543 158.66783933 333.10464244 156.70703125 329.5859375 C156.02012207 328.34179077 156.02012207 328.34179077 155.31933594 327.07250977 C154.82208008 326.18233154 154.32482422 325.29215332 153.8125 324.375 C152.72940231 322.41334886 151.6474265 320.45107799 150.56640625 318.48828125 C149.99035645 317.44365723 149.41430664 316.3990332 148.82080078 315.32275391 C145.58895567 309.42500492 142.4204903 303.49339019 139.25 297.5625 C138.60711672 296.36082895 137.96421327 295.15916868 137.32128906 293.95751953 C135.54648369 290.63890198 133.77288019 287.31964635 132 284 C131.52385254 283.10845215 131.04770508 282.2169043 130.55712891 281.29833984 C128.36905062 277.20015302 126.18296831 273.10091172 124 269 C122.64498098 268.88503469 122.64498098 268.88503469 120.93359375 270.96875 Z M-55 270 C-54.81824219 270.59425781 -54.63648438 271.18851562 -54.44921875 271.80078125 C-53.04905709 276.41772458 -51.68087729 281.04295123 -50.375 285.6875 C-50.13523438 286.53699219 -49.89546875 287.38648438 -49.6484375 288.26171875 C-45.65892886 305.10898116 -46.90167147 323.60122774 -56.046875 338.55859375 C-56.36140625 339.03425781 -56.6759375 339.50992188 -57 340 C-48.94683649 338.88385979 -42.56550067 332.36610081 -37.5078125 326.296875 C-32.41560178 318.53982861 -30.71490565 309.59540159 -32.47265625 300.57421875 C-35.86037869 287.53047306 -44.31526848 278.83956897 -54 270 C-54.33 270 -54.66 270 -55 270 Z M-127 271 C-136.2766309 278.71044646 -145.76220795 287.54521797 -148 300 C-148.61931875 308.7212263 -148.79047218 316.41009563 -144 324 C-143.38125 325.02673828 -143.38125 325.02673828 -142.75 326.07421875 C-138.75015086 332.03990284 -132.68651375 337.59404588 -125.6953125 339.69140625 C-125.13585937 339.79324219 -124.57640625 339.89507812 -124 340 C-124.40992188 339.14277344 -124.81984375 338.28554688 -125.2421875 337.40234375 C-126.05042969 335.68724609 -126.05042969 335.68724609 -126.875 333.9375 C-127.40867188 332.81214844 -127.94234375 331.68679688 -128.4921875 330.52734375 C-136.01215475 312.93529601 -133.4015893 293.40653792 -126.92578125 275.94921875 C-125.65798594 273.10522457 -125.65798594 273.10522457 -127 271 Z M104 296 C100.11178542 304.99149622 101.69921923 313.98448606 104.73828125 322.984375 C106.54711789 327.30766258 108.79647265 330.60395298 112 334 C112.53625 334.59941406 113.0725 335.19882812 113.625 335.81640625 C116.94841767 339.13213082 119.1821732 340.36009302 123.9375 340.375 C125.29409299 340.27987996 126.65015829 340.16528674 128 340 C123.34062733 330.55791832 118.58145548 321.16769856 113.75 311.8125 C112.98961426 310.32544556 112.98961426 310.32544556 112.21386719 308.80834961 C109.8129451 304.18122601 107.5123307 299.90537723 104 296 Z M-187.3125 325.8125 C-190.93508361 329.61761689 -195 334.48879024 -195 340 C-181.14 340 -167.28 340 -153 340 C-155.97 334.555 -155.97 334.555 -159 329 C-162.516381 322.34399311 -163.12944135 315.38438575 -164 308 C-170.35527662 308 -182.87713811 321.56349785 -187.3125 325.8125 Z M86 315 C85.814375 315.61875 85.62875 316.2375 85.4375 316.875 C83.30147676 320.03259957 80.58189943 320.08913898 77 321 C76.31621975 332.39633754 76.8214046 340.14123088 84.6171875 348.9609375 C91.57052531 356.27811276 99.74102322 364.84203358 109 369 C110.3888812 358.60187456 110.3888812 358.60187456 106.984375 349.18359375 C105.23827018 347.72240723 103.44443158 346.31653167 101.609375 344.96875 C92.4899023 338.08818976 88.71590981 325.81474738 87 315 C86.67 315 86.34 315 86 315 Z M68 355 C67.06027344 356.06541016 67.06027344 356.06541016 66.1015625 357.15234375 C65.28429687 358.07144531 64.46703125 358.99054688 63.625 359.9375 C62.81289063 360.85402344 62.00078125 361.77054687 61.1640625 362.71484375 C59 365 59 365 57 366 C57.59850402 368.98965642 58.48912049 370.99778498 60.28515625 373.453125 C60.73310547 374.071875 61.18105469 374.690625 61.64257812 375.328125 C62.11115234 375.96234375 62.57972656 376.5965625 63.0625 377.25 C63.53494141 377.8996875 64.00738281 378.549375 64.49414062 379.21875 C65.65723529 380.81653662 66.82788601 382.40881803 68 384 C71.0936993 381.03898758 73.74043263 377.92315365 76.3125 374.5 C77.03050781 373.5615625 77.74851562 372.623125 78.48828125 371.65625 C80.22562317 369.18304707 80.22562317 369.18304707 79.8203125 366.765625 C78.84658779 364.66979849 77.80200548 363.44160438 76 362 C75.34 362 74.68 362 74 362 C73.7525 361.401875 73.505 360.80375 73.25 360.1875 C71.83153093 357.70517913 70.30735262 356.63671965 68 355 Z M-210 356 C-210 371.51 -210 387.02 -210 403 C-205.38 403 -200.76 403 -196 403 C-195.94392578 400.03773438 -195.94392578 400.03773438 -195.88671875 397.015625 C-195.82106684 394.42706409 -195.75461924 391.83852328 -195.6875 389.25 C-195.66494141 387.94804687 -195.64238281 386.64609375 -195.61914062 385.3046875 C-195.58369141 384.05429687 -195.54824219 382.80390625 -195.51171875 381.515625 C-195.48553467 380.36352539 -195.45935059 379.21142578 -195.43237305 378.02441406 C-194.96514031 374.75615931 -194.28670356 373.33975199 -192 371 C-190.0625 370.46875 -190.0625 370.46875 -188 370.5 C-187.319375 370.4896875 -186.63875 370.479375 -185.9375 370.46875 C-183.11693022 371.24213204 -182.4819963 372.50632773 -181 375 C-180.56762695 378.02441406 -180.56762695 378.02441406 -180.48828125 381.515625 C-180.43510742 383.39121094 -180.43510742 383.39121094 -180.38085938 385.3046875 C-180.35830078 386.60664063 -180.33574219 387.90859375 -180.3125 389.25 C-180.26125977 391.22613281 -180.26125977 391.22613281 -180.20898438 393.2421875 C-180.1264984 396.49449171 -180.06157327 399.74723267 -180 403 C-175.38 403 -170.76 403 -166 403 C-165.96261719 401.02515625 -165.92523438 399.0503125 -165.88671875 397.015625 C-165.82106684 394.42706409 -165.75461924 391.83852328 -165.6875 389.25 C-165.66494141 387.94804687 -165.64238281 386.64609375 -165.61914062 385.3046875 C-165.58369141 384.05429687 -165.54824219 382.80390625 -165.51171875 381.515625 C-165.48553467 380.36352539 -165.45935059 379.21142578 -165.43237305 378.02441406 C-164.96514031 374.75615931 -164.28670356 373.33975199 -162 371 C-160.0625 370.46875 -160.0625 370.46875 -158 370.5 C-157.319375 370.4896875 -156.63875 370.479375 -155.9375 370.46875 C-153.11693022 371.24213204 -152.4819963 372.50632773 -151 375 C-150.56762695 378.02441406 -150.56762695 378.02441406 -150.48828125 381.515625 C-150.45283203 382.76601563 -150.41738281 384.01640625 -150.38085938 385.3046875 C-150.34702148 387.25761719 -150.34702148 387.25761719 -150.3125 389.25 C-150.27833984 390.56742187 -150.24417969 391.88484375 -150.20898438 393.2421875 C-150.1264984 396.49449171 -150.06157327 399.74723267 -150 403 C-145.38 403 -140.76 403 -136 403 C-136 387.49 -136 371.98 -136 356 C-160.42 356 -184.84 356 -210 356 Z M-120 356 C-120 371.51 -120 387.02 -120 403 C-112.74 403 -105.48 403 -98 403 C-97.96261719 400.94136719 -97.92523438 398.88273437 -97.88671875 396.76171875 C-97.83804283 394.76600608 -97.78926393 392.77029443 -97.73754883 390.7746582 C-97.70431451 389.38870623 -97.67627774 388.00261939 -97.65356445 386.61645508 C-97.61999383 384.62293157 -97.56612 382.62978259 -97.51171875 380.63671875 C-97.48553467 379.43748779 -97.45935059 378.23825684 -97.43237305 377.00268555 C-97 374 -97 374 -95.68676758 372.10473633 C-92.86262817 370.25508647 -90.26465827 370.70851265 -87 371 C-84 373 -84 373 -83 376 C-82.84970012 378.06362991 -82.75155552 380.13123915 -82.68359375 382.19921875 C-82.64169922 383.40771484 -82.59980469 384.61621094 -82.55664062 385.86132812 C-82.51732422 387.12396484 -82.47800781 388.38660156 -82.4375 389.6875 C-82.39431641 390.96173828 -82.35113281 392.23597656 -82.30664062 393.54882812 C-82.20045211 396.69908727 -82.09971187 399.8495292 -82 403 C-75.07 403 -68.14 403 -61 403 C-61 387.49 -61 371.98 -61 356 C-80.47 356 -99.94 356 -120 356 Z M125 356 C125 371.51 125 387.02 125 403 C131.93 403 138.86 403 146 403 C146.04898437 401.09734375 146.09796875 399.1946875 146.1484375 397.234375 C146.22346927 394.73956858 146.29901692 392.24477763 146.375 389.75 C146.42140625 387.86861328 146.42140625 387.86861328 146.46875 385.94921875 C146.50742187 384.74394531 146.54609375 383.53867187 146.5859375 382.296875 C146.6173584 381.18666992 146.6487793 380.07646484 146.68115234 378.93261719 C146.99089737 376.0837219 147.43462483 374.3769224 149 372 C152.04983996 370.47508002 154.6423369 370.76437452 158 371 C159.69067383 372.10083008 159.69067383 372.10083008 161 374 C161.43237305 377.00268555 161.43237305 377.00268555 161.51171875 380.63671875 C161.54716797 381.93544922 161.58261719 383.23417969 161.61914062 384.57226562 C161.6422405 385.94400517 161.6650229 387.3157501 161.6875 388.6875 C161.72067542 390.07099607 161.75516531 391.45446129 161.79101562 392.83789062 C161.8736273 396.22496933 161.93848572 399.61247246 162 403 C169.26 403 176.52 403 184 403 C184 387.49 184 371.98 184 356 C164.53 356 145.06 356 125 356 Z M38.125 382.5 C32.17070388 388.60895316 28.47916918 394.05588262 27.9140625 402.7109375 C28.16714533 409.45214391 30.4678407 413.80936794 35.1875 418.5625 C36.44405961 419.72396861 37.71016115 420.87560366 39 422 C43.41863719 420.47949898 45.42617605 417.00833815 47.9375 413.3125 C48.77994792 412.10026042 49.62239583 410.88802083 50.46484375 409.67578125 C50.87589355 409.07072754 51.28694336 408.46567383 51.71044922 407.84228516 C52.59523998 406.57825049 53.51600631 405.33887229 54.46533203 404.12255859 C57.18831738 400.95833661 57.18831738 400.95833661 57.79833984 397.05102539 C56.24019587 393.04797721 53.5443165 389.72627259 51.0625 386.25 C50.51142578 385.45722656 49.96035156 384.66445313 49.39257812 383.84765625 C48.86212891 383.09871094 48.33167969 382.34976562 47.78515625 381.578125 C47.05631226 380.54800293 47.05631226 380.54800293 46.31274414 379.49707031 C45.87953857 379.00303711 45.44633301 378.50900391 45 378 C41.74141686 378 40.38230463 380.27618654 38.125 382.5 Z M93 378 C87.96590729 384.12012793 83.26203624 390.31635226 79 397 C80.3530382 399.85486685 81.88563599 402.39484009 83.71484375 404.96875 C84.23626953 405.70480469 84.75769531 406.44085938 85.29492188 407.19921875 C85.83697266 407.95847656 86.37902344 408.71773438 86.9375 409.5 C87.47568359 410.25925781 88.01386719 411.01851563 88.56835938 411.80078125 C91.00544581 415.23253551 93.46454174 418.63999105 96 422 C102.04783621 419.53606673 105.61872331 414.80862004 108.2734375 409.03515625 C110.20034137 403.63775346 108.99798895 398.55134921 107.109375 393.33984375 C103.9666271 386.71130153 99.37304592 381.57512332 93 378 Z M68 412 C66.43833721 413.95724466 64.92768299 415.92700809 63.4375 417.9375 C63.01275391 418.50146484 62.58800781 419.06542969 62.15039062 419.64648438 C59.96085614 422.07970562 59.96085614 422.07970562 59 425 C65.27 425 71.54 425 78 425 C75.02872602 419.80027054 72.8449663 416.26063834 69 412 C68.67 412 68.34 412 68 412 Z M-223 430 C-223.57108994 430.73595901 -224.14217987 431.47191803 -224.73057556 432.23017883 C-226.1942794 433.90786193 -226.1942794 433.90786193 -226 436 C-224.31874988 437.19542478 -222.57751917 438.30712843 -220.8125 439.375 C-216.98095453 441.7036769 -213.45201868 444.1348876 -210 447 C-209.18208984 446.20335937 -209.18208984 446.20335937 -208.34765625 445.390625 C-198.59137717 436.25140972 -189.9003047 433.64747771 -176.65625 433.703125 C-172.13706097 434.0700677 -168.4566305 435.26686944 -164.3046875 437.02734375 C-162.20648325 437.91285707 -160.2197794 438.51410359 -158 439 C-157.47212891 438.18208984 -157.47212891 438.18208984 -156.93359375 437.34765625 C-153.62897646 432.30013376 -150.13166041 427.5252196 -146.3203125 422.84765625 C-144.8061997 421.10728023 -144.8061997 421.10728023 -145 419 C-153.84050801 418.74427825 -162.67972978 418.54926571 -171.523139 418.43006611 C-175.63044968 418.37283103 -179.73521753 418.29532177 -183.84106445 418.17016602 C-187.80947559 418.04996719 -191.77545454 417.9847425 -195.74554634 417.95635033 C-197.25405738 417.93614091 -198.76244609 417.89666916 -200.26991081 417.83696938 C-211.78588735 417.39936032 -216.85817114 420.0328331 -223 430 Z M-133.46630859 429.40966797 C-134.39720321 431.23152055 -135.21280951 433.11160313 -136 435 C-135.071875 435.69609375 -135.071875 435.69609375 -134.125 436.40625 C-129.41666667 439.9375 -124.70833333 443.46875 -120 447 C-119.5153125 446.54109375 -119.030625 446.0821875 -118.53125 445.609375 C-108.97282232 436.85973736 -99.62364188 433.4657874 -86.5703125 433.6875 C-77.04771966 434.52098734 -68.95584114 438.76478546 -62.40625 445.68359375 C-61.07769512 447.22780043 -61.07769512 447.22780043 -59 447 C-58.278125 446.278125 -57.55625 445.55625 -56.8125 444.8125 C-52.9235345 440.9235345 -48.56124948 438.04083299 -44 435 C-46.72229723 428.46946183 -49.89951933 422.86980898 -56 419 C-65.43148958 416.2292599 -75.55735676 416.68387891 -85.29882812 416.9140625 C-89.21814098 417.00535148 -93.12010626 416.95142188 -97.03881836 416.85882568 C-118.38855706 416.02665824 -118.38855706 416.02665824 -133.46630859 429.40966797 Z M114.55895996 427.38142395 C112.50900255 430.82472558 110.48960163 432.16795914 107 434 C108.30706526 436.61413053 109.67478833 437.03623102 112.25 438.375 C121.06733915 443.1346783 121.06733915 443.1346783 123 447 C125.85629596 445.69886735 127.92210213 444.28411995 130.1875 442.125 C138.11013668 435.14146896 147.0060825 433.62006576 157.26171875 433.7265625 C167.40289007 434.46834097 174.44613275 438.4885985 182 445 C182.99 445.66 183.98 446.32 185 447 C185.58007812 446.45730469 186.16015625 445.91460937 186.7578125 445.35546875 C190.96727971 441.50026363 194.69794692 438.17520126 200 436 C198.7440468 433.59275637 197.42101363 431.31048953 196 429 C195.51776978 428.16100662 195.03553955 427.32201324 194.53869629 426.45759583 C191.77187039 422.29361175 189.65921404 419.4864916 184.7487793 418.04672241 C180.76317447 417.66062108 176.841379 417.58041317 172.84375 417.63671875 C171.37217232 417.62742496 169.90061 417.61531593 168.42907715 417.60054016 C165.35514422 417.58135897 162.28412342 417.59852664 159.21044922 417.64135742 C155.28744631 417.69276559 151.37216276 417.64953903 147.4496994 417.57843304 C144.41381479 417.53459629 141.37974493 417.54317762 138.34370422 417.5669651 C136.89891029 417.57175607 135.45395865 417.56018408 134.00944519 417.53131676 C124.17938007 417.37126673 119.59683203 418.67292396 114.55895996 427.38142395 Z M51 441 C51 448.26 51 455.52 51 463 C62.55 463 74.1 463 86 463 C86 455.74 86 448.48 86 441 C74.45 441 62.9 441 51 441 Z M-198.90625 458.31640625 C-200.18131194 460.12452686 -200.18131194 460.12452686 -201 463 C-187.47 463 -173.94 463 -160 463 C-162.66426964 456.3393259 -166.32173886 452.6980479 -172.765625 449.73046875 C-182.9605806 446.3975025 -192.41880172 450.22511659 -198.90625 458.31640625 Z M-108.625 458.25 C-110.32129503 460.43946748 -110.32129503 460.43946748 -111 463 C-97.47 463 -83.94 463 -70 463 C-73.31296926 456.37406149 -76.23468514 452.80080276 -82.875 449.625 C-93.15741878 447.56851624 -101.99986857 449.58276924 -108.625 458.25 Z M136 458 C135.34 459.65 134.68 461.3 134 463 C147.53 463 161.06 463 175 463 C171.54243734 456.48073673 171.54243734 456.48073673 166.4375 452.625 C165.67308594 452.14289063 164.90867187 451.66078125 164.12109375 451.1640625 C154.20409671 445.7215853 143.07974007 449.89285702 136 458 Z M-233 451 C-233 454.96 -233 458.92 -233 463 C-228.71 463 -224.42 463 -220 463 C-222.45855281 458.2650094 -224.4213746 454.97610651 -229 452 C-230.32 451.67 -231.64 451.34 -233 451 Z M-143 451 C-143 454.96 -143 458.92 -143 463 C-138.71 463 -134.42 463 -130 463 C-132.14740427 457.69464827 -135.20277696 454.07458386 -140 451 C-140.99 451 -141.98 451 -143 451 Z M-47 456 C-49.396828 459.20716617 -49.396828 459.20716617 -50 463 C-46.04 463 -42.08 463 -38 463 C-38 459.04 -38 455.08 -38 451 C-41.61025531 451 -44.3368055 453.73135284 -47 456 Z M102 451 C102 454.96 102 458.92 102 463 C105.96 463 109.92 463 114 463 C112.05925642 458.14814105 110.84423888 456.30783346 107 453 C104.525 452.01 104.525 452.01 102 451 Z M198 456 C195.20449251 459.16395023 195.20449251 459.16395023 194 463 C198.29 463 202.58 463 207 463 C207 458.71 207 454.42 207 450 C203.93714316 450 200.21363993 454.09583982 198 456 Z " fill="#961043" transform="translate(275,0)"/>
</svg>
