<?xml version="1.0" encoding="UTF-8"?>
<svg version="1.1" xmlns="http://www.w3.org/2000/svg" width="512" height="512">
<path d="M0 0 C2.43559265 1.43664551 2.43559265 1.43664551 3.61495972 4.05200195 C3.87569778 5.16442261 4.13643585 6.27684326 4.40507507 7.42297363 C4.86710579 9.3236132 4.86710579 9.3236132 5.33847046 11.26264954 C5.65640837 12.6643058 5.97392633 14.06605738 6.2910614 15.46789551 C6.63630953 16.92196786 6.98345969 18.37558977 7.33239746 19.82878113 C8.26174434 23.72185173 9.16506061 27.62054036 10.06364441 31.52080917 C10.99313524 35.53458122 11.94679104 39.54259288 12.89848328 43.55114746 C14.40419489 49.90546729 15.8970692 56.2626489 17.37846375 62.62268066 C19.81497317 73.0821033 22.30659403 83.52815968 24.80366516 93.9732666 C25.42444895 96.57739868 26.04065958 99.18256671 26.65507507 101.78820801 C26.84148056 102.57734085 27.02788605 103.36647369 27.21994019 104.17951965 C27.55829425 105.61300578 27.89563777 107.04673104 28.23168945 108.48075867 C28.87017636 111.18190706 29.5570831 113.80111686 30.43559265 116.43664551 C30.72281189 115.36180908 31.01003113 114.28697266 31.30595398 113.17956543 C32.37481404 109.1904295 33.45700888 105.20501353 34.54325867 101.22058105 C35.01142242 99.4959806 35.4759697 97.77039416 35.93681335 96.04382324 C36.60007805 93.56139982 37.27629236 91.08281961 37.9551239 88.60461426 C38.26000481 87.44665596 38.26000481 87.44665596 38.57104492 86.26530457 C39.61060154 82.51983823 40.38893344 79.90856232 43.43559265 77.43664551 C45.93559265 77.31164551 45.93559265 77.31164551 48.43559265 78.43664551 C51.40127233 84.29882572 53.04819348 90.57856927 54.82621765 96.88195801 C55.28952484 98.51401688 55.28952484 98.51401688 55.76219177 100.17904663 C56.41014023 102.46942463 57.05545662 104.7605487 57.69828796 107.05236816 C58.68516743 110.56013411 59.68896619 114.06277951 60.69340515 117.56555176 C61.32205358 119.79572641 61.94969271 122.02618587 62.57621765 124.25695801 C62.87820068 125.30288116 63.18018372 126.34880432 63.49131775 127.42642212 C63.76200073 128.40448822 64.03268372 129.38255432 64.31156921 130.39025879 C64.55344971 131.24628693 64.7953302 132.10231506 65.04454041 132.98428345 C65.49220385 135.79166499 65.25273495 137.72212762 64.43559265 140.43664551 C63.77559265 141.09664551 63.11559265 141.75664551 62.43559265 142.43664551 C62.22800643 145.45682907 62.14512699 148.38725438 62.14848328 151.40930176 C62.14165024 152.33962723 62.1348172 153.2699527 62.1277771 154.22846985 C62.11416124 156.25444104 62.1051259 158.28044689 62.10006714 160.30645752 C62.09179213 163.51875804 62.0712957 166.73077233 62.04753113 169.94299316 C61.99921163 176.77416812 61.96638412 183.60537206 61.93559265 190.43664551 C61.8998721 198.32588477 61.85774552 206.21498659 61.7996521 214.10409546 C61.77968223 217.25801465 61.77128068 220.41182687 61.76335144 223.5657959 C61.75036543 225.52014543 61.73684316 227.47449149 61.72270203 229.42883301 C61.72368393 230.2967598 61.72466583 231.16468658 61.72567749 232.05891418 C61.68435555 236.18967454 61.38950991 239.94640151 60.43757629 243.96994019 C58.80352555 251.50975523 59.1261069 259.23510987 59.116745 266.91174316 C59.10743367 268.6668951 59.09726323 270.42204265 59.08630371 272.17718506 C59.05912538 276.91610192 59.04389057 281.65498926 59.03087568 286.39396334 C59.01519164 291.35609077 58.98841835 296.31815838 58.96284485 301.28024292 C58.91615015 310.66511863 58.8793611 320.05000571 58.84617198 329.43493783 C58.80788465 340.12424166 58.75849188 350.81348526 58.70818782 361.50273824 C58.60500648 383.4806628 58.51570139 405.45862553 58.43559265 427.43664551 C60.38465515 427.40570801 60.38465515 427.40570801 62.37309265 427.37414551 C63.72724898 427.35265096 65.08315348 427.36516352 66.43559265 427.43664551 C68.10347163 429.10452448 67.56733434 431.13386053 67.58222961 433.36190796 C67.58177643 434.06582672 67.58132324 434.76974548 67.58085632 435.49499512 C67.58589424 436.60230232 67.58589424 436.60230232 67.59103394 437.73197937 C67.60057147 440.18433288 67.60248844 442.63661833 67.6035614 445.08898926 C67.60677204 446.78670785 67.61013596 448.48442617 67.61364746 450.18214417 C67.61964575 453.74574424 67.62148665 457.30932004 67.62089539 460.8729248 C67.62079372 465.44757594 67.63444685 470.02207201 67.65166759 474.59668636 C67.6627661 478.10446391 67.66481526 481.61220371 67.66428566 485.11999702 C67.665469 486.80695696 67.66991043 488.49391778 67.67761803 490.18086052 C67.68737474 492.53698576 67.68455718 494.89277109 67.67851257 497.24890137 C67.68413208 497.9507959 67.68975159 498.65269043 67.69554138 499.37585449 C67.66390843 504.20832973 67.66390843 504.20832973 65.43559265 506.43664551 C63.10514927 506.6911211 63.10514927 506.6911211 60.12811279 506.69734192 C58.43924706 506.70796913 58.43924706 506.70796913 56.71626282 506.71881104 C55.47516754 506.71633362 54.23407227 506.7138562 52.95536804 506.71130371 C51.65291641 506.71641464 50.35046478 506.72152557 49.00854492 506.72679138 C45.43003526 506.7402104 41.85163102 506.74075683 38.27310109 506.73822808 C35.28839559 506.73716028 32.30371159 506.74203685 29.31901067 506.7468335 C22.27883488 506.75793883 15.23871243 506.75836042 8.1985321 506.75231934 C0.92987014 506.7462782 -6.33859832 506.75859166 -13.60722727 506.7798894 C-19.84251961 506.79748922 -26.07775027 506.80350932 -32.31306654 506.80025166 C-36.03946252 506.79843598 -39.76572049 506.8011031 -43.49209404 506.8149662 C-47.64645377 506.8298424 -51.80041818 506.82058867 -55.95478821 506.80895996 C-57.19385925 506.8166037 -58.4329303 506.82424744 -59.70954895 506.8321228 C-60.83827927 506.82510849 -61.96700958 506.81809418 -63.12994385 506.81086731 C-64.60414244 506.81111892 -64.60414244 506.81111892 -66.10812283 506.81137562 C-68.96656919 506.3752918 -69.86407135 505.73419753 -71.56440735 503.43664551 C-71.868927 501.56455994 -71.868927 501.56455994 -71.77461243 499.43444824 C-71.74984833 498.6312767 -71.72508423 497.82810516 -71.6995697 497.00059509 C-71.66141144 496.13257767 -71.62325317 495.26456024 -71.5839386 494.37023926 C-71.54085576 492.51227382 -71.5028732 490.65418458 -71.46943665 488.79602051 C-71.4422908 487.3429248 -71.4422908 487.3429248 -71.41459656 485.86047363 C-70.5479991 466.57894097 -70.5479991 466.57894097 -78.75190735 449.93664551 C-80.64782378 447.99492104 -82.5854015 446.14386947 -84.60493469 444.33117676 C-88.11306278 440.93931606 -90.7659199 436.91513668 -93.56440735 432.93664551 C-98.79507082 425.74981689 -104.19266737 418.70700838 -109.67036438 411.70739746 C-113.52138385 406.78544538 -117.30395385 401.81997786 -121.0370636 396.80773926 C-124.44841424 392.24067737 -127.91811563 387.71779962 -131.37690735 383.18664551 C-136.69450709 376.21662848 -142.00950137 369.24498005 -147.23823547 362.20788574 C-149.78068798 358.78916383 -152.36268825 355.41117105 -155.0058136 352.06945801 C-155.56945618 351.34669678 -156.13309875 350.62393555 -156.71382141 349.87927246 C-157.79600492 348.49318157 -158.88988488 347.11611762 -159.99702454 345.74987793 C-163.5402247 341.17531539 -163.5402247 341.17531539 -163.65034485 337.81164551 C-162.27116313 334.79530563 -160.57517046 332.60961888 -158.37690735 330.12414551 C-157.62022766 329.2411377 -156.86354797 328.35812988 -156.0839386 327.44836426 C-153.56440735 325.43664551 -153.56440735 325.43664551 -150.5995636 324.82727051 C-146.48305872 325.65375025 -145.00962083 327.42668419 -142.18940735 330.49914551 C-139.03077553 333.85502432 -135.8963301 337.13923075 -132.37690735 340.12414551 C-128.92027706 343.07389722 -125.74736886 346.23523625 -122.5605011 349.47180176 C-120.64333558 351.35895295 -118.66865413 353.12349926 -116.62690735 354.87414551 C-112.81616672 358.14795204 -109.3136257 361.67028522 -105.7870636 365.24523926 C-103.13739295 367.85765619 -100.35267932 370.26967172 -97.5292511 372.69055176 C-94.74741587 375.16267969 -92.17064784 377.82095098 -89.5605011 380.47180176 C-87.64333558 382.35895295 -85.66865413 384.12349926 -83.62690735 385.87414551 C-79.89823862 389.07744408 -76.45501438 392.50325057 -73.03315735 396.03039551 C-70.87898654 398.13003034 -68.67746325 400.11217071 -66.41011047 402.08703613 C-65.68988708 402.71501099 -64.9696637 403.34298584 -64.22761536 403.98999023 C-63.40432739 404.70608459 -63.40432739 404.70608459 -62.56440735 405.43664551 C-62.51764051 385.25221841 -62.48239555 365.06780234 -62.460783 344.88333225 C-62.45048021 335.51086679 -62.43643893 326.13843504 -62.41352844 316.76599121 C-62.39356405 308.59485489 -62.38068367 300.423743 -62.37623036 292.25258297 C-62.37362815 287.92795121 -62.36753259 283.60338931 -62.35294724 279.27877998 C-62.33931512 275.20357406 -62.33519604 271.12846638 -62.33819199 267.05323982 C-62.33764433 265.56217412 -62.33370054 264.07110495 -62.3259964 262.58005905 C-62.31594663 260.53368772 -62.31847436 258.48768038 -62.32389832 256.44129944 C-62.32205473 255.29919793 -62.32021114 254.15709642 -62.31831169 252.98038578 C-62.542427 248.48169412 -62.542427 248.48169412 -64.56440735 240.43664551 C-64.56440735 230.20664551 -64.56440735 219.97664551 -64.56440735 209.43664551 C-96.90440735 209.43664551 -129.24440735 209.43664551 -162.56440735 209.43664551 C-162.89440735 210.75664551 -163.22440735 212.07664551 -163.56440735 213.43664551 C-165.7278568 215.60009496 -170.7380044 214.62564027 -173.74409485 214.63977051 C-174.66779877 214.64547058 -175.59150269 214.65117065 -176.54319763 214.65704346 C-178.50191598 214.66650896 -180.46065037 214.67303356 -182.41938782 214.67687988 C-185.41983283 214.68658221 -188.41959215 214.71758952 -191.4198761 214.74914551 C-193.3196116 214.75567553 -195.21935202 214.760926 -197.11909485 214.76477051 C-198.01917267 214.77711731 -198.91925049 214.78946411 -199.84660339 214.80218506 C-200.68402069 214.79918396 -201.52143799 214.79618286 -202.38423157 214.79309082 C-203.12067902 214.79673645 -203.85712646 214.80038208 -204.6158905 214.80413818 C-207.11937498 214.33197793 -208.02438813 213.42917413 -209.56440735 211.43664551 C-209.56440735 210.77664551 -209.56440735 210.11664551 -209.56440735 209.43664551 C-242.23440735 209.43664551 -274.90440735 209.43664551 -308.56440735 209.43664551 C-308.56440735 219.33664551 -308.56440735 229.23664551 -308.56440735 239.43664551 C-309.22440735 242.73664551 -309.88440735 246.03664551 -310.56440735 249.43664551 C-310.72353569 251.80763378 -310.80875535 254.18523485 -310.80491638 256.56155396 C-310.80662523 257.20713237 -310.80833408 257.85271079 -310.81009471 258.51785219 C-310.81334236 260.64275828 -310.80246567 262.76733582 -310.79145813 264.89221191 C-310.79089299 266.43061312 -310.79121258 267.96901487 -310.79234314 269.50741577 C-310.79291364 273.65549972 -310.78120876 277.80346644 -310.76719522 281.9515233 C-310.754637 286.29701158 -310.75351337 290.64250297 -310.75114441 294.98800659 C-310.74494454 303.20420371 -310.72855405 311.42034718 -310.70844543 319.63652074 C-310.6860398 328.99569641 -310.6750813 338.35487472 -310.66505456 347.71407056 C-310.64418641 366.95495921 -310.60903965 386.19579804 -310.56440735 405.43664551 C-308.15534895 403.18848031 -305.74634777 400.9402538 -303.33735657 398.6920166 C-302.65851913 398.05851791 -301.9796817 397.42501923 -301.28027344 396.77232361 C-296.74556016 392.54014277 -292.21346395 388.30521953 -287.68940735 384.06164551 C-286.71088806 383.14403442 -286.71088806 383.14403442 -285.71260071 382.20788574 C-278.70213719 375.63145497 -271.70336004 369.04261667 -264.70552063 362.45275879 C-261.86539987 359.77844668 -259.02463617 357.10481816 -256.18379211 354.43127441 C-254.7792562 353.10941536 -253.37479564 351.78747622 -251.97041321 350.4654541 C-248.25571951 346.96871327 -244.53979842 343.47328804 -240.82221985 339.97961426 C-240.04684875 339.25064941 -239.27147766 338.52168457 -238.47261047 337.77062988 C-236.98469104 336.37180742 -235.49642672 334.9733517 -234.00776672 333.57531738 C-233.33809875 332.94561035 -232.66843079 332.31590332 -231.97846985 331.66711426 C-231.39017395 331.11434814 -230.80187805 330.56158203 -230.195755 329.99206543 C-228.53935609 328.45719151 -228.53935609 328.45719151 -227.06196594 326.73571777 C-225.56440735 325.43664551 -225.56440735 325.43664551 -222.18940735 325.42102051 C-217.79341504 326.65265628 -216.37266287 328.1383767 -213.56440735 331.68664551 C-212.78065735 332.64055176 -211.99690735 333.59445801 -211.18940735 334.57727051 C-209.56440735 337.43664551 -209.56440735 337.43664551 -209.5839386 340.00695801 C-210.7506358 342.89813593 -212.18813127 344.71939317 -214.25190735 347.06164551 C-218.48676052 352.0536797 -222.39951479 357.20705088 -226.25190735 362.49914551 C-231.59916519 369.82306995 -237.08045472 377.02320889 -242.66914368 384.16418457 C-246.52043295 389.08681181 -250.3035358 394.05275186 -254.0370636 399.06555176 C-257.44841377 403.63261301 -260.91806938 408.1555275 -264.37690735 412.68664551 C-270.05970597 420.13190848 -270.05970597 420.13190848 -275.7011261 427.60852051 C-276.17985168 428.24475342 -276.65857727 428.88098633 -277.15180969 429.53649902 C-278.10140015 430.81383441 -279.03780266 432.10107014 -279.96138 433.39733887 C-282.66642264 437.1456499 -285.4805028 440.38490504 -288.8261261 443.58117676 C-300.88172142 455.87653285 -301.9720336 466.40737839 -301.87690735 483.06164551 C-301.79981948 487.73499548 -301.72231193 492.40920231 -301.48033142 497.07722473 C-301.24894036 502.97245995 -301.24894036 502.97245995 -302.73590755 505.16041851 C-305.24447519 506.91130837 -306.95030597 506.81138763 -309.99887085 506.81086731 C-311.12760117 506.81788162 -312.25633148 506.82489594 -313.41926575 506.8321228 C-314.65833679 506.82447906 -315.89740784 506.81683533 -317.17402649 506.80895996 C-319.13033241 506.81443596 -319.13033241 506.81443596 -321.12615967 506.82002258 C-324.70461279 506.82943586 -328.28279262 506.82000318 -331.86122441 506.80669045 C-335.60257213 506.79538504 -339.34390622 506.7994827 -343.08526611 506.80143738 C-349.36750258 506.80232053 -355.64963117 506.79123459 -361.93183899 506.77282715 C-369.2010787 506.75164995 -376.47016046 506.74815145 -383.73942477 506.75438911 C-390.72599762 506.76007784 -397.7125147 506.75444352 -404.69907951 506.74321556 C-407.67552659 506.73856398 -410.65193963 506.73769812 -413.62838936 506.73980141 C-417.78040515 506.74202962 -421.93219837 506.72759645 -426.08418274 506.71130371 C-427.94582565 506.71501984 -427.94582565 506.71501984 -429.84507751 506.71881104 C-430.97098801 506.71172623 -432.0968985 506.70464142 -433.25692749 506.69734192 C-434.23934953 506.69528905 -435.22177156 506.69323618 -436.23396397 506.6911211 C-438.56440735 506.43664551 -438.56440735 506.43664551 -440.56440735 504.43664551 C-440.75733158 502.0028092 -440.82681756 499.68330195 -440.80732727 497.24890137 C-440.80922562 496.50894424 -440.81112396 495.76898712 -440.81307983 495.00660706 C-440.81679196 492.55479418 -440.80607824 490.10327591 -440.7948761 487.65148926 C-440.79368454 485.95280492 -440.79323109 484.25411992 -440.79348755 482.55543518 C-440.79192198 478.99357994 -440.7836261 475.4318251 -440.7702179 471.86999512 C-440.75321504 467.29418964 -440.74940387 462.71849446 -440.75016308 458.14266109 C-440.74989176 454.63492267 -440.74441689 451.12720858 -440.73716164 447.61947823 C-440.73396979 445.93169908 -440.73200636 444.24391718 -440.73126793 442.55613518 C-440.72911053 440.20237357 -440.72037982 437.84873128 -440.70967102 435.49499512 C-440.71012421 434.79107635 -440.71057739 434.08715759 -440.71104431 433.36190796 C-440.67888253 428.55112069 -440.67888253 428.55112069 -439.56440735 427.43664551 C-436.89381884 427.2954939 -434.24008497 427.39417443 -431.56440735 427.43664551 C-431.64837116 404.40097739 -431.74352811 381.36537958 -431.85193443 358.329813 C-431.90201201 347.63350472 -431.94845546 336.93720392 -431.98628235 326.24084473 C-432.01926949 316.915654 -432.05913775 307.59052215 -432.1071974 298.26539648 C-432.1323956 293.32987381 -432.15419651 288.39438986 -432.16775131 283.45882034 C-432.18063241 278.80820434 -432.20275148 274.15772156 -432.23179054 269.50717926 C-432.2408192 267.80530874 -432.24654547 266.10341679 -432.24862099 264.40152359 C-432.25974452 256.6621136 -432.32017813 249.24060811 -434.1124382 241.66511917 C-434.93320608 237.61825089 -434.84777342 233.55966504 -434.83564758 229.44470215 C-434.8434877 228.03059555 -434.8434877 228.03059555 -434.85148621 226.58792114 C-434.86165308 224.56097623 -434.8674937 222.53400575 -434.8693676 220.50703621 C-434.87305466 217.30021758 -434.88984034 214.09370173 -434.91012573 210.88694763 C-434.96534773 201.77686162 -434.99634045 192.66673404 -435.02070618 183.55651855 C-435.03654658 177.96874929 -435.06671262 172.38120148 -435.10547066 166.79354668 C-435.11713531 164.66645079 -435.12305113 162.53931544 -435.12315178 160.41218758 C-435.12334304 157.44883007 -435.14154643 154.48608922 -435.16377258 151.52282715 C-435.1591954 150.64230179 -435.15461823 149.76177643 -435.14990234 148.85456848 C-435.20412347 144.3256891 -435.44500108 142.55535482 -438.56440735 139.43664551 C-438.32811556 132.70470189 -436.32063417 126.31493248 -434.50971985 119.85852051 C-434.20750519 118.76952454 -433.90529053 117.68052856 -433.59391785 116.55853271 C-432.95631096 114.26838892 -432.31572234 111.97907341 -431.6723175 109.69055176 C-430.6894829 106.18691485 -429.72219019 102.67922764 -428.7558136 99.17102051 C-428.13305388 96.94159156 -427.5093872 94.71241571 -426.88471985 92.48352051 C-426.59710785 91.43557312 -426.30949585 90.38762573 -426.01316833 89.30792236 C-425.73633209 88.33300842 -425.45949585 87.35809448 -425.17427063 86.3536377 C-424.93524017 85.49840515 -424.69620972 84.64317261 -424.44993591 83.76202393 C-423.49774916 81.26160258 -422.26232385 79.49043761 -420.56440735 77.43664551 C-418.58440735 77.76664551 -416.60440735 78.09664551 -414.56440735 78.43664551 C-413.48039268 82.14478001 -412.39732892 85.85319165 -411.31440735 89.56164551 C-411.01405579 90.58902832 -410.71370422 91.61641113 -410.4042511 92.67492676 C-408.73431404 98.39534943 -407.07983623 104.11986105 -405.44429016 109.85021973 C-405.09038208 111.08988495 -404.736474 112.32955017 -404.37184143 113.60678101 C-404.10538818 114.54063629 -403.83893494 115.47449158 -403.56440735 116.43664551 C-399.12393002 98.97917521 -394.83579925 81.49205993 -390.7323761 63.95227051 C-390.32069722 62.19651097 -389.90892323 60.44077373 -389.49705505 58.68505859 C-387.81508802 51.51150545 -386.13414131 44.33774688 -384.46894836 37.16027832 C-383.43065918 32.68642458 -382.38297242 28.21486351 -381.32898903 23.74468231 C-380.93435957 22.06300471 -380.5432374 20.38049983 -380.15579796 18.69715118 C-379.62016922 16.37146738 -379.07260516 14.04890172 -378.52217102 11.72668457 C-378.29070625 10.70157776 -378.29070625 10.70157776 -378.05456543 9.65576172 C-377.16263132 5.9554373 -376.11058505 3.29098163 -373.56440735 0.43664551 C-371.18940735 0.74914551 -371.18940735 0.74914551 -368.56440735 1.43664551 C-366.70720521 4.22244871 -366.09177334 5.75273575 -365.34356689 8.9152832 C-365.12349472 9.83221451 -364.90342255 10.74914581 -364.67668152 11.69386292 C-364.44232391 12.69759445 -364.20796631 13.70132599 -363.96650696 14.73547363 C-363.71422836 15.79423203 -363.46194977 16.85299042 -363.20202637 17.9438324 C-362.36791446 21.45053057 -361.54237156 24.9591893 -360.7167511 28.46789551 C-360.13964702 30.90036275 -359.56196715 33.33269345 -358.98373413 35.76489258 C-357.61709239 41.51882314 -356.25567534 47.27397309 -354.89696366 53.02977991 C-352.60819372 62.72433335 -350.30857475 72.41631557 -348.0093689 82.10839844 C-346.8671559 86.92329977 -345.72775571 91.73885357 -344.59051514 96.55493164 C-344.07133199 98.74923103 -343.55213226 100.94352649 -343.03291321 103.13781738 C-342.79653137 104.14154892 -342.56014954 105.14528046 -342.31660461 106.1794281 C-342.09935226 107.09635941 -341.88209991 108.01329071 -341.65826416 108.95800781 C-341.47005065 109.75514946 -341.28183714 110.55229111 -341.08792019 111.37358856 C-340.65443052 113.08188262 -340.12173866 114.76465158 -339.56440735 116.43664551 C-339.13357849 114.87768555 -339.13357849 114.87768555 -338.69404602 113.28723145 C-337.62372826 109.42325902 -336.5419583 105.56257063 -335.45674133 101.70275879 C-334.98910216 100.03338251 -334.52455212 98.36313762 -334.06318665 96.6920166 C-333.39857368 94.28681876 -332.72282702 91.88498805 -332.0448761 89.48352051 C-331.73999519 88.36611481 -331.73999519 88.36611481 -331.42895508 87.22613525 C-330.33995466 83.41196031 -329.23497169 80.40921776 -326.56440735 77.43664551 C-324.25190735 77.56164551 -324.25190735 77.56164551 -321.56440735 78.43664551 C-318.26103755 83.74980031 -316.86793826 89.80996645 -315.2089386 95.78430176 C-314.90243881 96.87375595 -314.59593903 97.96321014 -314.28015137 99.0856781 C-313.63595943 101.38191579 -312.99485295 103.67902104 -312.35664368 105.97692871 C-311.37864494 109.49289876 -310.38723176 113.00489287 -309.39448547 116.51672363 C-308.7693262 118.75152316 -308.14495042 120.98654203 -307.5214386 123.22180176 C-307.07620598 124.79539207 -307.07620598 124.79539207 -306.62197876 126.40077209 C-306.35137131 127.38206589 -306.08076385 128.36335968 -305.80195618 129.37438965 C-305.44246635 130.66295616 -305.44246635 130.66295616 -305.07571411 131.97755432 C-304.52847863 134.60944194 -304.26543558 136.76002396 -304.56440735 139.43664551 C-305.55440735 140.42664551 -306.54440735 141.41664551 -307.56440735 142.43664551 C-307.89440735 152.33664551 -308.22440735 162.23664551 -308.56440735 172.43664551 C-275.89440735 172.43664551 -243.22440735 172.43664551 -209.56440735 172.43664551 C-209.23440735 171.11664551 -208.90440735 169.79664551 -208.56440735 168.43664551 C-206.9379425 167.0045166 -206.9379425 167.0045166 -204.85346985 165.71008301 C-204.10323547 165.23570801 -203.3530011 164.76133301 -202.58003235 164.27258301 C-201.39667297 163.54941895 -201.39667297 163.54941895 -200.18940735 162.81164551 C-199.40823547 162.32180176 -198.6270636 161.83195801 -197.82221985 161.32727051 C-196.36814735 160.41598535 -194.91093541 159.50967714 -193.44966125 158.60998535 C-191.80106577 157.58393641 -190.18009466 156.51377038 -188.56440735 155.43664551 C-181.83236352 155.46237306 -177.16050381 158.68492026 -171.62690735 162.24914551 C-170.75227844 162.78346191 -169.87764954 163.31777832 -168.97651672 163.86828613 C-168.15087219 164.39229004 -167.32522766 164.91629395 -166.4745636 165.45617676 C-165.72312073 165.93159912 -164.97167786 166.40702148 -164.19746399 166.89685059 C-163.6585553 167.40498291 -163.11964661 167.91311523 -162.56440735 168.43664551 C-162.56440735 169.75664551 -162.56440735 171.07664551 -162.56440735 172.43664551 C-130.22440735 172.43664551 -97.88440735 172.43664551 -64.56440735 172.43664551 C-62.83142697 154.31701724 -62.83142697 154.31701724 -68.56440735 139.43664551 C-68.32811556 132.70470189 -66.32063417 126.31493248 -64.50971985 119.85852051 C-64.20750519 118.76952454 -63.90529053 117.68052856 -63.59391785 116.55853271 C-62.95631096 114.26838892 -62.31572234 111.97907341 -61.6723175 109.69055176 C-60.6894829 106.18691485 -59.72219019 102.67922764 -58.7558136 99.17102051 C-58.13305388 96.94159156 -57.5093872 94.71241571 -56.88471985 92.48352051 C-56.59710785 91.43557312 -56.30949585 90.38762573 -56.01316833 89.30792236 C-55.73633209 88.33300842 -55.45949585 87.35809448 -55.17427063 86.3536377 C-54.93524017 85.49840515 -54.69620972 84.64317261 -54.44993591 83.76202393 C-53.49774916 81.26160258 -52.26232385 79.49043761 -50.56440735 77.43664551 C-45.81440735 78.18664551 -45.81440735 78.18664551 -43.56440735 80.43664551 C-42.69359873 83.12259805 -41.91216987 85.78280808 -41.18159485 88.50695801 C-40.96246429 89.30318573 -40.74333374 90.09941345 -40.51756287 90.91976929 C-39.81853857 93.46538356 -39.12887951 96.01342932 -38.43940735 98.56164551 C-37.96736529 100.28707407 -37.49471656 102.01233679 -37.0214386 103.73742676 C-35.86204411 107.96860671 -34.71104289 112.20199094 -33.56440735 116.43664551 C-28.60506776 96.50402302 -23.8004675 76.53728581 -19.15034485 56.53039551 C-18.95944464 55.70922178 -18.76854443 54.88804806 -18.57185936 54.04199028 C-16.62900566 45.68210235 -14.69101667 37.32110106 -12.76014709 28.95843697 C-12.02579178 25.77969689 -11.28956517 22.60139191 -10.55302811 19.42315674 C-10.03813553 17.19770181 -9.5260857 14.97160486 -9.01408386 12.7454834 C-8.70280639 11.40169762 -8.39138307 10.05794562 -8.07978821 8.7142334 C-7.81016769 7.54550186 -7.54054718 6.37677032 -7.26275635 5.17262268 C-6.56440735 2.43664551 -6.56440735 2.43664551 -5.56440735 0.43664551 C-2.56440735 -0.56335449 -2.56440735 -0.56335449 0 0 Z M-372.56440735 26.43664551 C-375.45962193 38.50826887 -378.34616107 50.58192996 -381.22155094 62.65829182 C-382.55689171 68.26537736 -383.89524411 73.87170859 -385.24043274 79.47644043 C-386.53777935 84.88232247 -387.82727529 90.29002131 -389.11128044 95.69908714 C-389.60327202 97.76548532 -390.09811957 99.83120561 -390.5958271 101.89623451 C-391.29085763 104.7820832 -391.97582069 107.6701453 -392.65840149 110.55895996 C-392.86771301 111.41779282 -393.07702454 112.27662567 -393.29267883 113.16148376 C-394.43338633 117.81121587 -394.43338633 117.81121587 -393.56440735 122.43664551 C-393.02026184 121.8610791 -392.47611633 121.2855127 -391.91548157 120.69250488 C-389.43931993 118.09156113 -386.93993224 115.51416604 -384.43940735 112.93664551 C-383.58346985 112.03043457 -382.72753235 111.12422363 -381.84565735 110.19055176 C-381.00776672 109.3333252 -380.1698761 108.47609863 -379.30659485 107.59289551 C-378.54201965 106.79689941 -377.77744446 106.00090332 -376.98970032 105.18078613 C-373.91373908 102.96871979 -372.27781956 102.87376255 -368.56440735 103.43664551 C-366.6933136 104.6583252 -366.6933136 104.6583252 -365.12690735 106.35852051 C-364.54167297 106.97211426 -363.9564386 107.58570801 -363.35346985 108.21789551 C-362.76307922 108.86758301 -362.1726886 109.51727051 -361.56440735 110.18664551 C-360.38190036 111.45693686 -359.19446828 112.72266313 -358.00190735 113.98352051 C-357.48499329 114.54909668 -356.96807922 115.11467285 -356.4355011 115.6973877 C-354.01709242 117.94539702 -351.3211237 119.62822884 -348.56440735 121.43664551 C-351.14985139 108.89446936 -353.92141955 96.41229091 -356.89253235 83.95617676 C-357.29058983 82.27944335 -357.68843286 80.60265902 -358.08607483 78.92582703 C-359.11632488 74.58381436 -360.1494194 70.24248373 -361.18318176 65.90130615 C-362.24432424 61.4428045 -363.30267315 56.98363982 -364.36128235 52.52453613 C-366.42631224 43.82793462 -368.4943585 35.13205362 -370.56440735 26.43664551 C-371.22440735 26.43664551 -371.88440735 26.43664551 -372.56440735 26.43664551 Z M-2.56440735 26.43664551 C-5.45829295 38.52585693 -8.34472593 50.61682061 -11.22155094 62.71010399 C-12.55748746 68.32491865 -13.89602268 73.93908756 -15.24043274 79.55187988 C-16.53679029 84.96447407 -17.82640513 90.37863343 -19.11128044 95.79396439 C-19.60366928 97.86388452 -20.09852087 99.93322035 -20.5958271 102.00196457 C-21.28980249 104.89064871 -21.97513914 107.78125154 -22.65840149 110.67248535 C-22.97236877 111.96612755 -22.97236877 111.96612755 -23.29267883 113.28590393 C-24.51318322 117.43025861 -24.51318322 117.43025861 -23.56440735 121.43664551 C-21.52125141 119.56324733 -19.47986476 117.68797917 -17.43940735 115.81164551 C-16.86964172 115.2895752 -16.2998761 114.76750488 -15.71284485 114.22961426 C-15.14565735 113.70754395 -14.57846985 113.18547363 -13.99409485 112.64758301 C-13.42013977 112.1226123 -12.84618469 111.5976416 -12.25483704 111.0567627 C-10.54415114 109.4581195 -10.54415114 109.4581195 -9.00679016 107.69934082 C-6.63875413 105.07179399 -5.24637404 103.53639207 -1.67671204 103.01428223 C2.2621227 103.54881189 3.44725995 104.75016214 6.17778015 107.59289551 C7.43461609 108.87873535 7.43461609 108.87873535 8.71684265 110.19055176 C9.57278015 111.0967627 10.42871765 112.00297363 11.31059265 112.93664551 C12.18973328 113.84285645 13.0688739 114.74906738 13.97465515 115.68273926 C16.1423951 117.92116638 18.29492341 120.1723664 20.43559265 122.43664551 C21.8464799 118.20398375 20.55528967 114.7675545 19.52958679 110.55895996 C19.31515427 109.65143982 19.10072174 108.74391968 18.87979126 107.80889893 C18.16776909 104.80402962 17.44430912 101.80203674 16.7207489 98.79992676 C16.22536942 96.71929915 15.7307037 94.63850148 15.23672485 92.55754089 C13.93358559 87.07643293 12.62073906 81.59769444 11.30589294 76.11938477 C9.96632974 70.53056716 8.63591119 64.93957451 7.30473328 59.34875488 C4.69065804 48.37589727 2.0663279 37.40551988 -0.56440735 26.43664551 C-1.22440735 26.43664551 -1.88440735 26.43664551 -2.56440735 26.43664551 Z M-419.56440735 100.43664551 C-420.71034508 104.49161932 -421.84946692 108.5484278 -422.9823761 112.60705566 C-423.36853855 113.98680891 -423.75654212 115.36604826 -424.1464386 116.74475098 C-424.70730905 118.72925944 -425.26148092 120.7155361 -425.81440735 122.70227051 C-426.1495636 123.89626465 -426.48471985 125.09025879 -426.83003235 126.32043457 C-427.71732691 129.55194121 -427.71732691 129.55194121 -427.56440735 133.43664551 C-424.314576 132.34879583 -424.314576 132.34879583 -421.56440735 130.43664551 C-417.26817229 129.95928606 -415.12273196 131.12854306 -411.56440735 133.43664551 C-410.90440735 133.43664551 -410.24440735 133.43664551 -409.56440735 133.43664551 C-410.29485597 126.43051157 -412.26006844 119.77521625 -414.12690735 112.99914551 C-414.45626282 111.79064941 -414.78561829 110.58215332 -415.12495422 109.33703613 C-415.93436549 106.36919483 -416.74762196 103.4024642 -417.56440735 100.43664551 C-418.22440735 100.43664551 -418.88440735 100.43664551 -419.56440735 100.43664551 Z M-325.56440735 100.43664551 C-326.73462835 104.489959 -327.89186609 108.5466891 -329.03730774 112.60705566 C-329.4286293 113.98729462 -329.82345706 115.36654458 -330.22187805 116.74475098 C-330.79456994 118.72808093 -331.35448185 120.71464725 -331.9120636 122.70227051 C-332.25245667 123.89626465 -332.59284973 125.09025879 -332.94355774 126.32043457 C-333.52523752 129.24004161 -333.60887482 130.70268533 -332.56440735 133.43664551 C-331.86315735 132.92102051 -331.16190735 132.40539551 -330.43940735 131.87414551 C-325.92655082 129.61771724 -322.83035366 131.03810685 -318.18940735 132.49914551 C-317.32315735 132.80852051 -316.45690735 133.11789551 -315.56440735 133.43664551 C-316.28609857 126.61518054 -318.15452998 120.15350935 -320.00190735 113.56164551 C-320.314505 112.40922363 -320.62710266 111.25680176 -320.94917297 110.06945801 C-321.25403625 108.97633301 -321.55889954 107.88320801 -321.8730011 106.75695801 C-322.14942444 105.75938477 -322.42584778 104.76181152 -322.71064758 103.73400879 C-323.32887465 101.26998761 -323.32887465 101.26998761 -325.56440735 100.43664551 Z M-48.56440735 100.43664551 C-51.05134481 106.75886001 -53.01112685 113.13881147 -54.81440735 119.68664551 C-55.09542297 120.66633301 -55.3764386 121.64602051 -55.66596985 122.65539551 C-55.92636047 123.59898926 -56.1867511 124.54258301 -56.45503235 125.51477051 C-56.811297 126.78949219 -56.811297 126.78949219 -57.17475891 128.08996582 C-57.58590403 130.56611045 -57.35761483 132.07879205 -56.56440735 134.43664551 C-55.01753235 133.41570801 -55.01753235 133.41570801 -53.43940735 132.37414551 C-50.69635297 130.81458636 -49.70261984 130.43388126 -46.43940735 130.49914551 C-43.48138819 131.46371697 -41.19702894 132.80122906 -38.56440735 134.43664551 C-41.34405729 123.03852788 -44.37592336 111.72701505 -47.56440735 100.43664551 C-47.89440735 100.43664551 -48.22440735 100.43664551 -48.56440735 100.43664551 Z M44.43559265 100.43664551 C41.46559265 111.65664551 38.49559265 122.87664551 35.43559265 134.43664551 C40.02378488 132.75089387 40.02378488 132.75089387 42.43559265 131.24914551 C45.97682552 129.81051965 48.81152035 131.20088486 52.24809265 132.49914551 C52.96996765 132.80852051 53.69184265 133.11789551 54.43559265 133.43664551 C53.80318982 126.16846645 51.89583098 119.43011307 49.87309265 112.43664551 C49.37905945 110.70221191 49.37905945 110.70221191 48.87504578 108.93273926 C48.06712601 106.09916557 47.25385322 103.26724693 46.43559265 100.43664551 C45.77559265 100.43664551 45.11559265 100.43664551 44.43559265 100.43664551 Z M-374.89936829 115.5604248 C-375.87081436 116.53899108 -376.83691248 117.52288359 -377.79878235 118.51086426 C-378.31442749 119.03171097 -378.83007263 119.55255768 -379.36134338 120.08918762 C-381.0171548 121.76285705 -382.66618383 123.44300557 -384.31440735 125.12414551 C-385.94912765 126.78662612 -387.58531913 128.44758512 -389.22462463 130.10554504 C-390.24485827 131.13787346 -391.26240991 132.17286212 -392.27674866 133.21098328 C-394.65172048 135.61870654 -396.9319344 137.69671263 -399.70011902 139.65551758 C-402.83761189 142.18641006 -402.83761189 142.18641006 -403.28593445 145.8092804 C-403.27261078 147.0950145 -403.25928711 148.3807486 -403.24555969 149.70544434 C-403.24643585 150.41818512 -403.24731201 151.1309259 -403.24821472 151.86526489 C-403.24405128 154.20920392 -403.19746771 156.55024115 -403.15034485 158.89367676 C-403.13914805 160.52319271 -403.13061014 162.15272893 -403.12461853 163.78227234 C-403.10175765 168.06208495 -403.04285996 172.34066718 -402.97639465 176.61999512 C-402.90409394 181.75931115 -402.87665283 186.89903965 -402.8416748 192.03871918 C-402.78357676 199.8388825 -402.66859138 207.63634868 -402.56440735 215.43664551 C-382.10440735 215.43664551 -361.64440735 215.43664551 -340.56440735 215.43664551 C-340.09779674 202.82881237 -340.09779674 202.82881237 -339.78315735 190.21984863 C-339.6880415 185.06290256 -339.57648961 179.91056443 -339.3573761 174.75720215 C-337.62710011 154.95320241 -337.62710011 154.95320241 -343.92036438 137.02868652 C-347.1514477 133.68903595 -350.71561648 131.08566521 -354.66413879 128.65487671 C-357.1717364 127.04729675 -359.10594539 125.09238914 -361.11909485 122.90930176 C-361.69014954 122.32600098 -362.26120422 121.7427002 -362.8495636 121.14172363 C-363.96519298 119.98908935 -365.07967756 118.83534643 -366.1933136 117.68078613 C-367.61518664 116.23074078 -369.08510139 114.82805068 -370.56440735 113.43664551 C-372.84387447 113.21235837 -372.84387447 113.21235837 -374.89936829 115.5604248 Z M-2.56440735 113.43664551 C-3.04909485 113.93293457 -3.53378235 114.42922363 -4.03315735 114.94055176 C-7.32233545 118.27400726 -10.61361915 121.5353832 -14.18940735 124.56164551 C-14.79961731 125.13133057 -15.40982727 125.70101562 -16.03852844 126.28796387 C-18.0329541 127.98455581 -19.81600882 129.21604691 -22.02339172 130.56359863 C-27.954825 134.66476885 -31.86924632 138.94121817 -33.3082428 146.17681885 C-34.45838562 156.4629541 -33.90856405 166.91991557 -33.52571106 177.23797607 C-33.3556723 182.30871474 -33.29274872 187.38183314 -33.21136475 192.45462036 C-33.0766374 200.12014197 -32.80821211 207.77034038 -32.56440735 215.43664551 C-12.10440735 215.43664551 8.35559265 215.43664551 29.43559265 215.43664551 C29.66843914 202.63307511 29.66843914 202.63307511 29.82621765 189.82922363 C29.87397057 184.60338031 29.93034137 179.37866251 30.03910828 174.15368652 C30.12629069 169.93902364 30.17391882 165.72556795 30.1946106 161.51007271 C30.20934757 159.90520793 30.23812823 158.30040637 30.28143311 156.69605827 C30.7733728 147.95264244 30.7733728 147.95264244 27.78662109 140.0357666 C25.76284089 138.26441269 23.71389835 136.85837839 21.43559265 135.43664551 C19.65775391 133.71095421 17.89890597 131.96532524 16.1660614 130.19445801 C15.25791687 129.27406738 14.34977234 128.35367676 13.41410828 127.40539551 C12.0065377 125.97122983 10.59901928 124.53700846 9.19462585 123.09973145 C7.81449857 121.68949315 6.42787403 120.28562254 5.0410614 118.88195801 C4.22790466 118.05196289 3.41474792 117.22196777 2.57695007 116.36682129 C0.49993406 114.23571291 0.49993406 114.23571291 -2.56440735 113.43664551 Z M-425.56440735 143.43664551 C-426.43220239 146.72799483 -426.43220239 146.72799483 -426.24555969 150.50012207 C-426.24643585 151.20296326 -426.24731201 151.90580444 -426.24821472 152.62994385 C-426.24404328 154.94686099 -426.19742218 157.26086117 -426.15034485 159.57727051 C-426.13915088 161.18579527 -426.13061164 162.79434052 -426.12461853 164.40289307 C-426.10173527 168.63176185 -426.04281838 172.85938941 -425.97639465 177.08776855 C-425.91496005 181.40441089 -425.88760113 185.72125429 -425.8573761 190.03820801 C-425.79307238 198.50498628 -425.68755331 206.97051839 -425.56440735 215.43664551 C-420.94440735 215.43664551 -416.32440735 215.43664551 -411.56440735 215.43664551 C-411.42886278 206.1181302 -411.31878298 196.80026927 -411.25353432 187.48099136 C-411.2222183 183.15366246 -411.17974235 178.82704276 -411.11177063 174.50012207 C-411.04658496 170.32443017 -411.01070334 166.14942039 -410.99514389 161.97325897 C-410.98405584 160.3799541 -410.96240249 158.78668667 -410.93002701 157.19367218 C-410.88646855 154.96166809 -410.88047215 152.73248268 -410.883255 150.50012207 C-410.86993134 149.22993225 -410.85660767 147.95974243 -410.84288025 146.65106201 C-411.28219306 143.17035165 -411.28219306 143.17035165 -414.48197937 140.99517822 C-419.50840166 138.45372595 -421.32229926 139.88678691 -425.56440735 143.43664551 Z M-55.56440735 143.43664551 C-56.43220239 146.72799483 -56.43220239 146.72799483 -56.24555969 150.50012207 C-56.24643585 151.20296326 -56.24731201 151.90580444 -56.24821472 152.62994385 C-56.24404328 154.94686099 -56.19742218 157.26086117 -56.15034485 159.57727051 C-56.13915088 161.18579527 -56.13061164 162.79434052 -56.12461853 164.40289307 C-56.10173527 168.63176185 -56.04281838 172.85938941 -55.97639465 177.08776855 C-55.91496005 181.40441089 -55.88760113 185.72125429 -55.8573761 190.03820801 C-55.79307238 198.50498628 -55.68755331 206.97051839 -55.56440735 215.43664551 C-50.94440735 215.43664551 -46.32440735 215.43664551 -41.56440735 215.43664551 C-41.42886278 206.1181302 -41.31878298 196.80026927 -41.25353432 187.48099136 C-41.2222183 183.15366246 -41.17974235 178.82704276 -41.11177063 174.50012207 C-41.04658496 170.32443017 -41.01070334 166.14942039 -40.99514389 161.97325897 C-40.98405584 160.3799541 -40.96240249 158.78668667 -40.93002701 157.19367218 C-40.88646855 154.96166809 -40.88047215 152.73248268 -40.883255 150.50012207 C-40.86993134 149.22993225 -40.85660767 147.95974243 -40.84288025 146.65106201 C-41.28219306 143.17035165 -41.28219306 143.17035165 -44.48197937 140.99517822 C-49.50840166 138.45372595 -51.32229926 139.88678691 -55.56440735 143.43664551 Z M38.43559265 143.43664551 C37.56817148 146.6870939 37.56817148 146.6870939 37.75444031 150.4083252 C37.75356415 151.10141281 37.75268799 151.79450043 37.75178528 152.5085907 C37.75595629 154.79305883 37.80257469 157.07456749 37.84965515 159.35852051 C37.86084928 160.94462479 37.86938845 162.53074986 37.87538147 164.11688232 C37.89826347 168.28657563 37.95717907 172.45500988 38.02360535 176.62420654 C38.08504279 180.88052334 38.11239946 185.13704412 38.1426239 189.39367676 C38.20692538 197.74197451 38.31244321 206.08900822 38.43559265 214.43664551 C43.05559265 214.43664551 47.67559265 214.43664551 52.43559265 214.43664551 C52.57114157 205.2485145 52.68121939 196.0610473 52.74646568 186.87214279 C52.77778069 182.60534271 52.82025461 178.33926199 52.88822937 174.07287598 C52.95341893 169.95553777 52.98929742 165.8388914 53.00485611 161.72107697 C53.01594348 160.15009923 53.03759558 158.57915944 53.06997299 157.00847626 C53.11353703 154.80759374 53.11952768 152.60956942 53.116745 150.4083252 C53.1367305 148.52968781 53.1367305 148.52968781 53.15711975 146.61309814 C52.71203383 143.16686302 52.71203383 143.16686302 49.51802063 141.00091553 C44.49158982 138.45010328 42.68299991 139.89070487 38.43559265 143.43664551 Z M-325.56440735 139.43664551 C-328.66247122 140.94959601 -328.66247122 140.94959601 -331.56440735 143.43664551 C-332.43220239 146.72799483 -332.43220239 146.72799483 -332.24555969 150.50012207 C-332.24643585 151.20296326 -332.24731201 151.90580444 -332.24821472 152.62994385 C-332.24404328 154.94686099 -332.19742218 157.26086117 -332.15034485 159.57727051 C-332.13915088 161.18579527 -332.13061164 162.79434052 -332.12461853 164.40289307 C-332.10173527 168.63176185 -332.04281838 172.85938941 -331.97639465 177.08776855 C-331.91496005 181.40441089 -331.88760113 185.72125429 -331.8573761 190.03820801 C-331.79307238 198.50498628 -331.68755331 206.97051839 -331.56440735 215.43664551 C-326.94440735 215.43664551 -322.32440735 215.43664551 -317.56440735 215.43664551 C-317.56440735 191.67664551 -317.56440735 167.91664551 -317.56440735 143.43664551 C-320.20440735 142.11664551 -322.84440735 140.79664551 -325.56440735 139.43664551 Z M-197.51753235 170.37414551 C-201.80704335 174.6783971 -201.44217432 180.04242388 -201.57514954 185.75305176 C-201.38732344 192.32020872 -200.94859311 198.87804577 -200.56440735 205.43664551 C-190.66440735 205.43664551 -180.76440735 205.43664551 -170.56440735 205.43664551 C-168.46989872 188.78306623 -168.46989872 188.78306623 -171.90620422 172.08508301 C-175.50738102 168.47153104 -179.6983393 166.74943365 -184.56440735 165.43664551 C-189.28697647 165.43664551 -193.74386209 167.66729134 -197.51753235 170.37414551 Z M-301.56440735 181.43664551 C-297.97144104 185.62843953 -294.3885522 189.78266711 -290.68940735 193.87414551 C-289.90823547 194.73910645 -289.1270636 195.60406738 -288.32221985 196.49523926 C-287.45210266 197.45623535 -287.45210266 197.45623535 -286.56440735 198.43664551 C-280.54613997 193.46503333 -274.90103383 188.13835308 -269.56440735 182.43664551 C-269.56440735 182.10664551 -269.56440735 181.77664551 -269.56440735 181.43664551 C-280.12440735 181.43664551 -290.68440735 181.43664551 -301.56440735 181.43664551 Z M-246.56440735 181.43664551 C-244.96032833 184.64480354 -244.14726801 186.10022869 -241.74409485 188.45227051 C-241.20913391 188.98078613 -240.67417297 189.50930176 -240.1230011 190.05383301 C-239.28962219 190.8620752 -239.28962219 190.8620752 -238.43940735 191.68664551 C-237.59442688 192.51809082 -237.59442688 192.51809082 -236.7323761 193.36633301 C-235.34754707 194.72769036 -233.95657531 196.0827941 -232.56440735 197.43664551 C-229.28101093 196.00015957 -227.082573 194.22448432 -224.56440735 191.68664551 C-223.90440735 191.03180176 -223.24440735 190.37695801 -222.56440735 189.70227051 C-220.04842436 186.95472306 -220.04842436 186.95472306 -216.56440735 181.43664551 C-226.46440735 181.43664551 -236.36440735 181.43664551 -246.56440735 181.43664551 Z M-155.56440735 181.43664551 C-150.58058541 187.26795596 -150.58058541 187.26795596 -145.31440735 192.74914551 C-144.6492511 193.40527832 -143.98409485 194.06141113 -143.29878235 194.73742676 C-142.7264386 195.29816895 -142.15409485 195.85891113 -141.56440735 196.43664551 C-140.90440735 197.09664551 -140.24440735 197.75664551 -139.56440735 198.43664551 C-137.43313831 196.35940864 -135.30940367 194.27533387 -133.18940735 192.18664551 C-132.5861261 191.60012207 -131.98284485 191.01359863 -131.36128235 190.40930176 C-130.49116516 189.54885254 -130.49116516 189.54885254 -129.60346985 188.67102051 C-129.06931458 188.14733887 -128.5351593 187.62365723 -127.9848175 187.08410645 C-126.2398317 185.19640328 -126.2398317 185.19640328 -124.56440735 181.43664551 C-134.79440735 181.43664551 -145.02440735 181.43664551 -155.56440735 181.43664551 Z M-101.56440735 181.43664551 C-99.58440735 183.74664551 -97.60440735 186.05664551 -95.56440735 188.43664551 C-94.91214172 189.23973145 -94.2598761 190.04281738 -93.58784485 190.87023926 C-93.04386047 191.53152832 -92.4998761 192.19281738 -91.93940735 192.87414551 C-91.39026672 193.55348145 -90.8411261 194.23281738 -90.27534485 194.93273926 C-88.44334007 196.87678055 -88.44334007 196.87678055 -84.56440735 196.43664551 C-82.77183888 195.2051351 -82.77183888 195.2051351 -81.18940735 193.43664551 C-80.37343079 192.60133301 -80.37343079 192.60133301 -79.54096985 191.74914551 C-76.71736388 188.44563812 -74.1718828 184.91327944 -71.56440735 181.43664551 C-81.46440735 181.43664551 -91.36440735 181.43664551 -101.56440735 181.43664551 Z M-259.56440735 183.43664551 C-261.09898101 184.95384534 -261.09898101 184.95384534 -262.68940735 186.93664551 C-265.95802307 190.7970527 -269.43043159 194.35038059 -273.0605011 197.87023926 C-274.67983556 199.19495598 -274.67983556 199.19495598 -274.56440735 200.43664551 C-264.00440735 200.43664551 -253.44440735 200.43664551 -242.56440735 200.43664551 C-247.57067746 194.58631605 -247.57067746 194.58631605 -252.87690735 189.12414551 C-256.45535005 185.65476011 -256.45535005 185.65476011 -257.56440735 183.43664551 C-258.22440735 183.43664551 -258.88440735 183.43664551 -259.56440735 183.43664551 Z M-114.94721985 184.78186035 C-115.52214172 185.39754883 -116.0970636 186.0132373 -116.68940735 186.64758301 C-117.3133136 187.31531738 -117.93721985 187.98305176 -118.58003235 188.67102051 C-119.2348761 189.37742676 -119.88971985 190.08383301 -120.56440735 190.81164551 C-121.2192511 191.51031738 -121.87409485 192.20898926 -122.54878235 192.92883301 C-125.93945844 196.40823489 -125.93945844 196.40823489 -128.56440735 200.43664551 C-118.33440735 200.43664551 -108.10440735 200.43664551 -97.56440735 200.43664551 C-102.69063902 193.5705023 -102.69063902 193.5705023 -108.37690735 187.43664551 C-109.14647766 186.67352051 -109.91604797 185.91039551 -110.7089386 185.12414551 C-112.89404991 182.9307979 -112.89404991 182.9307979 -114.94721985 184.78186035 Z M-308.56440735 188.43664551 C-308.56440735 192.39664551 -308.56440735 196.35664551 -308.56440735 200.43664551 C-304.93440735 200.43664551 -301.30440735 200.43664551 -297.56440735 200.43664551 C-300.91701845 195.7585835 -303.81574625 191.78864158 -308.56440735 188.43664551 Z M-210.56440735 188.43664551 C-212.09543432 190.03244669 -213.58939741 191.6639287 -215.06440735 193.31164551 C-215.87909485 194.21656738 -216.69378235 195.12148926 -217.53315735 196.05383301 C-219.57279807 198.25350262 -219.57279807 198.25350262 -220.56440735 200.43664551 C-216.93440735 200.43664551 -213.30440735 200.43664551 -209.56440735 200.43664551 C-209.56440735 196.47664551 -209.56440735 192.51664551 -209.56440735 188.43664551 C-209.89440735 188.43664551 -210.22440735 188.43664551 -210.56440735 188.43664551 Z M-162.56440735 188.43664551 C-162.56440735 192.39664551 -162.56440735 196.35664551 -162.56440735 200.43664551 C-158.60440735 200.43664551 -154.64440735 200.43664551 -150.56440735 200.43664551 C-154.29736007 195.90377434 -157.94927283 192.06282263 -162.56440735 188.43664551 Z M-67.8495636 191.58898926 C-69.22434875 192.9676416 -69.22434875 192.9676416 -70.62690735 194.37414551 C-71.54600891 195.29066895 -72.46511047 196.20719238 -73.4120636 197.15148926 C-75.67868007 199.03477098 -75.67868007 199.03477098 -75.56440735 200.43664551 C-71.93440735 200.43664551 -68.30440735 200.43664551 -64.56440735 200.43664551 C-64.56440735 196.80664551 -64.56440735 193.17664551 -64.56440735 189.43664551 C-65.96628188 189.32237278 -65.96628188 189.32237278 -67.8495636 191.58898926 Z M-425.56440735 223.43664551 C-425.56440735 226.40664551 -425.56440735 229.37664551 -425.56440735 232.43664551 C-420.94440735 232.43664551 -416.32440735 232.43664551 -411.56440735 232.43664551 C-411.56440735 229.46664551 -411.56440735 226.49664551 -411.56440735 223.43664551 C-416.18440735 223.43664551 -420.80440735 223.43664551 -425.56440735 223.43664551 Z M-402.56440735 223.43664551 C-402.56440735 226.40664551 -402.56440735 229.37664551 -402.56440735 232.43664551 C-382.10440735 232.43664551 -361.64440735 232.43664551 -340.56440735 232.43664551 C-340.56440735 229.46664551 -340.56440735 226.49664551 -340.56440735 223.43664551 C-361.02440735 223.43664551 -381.48440735 223.43664551 -402.56440735 223.43664551 Z M-331.56440735 223.43664551 C-331.56440735 226.40664551 -331.56440735 229.37664551 -331.56440735 232.43664551 C-326.94440735 232.43664551 -322.32440735 232.43664551 -317.56440735 232.43664551 C-317.56440735 229.46664551 -317.56440735 226.49664551 -317.56440735 223.43664551 C-322.18440735 223.43664551 -326.80440735 223.43664551 -331.56440735 223.43664551 Z M-55.56440735 223.43664551 C-55.56440735 226.40664551 -55.56440735 229.37664551 -55.56440735 232.43664551 C-50.94440735 232.43664551 -46.32440735 232.43664551 -41.56440735 232.43664551 C-41.56440735 229.46664551 -41.56440735 226.49664551 -41.56440735 223.43664551 C-46.18440735 223.43664551 -50.80440735 223.43664551 -55.56440735 223.43664551 Z M-32.56440735 223.43664551 C-32.56440735 226.40664551 -32.56440735 229.37664551 -32.56440735 232.43664551 C-12.10440735 232.43664551 8.35559265 232.43664551 29.43559265 232.43664551 C29.43559265 229.46664551 29.43559265 226.49664551 29.43559265 223.43664551 C8.97559265 223.43664551 -11.48440735 223.43664551 -32.56440735 223.43664551 Z M38.43559265 223.43664551 C38.43559265 226.40664551 38.43559265 229.37664551 38.43559265 232.43664551 C43.05559265 232.43664551 47.67559265 232.43664551 52.43559265 232.43664551 C52.43559265 229.46664551 52.43559265 226.49664551 52.43559265 223.43664551 C47.81559265 223.43664551 43.19559265 223.43664551 38.43559265 223.43664551 Z M-424.56440735 241.43664551 C-424.23440735 243.41664551 -423.90440735 245.39664551 -423.56440735 247.43664551 C-420.26440735 247.43664551 -416.96440735 247.43664551 -413.56440735 247.43664551 C-413.23440735 245.45664551 -412.90440735 243.47664551 -412.56440735 241.43664551 C-416.52440735 241.43664551 -420.48440735 241.43664551 -424.56440735 241.43664551 Z M-403.56440735 241.43664551 C-405.31180353 248.86167769 -405.31180353 248.86167769 -405.79145813 256.04821777 C-405.79121643 257.06226685 -405.79097473 258.07631592 -405.79072571 259.12109375 C-405.78049377 260.15463989 -405.77026184 261.18818604 -405.75971985 262.25305176 C-405.75770569 263.22689819 -405.75569153 264.20074463 -405.75361633 265.20410156 C-405.74324187 268.80249824 -405.7153201 272.40082718 -405.68940735 275.99914551 C-405.64815735 284.06352051 -405.60690735 292.12789551 -405.56440735 300.43664551 C-383.12440735 300.43664551 -360.68440735 300.43664551 -337.56440735 300.43664551 C-337.52315735 292.37227051 -337.48190735 284.30789551 -337.43940735 275.99914551 C-337.42119934 273.47072998 -337.40299133 270.94231445 -337.38423157 268.33728027 C-337.37838447 266.30920625 -337.37328943 264.28112987 -337.36909485 262.25305176 C-337.35886292 261.21950562 -337.34863098 260.18595947 -337.33808899 259.12109375 C-337.33784729 258.10704468 -337.33760559 257.09299561 -337.33735657 256.04821777 C-337.33291534 255.17995865 -337.32847412 254.31169952 -337.32389832 253.41712952 C-337.65067647 249.36756408 -338.68307776 245.40262866 -339.56440735 241.43664551 C-360.68440735 241.43664551 -381.80440735 241.43664551 -403.56440735 241.43664551 Z M-330.56440735 241.43664551 C-330.23440735 243.41664551 -329.90440735 245.39664551 -329.56440735 247.43664551 C-326.26440735 247.43664551 -322.96440735 247.43664551 -319.56440735 247.43664551 C-319.23440735 245.45664551 -318.90440735 243.47664551 -318.56440735 241.43664551 C-322.52440735 241.43664551 -326.48440735 241.43664551 -330.56440735 241.43664551 Z M-54.56440735 241.43664551 C-54.23440735 243.41664551 -53.90440735 245.39664551 -53.56440735 247.43664551 C-50.26440735 247.43664551 -46.96440735 247.43664551 -43.56440735 247.43664551 C-43.23440735 245.45664551 -42.90440735 243.47664551 -42.56440735 241.43664551 C-46.52440735 241.43664551 -50.48440735 241.43664551 -54.56440735 241.43664551 Z M-33.56440735 241.43664551 C-35.8574446 247.81192382 -35.82305406 253.76710156 -35.75971985 260.49523926 C-35.75770569 261.51041626 -35.75569153 262.52559326 -35.75361633 263.5715332 C-35.74320592 267.33911705 -35.71528357 271.10663614 -35.68940735 274.87414551 C-35.64815735 283.30977051 -35.60690735 291.74539551 -35.56440735 300.43664551 C-13.12440735 300.43664551 9.31559265 300.43664551 32.43559265 300.43664551 C32.47684265 292.53727051 32.51809265 284.63789551 32.56059265 276.49914551 C32.57880066 274.02293701 32.59700867 271.54672852 32.61576843 268.9954834 C32.62161574 267.00842505 32.62671074 265.02136428 32.63090515 263.03430176 C32.64113708 262.02234741 32.65136902 261.01039307 32.66191101 259.96777344 C32.66340855 253.81065123 32.06364549 248.38535833 30.43559265 242.43664551 C29.37464679 241.15153774 29.37464679 241.15153774 26.9236145 241.31639099 C25.80664688 241.3186116 24.68967926 241.32083221 23.53886414 241.32312012 C21.64701637 241.32323341 21.64701637 241.32323341 19.71694946 241.323349 C18.33019471 241.32845641 16.94344036 241.33367241 15.5566864 241.33898926 C14.14564056 241.34085349 12.73459408 241.34227737 11.32354736 241.34327698 C7.6031873 241.34710172 3.88286605 241.35693161 0.16252136 241.36798096 C-3.63121516 241.37819603 -7.42495793 241.3827748 -11.21870422 241.38781738 C-18.66728966 241.39855393 -26.11584307 241.41562981 -33.56440735 241.43664551 Z M39.43559265 241.43664551 C39.76559265 243.41664551 40.09559265 245.39664551 40.43559265 247.43664551 C41.91466157 247.46353767 43.39386748 247.48299172 44.87309265 247.49914551 C46.10865906 247.51654785 46.10865906 247.51654785 47.3691864 247.53430176 C49.42723203 247.66931899 49.42723203 247.66931899 50.43559265 246.43664551 C50.43559265 244.78664551 50.43559265 243.13664551 50.43559265 241.43664551 C46.80559265 241.43664551 43.17559265 241.43664551 39.43559265 241.43664551 Z M-422.56440735 256.43664551 C-422.56440735 270.95664551 -422.56440735 285.47664551 -422.56440735 300.43664551 C-419.92440735 300.43664551 -417.28440735 300.43664551 -414.56440735 300.43664551 C-414.56440735 285.91664551 -414.56440735 271.39664551 -414.56440735 256.43664551 C-417.20440735 256.43664551 -419.84440735 256.43664551 -422.56440735 256.43664551 Z M-328.56440735 256.43664551 C-328.56440735 270.95664551 -328.56440735 285.47664551 -328.56440735 300.43664551 C-325.92440735 300.43664551 -323.28440735 300.43664551 -320.56440735 300.43664551 C-320.56440735 285.91664551 -320.56440735 271.39664551 -320.56440735 256.43664551 C-323.20440735 256.43664551 -325.84440735 256.43664551 -328.56440735 256.43664551 Z M-52.56440735 256.43664551 C-52.56440735 270.95664551 -52.56440735 285.47664551 -52.56440735 300.43664551 C-49.92440735 300.43664551 -47.28440735 300.43664551 -44.56440735 300.43664551 C-44.56440735 285.91664551 -44.56440735 271.39664551 -44.56440735 256.43664551 C-47.20440735 256.43664551 -49.84440735 256.43664551 -52.56440735 256.43664551 Z M41.43559265 256.43664551 C41.43559265 270.95664551 41.43559265 285.47664551 41.43559265 300.43664551 C44.07559265 300.43664551 46.71559265 300.43664551 49.43559265 300.43664551 C49.43559265 285.91664551 49.43559265 271.39664551 49.43559265 256.43664551 C46.79559265 256.43664551 44.15559265 256.43664551 41.43559265 256.43664551 Z M-422.56440735 309.43664551 C-422.56440735 311.74664551 -422.56440735 314.05664551 -422.56440735 316.43664551 C-419.92440735 316.43664551 -417.28440735 316.43664551 -414.56440735 316.43664551 C-414.56440735 314.12664551 -414.56440735 311.81664551 -414.56440735 309.43664551 C-417.20440735 309.43664551 -419.84440735 309.43664551 -422.56440735 309.43664551 Z M-405.56440735 309.43664551 C-405.56440735 311.74664551 -405.56440735 314.05664551 -405.56440735 316.43664551 C-383.12440735 316.43664551 -360.68440735 316.43664551 -337.56440735 316.43664551 C-337.56440735 314.12664551 -337.56440735 311.81664551 -337.56440735 309.43664551 C-360.00440735 309.43664551 -382.44440735 309.43664551 -405.56440735 309.43664551 Z M-328.56440735 309.43664551 C-328.56440735 311.74664551 -328.56440735 314.05664551 -328.56440735 316.43664551 C-325.92440735 316.43664551 -323.28440735 316.43664551 -320.56440735 316.43664551 C-320.56440735 314.12664551 -320.56440735 311.81664551 -320.56440735 309.43664551 C-323.20440735 309.43664551 -325.84440735 309.43664551 -328.56440735 309.43664551 Z M-52.56440735 309.43664551 C-52.56440735 311.74664551 -52.56440735 314.05664551 -52.56440735 316.43664551 C-49.92440735 316.43664551 -47.28440735 316.43664551 -44.56440735 316.43664551 C-44.56440735 314.12664551 -44.56440735 311.81664551 -44.56440735 309.43664551 C-47.20440735 309.43664551 -49.84440735 309.43664551 -52.56440735 309.43664551 Z M-35.56440735 309.43664551 C-35.56440735 311.74664551 -35.56440735 314.05664551 -35.56440735 316.43664551 C-13.12440735 316.43664551 9.31559265 316.43664551 32.43559265 316.43664551 C32.43559265 314.12664551 32.43559265 311.81664551 32.43559265 309.43664551 C9.99559265 309.43664551 -12.44440735 309.43664551 -35.56440735 309.43664551 Z M41.43559265 309.43664551 C41.43559265 311.74664551 41.43559265 314.05664551 41.43559265 316.43664551 C44.07559265 316.43664551 46.71559265 316.43664551 49.43559265 316.43664551 C49.43559265 314.12664551 49.43559265 311.81664551 49.43559265 309.43664551 C46.79559265 309.43664551 44.15559265 309.43664551 41.43559265 309.43664551 Z M-422.56440735 325.43664551 C-422.56440735 336.32664551 -422.56440735 347.21664551 -422.56440735 358.43664551 C-419.92440735 358.43664551 -417.28440735 358.43664551 -414.56440735 358.43664551 C-414.56440735 347.54664551 -414.56440735 336.65664551 -414.56440735 325.43664551 C-417.20440735 325.43664551 -419.84440735 325.43664551 -422.56440735 325.43664551 Z M-405.56440735 325.43664551 C-405.56440735 336.32664551 -405.56440735 347.21664551 -405.56440735 358.43664551 C-383.12440735 358.43664551 -360.68440735 358.43664551 -337.56440735 358.43664551 C-337.56440735 347.54664551 -337.56440735 336.65664551 -337.56440735 325.43664551 C-360.00440735 325.43664551 -382.44440735 325.43664551 -405.56440735 325.43664551 Z M-328.56440735 325.43664551 C-328.56440735 336.65664551 -328.56440735 347.87664551 -328.56440735 359.43664551 C-325.92440735 359.43664551 -323.28440735 359.43664551 -320.56440735 359.43664551 C-320.56440735 348.21664551 -320.56440735 336.99664551 -320.56440735 325.43664551 C-323.20440735 325.43664551 -325.84440735 325.43664551 -328.56440735 325.43664551 Z M-52.56440735 325.43664551 C-52.56440735 336.32664551 -52.56440735 347.21664551 -52.56440735 358.43664551 C-49.92440735 358.43664551 -47.28440735 358.43664551 -44.56440735 358.43664551 C-44.56440735 347.54664551 -44.56440735 336.65664551 -44.56440735 325.43664551 C-47.20440735 325.43664551 -49.84440735 325.43664551 -52.56440735 325.43664551 Z M-35.56440735 325.43664551 C-35.56440735 336.32664551 -35.56440735 347.21664551 -35.56440735 358.43664551 C-13.12440735 358.43664551 9.31559265 358.43664551 32.43559265 358.43664551 C32.43559265 347.54664551 32.43559265 336.65664551 32.43559265 325.43664551 C9.99559265 325.43664551 -12.44440735 325.43664551 -35.56440735 325.43664551 Z M41.43559265 325.43664551 C41.43559265 336.32664551 41.43559265 347.21664551 41.43559265 358.43664551 C44.07559265 358.43664551 46.71559265 358.43664551 49.43559265 358.43664551 C49.43559265 347.54664551 49.43559265 336.65664551 49.43559265 325.43664551 C46.79559265 325.43664551 44.15559265 325.43664551 41.43559265 325.43664551 Z M-223.56440735 336.43664551 C-224.5080011 337.3976416 -224.5080011 337.3976416 -225.47065735 338.37805176 C-233.31757191 346.30768981 -233.31757191 346.30768981 -237.56440735 349.93664551 C-240.718349 352.63275692 -243.64814132 355.48481526 -246.56440735 358.43664551 C-250.08547058 362.00064853 -253.69626743 365.33968719 -257.50190735 368.59289551 C-260.85476584 371.59014779 -263.96334491 374.82824185 -267.1230011 378.02648926 C-269.83643462 380.70519083 -272.67217757 383.18272669 -275.5683136 385.65930176 C-277.82573361 387.66933327 -279.94176447 389.78497504 -282.06440735 391.93664551 C-284.79270142 394.70224958 -287.54957569 397.34951582 -290.50190735 399.87414551 C-294.61264695 403.39529696 -298.37557128 407.2168645 -302.1542511 411.08898926 C-304.24540563 413.12591612 -306.35121644 414.8280777 -308.68940735 416.56164551 C-310.74976566 418.24081341 -311.46669013 418.94536993 -311.9901886 421.57727051 C-312.04972015 424.05047001 -312.04972015 424.05047001 -311.56440735 427.43664551 C-310.26503235 427.58102051 -308.96565735 427.72539551 -307.62690735 427.87414551 C-303.68940735 428.31164551 -303.68940735 428.31164551 -302.56440735 429.43664551 C-302.32762018 432.12900327 -302.1424271 434.80162707 -302.00190735 437.49914551 C-301.95872375 438.25775879 -301.91554016 439.01637207 -301.87104797 439.79797363 C-301.76467102 441.67729989 -301.66400801 443.55694794 -301.56440735 445.43664551 C-297.01995386 441.20766065 -293.50141138 436.46123231 -289.87690735 431.43664551 C-288.62141968 429.71454524 -287.36490678 427.99319196 -286.1073761 426.27258301 C-285.49813293 425.4382373 -284.88888977 424.6038916 -284.26118469 423.7442627 C-281.34398394 419.77686968 -278.32979988 415.88846811 -275.31440735 411.99523926 C-266.48597476 400.59519127 -257.78199825 389.09669112 -249.15180969 377.54602051 C-244.90994517 371.87683944 -240.61307842 366.25031824 -236.31440735 360.62414551 C-230.9700418 353.62727899 -225.67124193 346.60973224 -220.56440735 339.43664551 C-221.55440735 338.44664551 -222.54440735 337.45664551 -223.56440735 336.43664551 Z M-150.56440735 336.43664551 C-151.55440735 337.92164551 -151.55440735 337.92164551 -152.56440735 339.43664551 C-142.98365012 352.29082812 -133.23140002 365.01528228 -123.50190735 377.75695801 C-116.94274437 386.35122734 -110.41019395 394.96309135 -103.93940735 403.62414551 C-98.52205263 410.87362098 -93.0173038 418.0479938 -87.4379425 425.17346191 C-83.2744406 430.49635928 -79.21983896 435.88813114 -75.23628235 441.34680176 C-73.73055737 443.52817807 -73.73055737 443.52817807 -71.56440735 444.43664551 C-71.50382141 443.36543457 -71.44323547 442.29422363 -71.3808136 441.19055176 C-71.29642198 439.79340159 -71.21177329 438.39626694 -71.12690735 436.99914551 C-71.08759094 436.29209473 -71.04827454 435.58504395 -71.00776672 434.85656738 C-70.6776886 429.54992676 -70.6776886 429.54992676 -69.56440735 428.43664551 C-66.90977614 427.98204693 -64.24251597 427.73421313 -61.56440735 427.43664551 C-60.96733997 424.21248165 -60.74840085 422.55459625 -61.56440735 419.43664551 C-64.49418932 415.65381456 -67.9663928 412.57522922 -71.56440735 409.43664551 C-72.26694641 408.81789551 -72.96948547 408.19914551 -73.6933136 407.56164551 C-74.97935521 406.43928192 -76.27102839 405.32333777 -77.5683136 404.21398926 C-80.62970374 401.48809392 -83.46405899 398.54523193 -86.3417511 395.62805176 C-88.99142174 393.01563483 -91.77613538 390.6036193 -94.5995636 388.18273926 C-97.38139883 385.71061133 -99.95816686 383.05234004 -102.5683136 380.40148926 C-104.48547912 378.51433807 -106.46016057 376.74979176 -108.50190735 374.99914551 C-111.49242451 372.4299928 -114.29557419 369.74347295 -117.06440735 366.93664551 C-119.81296725 364.1504341 -122.59300526 361.48356159 -125.56440735 358.93664551 C-128.53580944 356.38972943 -131.31584745 353.72285691 -134.06440735 350.93664551 C-139.24520754 345.69321042 -144.62887577 340.81295356 -150.56440735 336.43664551 Z M-422.56440735 367.43664551 C-422.56440735 370.07664551 -422.56440735 372.71664551 -422.56440735 375.43664551 C-419.92440735 375.43664551 -417.28440735 375.43664551 -414.56440735 375.43664551 C-414.56440735 372.79664551 -414.56440735 370.15664551 -414.56440735 367.43664551 C-417.20440735 367.43664551 -419.84440735 367.43664551 -422.56440735 367.43664551 Z M-405.56440735 367.43664551 C-405.56440735 370.07664551 -405.56440735 372.71664551 -405.56440735 375.43664551 C-383.12440735 375.43664551 -360.68440735 375.43664551 -337.56440735 375.43664551 C-337.56440735 372.79664551 -337.56440735 370.15664551 -337.56440735 367.43664551 C-360.00440735 367.43664551 -382.44440735 367.43664551 -405.56440735 367.43664551 Z M-52.56440735 367.43664551 C-52.56440735 369.74664551 -52.56440735 372.05664551 -52.56440735 374.43664551 C-49.92440735 374.43664551 -47.28440735 374.43664551 -44.56440735 374.43664551 C-44.56440735 372.12664551 -44.56440735 369.81664551 -44.56440735 367.43664551 C-47.20440735 367.43664551 -49.84440735 367.43664551 -52.56440735 367.43664551 Z M-35.56440735 367.43664551 C-35.56440735 369.74664551 -35.56440735 372.05664551 -35.56440735 374.43664551 C-13.12440735 374.43664551 9.31559265 374.43664551 32.43559265 374.43664551 C32.43559265 372.12664551 32.43559265 369.81664551 32.43559265 367.43664551 C9.99559265 367.43664551 -12.44440735 367.43664551 -35.56440735 367.43664551 Z M41.43559265 367.43664551 C41.43559265 369.74664551 41.43559265 372.05664551 41.43559265 374.43664551 C44.07559265 374.43664551 46.71559265 374.43664551 49.43559265 374.43664551 C49.43559265 372.12664551 49.43559265 369.81664551 49.43559265 367.43664551 C46.79559265 367.43664551 44.15559265 367.43664551 41.43559265 367.43664551 Z M-328.56440735 368.43664551 C-328.56440735 370.74664551 -328.56440735 373.05664551 -328.56440735 375.43664551 C-325.92440735 375.43664551 -323.28440735 375.43664551 -320.56440735 375.43664551 C-320.56440735 373.12664551 -320.56440735 370.81664551 -320.56440735 368.43664551 C-323.20440735 368.43664551 -325.84440735 368.43664551 -328.56440735 368.43664551 Z M-422.56440735 384.43664551 C-422.56440735 398.62664551 -422.56440735 412.81664551 -422.56440735 427.43664551 C-419.92440735 427.43664551 -417.28440735 427.43664551 -414.56440735 427.43664551 C-414.56440735 413.24664551 -414.56440735 399.05664551 -414.56440735 384.43664551 C-417.20440735 384.43664551 -419.84440735 384.43664551 -422.56440735 384.43664551 Z M-405.56440735 384.43664551 C-405.56440735 398.62664551 -405.56440735 412.81664551 -405.56440735 427.43664551 C-383.12440735 427.43664551 -360.68440735 427.43664551 -337.56440735 427.43664551 C-337.56440735 413.24664551 -337.56440735 399.05664551 -337.56440735 384.43664551 C-360.00440735 384.43664551 -382.44440735 384.43664551 -405.56440735 384.43664551 Z M-328.56440735 384.43664551 C-328.56440735 398.62664551 -328.56440735 412.81664551 -328.56440735 427.43664551 C-325.92440735 427.43664551 -323.28440735 427.43664551 -320.56440735 427.43664551 C-320.56440735 413.24664551 -320.56440735 399.05664551 -320.56440735 384.43664551 C-323.20440735 384.43664551 -325.84440735 384.43664551 -328.56440735 384.43664551 Z M-52.56440735 384.43664551 C-52.56440735 398.62664551 -52.56440735 412.81664551 -52.56440735 427.43664551 C-49.92440735 427.43664551 -47.28440735 427.43664551 -44.56440735 427.43664551 C-44.56440735 413.24664551 -44.56440735 399.05664551 -44.56440735 384.43664551 C-47.20440735 384.43664551 -49.84440735 384.43664551 -52.56440735 384.43664551 Z M-35.56440735 384.43664551 C-35.56440735 398.62664551 -35.56440735 412.81664551 -35.56440735 427.43664551 C-13.12440735 427.43664551 9.31559265 427.43664551 32.43559265 427.43664551 C32.43559265 413.24664551 32.43559265 399.05664551 32.43559265 384.43664551 C9.99559265 384.43664551 -12.44440735 384.43664551 -35.56440735 384.43664551 Z M41.43559265 384.43664551 C41.43559265 398.62664551 41.43559265 412.81664551 41.43559265 427.43664551 C44.07559265 427.43664551 46.71559265 427.43664551 49.43559265 427.43664551 C49.43559265 413.24664551 49.43559265 399.05664551 49.43559265 384.43664551 C46.79559265 384.43664551 44.15559265 384.43664551 41.43559265 384.43664551 Z M-432.56440735 436.43664551 C-432.56440735 456.56664551 -432.56440735 476.69664551 -432.56440735 497.43664551 C-392.30440735 497.43664551 -352.04440735 497.43664551 -310.56440735 497.43664551 C-310.56440735 477.30664551 -310.56440735 457.17664551 -310.56440735 436.43664551 C-313.86440735 436.43664551 -317.16440735 436.43664551 -320.56440735 436.43664551 C-320.89440735 439.40664551 -321.22440735 442.37664551 -321.56440735 445.43664551 C-323.21440735 445.76664551 -324.86440735 446.09664551 -326.56440735 446.43664551 C-328.86074559 442.99213814 -329.1045722 440.49852268 -329.56440735 436.43664551 C-332.53440735 436.43664551 -335.50440735 436.43664551 -338.56440735 436.43664551 C-338.89440735 439.73664551 -339.22440735 443.03664551 -339.56440735 446.43664551 C-341.87440735 446.10664551 -344.18440735 445.77664551 -346.56440735 445.43664551 C-347.05940735 440.98164551 -347.05940735 440.98164551 -347.56440735 436.43664551 C-350.86440735 436.43664551 -354.16440735 436.43664551 -357.56440735 436.43664551 C-357.89440735 439.73664551 -358.22440735 443.03664551 -358.56440735 446.43664551 C-360.87440735 446.10664551 -363.18440735 445.77664551 -365.56440735 445.43664551 C-366.05940735 440.98164551 -366.05940735 440.98164551 -366.56440735 436.43664551 C-369.86440735 436.43664551 -373.16440735 436.43664551 -376.56440735 436.43664551 C-376.89440735 439.40664551 -377.22440735 442.37664551 -377.56440735 445.43664551 C-379.87440735 445.76664551 -382.18440735 446.09664551 -384.56440735 446.43664551 C-384.89440735 443.13664551 -385.22440735 439.83664551 -385.56440735 436.43664551 C-388.86440735 436.43664551 -392.16440735 436.43664551 -395.56440735 436.43664551 C-395.89440735 439.40664551 -396.22440735 442.37664551 -396.56440735 445.43664551 C-398.93940735 446.06164551 -398.93940735 446.06164551 -401.56440735 446.43664551 C-404.57058004 443.43047282 -404.16026051 440.61282953 -404.56440735 436.43664551 C-407.86440735 436.43664551 -411.16440735 436.43664551 -414.56440735 436.43664551 C-414.89440735 439.40664551 -415.22440735 442.37664551 -415.56440735 445.43664551 C-419.56440735 446.43664551 -419.56440735 446.43664551 -421.56440735 445.43664551 C-422.16212834 442.45367941 -422.30778549 439.47333746 -422.56440735 436.43664551 C-425.86440735 436.43664551 -429.16440735 436.43664551 -432.56440735 436.43664551 Z M-62.56440735 436.43664551 C-62.56440735 456.56664551 -62.56440735 476.69664551 -62.56440735 497.43664551 C-22.30440735 497.43664551 17.95559265 497.43664551 59.43559265 497.43664551 C59.43559265 477.30664551 59.43559265 457.17664551 59.43559265 436.43664551 C56.13559265 436.43664551 52.83559265 436.43664551 49.43559265 436.43664551 C49.10559265 439.40664551 48.77559265 442.37664551 48.43559265 445.43664551 C44.43559265 446.43664551 44.43559265 446.43664551 42.43559265 445.43664551 C41.83787166 442.45367941 41.69221451 439.47333746 41.43559265 436.43664551 C38.13559265 436.43664551 34.83559265 436.43664551 31.43559265 436.43664551 C31.24996765 438.35477051 31.24996765 438.35477051 31.06059265 440.31164551 C30.68559265 444.18664551 30.68559265 444.18664551 28.43559265 446.43664551 C25.81059265 446.06164551 25.81059265 446.06164551 23.43559265 445.43664551 C22.94059265 440.98164551 22.94059265 440.98164551 22.43559265 436.43664551 C19.13559265 436.43664551 15.83559265 436.43664551 12.43559265 436.43664551 C12.10559265 439.73664551 11.77559265 443.03664551 11.43559265 446.43664551 C9.12559265 446.10664551 6.81559265 445.77664551 4.43559265 445.43664551 C3.94059265 440.98164551 3.94059265 440.98164551 3.43559265 436.43664551 C0.13559265 436.43664551 -3.16440735 436.43664551 -6.56440735 436.43664551 C-6.89440735 439.40664551 -7.22440735 442.37664551 -7.56440735 445.43664551 C-9.87440735 445.76664551 -12.18440735 446.09664551 -14.56440735 446.43664551 C-14.89440735 443.13664551 -15.22440735 439.83664551 -15.56440735 436.43664551 C-18.86440735 436.43664551 -22.16440735 436.43664551 -25.56440735 436.43664551 C-25.89440735 439.40664551 -26.22440735 442.37664551 -26.56440735 445.43664551 C-28.87440735 445.76664551 -31.18440735 446.09664551 -33.56440735 446.43664551 C-34.05940735 441.48664551 -34.05940735 441.48664551 -34.56440735 436.43664551 C-37.53440735 436.43664551 -40.50440735 436.43664551 -43.56440735 436.43664551 C-44.22440735 439.40664551 -44.88440735 442.37664551 -45.56440735 445.43664551 C-49.56440735 446.43664551 -49.56440735 446.43664551 -51.56440735 445.43664551 C-52.16212834 442.45367941 -52.30778549 439.47333746 -52.56440735 436.43664551 C-55.86440735 436.43664551 -59.16440735 436.43664551 -62.56440735 436.43664551 Z " fill="#961043" transform="translate(442.5644073486328,2.5633544921875)"/>
<path d="M0 0 C4.40904707 2.22606611 7.19784375 5.42615829 9 10 C9.20358758 12.68283187 9.3041051 15.25898481 9.30078125 17.94140625 C9.30506638 18.70549301 9.3093515 19.46957977 9.31376648 20.25682068 C9.31949707 21.86806244 9.32001941 23.47933008 9.31567383 25.09057617 C9.31250632 27.55757512 9.33601322 30.02338294 9.36132812 32.49023438 C9.36360048 34.05729015 9.36430491 35.62434916 9.36328125 37.19140625 C9.372491 37.92895645 9.38170074 38.66650665 9.39118958 39.42640686 C9.36535525 42.27822829 9.3108428 44.47190219 7.84448242 46.96313477 C5.2121996 48.44285749 3.13588615 48.38877543 0.125 48.3984375 C-1.02484375 48.40230469 -2.1746875 48.40617187 -3.359375 48.41015625 C-4.56078125 48.39855469 -5.7621875 48.38695312 -7 48.375 C-8.20140625 48.38660156 -9.4028125 48.39820313 -10.640625 48.41015625 C-12.36539063 48.40435547 -12.36539063 48.40435547 -14.125 48.3984375 C-15.17945313 48.39505371 -16.23390625 48.39166992 -17.3203125 48.38818359 C-20 48 -20 48 -21.84008789 46.95874023 C-23.65850236 43.88798897 -23.44752144 40.73114649 -23.43359375 37.26171875 C-23.4388356 36.50333206 -23.44407745 35.74494537 -23.44947815 34.96357727 C-23.45589901 33.35895002 -23.45456046 31.7542757 -23.44604492 30.1496582 C-23.43756535 27.70632882 -23.4662415 25.26536214 -23.49804688 22.82226562 C-23.49965991 21.26041736 -23.4990794 19.69856499 -23.49609375 18.13671875 C-23.50732773 17.41151535 -23.51856171 16.68631195 -23.53013611 15.93913269 C-23.44365601 9.57279561 -21.05561898 6.06946153 -16.6796875 1.6640625 C-11.5696304 -1.50923826 -5.78075943 -0.89036984 0 0 Z M-11.71948242 9.60644531 C-14.64278279 12.67464323 -14.58689529 14.11563987 -14.48828125 18.296875 C-14.47216797 19.50214844 -14.45605469 20.70742187 -14.43945312 21.94921875 C-14.39755859 23.20347656 -14.35566406 24.45773438 -14.3125 25.75 C-14.28994141 27.01972656 -14.26738281 28.28945312 -14.24414062 29.59765625 C-14.18521925 32.73227349 -14.09554009 35.8662851 -14 39 C-9.38 39 -4.76 39 0 39 C0.13468535 34.58232066 0.23399469 30.16872745 0.3125 25.75 C0.35439453 24.49574219 0.39628906 23.24148437 0.43945312 21.94921875 C0.45556641 20.74394531 0.47167969 19.53867188 0.48828125 18.296875 C0.51446533 17.18666992 0.54064941 16.07646484 0.56762695 14.93261719 C0.23870561 11.81946919 0.23870561 11.81946919 -2.28051758 9.60644531 C-6.00299381 7.4075142 -7.99700619 7.4075142 -11.71948242 9.60644531 Z " fill="#961043" transform="translate(78,136)"/>
<path d="M0 0 C3.41792814 2.84827345 5.2188576 4.96907279 6.625 9.1875 C6.7453873 11.73825155 6.81303926 14.2609369 6.828125 16.8125 C6.83382507 17.55580566 6.83952515 18.29911133 6.84539795 19.06494141 C6.85483425 20.63507671 6.86137649 22.2052317 6.86523438 23.77539062 C6.87496451 26.17873423 6.90600917 28.58123114 6.9375 30.984375 C6.94402803 32.51041159 6.94927929 34.03645429 6.953125 35.5625 C6.9654718 36.28131348 6.9778186 37.00012695 6.99053955 37.74072266 C6.97795275 40.55408442 6.92209691 42.68474963 5.47167969 45.13916016 C2.83879383 46.63382063 0.76845518 46.57625114 -2.25 46.5859375 C-3.39984375 46.58980469 -4.5496875 46.59367187 -5.734375 46.59765625 C-6.93578125 46.58605469 -8.1371875 46.57445312 -9.375 46.5625 C-10.57640625 46.57410156 -11.7778125 46.58570313 -13.015625 46.59765625 C-14.74039062 46.59185547 -14.74039062 46.59185547 -16.5 46.5859375 C-17.55445313 46.58255371 -18.60890625 46.57916992 -19.6953125 46.57568359 C-22.375 46.1875 -22.375 46.1875 -24.21728516 45.13256836 C-26.00875119 42.12273919 -25.80256492 39.07058792 -25.7734375 35.66796875 C-25.77630768 34.93177811 -25.77917786 34.19558746 -25.78213501 33.43708801 C-25.78417548 31.87951895 -25.77864671 30.32192426 -25.76611328 28.7644043 C-25.75012662 26.39377608 -25.76592539 24.02487047 -25.78515625 21.65429688 C-25.78317247 20.1380171 -25.77932601 18.62173839 -25.7734375 17.10546875 C-25.77951019 16.40213913 -25.78558289 15.69880951 -25.7918396 14.97416687 C-25.72617491 10.31781308 -24.80642891 7.14981505 -22.375 3.1875 C-15.51749068 -3.30908778 -8.36282725 -4.49114797 0 0 Z M-14.09448242 7.79394531 C-17.01778279 10.86214323 -16.96189529 12.30313987 -16.86328125 16.484375 C-16.84716797 17.68964844 -16.83105469 18.89492187 -16.81445312 20.13671875 C-16.77255859 21.39097656 -16.73066406 22.64523438 -16.6875 23.9375 C-16.66494141 25.20722656 -16.64238281 26.47695312 -16.61914062 27.78515625 C-16.56021925 30.91977349 -16.47054009 34.0537851 -16.375 37.1875 C-11.755 37.1875 -7.135 37.1875 -2.375 37.1875 C-2.24031465 32.76982066 -2.14100531 28.35622745 -2.0625 23.9375 C-2.02060547 22.68324219 -1.97871094 21.42898437 -1.93554688 20.13671875 C-1.91943359 18.93144531 -1.90332031 17.72617188 -1.88671875 16.484375 C-1.86053467 15.37416992 -1.83435059 14.26396484 -1.80737305 13.12011719 C-2.13629439 10.00696919 -2.13629439 10.00696919 -4.65551758 7.79394531 C-8.37799381 5.5950142 -10.37200619 5.5950142 -14.09448242 7.79394531 Z " fill="#961043" transform="translate(450.375,137.8125)"/>
<path d="M0 0 C1.14984375 0.00064453 2.2996875 0.00128906 3.484375 0.00195312 C4.68578125 0.01806641 5.8871875 0.03417969 7.125 0.05078125 C8.32640625 0.04755859 9.5278125 0.04433594 10.765625 0.04101562 C19.72446075 0.09625508 19.72446075 0.09625508 23.125 2.36328125 C23.49731445 4.30273438 23.49731445 4.30273438 23.48828125 6.64453125 C23.48763672 7.48628906 23.48699219 8.32804688 23.48632812 9.1953125 C23.47021484 10.07574219 23.45410156 10.95617187 23.4375 11.86328125 C23.44072266 12.74371094 23.44394531 13.62414062 23.44726562 14.53125 C23.39197032 21.09631093 23.39197032 21.09631093 21.125 23.36328125 C18.359375 23.62207031 18.359375 23.62207031 14.875 23.62890625 C13.00328125 23.63277344 13.00328125 23.63277344 11.09375 23.63671875 C9.12921875 23.62511719 9.12921875 23.62511719 7.125 23.61328125 C5.8153125 23.62101562 4.505625 23.62875 3.15625 23.63671875 C1.9084375 23.63414062 0.660625 23.6315625 -0.625 23.62890625 C-2.34976562 23.62552246 -2.34976562 23.62552246 -4.109375 23.62207031 C-6.875 23.36328125 -6.875 23.36328125 -8.875 21.36328125 C-9.31860072 18.40476016 -9.19912652 15.41379674 -9.1875 12.42578125 C-9.20361328 11.60142578 -9.21972656 10.77707031 -9.23632812 9.92773438 C-9.23697266 9.13431641 -9.23761719 8.34089844 -9.23828125 7.5234375 C-9.24126221 6.79777588 -9.24424316 6.07211426 -9.24731445 5.32446289 C-8.25703425 0.10812135 -4.68078602 -0.01323266 0 0 Z M0.125 9.36328125 C0.125 11.01328125 0.125 12.66328125 0.125 14.36328125 C4.745 14.36328125 9.365 14.36328125 14.125 14.36328125 C14.125 12.71328125 14.125 11.06328125 14.125 9.36328125 C9.505 9.36328125 4.885 9.36328125 0.125 9.36328125 Z " fill="#961043" transform="translate(433.875,188.63671875)"/>
<path d="M0 0 C1.20140625 -0.01611328 2.4028125 -0.03222656 3.640625 -0.04882812 C4.79046875 -0.04947266 5.9403125 -0.05011719 7.125 -0.05078125 C8.17945312 -0.05376221 9.23390625 -0.05674316 10.3203125 -0.05981445 C13 0.3125 13 0.3125 14.84448242 1.57519531 C16.26130896 3.70537441 16.3737395 4.92677863 16.36328125 7.47265625 C16.36263672 8.26607422 16.36199219 9.05949219 16.36132812 9.87695312 C16.34521484 10.70130859 16.32910156 11.52566406 16.3125 12.375 C16.31572266 13.20322266 16.31894531 14.03144531 16.32226562 14.88476562 C16.26712592 21.04537408 16.26712592 21.04537408 14 23.3125 C11.234375 23.57128906 11.234375 23.57128906 7.75 23.578125 C5.87828125 23.58199219 5.87828125 23.58199219 3.96875 23.5859375 C2.00421875 23.57433594 2.00421875 23.57433594 0 23.5625 C-1.3096875 23.57023437 -2.619375 23.57796875 -3.96875 23.5859375 C-5.2165625 23.58335937 -6.464375 23.58078125 -7.75 23.578125 C-9.47476563 23.57474121 -9.47476563 23.57474121 -11.234375 23.57128906 C-14 23.3125 -14 23.3125 -16 21.3125 C-16.4456098 18.16590068 -16.32411997 14.98707507 -16.3125 11.8125 C-16.32861328 10.93207031 -16.34472656 10.05164063 -16.36132812 9.14453125 C-16.36197266 8.30277344 -16.36261719 7.46101562 -16.36328125 6.59375 C-16.36626221 5.82095703 -16.36924316 5.04816406 -16.37231445 4.25195312 C-16.24945068 3.61193359 -16.12658691 2.97191406 -16 2.3125 C-11.12873683 -0.93500878 -5.72409973 -0.01535434 0 0 Z M-7 9.3125 C-7 10.9625 -7 12.6125 -7 14.3125 C-2.38 14.3125 2.24 14.3125 7 14.3125 C7 12.6625 7 11.0125 7 9.3125 C2.38 9.3125 -2.24 9.3125 -7 9.3125 Z " fill="#961043" transform="translate(71,188.6875)"/>
<path d="M0 0 C2.375 0.75 2.375 0.75 3.375 1.75 C3.50163091 4.57416382 3.56020548 7.36294793 3.5625 10.1875 C3.57474609 10.97705078 3.58699219 11.76660156 3.59960938 12.58007812 C3.60487279 14.63807435 3.49706285 16.69562009 3.375 18.75 C2.715 19.41 2.055 20.07 1.375 20.75 C-1.6875 20.5 -1.6875 20.5 -4.625 19.75 C-6.13429383 16.73141234 -5.85010073 13.62099046 -5.875 10.3125 C-5.895625 9.63123047 -5.91625 8.94996094 -5.9375 8.24804688 C-5.96069594 5.28766467 -5.96586084 3.2514398 -4.2734375 0.76171875 C-2.625 -0.25 -2.625 -0.25 0 0 Z " fill="#961043" transform="translate(459.625,250.25)"/>
<path d="M0 0 C2.375 0.75 2.375 0.75 3.375 1.75 C3.50163091 4.57416382 3.56020548 7.36294793 3.5625 10.1875 C3.57474609 10.97705078 3.58699219 11.76660156 3.59960938 12.58007812 C3.60487279 14.63807435 3.49706285 16.69562009 3.375 18.75 C2.715 19.41 2.055 20.07 1.375 20.75 C-1.6875 20.5 -1.6875 20.5 -4.625 19.75 C-6.13429383 16.73141234 -5.85010073 13.62099046 -5.875 10.3125 C-5.895625 9.63123047 -5.91625 8.94996094 -5.9375 8.24804688 C-5.96069594 5.28766467 -5.96586084 3.2514398 -4.2734375 0.76171875 C-2.625 -0.25 -2.625 -0.25 0 0 Z " fill="#961043" transform="translate(441.625,250.25)"/>
<path d="M0 0 C2.375 0.75 2.375 0.75 3.375 1.75 C3.50163091 4.57416382 3.56020548 7.36294793 3.5625 10.1875 C3.57474609 10.97705078 3.58699219 11.76660156 3.59960938 12.58007812 C3.60487279 14.63807435 3.49706285 16.69562009 3.375 18.75 C2.715 19.41 2.055 20.07 1.375 20.75 C-1.6875 20.5 -1.6875 20.5 -4.625 19.75 C-6.13429383 16.73141234 -5.85010073 13.62099046 -5.875 10.3125 C-5.895625 9.63123047 -5.91625 8.94996094 -5.9375 8.24804688 C-5.96069594 5.28766467 -5.96586084 3.2514398 -4.2734375 0.76171875 C-2.625 -0.25 -2.625 -0.25 0 0 Z " fill="#961043" transform="translate(423.625,250.25)"/>
<path d="M0 0 C3.0625 0.25 3.0625 0.25 6 1 C7.50929383 4.01858766 7.22510073 7.12900954 7.25 10.4375 C7.270625 11.11876953 7.29125 11.80003906 7.3125 12.50195312 C7.33569594 15.46233533 7.34086084 17.4985602 5.6484375 19.98828125 C4 21 4 21 1.375 20.75 C-1 20 -1 20 -2 19 C-2.12663091 16.17583618 -2.18520548 13.38705207 -2.1875 10.5625 C-2.19974609 9.77294922 -2.21199219 8.98339844 -2.22460938 8.16992188 C-2.22987279 6.11192565 -2.12206285 4.05437991 -2 2 C-1.34 1.34 -0.68 0.68 0 0 Z " fill="#961043" transform="translate(87,250)"/>
<path d="M0 0 C3.0625 0.25 3.0625 0.25 6 1 C7.50929383 4.01858766 7.22510073 7.12900954 7.25 10.4375 C7.270625 11.11876953 7.29125 11.80003906 7.3125 12.50195312 C7.33569594 15.46233533 7.34086084 17.4985602 5.6484375 19.98828125 C4 21 4 21 1.375 20.75 C-1 20 -1 20 -2 19 C-2.12663091 16.17583618 -2.18520548 13.38705207 -2.1875 10.5625 C-2.19974609 9.77294922 -2.21199219 8.98339844 -2.22460938 8.16992188 C-2.22987279 6.11192565 -2.12206285 4.05437991 -2 2 C-1.34 1.34 -0.68 0.68 0 0 Z " fill="#961043" transform="translate(69,250)"/>
<path d="M0 0 C3.0625 0.25 3.0625 0.25 6 1 C7.50929383 4.01858766 7.22510073 7.12900954 7.25 10.4375 C7.270625 11.11876953 7.29125 11.80003906 7.3125 12.50195312 C7.33569594 15.46233533 7.34086084 17.4985602 5.6484375 19.98828125 C4 21 4 21 1.375 20.75 C-1 20 -1 20 -2 19 C-2.12663091 16.17583618 -2.18520548 13.38705207 -2.1875 10.5625 C-2.19974609 9.77294922 -2.21199219 8.98339844 -2.22460938 8.16992188 C-2.22987279 6.11192565 -2.12206285 4.05437991 -2 2 C-1.34 1.34 -0.68 0.68 0 0 Z " fill="#961043" transform="translate(51,250)"/>
<path d="M0 0 C0.05380578 2.79192205 0.09357669 5.5828141 0.125 8.375 C0.15013672 9.56609375 0.15013672 9.56609375 0.17578125 10.78125 C0.19335473 12.85492015 0.10335168 14.92883241 0 17 C-0.66 17.66 -1.32 18.32 -2 19 C-5.0625 18.75 -5.0625 18.75 -8 18 C-9.51714839 14.96570323 -9.14363916 11.82398333 -9.125 8.5 C-9.12886719 7.81035156 -9.13273437 7.12070312 -9.13671875 6.41015625 C-9.12666646 1.25333293 -9.12666646 1.25333293 -8 -1 C-4.37673261 -2.2077558 -3.35853631 -1.54311128 0 0 Z " fill="#961043" transform="translate(427,336)"/>
<path d="M0 0 C1.9375 0.75 1.9375 0.75 3.9375 2.75 C4.16305081 5.27792663 4.26188591 7.66055576 4.25 10.1875 C4.26611328 10.86876953 4.28222656 11.55003906 4.29882812 12.25195312 C4.30172426 15.20890907 4.27434798 17.25589159 2.58203125 19.73828125 C0.9375 20.75 0.9375 20.75 -1.6875 20.5 C-4.0625 19.75 -4.0625 19.75 -5.0625 18.75 C-5.21572744 15.92413249 -5.29412755 13.13956118 -5.3125 10.3125 C-5.333125 9.52294922 -5.35375 8.73339844 -5.375 7.91992188 C-5.390625 5.62890625 -5.390625 5.62890625 -5.0625 1.75 C-2.0625 -0.25 -2.0625 -0.25 0 0 Z " fill="#961043" transform="translate(90.0625,334.25)"/>
<path d="M0 0 C0.7425 0.391875 1.485 0.78375 2.25 1.1875 C2.30380578 3.97942205 2.34357669 6.7703141 2.375 9.5625 C2.40013672 10.75359375 2.40013672 10.75359375 2.42578125 11.96875 C2.44335473 14.04242015 2.35335168 16.11633241 2.25 18.1875 C1.59 18.8475 0.93 19.5075 0.25 20.1875 C-2.8125 19.9375 -2.8125 19.9375 -5.75 19.1875 C-7.25934217 16.16881565 -7.01580081 13.05941602 -7.0625 9.75 C-7.09150391 9.06873047 -7.12050781 8.38746094 -7.15039062 7.68554688 C-7.19139818 4.46487623 -7.10846152 2.62798932 -5.04296875 0.08984375 C-2.75 -0.8125 -2.75 -0.8125 0 0 Z " fill="#961043" transform="translate(460.75,334.8125)"/>
<path d="M0 0 C0.7425 0.391875 1.485 0.78375 2.25 1.1875 C2.30380578 3.97942205 2.34357669 6.7703141 2.375 9.5625 C2.40013672 10.75359375 2.40013672 10.75359375 2.42578125 11.96875 C2.44335473 14.04242015 2.35335168 16.11633241 2.25 18.1875 C1.59 18.8475 0.93 19.5075 0.25 20.1875 C-2.8125 19.9375 -2.8125 19.9375 -5.75 19.1875 C-7.25934217 16.16881565 -7.01580081 13.05941602 -7.0625 9.75 C-7.09150391 9.06873047 -7.12050781 8.38746094 -7.15039062 7.68554688 C-7.19139818 4.46487623 -7.10846152 2.62798932 -5.04296875 0.08984375 C-2.75 -0.8125 -2.75 -0.8125 0 0 Z " fill="#961043" transform="translate(442.75,334.8125)"/>
<path d="M0 0 C4.34482759 1.34482759 4.34482759 1.34482759 6 3 C6.15349136 5.47357237 6.23159885 7.90004519 6.25 10.375 C6.270625 11.06078125 6.29125 11.7465625 6.3125 12.453125 C6.33564901 15.42777238 6.34708903 17.48839478 4.6484375 19.9921875 C3 21 3 21 0.375 20.75 C-2 20 -2 20 -3 19 C-3.15322744 16.17413249 -3.23162755 13.38956118 -3.25 10.5625 C-3.270625 9.77294922 -3.29125 8.98339844 -3.3125 8.16992188 C-3.328125 5.87890625 -3.328125 5.87890625 -3 2 C-2.01 1.34 -1.02 0.68 0 0 Z " fill="#961043" transform="translate(70,334)"/>
<path d="M0 0 C2.625 0.75 2.625 0.75 5 2 C6.47694068 4.95388136 6.20930797 7.65161882 6.25 10.9375 C6.27578125 12.18402344 6.3015625 13.43054688 6.328125 14.71484375 C6 18 6 18 4.6484375 19.95703125 C3 21 3 21 0.375 20.75 C-2 20 -2 20 -3 19 C-3.15322744 16.17413249 -3.23162755 13.38956118 -3.25 10.5625 C-3.270625 9.77294922 -3.29125 8.98339844 -3.3125 8.16992188 C-3.328125 5.87890625 -3.328125 5.87890625 -3 2 C-2.01 1.34 -1.02 0.68 0 0 Z " fill="#961043" transform="translate(52,334)"/>
<path d="M0 0 C1.99954746 -0.04254356 4.00041636 -0.04080783 6 0 C7.5220959 1.5220959 7.12959521 2.88210082 7.1328125 5 C7.13474609 6.2065625 7.13474609 6.2065625 7.13671875 7.4375 C7.13285156 8.283125 7.12898438 9.12875 7.125 10 C7.12886719 10.845625 7.13273437 11.69125 7.13671875 12.5625 C7.13542969 13.366875 7.13414062 14.17125 7.1328125 15 C7.13168457 15.7425 7.13055664 16.485 7.12939453 17.25 C7 19 7 19 6 20 C3.0625 20.25 3.0625 20.25 0 20 C-2.37310654 16.44034019 -2.26915041 14.78037776 -2.25 10.5625 C-2.25515625 9.42941406 -2.2603125 8.29632813 -2.265625 7.12890625 C-2.01398568 4.16474309 -1.54596941 2.49686329 0 0 Z " fill="#961043" transform="translate(447,277)"/>
<path d="M0 0 C1.4540625 0.0309375 1.4540625 0.0309375 2.9375 0.0625 C5.12656373 3.59801166 5.20620816 6.51388074 5.1875 10.625 C5.19265625 11.76066406 5.1978125 12.89632813 5.203125 14.06640625 C4.9375 17.0625 4.9375 17.0625 2.9375 20.0625 C-0.125 20.3125 -0.125 20.3125 -3.0625 20.0625 C-4.5845959 18.5404041 -4.19209521 17.18039918 -4.1953125 15.0625 C-4.19660156 14.258125 -4.19789062 13.45375 -4.19921875 12.625 C-4.19535156 11.779375 -4.19148438 10.93375 -4.1875 10.0625 C-4.19136719 9.216875 -4.19523437 8.37125 -4.19921875 7.5 C-4.19792969 6.695625 -4.19664063 5.89125 -4.1953125 5.0625 C-4.19418457 4.32 -4.19305664 3.5775 -4.19189453 2.8125 C-3.96112241 -0.30858405 -3.17281026 0.06475123 0 0 Z " fill="#961043" transform="translate(62.0625,276.9375)"/>
<path d="M0 0 C3 0.125 3 0.125 4 1.125 C4.0983721 2.45543625 4.13078592 3.79093344 4.1328125 5.125 C4.13474609 6.3315625 4.13474609 6.3315625 4.13671875 7.5625 C4.13285156 8.408125 4.12898438 9.25375 4.125 10.125 C4.12886719 10.970625 4.13273437 11.81625 4.13671875 12.6875 C4.13542969 13.491875 4.13414062 14.29625 4.1328125 15.125 C4.13168457 15.8675 4.13055664 16.61 4.12939453 17.375 C4 19.125 4 19.125 3 20.125 C0 20.25 0 20.25 -3 20.125 C-4.5220959 18.6029041 -4.12959521 17.24289918 -4.1328125 15.125 C-4.13410156 14.320625 -4.13539063 13.51625 -4.13671875 12.6875 C-4.13285156 11.841875 -4.12898438 10.99625 -4.125 10.125 C-4.12886719 9.279375 -4.13273437 8.43375 -4.13671875 7.5625 C-4.13542969 6.758125 -4.13414062 5.95375 -4.1328125 5.125 C-4.13168457 4.3825 -4.13055664 3.64 -4.12939453 2.875 C-3.90144909 -0.20785461 -3.13017918 0.13042413 0 0 Z " fill="#961043" transform="translate(432,276.875)"/>
<path d="M0 0 C3 0.125 3 0.125 4 1.125 C4.0983721 2.45543625 4.13078592 3.79093344 4.1328125 5.125 C4.13474609 6.3315625 4.13474609 6.3315625 4.13671875 7.5625 C4.13285156 8.408125 4.12898438 9.25375 4.125 10.125 C4.12886719 10.970625 4.13273437 11.81625 4.13671875 12.6875 C4.13542969 13.491875 4.13414063 14.29625 4.1328125 15.125 C4.13168457 15.8675 4.13055664 16.61 4.12939453 17.375 C4 19.125 4 19.125 3 20.125 C0 20.25 0 20.25 -3 20.125 C-4.5220959 18.6029041 -4.12959521 17.24289918 -4.1328125 15.125 C-4.13410156 14.320625 -4.13539062 13.51625 -4.13671875 12.6875 C-4.13285156 11.841875 -4.12898438 10.99625 -4.125 10.125 C-4.12886719 9.279375 -4.13273437 8.43375 -4.13671875 7.5625 C-4.13542969 6.758125 -4.13414063 5.95375 -4.1328125 5.125 C-4.13168457 4.3825 -4.13055664 3.64 -4.12939453 2.875 C-3.90144909 -0.20785461 -3.13017918 0.13042413 0 0 Z " fill="#961043" transform="translate(80,276.875)"/>
<path d="M0 0 C2.0625 1.1875 2.0625 1.1875 3 3 C2.57894737 7.42105263 2.57894737 7.42105263 1 9 C-0.64230364 9.1245486 -2.29052276 9.17568524 -3.9375 9.1875 C-4.83339844 9.20167969 -5.72929687 9.21585937 -6.65234375 9.23046875 C-9 9 -9 9 -11 7 C-10.75 3.9375 -10.75 3.9375 -10 1 C-6.81538141 -0.5923093 -3.46608511 -0.38905037 0 0 Z " fill="#961043" transform="translate(428,481)"/>
<path d="M0 0 C2.0625 1.1875 2.0625 1.1875 3 3 C2.57894737 7.42105263 2.57894737 7.42105263 1 9 C-0.64230364 9.1245486 -2.29052276 9.17568524 -3.9375 9.1875 C-4.83339844 9.20167969 -5.72929688 9.21585937 -6.65234375 9.23046875 C-9 9 -9 9 -11 7 C-10.75 3.9375 -10.75 3.9375 -10 1 C-6.81538141 -0.5923093 -3.46608511 -0.38905037 0 0 Z " fill="#961043" transform="translate(92,481)"/>
<path d="M0 0 C1.81242052 -0.02687279 3.62495233 -0.04633715 5.4375 -0.0625 C6.44683594 -0.07410156 7.45617187 -0.08570313 8.49609375 -0.09765625 C11 0 11 0 12 1 C12.1875 3.9375 12.1875 3.9375 12 7 C10 9 10 9 7.90625 9.265625 C7.1121875 9.26046875 6.318125 9.2553125 5.5 9.25 C4.7059375 9.25515625 3.911875 9.2603125 3.09375 9.265625 C1 9 1 9 -1 7 C-0.625 3.375 -0.625 3.375 0 0 Z " fill="#961043" transform="translate(453,462)"/>
<path d="M0 0 C1.51400391 0.01740234 1.51400391 0.01740234 3.05859375 0.03515625 C4.07050781 0.04417969 5.08242188 0.05320312 6.125 0.0625 C7.29869141 0.07990234 7.29869141 0.07990234 8.49609375 0.09765625 C9.12109375 3.47265625 9.12109375 3.47265625 9.49609375 7.09765625 C7.49609375 9.09765625 7.49609375 9.09765625 5.40234375 9.36328125 C4.60828125 9.358125 3.81421875 9.35296875 2.99609375 9.34765625 C2.20203125 9.3528125 1.40796875 9.35796875 0.58984375 9.36328125 C-1.50390625 9.09765625 -1.50390625 9.09765625 -3.50390625 7.09765625 C-3.69140625 4.03515625 -3.69140625 4.03515625 -3.50390625 1.09765625 C-2.50390625 0.09765625 -2.50390625 0.09765625 0 0 Z " fill="#961043" transform="translate(50.50390625,461.90234375)"/>
<path d="M0 0 C2 2 2 2 2.1875 5.0625 C2 8 2 8 1 9 C-0.85287502 9.07226502 -2.70833878 9.0838122 -4.5625 9.0625 C-5.57441406 9.05347656 -6.58632813 9.04445313 -7.62890625 9.03515625 C-8.41136719 9.02355469 -9.19382812 9.01195312 -10 9 C-10.33 6.69 -10.66 4.38 -11 2 C-6.93150591 -0.71232939 -4.83523216 -0.30699887 0 0 Z " fill="#961043" transform="translate(402,464)"/>
<path d="M0 0 C1.81242052 -0.02687279 3.62495233 -0.04633715 5.4375 -0.0625 C6.44683594 -0.07410156 7.45617187 -0.08570313 8.49609375 -0.09765625 C11 0 11 0 12 1 C12.25 3.9375 12.25 3.9375 12 7 C8.31282562 9.45811625 6.35654296 9.31118164 2 9 C1.01 8.34 0.02 7.68 -1 7 C-0.67 4.69 -0.34 2.38 0 0 Z " fill="#961043" transform="translate(469,486)"/>
<path d="M0 0 C1.51400391 0.01740234 1.51400391 0.01740234 3.05859375 0.03515625 C4.07050781 0.04417969 5.08242188 0.05320312 6.125 0.0625 C7.29869141 0.07990234 7.29869141 0.07990234 8.49609375 0.09765625 C8.82609375 2.40765625 9.15609375 4.71765625 9.49609375 7.09765625 C5.80891937 9.5557725 3.85263671 9.40883789 -0.50390625 9.09765625 C-1.49390625 8.43765625 -2.48390625 7.77765625 -3.50390625 7.09765625 C-3.75390625 4.03515625 -3.75390625 4.03515625 -3.50390625 1.09765625 C-2.50390625 0.09765625 -2.50390625 0.09765625 0 0 Z " fill="#961043" transform="translate(34.50390625,485.90234375)"/>
<path d="M0 0 C1.42020201 0.22906484 2.83845901 0.47251758 4.25 0.75 C5.375 6.5 5.375 6.5 4.25 8.75 C0.62 8.75 -3.01 8.75 -6.75 8.75 C-7.41 7.1 -8.07 5.45 -8.75 3.75 C-6.12072175 -0.02244271 -4.38091087 -0.51743042 0 0 Z " fill="#961043" transform="translate(486.75,470.25)"/>
<path d="M0 0 C2.375 2 2.375 2 4 4 C3.34 5.65 2.68 7.3 2 9 C-1.63 9 -5.26 9 -9 9 C-10.125 3.25 -10.125 3.25 -9 1 C-5.68377419 -0.1054086 -3.47482175 -0.35457365 0 0 Z " fill="#961043" transform="translate(30,470)"/>
<path d="M0 0 C1.97265625 0.265625 1.97265625 0.265625 4.97265625 2.265625 C5.28515625 4.765625 5.28515625 4.765625 4.97265625 7.265625 C2.97265625 9.265625 2.97265625 9.265625 0.625 9.49609375 C-0.27089844 9.48191406 -1.16679688 9.46773438 -2.08984375 9.453125 C-2.98832031 9.44667969 -3.88679688 9.44023437 -4.8125 9.43359375 C-7.02734375 9.265625 -7.02734375 9.265625 -8.02734375 8.265625 C-8.21484375 5.328125 -8.21484375 5.328125 -8.02734375 2.265625 C-5.42029477 -0.34142398 -3.55396134 0.02657167 0 0 Z " fill="#961043" transform="translate(116.02734375,463.734375)"/>
<path d="M0 0 C2.375 0.75 2.375 0.75 3.375 1.75 C3.5078125 3.5625 3.5078125 3.5625 3.5 5.75 C3.50257813 6.471875 3.50515625 7.19375 3.5078125 7.9375 C3.375 9.75 3.375 9.75 2.375 10.75 C-0.5625 10.9375 -0.5625 10.9375 -3.625 10.75 C-5.625 8.75 -5.625 8.75 -5.9375 5.8125 C-5.625 2.75 -5.625 2.75 -4.4375 0.8125 C-2.625 -0.25 -2.625 -0.25 0 0 Z " fill="#961043" transform="translate(423.625,411.25)"/>
<path d="M0 0 C3.0625 0.25 3.0625 0.25 6 1 C7.38125018 3.76250036 7.19079306 5.94731099 7 9 C5 11 5 11 1.9375 11.1875 C-1 11 -1 11 -2 10 C-2.27314815 4.26388889 -2.27314815 4.26388889 -2 2 C-1.34 1.34 -0.68 0.68 0 0 Z " fill="#961043" transform="translate(87,411)"/>
<path d="M0 0 C2.375 0.75 2.375 0.75 3.375 1.75 C3.5078125 3.5625 3.5078125 3.5625 3.5 5.75 C3.50257813 6.471875 3.50515625 7.19375 3.5078125 7.9375 C3.375 9.75 3.375 9.75 2.375 10.75 C-0.5625 10.9375 -0.5625 10.9375 -3.625 10.75 C-5.625 8.75 -5.625 8.75 -5.9375 5.8125 C-5.625 2.75 -5.625 2.75 -4.4375 0.8125 C-2.625 -0.25 -2.625 -0.25 0 0 Z " fill="#961043" transform="translate(441.625,395.25)"/>
<path d="M0 0 C2.375 0.75 2.375 0.75 3.375 1.75 C3.5078125 3.5625 3.5078125 3.5625 3.5 5.75 C3.50257813 6.471875 3.50515625 7.19375 3.5078125 7.9375 C3.375 9.75 3.375 9.75 2.375 10.75 C-0.5625 10.9375 -0.5625 10.9375 -3.625 10.75 C-5.625 8.75 -5.625 8.75 -5.9375 5.8125 C-5.625 2.75 -5.625 2.75 -4.4375 0.8125 C-2.625 -0.25 -2.625 -0.25 0 0 Z " fill="#961043" transform="translate(423.625,395.25)"/>
<path d="M0 0 C3.0625 0.25 3.0625 0.25 6 1 C7.38125018 3.76250036 7.19079306 5.94731099 7 9 C5 11 5 11 1.9375 11.1875 C-1 11 -1 11 -2 10 C-2.27314815 4.26388889 -2.27314815 4.26388889 -2 2 C-1.34 1.34 -0.68 0.68 0 0 Z " fill="#961043" transform="translate(87,395)"/>
<path d="M0 0 C3.0625 0.25 3.0625 0.25 6 1 C7.38125018 3.76250036 7.19079306 5.94731099 7 9 C5 11 5 11 1.9375 11.1875 C-1 11 -1 11 -2 10 C-2.27314815 4.26388889 -2.27314815 4.26388889 -2 2 C-1.34 1.34 -0.68 0.68 0 0 Z " fill="#961043" transform="translate(69,395)"/>
<path d="M0 0 C1 1 1 1 1.1328125 2.8125 C1.13023437 3.534375 1.12765625 4.25625 1.125 5 C1.12757813 5.721875 1.13015625 6.44375 1.1328125 7.1875 C1 9 1 9 0 10 C-2.9375 10.25 -2.9375 10.25 -6 10 C-8 7 -8 7 -7.75 3.375 C-7.5025 2.26125 -7.255 1.1475 -7 0 C-4.31633121 -1.3418344 -2.84719317 -0.73004953 0 0 Z " fill="#961043" transform="translate(462,412)"/>
<path d="M0 0 C1 1 1 1 1.1328125 2.8125 C1.13023437 3.534375 1.12765625 4.25625 1.125 5 C1.12757813 5.721875 1.13015625 6.44375 1.1328125 7.1875 C1 9 1 9 0 10 C-2.9375 10.25 -2.9375 10.25 -6 10 C-8 7 -8 7 -7.75 3.375 C-7.5025 2.26125 -7.255 1.1475 -7 0 C-4.31633121 -1.3418344 -2.84719317 -0.73004953 0 0 Z " fill="#961043" transform="translate(444,412)"/>
<path d="M0 0 C3.125 0.375 3.125 0.375 6 1 C7.25 7.625 7.25 7.625 5 11 C1.9375 11.25 1.9375 11.25 -1 11 C-2.89488952 9.10511048 -2.18019112 6.42860854 -2.23046875 3.91015625 C-2 2 -2 2 0 0 Z " fill="#961043" transform="translate(69,411)"/>
<path d="M0 0 C3.125 0.375 3.125 0.375 6 1 C7.25 7.625 7.25 7.625 5 11 C1.9375 11.25 1.9375 11.25 -1 11 C-2.89488952 9.10511048 -2.18019112 6.42860854 -2.23046875 3.91015625 C-2 2 -2 2 0 0 Z " fill="#961043" transform="translate(51,411)"/>
<path d="M0 0 C1 1 1 1 1.1328125 2.8125 C1.13023437 3.534375 1.12765625 4.25625 1.125 5 C1.12757813 5.721875 1.13015625 6.44375 1.1328125 7.1875 C1 9 1 9 0 10 C-2.9375 10.25 -2.9375 10.25 -6 10 C-8 7 -8 7 -7.75 3.375 C-7.5025 2.26125 -7.255 1.1475 -7 0 C-4.31633121 -1.3418344 -2.84719317 -0.73004953 0 0 Z " fill="#961043" transform="translate(462,396)"/>
<path d="M0 0 C3.125 0.375 3.125 0.375 6 1 C7.25 7.625 7.25 7.625 5 11 C1.9375 11.25 1.9375 11.25 -1 11 C-2.89488952 9.10511048 -2.18019112 6.42860854 -2.23046875 3.91015625 C-2 2 -2 2 0 0 Z " fill="#961043" transform="translate(51,395)"/>
</svg>
