<?xml version="1.0" encoding="UTF-8"?>
<svg version="1.1" xmlns="http://www.w3.org/2000/svg" width="512" height="512">
<path d="M0 0 C0.88923157 -0.00619858 1.77846313 -0.01239716 2.69464111 -0.01878357 C4.56025098 -0.02584391 6.42592435 -0.02277443 8.29150391 -0.01000977 C11.14732556 0.00393898 13.99991897 -0.03036708 16.85546875 -0.06835938 C18.67447997 -0.06930992 20.49349528 -0.0674552 22.3125 -0.0625 C23.16358337 -0.07575821 24.01466675 -0.08901642 24.89154053 -0.10267639 C29.06804603 -0.03681151 30.7619061 -0.00543485 33.94628906 2.89086914 C35.53920727 5.84164511 35.80540306 7.74178768 35.2109375 11.04296875 C32.99167689 17.8698371 29.36348127 24.60712184 25.390625 30.56640625 C26.5353125 30.65921875 26.5353125 30.65921875 27.703125 30.75390625 C30.390625 31.56640625 30.390625 31.56640625 32.09375 33.7421875 C33.67979392 37.19613254 33.48023202 38.84529208 32.828125 42.56640625 C32.62058594 43.77941406 32.41304688 44.99242187 32.19921875 46.2421875 C32.07272949 46.91846191 31.94624023 47.59473633 31.81591797 48.29150391 C31.33323465 50.87338862 30.88025912 53.45988152 30.42578125 56.046875 C30.08260259 57.9495576 29.73755464 59.85190401 29.390625 61.75390625 C29.2248999 62.67494141 29.0591748 63.59597656 28.88842773 64.54492188 C28.72415283 65.41181641 28.55987793 66.27871094 28.390625 67.171875 C28.24625 67.94684326 28.101875 68.72181152 27.953125 69.52026367 C27.390625 71.56640625 27.390625 71.56640625 25.390625 74.56640625 C24.730625 74.56640625 24.070625 74.56640625 23.390625 74.56640625 C27.88760546 87.63478949 32.47044337 100.65092947 37.390625 113.56640625 C43.000625 113.89640625 48.610625 114.22640625 54.390625 114.56640625 C54.720625 112.58640625 55.050625 110.60640625 55.390625 108.56640625 C56.01288105 106.8826546 56.66606865 105.20873397 57.390625 103.56640625 C56.91117432 103.09219238 56.43172363 102.61797852 55.93774414 102.12939453 C53.77360662 99.9860029 51.61332853 97.83876235 49.453125 95.69140625 C48.69837891 94.94503906 47.94363281 94.19867188 47.16601562 93.4296875 C46.44736328 92.71425781 45.72871094 91.99882813 44.98828125 91.26171875 C44.32320557 90.60187988 43.65812988 89.94204102 42.97290039 89.26220703 C40.87446315 87.01321072 40.42609411 85.83242459 40.015625 82.75390625 C40.390625 79.56640625 40.390625 79.56640625 42.515625 76.69140625 C45.390625 74.56640625 45.390625 74.56640625 48.203125 73.81640625 C53.13873928 74.97772726 55.85850814 78.05281448 59.390625 81.56640625 C60.29296875 82.45457031 61.1953125 83.34273438 62.125 84.2578125 C64.56305124 86.67864587 66.98349182 89.11487922 69.390625 91.56640625 C70.08800781 91.28023438 70.78539062 90.9940625 71.50390625 90.69921875 C74.50357016 89.52208406 77.52313965 88.46605972 80.578125 87.44140625 C81.62355469 87.08820313 82.66898437 86.735 83.74609375 86.37109375 C86.390625 85.56640625 86.390625 85.56640625 88.390625 85.56640625 C88.3592041 84.50728027 88.3592041 84.50728027 88.32714844 83.42675781 C88.24393202 80.22345249 88.19194715 77.02037462 88.140625 73.81640625 C88.10710937 72.70523438 88.07359375 71.5940625 88.0390625 70.44921875 C88.02617187 69.37929687 88.01328125 68.309375 88 67.20703125 C87.9685791 65.73024902 87.9685791 65.73024902 87.93652344 64.22363281 C88.52105674 60.80317017 89.66480329 59.65171445 92.390625 57.56640625 C95.890625 57.06640625 95.890625 57.06640625 99.390625 57.56640625 C102.29779573 59.78503654 103.23044143 61.08585554 104.390625 64.56640625 C104.53777699 66.19207704 104.63784367 67.82227482 104.70703125 69.453125 C104.76987305 70.85981445 104.76987305 70.85981445 104.83398438 72.29492188 C104.87330078 73.27138672 104.91261719 74.24785156 104.953125 75.25390625 C104.99630859 76.24197266 105.03949219 77.23003906 105.08398438 78.24804688 C105.19004154 80.68736171 105.29210214 83.12677738 105.390625 85.56640625 C106.19886719 85.83195312 107.00710938 86.0975 107.83984375 86.37109375 C108.90847656 86.72429687 109.97710937 87.0775 111.078125 87.44140625 C112.13386719 87.78945312 113.18960938 88.1375 114.27734375 88.49609375 C117.02286711 89.43997506 119.70046544 90.47757962 122.390625 91.56640625 C122.86483887 91.08695557 123.33905273 90.60750488 123.82763672 90.11352539 C125.97102835 87.94938787 128.1182689 85.78910978 130.265625 83.62890625 C131.01199219 82.87416016 131.75835937 82.11941406 132.52734375 81.34179688 C133.24277344 80.62314453 133.95820313 79.90449219 134.6953125 79.1640625 C135.35515137 78.49898682 136.01499023 77.83391113 136.69482422 77.14868164 C138.95901515 75.03606698 140.09355638 74.59941387 143.203125 74.25390625 C147.2700294 74.65262237 148.74358705 75.45224396 151.390625 78.56640625 C151.99683657 81.84708061 152.23033004 83.43493574 151.390625 86.56640625 C148.94776629 89.98834426 145.98081846 92.73168188 142.890625 95.56640625 C142.07980469 96.34113281 141.26898438 97.11585937 140.43359375 97.9140625 C138.43613065 99.81752734 136.42249816 101.6998294 134.390625 103.56640625 C134.6071875 104.10910156 134.82375 104.65179688 135.046875 105.2109375 C135.3253125 105.92636719 135.60375 106.64179687 135.890625 107.37890625 C136.30828125 108.44044922 136.30828125 108.44044922 136.734375 109.5234375 C137.390625 111.56640625 137.390625 111.56640625 137.390625 114.56640625 C138.63199219 114.54320313 139.87335938 114.52 141.15234375 114.49609375 C142.7942648 114.47732894 144.43619238 114.4591295 146.078125 114.44140625 C146.89474609 114.42464844 147.71136719 114.40789062 148.55273438 114.390625 C152.89683779 114.35545007 156.52177859 114.33238787 160.390625 116.56640625 C162.87101407 120.28698985 162.85399703 122.16437196 162.390625 126.56640625 C161.0390625 128.7734375 161.0390625 128.7734375 158.390625 130.56640625 C154.79592784 131.06110687 151.26032483 130.94172209 147.640625 130.81640625 C146.65707031 130.79835937 145.67351562 130.7803125 144.66015625 130.76171875 C142.23598717 130.71464751 139.81380441 130.64891367 137.390625 130.56640625 C132.80819285 142.96561216 132.80819285 142.96561216 135.046875 155.57421875 C136.4477495 158.37531115 137.94199884 161.12179408 139.44140625 163.87109375 C141.69408977 168.02137855 142.99231198 171.84726283 143.390625 176.56640625 C143.51050781 177.85224609 143.51050781 177.85224609 143.6328125 179.1640625 C144.07086479 188.3245089 141.20369489 195.87101084 136.390625 203.56640625 C136.83792969 204.08847656 137.28523437 204.61054688 137.74609375 205.1484375 C147.18713987 216.64276018 150.14312618 229.35468311 153.390625 243.56640625 C156.15753493 240.91177017 158.48768773 238.21670345 160.703125 235.08984375 C161.30382812 234.25453125 161.90453125 233.41921875 162.5234375 232.55859375 C163.77192562 230.80862087 165.01670094 229.05599342 166.2578125 227.30078125 C166.85851562 226.46804687 167.45921875 225.6353125 168.078125 224.77734375 C168.61824219 224.01728027 169.15835938 223.2572168 169.71484375 222.47412109 C171.51522173 220.42456493 172.84456486 219.50762599 175.390625 218.56640625 C182.13644159 218.54196489 185.70583324 221.64185385 190.640625 225.75390625 C192.22074983 227.02840886 193.8028498 228.30046584 195.38671875 229.5703125 C196.20253418 230.22789551 197.01834961 230.88547852 197.85888672 231.56298828 C202.05724656 234.88523909 206.37774927 238.0373813 210.703125 241.19140625 C225.06678842 251.66964915 225.06678842 251.66964915 225.828125 256.12890625 C224.77286011 264.42027327 216.88130017 271.9806949 211.890625 278.44140625 C206.0536668 286.04848474 200.26465319 293.6841757 194.64648438 301.45483398 C191.58579609 305.67120506 188.43607319 309.76320272 185.11328125 313.77734375 C184.40888916 314.65060303 183.70449707 315.5238623 182.97875977 316.42358398 C181.62618942 318.09496432 180.24642726 319.74484463 178.83569336 321.36743164 C176.29617603 324.54994954 174.46060483 327.00322808 174.27490234 331.15136719 C174.75860273 334.37491285 175.53616824 337.41976319 176.390625 340.56640625 C176.74106382 342.03795802 177.08539756 343.51097216 177.42480469 344.98510742 C178.78298973 350.84868784 180.21543259 356.69360241 181.65527344 362.53759766 C182.27344534 365.05362397 182.88324002 367.57157156 183.4921875 370.08984375 C183.6827774 370.852435 183.87336731 371.61502625 184.06973267 372.40072632 C185.06276023 376.52532223 185.76549644 380.29128505 185.390625 384.56640625 C181.4569766 390.21406267 175.31068739 391.98238034 169.078125 394.37890625 C168.05138672 394.78560547 167.02464844 395.19230469 165.96679688 395.61132812 C163.44572591 396.6080306 160.92059231 397.59255826 158.390625 398.56640625 C158.30611084 399.22382813 158.22159668 399.88125 158.13452148 400.55859375 C156.00129913 417.05439569 153.71981861 433.52809204 151.3430481 449.99047852 C151.04590107 452.0517669 150.75033907 454.11328452 150.45651245 456.17504883 C148.47552799 470.05424434 146.13319009 483.81707264 143.390625 497.56640625 C144.18576004 497.55974442 144.98089508 497.55308258 145.80012512 497.54621887 C153.2896896 497.48613384 160.77913739 497.4404453 168.26887989 497.41096973 C172.11954331 497.39530665 175.97000775 497.37405702 179.82055664 497.34008789 C183.53583929 497.30751679 187.25093044 497.28955808 190.96634483 497.28177452 C192.38455915 497.27622691 193.80276287 497.26539381 195.22089577 497.24921608 C197.20550967 497.22747435 199.19031586 497.22618112 201.17504883 497.22583008 C202.87048576 497.21583733 202.87048576 497.21583733 204.60017395 497.2056427 C207.390625 497.56640625 207.390625 497.56640625 209.25419617 498.95292664 C210.75254161 501.08024843 210.79147548 502.4813585 210.765625 505.06640625 C210.77335938 505.83984375 210.78109375 506.61328125 210.7890625 507.41015625 C210.29092158 510.10597769 209.50093119 510.85910355 207.390625 512.56640625 C204.36434802 512.86584671 201.54295922 512.97948823 198.51490784 512.96081543 C197.59636754 512.96690653 196.67782725 512.97299764 195.73145241 512.97927332 C192.64058694 512.99597846 189.55013006 512.9911168 186.45922852 512.98632812 C184.24855112 512.99366407 182.03787756 513.00224891 179.82720947 513.01199341 C173.81281381 513.03426761 167.79855491 513.03713715 161.78412366 513.0352459 C156.76894529 513.03512647 151.7537962 513.04367911 146.73862594 513.05202341 C134.23337264 513.07238057 121.72818617 513.07339973 109.22292703 513.06621629 C98.35872535 513.06064003 87.49475943 513.08146837 76.63061286 513.11457676 C65.4795269 513.14829627 54.32852717 513.16300938 43.17738289 513.15885973 C36.91514026 513.15678778 30.65313239 513.16234036 24.39093208 513.18675232 C18.50329143 513.2089447 12.61614286 513.20720404 6.72850037 513.1868248 C4.56450967 513.18340148 2.40048633 513.18856028 0.23653984 513.20280838 C-2.71177911 513.22088532 -5.65840807 513.20833783 -8.60667419 513.18786621 C-9.46843984 513.20038406 -10.33020548 513.21290191 -11.21808523 513.22579908 C-15.36622904 513.16380187 -16.99866109 513.11661062 -20.17595005 510.2541275 C-22.1323595 506.58579226 -21.70662248 504.51649717 -20.609375 500.56640625 C-19.01266534 498.4572501 -18.16997601 497.66414959 -15.54023743 497.2056427 C-14.35109993 497.21563545 -14.35109993 497.21563545 -13.13793945 497.22583008 C-12.23723221 497.22605667 -11.33652496 497.22628326 -10.40852356 497.22651672 C-8.95526924 497.24974251 -8.95526924 497.24974251 -7.47265625 497.2734375 C-6.47807907 497.27768234 -5.48350189 497.28192719 -4.45878601 497.28630066 C-1.27954125 497.30310472 1.89907156 497.34076049 5.078125 497.37890625 C7.23241273 497.39395084 9.38671038 497.40763963 11.54101562 497.41992188 C16.82443467 497.45301381 22.10748469 497.50323033 27.390625 497.56640625 C27.13667969 496.27814941 26.88273437 494.98989258 26.62109375 493.66259766 C24.24039361 481.45976661 22.14021266 469.25018842 20.390625 456.94140625 C20.26466949 456.06308136 20.13871399 455.18475647 20.00894165 454.27981567 C17.98483074 440.05540126 16.38961304 425.81090532 15.078125 411.50390625 C14.99699463 410.62055603 14.91586426 409.73720581 14.83227539 408.8270874 C14.31080639 403.07653287 13.83391715 397.32348924 13.390625 391.56640625 C13.33588013 390.87722107 13.28113525 390.18803589 13.22473145 389.47796631 C12.25320728 376.92561457 12.2371957 364.3779186 12.26025391 351.79345703 C12.2655944 348.33621798 12.26028763 344.87911003 12.25390625 341.421875 C12.25242874 330.00287873 12.35645636 318.63524489 13.21151733 307.24285889 C13.59394069 301.31040761 12.59112077 296.85966861 10.3359375 291.32421875 C8.28493538 285.3407167 8.08236304 278.6702358 10.5546875 272.8046875 C11.953125 270.25390625 11.953125 270.25390625 13.39453125 268.078125 C16.10006794 261.25592856 12.018612 252.13327962 10.10599899 245.45237541 C9.52830696 243.431118 8.9593347 241.40758586 8.39273071 239.38319397 C6.78231344 233.63328225 5.16067778 227.88662048 3.5234375 222.14428711 C2.51854966 218.61751838 1.52711865 215.08719187 0.54390335 211.5543232 C0.16863071 210.21614348 -0.21170785 208.87937308 -0.59733963 207.54414177 C-1.13686496 205.67485429 -1.6579008 203.80026067 -2.17822266 201.92553711 C-2.47943024 200.86378769 -2.78063782 199.80203827 -3.0909729 198.70811462 C-3.6993416 195.02117541 -3.45464694 192.19992027 -2.609375 188.56640625 C0.10546875 185.99609375 0.10546875 185.99609375 1.7071228 184.74638367 C4.61534588 182.40513734 6.87951453 180.01670337 8.390625 176.56640625 C8.34264643 173.22469268 7.30260281 170.34371286 6.19921875 167.2109375 C5.9096933 166.30397629 5.62016785 165.39701508 5.3218689 164.46257019 C4.6954295 162.50720404 4.0552077 160.5562108 3.40274048 158.609375 C2.38462604 155.54837011 1.41929383 152.47541258 0.46948242 149.39257812 C-1.48618138 143.04542824 -3.48175405 136.71137505 -5.484375 130.37890625 C-6.83916139 126.09475796 -8.19028563 121.80948105 -9.5390625 117.5234375 C-9.84834686 116.54969681 -10.15763123 115.57595612 -10.47628784 114.57270813 C-10.75723297 113.67964462 -11.0381781 112.78658112 -11.32763672 111.86645508 C-11.57601288 111.08152176 -11.82438904 110.29658844 -12.08029175 109.48786926 C-12.609375 107.56640625 -12.609375 107.56640625 -12.609375 105.56640625 C-13.1971875 105.45296875 -13.785 105.33953125 -14.390625 105.22265625 C-18.99393571 103.86111365 -22.35815901 100.47788491 -24.94921875 96.51953125 C-28.33195842 89.72997548 -28.65602033 82.83782094 -26.609375 75.56640625 C-27.2075 75.48390625 -27.805625 75.40140625 -28.421875 75.31640625 C-31.32894258 74.31969737 -31.99805235 73.1699173 -33.609375 70.56640625 C-34.40893555 67.66894531 -34.40893555 67.66894531 -34.99609375 64.33203125 C-35.21201172 63.11773437 -35.42792969 61.9034375 -35.65039062 60.65234375 C-35.86373047 59.38648438 -36.07707031 58.120625 -36.296875 56.81640625 C-36.52181641 55.56601562 -36.74675781 54.315625 -36.97851562 53.02734375 C-39.82905728 36.63456316 -39.82905728 36.63456316 -37.171875 32.12890625 C-33.47841163 29.87679444 -29.87022472 29.74849385 -25.609375 29.56640625 C-25.64417969 28.78136719 -25.67898437 27.99632813 -25.71484375 27.1875 C-25.93001474 18.83681633 -25.18250229 14.3158203 -20.421875 7.37890625 C-14.39115971 1.34819096 -8.33508927 -0.04904107 0 0 Z M-7.609375 17.56640625 C-10.06749125 21.25358063 -9.92055664 23.20986329 -9.609375 27.56640625 C-7.96823001 30.73253689 -7.96823001 30.73253689 -5.32421875 31.2109375 C-0.64041852 31.49420531 2.24527837 31.45573422 6.046875 28.50390625 C9.75662539 24.45690583 12.57611311 20.78430313 14.390625 15.56640625 C11.66118963 15.51223884 8.93283936 15.472654 6.203125 15.44140625 C5.43419922 15.42464844 4.66527344 15.40789063 3.87304688 15.390625 C-0.36753972 15.35422512 -3.82211661 15.41244761 -7.609375 17.56640625 Z M-20.609375 45.56640625 C-19.99364252 55.46483937 -19.99364252 55.46483937 -18.609375 60.56640625 C-8.379375 60.56640625 1.850625 60.56640625 12.390625 60.56640625 C14.75148065 54.18226959 14.75148065 54.18226959 15.390625 45.56640625 C3.510625 45.56640625 -8.369375 45.56640625 -20.609375 45.56640625 Z M-10.609375 75.56640625 C-12.10611526 82.93873796 -12.10611526 82.93873796 -9.546875 89.62890625 C-6.74915297 91.73595774 -6.74915297 91.73595774 -3.546875 92.19140625 C-0.609375 93.56640625 -0.609375 93.56640625 0.41049194 95.64866638 C0.71121613 96.53602982 1.01194031 97.42339325 1.32177734 98.33764648 C1.6620697 99.33456512 2.00236206 100.33148376 2.35296631 101.35861206 C4.09933292 106.75728961 5.78643642 112.17062031 7.4296875 117.6015625 C8.18209931 120.06320984 8.93470909 122.52479669 9.6875 124.98632812 C10.85961567 128.8305414 12.03000236 132.6752552 13.19628906 136.52124023 C14.32995961 140.2583827 15.47358985 143.99244561 16.6171875 147.7265625 C16.96617096 148.88479019 17.31515442 150.04301788 17.67471313 151.23634338 C18.00200409 152.30182907 18.32929504 153.36731476 18.66650391 154.46508789 C18.95200104 155.40453751 19.23749817 156.34398712 19.53164673 157.31190491 C20.27413621 159.72259297 20.27413621 159.72259297 22.390625 161.56640625 C23.8781215 159.82348106 25.35534992 158.07178871 26.828125 156.31640625 C27.65183594 155.341875 28.47554687 154.36734375 29.32421875 153.36328125 C31.26546825 150.73580555 32.01187929 149.69501143 32.390625 146.56640625 C31.77420318 143.91640049 31.77420318 143.91640049 30.65576172 141.08618164 C30.04920242 139.43780052 30.04920242 139.43780052 29.4303894 137.75611877 C28.98156403 136.5707402 28.53273865 135.38536163 28.0703125 134.1640625 C27.38680222 132.32103798 27.38680222 132.32103798 26.68948364 130.44078064 C25.47461504 127.16567854 24.24661547 123.89565044 23.01593018 120.62646484 C21.78368295 117.34581837 20.56441039 114.06036154 19.34375 110.77539062 C16.71051415 103.69899223 14.0627618 96.62822423 11.390625 89.56640625 C10.93012756 88.34476776 10.46963013 87.12312927 9.99517822 85.86447144 C9.54575867 84.68128326 9.09633911 83.49809509 8.63330078 82.27905273 C8.22701447 81.2067894 7.82072815 80.13452606 7.40213013 79.0297699 C6.61492663 76.6622014 6.61492663 76.6622014 5.390625 75.56640625 C2.69407646 75.49321004 0.02371042 75.47398088 -2.671875 75.50390625 C-3.80979492 75.51067383 -3.80979492 75.51067383 -4.97070312 75.51757812 C-6.85029371 75.52939945 -8.72984399 75.54733547 -10.609375 75.56640625 Z M75.6328125 108.2421875 C71.77638855 112.59230823 69.0929704 116.20300147 69.203125 122.19140625 C69.20957031 122.96742187 69.21601563 123.7434375 69.22265625 124.54296875 C69.27011867 126.63513305 69.27011867 126.63513305 70.390625 128.56640625 C76.8545854 127.56846149 82.23135908 124.41144761 86.2109375 119.16796875 C86.76523438 118.35070312 87.31953125 117.5334375 87.890625 116.69140625 C89.67528619 114.27201568 90.77120408 112.83283594 93.54296875 111.640625 C96.29089154 111.32590564 97.83560206 111.47963434 100.390625 112.56640625 C102.63652179 114.86932776 104.41649427 117.31632987 106.2734375 119.94140625 C109.53987006 123.9913005 113.64820203 126.49422854 118.390625 128.56640625 C119.380625 128.56640625 120.370625 128.56640625 121.390625 128.56640625 C123.14985717 125.0479419 122.91903281 121.40657931 122.390625 117.56640625 C119.91590597 111.17145473 115.16318131 107.02994004 109.390625 103.56640625 C98.55550942 98.82604318 84.48472069 99.80336836 75.6328125 108.2421875 Z M43.390625 130.56640625 C44.07125 132.85578125 44.07125 132.85578125 44.765625 135.19140625 C45.03761719 136.10921875 45.30960938 137.02703125 45.58984375 137.97265625 C46.18519761 139.90102193 46.86123251 141.80484706 47.578125 143.69140625 C48.67229075 147.56306966 49.47336082 150.66179021 48.390625 154.56640625 C45.80126623 158.6060549 42.64058896 162.04835554 39.390625 165.56640625 C38.48011686 166.56087585 37.56996302 167.55566995 36.66015625 168.55078125 C35.27425421 170.0623848 33.88595768 171.57143078 32.49023438 173.07397461 C28.664776 177.2059257 25.08083634 181.50415032 21.55859375 185.8984375 C19.390625 188.56640625 19.390625 188.56640625 17.66577148 189.88647461 C15.53001352 191.70890546 14.45832651 192.94971332 13.390625 195.56640625 C13.80656795 201.10493023 15.44753344 206.21704356 17.078125 211.50390625 C17.5175268 213.02167645 17.95362397 214.54040711 18.38647461 216.06005859 C19.47658989 219.85791869 20.60713655 223.64233816 21.74914551 227.42486572 C22.71694391 230.65580222 23.6435089 233.89768263 24.5703125 237.140625 C26.14229076 242.62652446 27.74876639 248.10103029 29.390625 253.56640625 C31.85862547 252.4146727 33.43846065 251.5185706 35.390625 249.56640625 C35.95535782 247.66643465 36.42857184 245.73888344 36.85522461 243.80322266 C37.125681 242.59501862 37.39613739 241.38681458 37.67478943 240.14199829 C37.81614256 239.4946233 37.95749569 238.84724831 38.10313225 238.18025589 C38.54632537 236.15261196 38.99905731 234.12731551 39.45448303 232.10238647 C40.74738856 226.34467922 42.0211208 220.58275596 43.29272461 214.8203125 C44.07127216 211.29536122 44.85950293 207.77268217 45.65332222 204.25114059 C46.09916786 202.25862784 46.53341093 200.26380574 46.96751404 198.26870728 C47.24112259 197.05419891 47.51473114 195.83969055 47.79663086 194.58837891 C48.03264511 193.51963531 48.26865936 192.45089172 48.51182556 191.34976196 C49.41016834 188.5045081 50.37952668 186.75352181 52.390625 184.56640625 C55.8343304 183.68465104 59.25449271 183.96283597 62.390625 185.62890625 C65.07845635 190.83657949 62.96596654 197.32453056 61.640625 202.73046875 C61.46305664 203.48556732 61.28548828 204.24066589 61.10253906 205.01864624 C60.53923095 207.41137539 59.96589478 209.80152709 59.390625 212.19140625 C58.81614917 214.58858978 58.24406092 216.98623659 57.67871094 219.3855896 C57.32810082 220.87275951 56.97223675 222.35870362 56.61035156 223.84317017 C55.74930364 227.4867607 55.18634125 230.81907626 55.390625 234.56640625 C63.17135779 230.00765092 70.18132366 224.71628196 77.24121094 219.13134766 C83.64424708 214.08584094 90.21374398 209.31035717 96.90454102 204.65380859 C97.98433228 203.89124756 97.98433228 203.89124756 99.0859375 203.11328125 C100.0452417 202.44570801 100.0452417 202.44570801 101.02392578 201.76464844 C101.47493652 201.36922852 101.92594727 200.97380859 102.390625 200.56640625 C102.390625 199.90640625 102.390625 199.24640625 102.390625 198.56640625 C98.63861413 195.335508 95.40704648 194.23366389 90.578125 193.19140625 C80.59952674 190.84785413 74.88506628 185.97245967 69.17578125 177.5390625 C63.25989366 167.68787989 61.23315123 157.71545029 59.390625 146.56640625 C58.31878412 140.84454894 56.86240751 135.84703252 54.390625 130.56640625 C50.760625 130.56640625 47.130625 130.56640625 43.390625 130.56640625 Z M95.390625 132.56640625 C94.78476562 133.01371094 94.17890625 133.46101562 93.5546875 133.921875 C87.74270898 138.11544104 81.89591162 141.56290158 75.390625 144.56640625 C74.43655556 155.0611701 79.35438042 165.22913893 85.390625 173.56640625 C88.66722535 177.10168557 91.61224789 178.37687931 96.34375 178.71484375 C100.06412142 178.44504582 102.68557893 176.98503568 105.390625 174.56640625 C112.59962139 166.06082778 116.60358311 155.64022799 116.390625 144.56640625 C115.37742187 144.0353125 114.36421875 143.50421875 113.3203125 142.95703125 C111.96866041 142.24365931 110.61710293 141.53010808 109.265625 140.81640625 C108.60046875 140.46835938 107.9353125 140.1203125 107.25 139.76171875 C103.12116164 137.57586315 99.23345857 135.22406685 95.390625 132.56640625 Z M124.390625 174.56640625 C122.99028428 176.28474101 121.66857273 178.06769724 120.390625 179.87890625 C119.689375 180.86503906 118.988125 181.85117188 118.265625 182.8671875 C116.95502048 184.75391192 115.66491675 186.65496862 114.390625 188.56640625 C118.12030195 191.51809908 118.12030195 191.51809908 122.578125 192.75390625 C125.55763642 190.80181256 126.50158171 187.87417027 127.390625 184.56640625 C127.6434646 180.77381228 127.59097555 178.16745791 126.390625 174.56640625 C125.730625 174.56640625 125.070625 174.56640625 124.390625 174.56640625 Z M116.390625 209.56640625 C114.50557926 210.50853693 114.50557926 210.50853693 112.609375 212.0390625 C111.85994629 212.60157715 111.11051758 213.1640918 110.33837891 213.74365234 C109.53062012 214.36578613 108.72286133 214.98791992 107.890625 215.62890625 C106.1591018 216.93522413 104.42732409 218.24120473 102.6953125 219.546875 C101.81069336 220.21895996 100.92607422 220.89104492 100.01464844 221.58349609 C96.81069002 224.00464889 93.57382387 226.37827483 90.33178711 228.74804688 C81.85983016 234.94194309 73.50481106 241.2797396 65.17431641 247.66210938 C59.47669149 252.01383032 53.71800534 256.26528317 47.890625 260.44140625 C42.48695877 264.31562069 37.11398695 268.219881 31.828125 272.25390625 C30.27931641 273.43533203 30.27931641 273.43533203 28.69921875 274.640625 C26.32852626 276.35696911 26.32852626 276.35696911 25.390625 278.56640625 C25.140625 282.06640625 25.140625 282.06640625 25.390625 285.56640625 C26.050625 286.22640625 26.710625 286.88640625 27.390625 287.56640625 C28.6590625 286.57640625 28.6590625 286.57640625 29.953125 285.56640625 C33.87842235 283.28259688 35.92567387 282.97669572 40.390625 283.56640625 C42.328125 284.56640625 42.328125 284.56640625 43.390625 286.56640625 C44.28974554 291.47070009 44.28974554 291.47070009 43.390625 294.56640625 C41.05804925 297.36098975 38.32941112 299.43850741 35.390625 301.56640625 C30.99570334 304.72205576 30.99570334 304.72205576 29.390625 309.56640625 C28.08099057 321.82784575 28.18837326 334.18910569 28.203125 346.50390625 C28.20406158 347.51928467 28.20499817 348.53466309 28.20596313 349.58081055 C28.26578829 379.67610727 30.90442054 409.25662927 34.26953125 439.140625 C34.36740936 440.01933762 34.46528748 440.89805023 34.56613159 441.8033905 C35.01958143 445.76784529 35.51349873 449.66790124 36.390625 453.56640625 C42.4333871 452.89075883 47.39964875 450.5399175 52.84960938 448.00585938 C58.03101157 445.73694074 62.72383105 444.73816545 68.390625 445.56640625 C70.515625 447.12890625 70.515625 447.12890625 71.390625 449.56640625 C71.328125 453.12890625 71.328125 453.12890625 70.390625 456.56640625 C67.40734862 459.35426394 64.16580906 460.53571066 60.34765625 461.87109375 C59.19201172 462.29003906 58.03636719 462.70898438 56.84570312 463.140625 C54.40937546 464.01064871 51.96920059 464.86997054 49.52539062 465.71875 C48.37361328 466.14027344 47.22183594 466.56179688 46.03515625 466.99609375 C44.97659424 467.36976074 43.91803223 467.74342773 42.82739258 468.12841797 C41.62119263 468.84022217 41.62119263 468.84022217 40.390625 469.56640625 C38.48195012 477.54445165 38.48195012 477.54445165 43.390625 497.56640625 C71.110625 497.56640625 98.830625 497.56640625 127.390625 497.56640625 C132.50859285 467.82148649 132.50859285 467.82148649 136.83398438 437.98388672 C137.27997732 434.58192919 137.7370681 431.18157718 138.1953125 427.78125 C138.48759827 425.58732197 138.77929052 423.39331477 139.0703125 421.19921875 C139.20460663 420.19738556 139.33890076 419.19555237 139.4772644 418.1633606 C139.65843307 416.77176224 139.65843307 416.77176224 139.84326172 415.35205078 C140.00264725 414.1413945 140.00264725 414.1413945 140.16525269 412.90628052 C140.40225247 410.44568687 140.42902497 408.03684998 140.390625 405.56640625 C136.21486332 406.25057059 132.50982093 407.58005634 128.578125 409.12890625 C127.41667969 409.58394531 126.25523437 410.03898438 125.05859375 410.5078125 C124.17816406 410.85714844 123.29773438 411.20648438 122.390625 411.56640625 C122.3812793 412.30802002 122.37193359 413.04963379 122.36230469 413.8137207 C122.30866749 417.16946339 122.22500707 420.52380187 122.140625 423.87890625 C122.12644531 425.04615234 122.11226563 426.21339844 122.09765625 427.41601562 C122.06542969 428.53427734 122.03320312 429.65253906 122 430.8046875 C121.97905273 431.83634033 121.95810547 432.86799316 121.93652344 433.9309082 C121.390625 436.56640625 121.390625 436.56640625 119.67602539 438.28515625 C115.3270888 440.72327389 110.7131316 442.43869754 106.078125 444.25390625 C105.05783203 444.66962891 104.03753906 445.08535156 102.98632812 445.51367188 C97.60624035 447.63162498 93.18994553 449.34015972 87.390625 448.56640625 C84.390625 446.56640625 84.390625 446.56640625 83.640625 443.19140625 C83.30056241 438.26049875 83.30056241 438.26049875 84.390625 435.56640625 C86.03515625 434.6953125 86.03515625 434.6953125 88.203125 434.12890625 C92.21700615 432.95899886 96.02999715 431.5511543 99.890625 429.94140625 C100.9115625 429.51601563 101.9325 429.090625 102.984375 428.65234375 C105.29434215 427.78057067 105.29434215 427.78057067 106.390625 426.56640625 C106.52347973 425.06483012 106.59393387 423.55761591 106.63671875 422.05078125 C106.66958984 421.12910156 106.70246094 420.20742188 106.73632812 419.2578125 C106.79703518 417.31260359 106.8543827 415.36728663 106.90820312 413.421875 C106.94236328 412.49503906 106.97652344 411.56820312 107.01171875 410.61328125 C107.04930298 409.34242676 107.04930298 409.34242676 107.08764648 408.04589844 C107.43995693 405.16268743 107.98387153 403.11811109 109.390625 400.56640625 C111.60424805 399.17944336 111.60424805 399.17944336 114.40234375 398.09375 C115.98341919 397.46496948 115.98341919 397.46496948 117.59643555 396.82348633 C118.74539307 396.3880249 119.89435059 395.95256348 121.078125 395.50390625 C122.25737549 395.04072998 123.43662598 394.57755371 124.65161133 394.1003418 C127.86902648 392.83720254 131.09488164 391.59708938 134.32275391 390.36096191 C137.91292277 388.98148085 141.49493713 387.58108328 145.078125 386.18359375 C152.5075137 383.28996494 159.94626486 380.42129317 167.390625 377.56640625 C166.88088153 369.83676931 165.34972093 362.59056561 163.44921875 355.09375 C162.85985674 352.706422 162.27066929 350.3190509 161.68164062 347.93164062 C160.75456255 344.20931519 159.82410005 340.48787661 158.88989258 336.76733398 C157.98408677 333.14912048 157.09106015 329.52792672 156.19921875 325.90625 C155.91799667 324.80288803 155.6367746 323.69952606 155.34703064 322.56272888 C153.83491361 316.3966316 152.93423347 310.92010009 153.390625 304.56640625 C155.59361969 301.77029761 156.94031141 301.62154669 160.453125 301.19140625 C163.390625 301.56640625 163.390625 301.56640625 165.078125 302.81640625 C167.234375 305.69140625 167.234375 305.69140625 169.390625 308.56640625 C169.74141113 308.09033936 170.09219727 307.61427246 170.45361328 307.1237793 C171.52164158 305.67431232 172.58967606 304.22484988 173.65771484 302.77539062 C174.91068882 301.07490242 176.1636175 299.37438085 177.41650391 297.67382812 C180.66204406 293.2687619 183.90824523 288.86418687 187.15625 284.4609375 C193.26171751 276.18242063 199.36045126 267.90003145 205.390625 259.56640625 C203.94961882 256.06415962 202.23484411 254.41539271 199.1796875 252.21875 C198.34695313 251.61353516 197.51421875 251.00832031 196.65625 250.38476562 C195.78484375 249.76408203 194.9134375 249.14339844 194.015625 248.50390625 C192.72011719 247.56708008 192.72011719 247.56708008 191.3984375 246.61132812 C189.78744418 245.4465899 188.17394084 244.28530975 186.55712891 243.12866211 C184.390625 241.56640625 184.390625 241.56640625 182.29833984 239.80297852 C181.66879395 239.39490967 181.03924805 238.98684082 180.390625 238.56640625 C176.8900549 239.73326295 176.32494564 240.64747085 174.2109375 243.57421875 C173.61152344 244.39664063 173.01210938 245.2190625 172.39453125 246.06640625 C171.77449219 246.93265625 171.15445313 247.79890625 170.515625 248.69140625 C169.59716797 249.95597656 169.59716797 249.95597656 168.66015625 251.24609375 C167.45648588 252.90597323 166.25890943 254.57029109 165.06787109 256.23925781 C164.00821373 257.70951312 162.92997254 259.16670702 161.82666016 260.60449219 C159.40547002 263.79246346 158.06894737 265.56200711 158.515625 269.56640625 C158.77980889 270.90545595 159.07131134 272.23942245 159.390625 273.56640625 C160.6639369 279.82685641 160.6639369 279.82685641 159.328125 283.44140625 C157.390625 285.56640625 157.390625 285.56640625 154.515625 286.56640625 C150.54506037 286.56640625 149.3921168 286.2048641 146.390625 283.56640625 C144.93103417 279.97571939 144.16513228 276.25751196 143.34765625 272.4765625 C142.96585457 270.83245644 142.96585457 270.83245644 142.57633972 269.15513611 C141.76606245 265.65047141 140.98362403 262.14031111 140.203125 258.62890625 C139.40670079 255.1224775 138.60458814 251.61744052 137.79777527 248.11338806 C137.29747824 245.93254788 136.80416189 243.75009202 136.31855774 241.56593323 C135.98261848 240.07935463 135.98261848 240.07935463 135.63989258 238.56274414 C135.44623611 237.69243057 135.25257965 236.822117 135.05305481 235.9254303 C134.40383363 233.61344441 133.53923246 231.66912269 132.390625 229.56640625 C130.91052857 230.54416692 129.43157356 231.52365565 127.953125 232.50390625 C127.12941406 233.04917969 126.30570312 233.59445313 125.45703125 234.15625 C123.49076575 235.40443606 123.49076575 235.40443606 122.390625 236.56640625 C122.28853393 238.38177757 122.25708456 240.2011445 122.25259399 242.01937866 C122.24714066 243.20281357 122.24168732 244.38624847 122.23606873 245.60554504 C122.2350264 246.91569077 122.23398407 248.22583649 122.23291016 249.57568359 C122.22824437 250.96011009 122.2231012 252.34453505 122.21751404 253.72895813 C122.20621443 256.71699251 122.19778929 259.70501681 122.19139481 262.69306564 C122.18073861 267.41550186 122.16050046 272.13786583 122.13827515 276.86026001 C122.07626993 290.29124648 122.02231635 303.72222914 121.98925781 317.15332031 C121.97093219 324.56600469 121.94202206 331.97856857 121.9012531 339.39116442 C121.88014766 343.3165258 121.86472088 347.2417351 121.86244583 351.16715622 C121.86030363 354.85916615 121.84447866 358.55085948 121.81805611 362.24277306 C121.80740063 364.24722392 121.81162487 366.25173645 121.8162384 368.25621033 C121.79959892 370.03982216 121.79959892 370.03982216 121.78262329 371.85946655 C121.77931314 372.89518484 121.776003 373.93090313 121.77259254 374.99800682 C121.390625 377.56640625 121.390625 377.56640625 120.08487511 379.40355873 C117.27184544 381.33427992 114.68575235 380.86061405 111.390625 380.56640625 C108.390625 378.56640625 108.390625 378.56640625 107.71301365 376.76806259 C107.34663371 374.26598099 107.25018603 371.86966094 107.23240662 369.33990479 C107.2226178 368.28263687 107.21282898 367.22536896 107.20274353 366.13606262 C107.19698807 364.98160141 107.1912326 363.8271402 107.18530273 362.63769531 C107.17540314 361.41791489 107.16550354 360.19813446 107.15530396 358.94139099 C107.1291381 355.60083055 107.10726704 352.26029373 107.08730197 348.91969395 C107.06541332 345.42696645 107.03803873 341.93428206 107.01124573 338.44158936 C106.96135774 331.82958507 106.91640449 325.21755682 106.87322336 318.6055057 C106.82381768 311.0771118 106.76891192 303.54876115 106.71354377 296.02040911 C106.59978352 280.53578148 106.49293154 265.05111404 106.390625 249.56640625 C105.47603516 250.02539307 105.47603516 250.02539307 104.54296875 250.49365234 C103.01972302 251.25285626 101.48893771 251.99701973 99.953125 252.73046875 C95.93439541 255.02163471 92.98796418 257.06009377 91.24501038 261.45530701 C90.85894875 263.2069088 90.85894875 263.2069088 90.46508789 264.99389648 C90.23303068 266.01599669 90.23303068 266.01599669 89.99628544 267.05874538 C89.43831186 269.55684251 88.91398564 272.06083194 88.390625 274.56640625 C87.93569949 276.69065492 87.48051186 278.81484748 87.02511597 280.93899536 C85.53268668 287.9559459 84.08044675 294.98097512 82.63175845 302.00704122 C81.8983551 305.55845842 81.16002959 309.10885115 80.42189026 312.6592865 C77.91832511 324.70552783 75.42166577 336.7531906 72.93286133 348.80249023 C71.55206479 355.48721967 70.16595439 362.17082515 68.77409893 368.85326093 C67.89752041 373.0633317 67.02747337 377.2746809 66.1623553 381.48712075 C65.49627548 384.72060535 64.82050762 387.95205097 64.14624023 391.18383789 C63.9108403 392.33977951 63.67544037 393.49572113 63.4329071 394.68669128 C61.13611212 405.60339045 61.13611212 405.60339045 58.390625 410.56640625 C54.30976222 411.75356633 51.41456517 411.69841579 47.390625 410.56640625 C46.07099521 402.91684951 47.01318211 396.74322074 48.6796875 389.20947266 C48.9347406 388.00353455 49.1897937 386.79759644 49.45257568 385.55511475 C50.00571473 382.9492682 50.56370509 380.34507567 51.1305542 377.74223709 C52.0266196 373.62708908 52.90255041 369.50781075 53.77587891 365.38778687 C55.31564516 358.13633937 56.8723997 350.88861933 58.43286133 343.64160156 C60.78608903 332.71173283 63.12471265 321.7787442 65.44918633 310.84272516 C66.32049749 306.74650973 67.20027595 302.65223179 68.08683777 298.55929112 C68.76434015 295.42311909 69.43206915 292.28486257 70.1015625 289.14697266 C70.34984802 288.01240631 70.59813354 286.87783997 70.85394287 285.70889282 C71.07278137 284.67442017 71.29161987 283.63994751 71.51708984 282.5741272 C71.7110434 281.6741633 71.90499695 280.77419941 72.10482788 279.84696388 C72.57729737 277.40685872 72.57729737 277.40685872 71.390625 274.56640625 C69.905625 275.80390625 69.905625 275.80390625 68.390625 277.06640625 C64.18871429 280.06411084 61.4748728 280.32904342 56.390625 279.56640625 C54.390625 277.94140625 54.390625 277.94140625 53.390625 275.56640625 C53.10905191 272.11713591 53.29380098 269.85687832 54.390625 266.56640625 C56.21069336 265.55175781 56.21069336 265.55175781 58.390625 264.56640625 C59.70366756 263.67335478 60.99576259 262.74900859 62.26953125 261.80078125 C63.38884033 260.97151123 63.38884033 260.97151123 64.53076172 260.12548828 C65.3301416 259.52849121 66.12952148 258.93149414 66.953125 258.31640625 C68.67567554 257.03761801 70.39833474 255.75897613 72.12109375 254.48046875 C72.99942871 253.82723633 73.87776367 253.17400391 74.78271484 252.50097656 C77.22545758 250.68892887 79.67509852 248.88686832 82.12890625 247.08984375 C91.59132553 240.15750439 100.96805028 233.12305116 110.27490234 225.98291016 C114.92230127 222.42198672 119.60319506 218.93701571 124.390625 215.56640625 C120.91326474 211.78606002 120.91326474 211.78606002 116.390625 209.56640625 Z " fill="#000000" transform="translate(162.609375,-0.56640625)"/>
</svg>
