<?xml version="1.0" encoding="UTF-8"?>
<svg version="1.1" xmlns="http://www.w3.org/2000/svg" width="512" height="512">
<path d="M0 0 C0.80719325 -0.02403806 1.6143865 -0.04807611 2.44604015 -0.0728426 C5.11810072 -0.14702186 7.79008701 -0.20447886 10.46264648 -0.25756836 C11.85097057 -0.28673277 11.85097057 -0.28673277 13.26734161 -0.31648636 C20.28915532 -0.45683428 27.31081119 -0.53872963 34.33374023 -0.59741211 C35.35656979 -0.60703098 36.37939934 -0.61664986 37.43322372 -0.62656021 C70.22036737 -0.90108352 103.33961349 -0.38100022 131.77124023 18.46508789 C133.18036119 21.28332981 132.88307576 23.63760071 132.86889648 26.78540039 C132.86567383 28.04223633 132.86245117 29.29907227 132.85913086 30.59399414 C132.85075195 31.91270508 132.84237305 33.23141602 132.83374023 34.59008789 C132.82872513 35.92993001 132.82416224 37.26977389 132.82006836 38.60961914 C132.80825109 41.89481995 132.79177641 45.17993186 132.77124023 48.46508789 C134.01212402 48.43366699 134.01212402 48.43366699 135.27807617 48.40161133 C139.02567394 48.3184717 142.77307773 48.26643258 146.52124023 48.21508789 C147.82319336 48.18157227 149.12514648 48.14805664 150.46655273 48.11352539 C151.71694336 48.10063477 152.96733398 48.08774414 154.25561523 48.07446289 C155.98376465 48.04304199 155.98376465 48.04304199 157.74682617 48.01098633 C160.77124023 48.46508789 160.77124023 48.46508789 162.93188477 49.93725586 C165.64153423 53.66113568 165.30178239 56.86831765 165.2253418 61.36450195 C165.2259259 62.26241455 165.22651001 63.16032715 165.22711182 64.08544922 C165.22432691 67.05093148 165.19321557 70.0154064 165.16186523 72.98071289 C165.1544043 75.0376531 165.14871067 77.09460043 165.14471436 79.15155029 C165.12944651 84.56371711 165.09015449 89.9754541 165.04589844 95.38745117 C165.00497072 100.91066676 164.98670866 106.43395185 164.96655273 111.95727539 C164.92366159 122.79340167 164.8553961 133.62920903 164.77124023 144.46508789 C166.19436523 144.61977539 166.19436523 144.61977539 167.64624023 144.77758789 C170.77124023 145.46508789 170.77124023 145.46508789 172.77124023 148.46508789 C173.01174927 150.79997253 173.01174927 150.79997253 172.99829102 153.57910156 C172.99813995 154.61995407 172.99798889 155.66080658 172.99783325 156.73320007 C172.98751068 157.85515274 172.97718811 158.97710541 172.96655273 160.13305664 C172.96230789 161.85798088 172.96230789 161.85798088 172.95797729 163.61775208 C172.94676856 167.29613585 172.92166247 170.97427751 172.89624023 174.65258789 C172.88621134 177.14412084 172.87708533 179.63565759 172.86889648 182.12719727 C172.84682696 188.2399103 172.81334248 194.3524818 172.77124023 200.46508789 C173.32415615 200.46140072 173.87707207 200.45771355 174.44674301 200.45391464 C187.90055159 200.36557638 201.35430935 200.29963997 214.80834579 200.2578392 C221.31464173 200.23694624 227.82072866 200.20859681 234.3269043 200.16333008 C240.60331533 200.11993419 246.87952507 200.09596367 253.15607452 200.08557892 C255.55313538 200.07817636 257.95018496 200.0637213 260.34716034 200.04216766 C263.69937629 200.01321773 267.05075575 200.00912848 270.40307617 200.01098633 C271.39857483 199.99660522 272.39407349 199.98222412 273.41973877 199.96740723 C280.09683226 200.00756688 280.09683226 200.00756688 283.38690186 202.23956299 C284.85328151 204.59698115 285.27614785 205.78177572 285.28881836 208.52758789 C285.301427 209.31520508 285.31403564 210.10282227 285.32702637 210.91430664 C285.31488098 212.17694336 285.31488098 212.17694336 285.30249023 213.46508789 C285.30631714 214.3377832 285.31014404 215.21047852 285.31408691 216.10961914 C285.31680514 217.95207881 285.30945018 219.79457713 285.29272461 221.63696289 C285.27131271 224.45554723 285.29252825 227.27158274 285.31811523 230.09008789 C285.31547194 231.88176018 285.31034693 233.67343088 285.30249023 235.46508789 C285.31058716 236.3068457 285.31868408 237.14860352 285.32702637 238.01586914 C285.3081134 239.19729492 285.3081134 239.19729492 285.28881836 240.40258789 C285.28563599 241.09223633 285.28245361 241.78188477 285.2791748 242.49243164 C284.52198564 245.43311343 283.12226729 246.57905295 280.77124023 248.46508789 C277.75561523 248.85571289 277.75561523 248.85571289 274.52124023 248.71508789 C273.44358398 248.67899414 272.36592773 248.64290039 271.25561523 248.60571289 C270.43577148 248.55930664 269.61592773 248.51290039 268.77124023 248.46508789 C268.77492741 249.14169338 268.77861458 249.81829887 268.78241348 250.51540756 C268.87072454 266.97351208 268.93693026 283.43154161 268.97848892 299.88982773 C268.99912023 307.84892024 269.02725152 315.80785466 269.07299805 323.7668457 C269.11284862 330.70335947 269.13866892 337.63975877 269.14759421 344.57638383 C269.15281205 348.24983531 269.16508714 351.92295927 269.19416046 355.59630585 C269.22634244 359.6956184 269.22720081 363.79436041 269.2253418 367.89379883 C269.24691345 369.7236734 269.24691345 369.7236734 269.2689209 371.59051514 C269.26342224 372.70668213 269.25792358 373.82284912 269.2522583 374.97283936 C269.25594547 375.94256557 269.25963264 376.91229179 269.26343155 377.91140366 C268.6008556 381.34911113 267.54485432 382.34112684 264.77124023 384.46508789 C262.09910414 384.85729223 259.83900308 385.00318705 257.16870117 384.96845245 C256.39538578 384.97426622 255.62207039 384.98007998 254.8253212 384.98606992 C252.21844004 385.00073773 249.61249047 384.98675354 247.00561523 384.97302246 C245.1240999 384.9776287 243.24258816 384.98397975 241.36108398 384.99193144 C236.17862888 385.00868589 230.99646702 385.00035066 225.81401062 384.98798656 C220.22974625 384.97896336 214.64553352 384.99289221 209.0612793 385.00390625 C198.11691975 385.02172529 187.17266972 385.01783642 176.22830582 385.00625569 C167.33635812 384.99723494 158.44444119 384.99599147 149.55249023 385.00035095 C148.28862236 385.00096388 147.02475449 385.00157682 145.72258759 385.00220832 C143.15534464 385.00348718 140.5881017 385.00478403 138.02085876 385.00609869 C114.61534561 385.01718875 91.20990283 385.00567328 67.80440331 384.9847283 C46.42873357 384.96574524 25.05315914 384.96744373 3.67749023 384.98657227 C-20.32704186 385.0079814 -44.33151437 385.01641568 -68.33605957 385.00412321 C-70.89404296 385.00284897 -73.45202636 385.00159149 -76.01000977 385.00035095 C-77.89804699 384.9994253 -77.89804699 384.9994253 -79.82422638 384.99848095 C-88.70908383 384.99502219 -97.59390754 385.00086769 -106.47875977 385.01026917 C-117.30129361 385.02146887 -128.12371136 385.01849187 -138.94623184 384.99714619 C-144.47174726 384.98660845 -149.99706887 384.98256024 -155.52258301 384.9957428 C-160.57565704 385.00761621 -165.62835667 385.00118795 -170.68139648 384.97983259 C-172.5144412 384.97534501 -174.34751721 384.97768073 -176.18054199 384.98733574 C-178.6628914 384.9994132 -181.14394044 384.98711417 -183.6262207 384.96845245 C-184.70611582 384.98249945 -184.70611582 384.98249945 -185.807827 384.99683022 C-189.19629574 384.94554206 -190.94867835 384.67956691 -193.6731565 382.59323287 C-195.65739059 379.87869896 -195.72249836 378.31833879 -195.70977783 374.97283936 C-195.71527649 373.85667236 -195.72077515 372.74050537 -195.72644043 371.59051514 C-195.71205933 370.37059875 -195.69767822 369.15068237 -195.68286133 367.89379883 C-195.68344543 366.60574341 -195.68402954 365.31768799 -195.68463135 363.99060059 C-195.68577889 360.4618009 -195.6622638 356.93354521 -195.63433552 353.40487194 C-195.60932823 349.71600796 -195.60698041 346.02713147 -195.60223389 342.3381958 C-195.58980208 335.35418 -195.55697788 328.37041469 -195.51683593 321.38650918 C-195.47212446 313.43497071 -195.45013278 305.48342028 -195.43005419 297.5317874 C-195.38824527 281.17607426 -195.31788945 264.82061304 -195.22875977 248.46508789 C-196.04860352 248.51149414 -196.86844727 248.55790039 -197.71313477 248.60571289 C-198.79079102 248.64180664 -199.86844727 248.67790039 -200.97875977 248.71508789 C-202.04610352 248.76149414 -203.11344727 248.80790039 -204.21313477 248.85571289 C-207.8965045 248.37859246 -208.98138399 247.35135759 -211.22875977 244.46508789 C-211.73669434 242.49243164 -211.73669434 242.49243164 -211.74633789 240.40258789 C-211.75894653 239.6149707 -211.77155518 238.82735352 -211.7845459 238.01586914 C-211.77240051 236.75323242 -211.77240051 236.75323242 -211.76000977 235.46508789 C-211.76383667 234.59239258 -211.76766357 233.71969727 -211.77160645 232.82055664 C-211.77432467 230.97809697 -211.76696971 229.13559865 -211.75024414 227.29321289 C-211.72883224 224.47462855 -211.75004778 221.65859304 -211.77563477 218.84008789 C-211.77299147 217.0484156 -211.76786646 215.2567449 -211.76000977 213.46508789 C-211.76810669 212.62333008 -211.77620361 211.78157227 -211.7845459 210.91430664 C-211.76563293 209.73288086 -211.76563293 209.73288086 -211.74633789 208.52758789 C-211.74315552 207.83793945 -211.73997314 207.14829102 -211.73669434 206.43774414 C-210.92603728 203.28941006 -209.94053678 202.30476805 -207.22875977 200.46508789 C-203.77383281 199.88204818 -200.35650001 199.96048404 -196.8605957 200.01098633 C-195.80662598 200.01040222 -194.75265625 200.00981812 -193.66674805 200.00921631 C-190.18187565 200.01200375 -186.6978578 200.04312821 -183.21313477 200.07446289 C-180.79746976 200.0819229 -178.38179871 200.08761696 -175.96612549 200.09161377 C-169.60704856 200.10688884 -163.24833688 200.1461874 -156.8894043 200.19042969 C-150.40101055 200.23134165 -143.91255781 200.24961611 -137.42407227 200.26977539 C-124.69214557 200.31267933 -111.96047209 200.38018527 -99.22875977 200.46508789 C-99.24208344 199.50122162 -99.24208344 199.50122162 -99.25567627 198.5178833 C-99.34411625 191.83468514 -99.4044803 185.15165299 -99.44848633 178.46801758 C-99.46861141 175.97315724 -99.49591429 173.47834411 -99.53051758 170.98364258 C-99.57899433 167.39921421 -99.60171997 163.81540905 -99.61938477 160.23071289 C-99.64002991 159.11392151 -99.66067505 157.99713013 -99.6819458 156.84649658 C-99.68239899 155.28533112 -99.68239899 155.28533112 -99.68286133 153.69262695 C-99.69174377 152.77773499 -99.70062622 151.86284302 -99.70977783 150.92022705 C-99.06860441 147.64764729 -97.86622595 146.45157476 -95.22875977 144.46508789 C-93.90875977 144.46508789 -92.58875977 144.46508789 -91.22875977 144.46508789 C-91.23764221 143.32138733 -91.24652466 142.17768677 -91.25567627 140.99932861 C-91.33671368 130.22841207 -91.39670194 119.45755726 -91.43600845 108.68640518 C-91.45689562 103.14863646 -91.4852342 97.61111356 -91.53051758 92.07348633 C-91.57393456 86.73074676 -91.59788836 81.38824384 -91.60826874 76.04534149 C-91.61566753 74.00553409 -91.63011544 71.96573985 -91.65167999 69.92603302 C-91.68065864 67.07190316 -91.68471807 64.21875492 -91.68286133 61.36450195 C-91.69724243 60.51861511 -91.71162354 59.67272827 -91.72644043 58.8012085 C-91.6995621 54.99039255 -91.68053269 53.08596085 -89.3894043 49.93725586 C-86.39799113 47.89903875 -84.31067085 48.00905314 -80.71313477 48.07446289 C-79.46274414 48.08735352 -78.21235352 48.10024414 -76.92407227 48.11352539 C-74.97114258 48.16379883 -74.97114258 48.16379883 -72.97875977 48.21508789 C-71.66133789 48.23313477 -70.34391602 48.25118164 -68.98657227 48.26977539 C-65.73323669 48.31692518 -62.48136352 48.38272745 -59.22875977 48.46508789 C-59.24970703 47.63783203 -59.2706543 46.81057617 -59.29223633 45.95825195 C-59.37537596 42.21065419 -59.42741507 38.4632504 -59.47875977 34.71508789 C-59.51227539 33.41313477 -59.54579102 32.11118164 -59.58032227 30.76977539 C-59.59321289 29.51938477 -59.60610352 28.26899414 -59.61938477 26.98071289 C-59.64033203 25.82861328 -59.6612793 24.67651367 -59.68286133 23.48950195 C-59.22875977 20.46508789 -59.22875977 20.46508789 -57.77612305 18.26928711 C-54.13372826 15.68951929 -50.30218588 14.45769253 -46.08032227 13.08227539 C-45.19017426 12.7819339 -44.30002625 12.48159241 -43.38290405 12.17214966 C-40.54345553 11.21696095 -37.69884409 10.2783399 -34.85375977 9.34008789 C-32.94714573 8.70185143 -31.04089124 8.06253982 -29.13500977 7.42211914 C-24.91988134 6.00822073 -20.70148634 4.60463285 -16.47988892 3.21017456 C-14.79435157 2.65228946 -13.1263208 2.04102601 -11.46922302 1.40361023 C-7.62290567 0.28961681 -3.97217339 0.0865925 0 0 Z M-43.22875977 30.46508789 C-43.22875977 36.40508789 -43.22875977 42.34508789 -43.22875977 48.46508789 C9.57124023 48.46508789 62.37124023 48.46508789 116.77124023 48.46508789 C116.77124023 42.52508789 116.77124023 36.58508789 116.77124023 30.46508789 C90.55928785 18.14484169 65.4069368 14.71508789 36.77124023 14.71508789 C35.94554535 14.71508789 35.11985046 14.71508789 34.26913452 14.71508789 C6.52546736 14.79097635 -17.87463663 18.54804201 -43.22875977 30.46508789 Z M-75.22875977 64.46508789 C-75.22875977 90.86508789 -75.22875977 117.26508789 -75.22875977 144.46508789 C-1.30875977 144.46508789 72.61124023 144.46508789 148.77124023 144.46508789 C148.77124023 118.06508789 148.77124023 91.66508789 148.77124023 64.46508789 C74.85124023 64.46508789 0.93124023 64.46508789 -75.22875977 64.46508789 Z M-83.22875977 160.46508789 C-83.22875977 173.66508789 -83.22875977 186.86508789 -83.22875977 200.46508789 C-64.74875977 200.46508789 -46.26875977 200.46508789 -27.22875977 200.46508789 C-26.89875977 193.86508789 -26.56875977 187.26508789 -26.22875977 180.46508789 C-22.91774483 177.15407296 -22.6814911 177.08973784 -18.33251953 177.08413696 C-17.32303253 177.07567749 -16.31354553 177.06721802 -15.27346802 177.0585022 C-14.16687836 177.06457489 -13.0602887 177.07064758 -11.92016602 177.0769043 C-10.75411835 177.07164734 -9.58807068 177.06639038 -8.38668823 177.06097412 C-4.52141028 177.0477398 -0.65654211 177.05652471 3.20874023 177.06665039 C5.88770056 177.06463065 8.56664829 177.06172493 11.24560547 177.05795288 C16.86454736 177.05249369 22.48337098 177.05969115 28.10229492 177.07397461 C34.60017213 177.09030156 41.09776696 177.08501315 47.59563732 177.06849539 C53.1727932 177.05488511 58.74986402 177.05295859 64.32703114 177.0608114 C67.65882097 177.0654905 70.99044881 177.06493004 74.32223511 177.05620193 C78.03590161 177.04860916 81.74902088 177.06016195 85.46264648 177.0769043 C86.56923615 177.0708316 87.67582581 177.06475891 88.81594849 177.0585022 C89.82543549 177.06696167 90.83492249 177.07542114 91.875 177.08413696 C92.75325943 177.08526804 93.63151886 177.08639912 94.53639221 177.08756447 C96.77124023 177.46508789 96.77124023 177.46508789 99.77124023 180.46508789 C100.10124023 187.06508789 100.43124023 193.66508789 100.77124023 200.46508789 C119.25124023 200.46508789 137.73124023 200.46508789 156.77124023 200.46508789 C156.77124023 187.26508789 156.77124023 174.06508789 156.77124023 160.46508789 C77.57124023 160.46508789 -1.62875977 160.46508789 -83.22875977 160.46508789 Z M-11.22875977 192.46508789 C-11.55875977 199.06508789 -11.88875977 205.66508789 -12.22875977 212.46508789 C-15.41242871 215.64875684 -16.07868722 215.81503433 -20.32716435 215.87850493 C-21.01879652 215.87365736 -21.71042869 215.86880978 -22.42301941 215.86381531 C-23.16062211 215.87046213 -23.89822481 215.87710896 -24.6581791 215.88395721 C-27.13651639 215.90265041 -29.61437357 215.89997775 -32.09277344 215.89746094 C-33.86659938 215.90647426 -35.64041907 215.91680042 -37.41423035 215.92834473 C-42.23622927 215.95599139 -47.05811028 215.96520962 -51.88017821 215.9711988 C-56.91709961 215.98056256 -61.95393221 216.00676427 -66.99079895 216.03120422 C-76.53174309 216.07492801 -86.07267005 216.10343883 -95.613684 216.12652761 C-106.47454102 216.15354781 -117.33530898 216.19746123 -128.1961025 216.24281633 C-150.54027526 216.33574681 -172.88447213 216.40678979 -195.22875977 216.46508789 C-195.22875977 221.74508789 -195.22875977 227.02508789 -195.22875977 232.46508789 C-173.31019453 232.81660924 -151.39233815 233.08214256 -129.47149277 233.24227047 C-119.28655697 233.31869218 -109.10345124 233.42268968 -98.91967773 233.59667969 C-35.73872942 235.2163851 -35.73872942 235.2163851 25.02622223 219.72789955 C34.45634427 215.99663162 41.92709425 217.05170492 51.16650391 220.71337891 C92.29147791 235.61241416 132.91469433 234.28839807 176.08514869 233.54548705 C186.22107264 233.37424882 196.35719493 233.29446405 206.49421751 233.21994197 C227.25488669 233.06539387 248.01276768 232.80038513 268.77124023 232.46508789 C268.77124023 227.18508789 268.77124023 221.90508789 268.77124023 216.46508789 C266.52284836 216.45922165 264.27445648 216.45335541 261.95793152 216.4473114 C240.8116905 216.39072044 219.6655524 216.31768005 198.51941967 216.22937298 C187.64690811 216.18436692 176.77442966 216.14496343 165.90185547 216.11865234 C156.42765384 216.09571115 146.95355657 216.06235678 137.47943765 216.01638633 C132.46084139 215.99240165 127.44234883 215.97370732 122.42369652 215.96747398 C117.70328419 215.96144677 112.98313735 215.94153311 108.2628231 215.91081238 C106.52737773 215.90199408 104.79189771 215.89831736 103.05643082 215.90007973 C100.69247697 215.90172285 98.32934179 215.88511681 95.96549988 215.86381531 C95.27386771 215.86866288 94.58223554 215.87351046 93.86964482 215.87850493 C89.62116769 215.81503433 88.95490918 215.64875684 85.77124023 212.46508789 C85.44124023 205.86508789 85.11124023 199.26508789 84.77124023 192.46508789 C53.09124023 192.46508789 21.41124023 192.46508789 -11.22875977 192.46508789 Z M30.9140625 234.734375 C-8.36086796 249.04063468 -41.2812446 248.96545586 -83.22875977 248.46508789 C-83.22875977 288.06508789 -83.22875977 327.66508789 -83.22875977 368.46508789 C-77.94875977 368.46508789 -72.66875977 368.46508789 -67.22875977 368.46508789 C-67.21941406 366.35618164 -67.21006836 364.24727539 -67.20043945 362.07446289 C-67.16658357 355.0854108 -67.1109871 348.09665131 -67.04485703 341.10783386 C-67.00544615 336.87289949 -66.97322658 332.63817106 -66.95776367 328.40307617 C-66.94255464 324.31145376 -66.90803483 320.22039776 -66.86045074 316.12902832 C-66.84568048 314.57268208 -66.83772126 313.01625496 -66.83687592 311.45983887 C-66.82680045 302.20612758 -66.80386844 294.76689168 -60.48266602 287.44165039 C-59.64541992 286.77262695 -59.64541992 286.77262695 -58.79125977 286.09008789 C-58.23567383 285.62860352 -57.68008789 285.16711914 -57.10766602 284.69165039 C-50.6263847 280.46062683 -43.72114308 280.79476141 -36.22875977 281.46508789 C-30.02281606 283.09720222 -25.69257859 287.15904695 -22.22875977 292.46508789 C-20.22849983 296.58134175 -19.95845099 299.9957282 -19.90991211 304.55029297 C-19.89986649 305.24352661 -19.88982086 305.93676025 -19.87947083 306.65100098 C-19.84872614 308.92886572 -19.83162832 311.2066134 -19.81469727 313.48461914 C-19.79597857 315.06932069 -19.77640463 316.65401235 -19.75601196 318.23869324 C-19.70475877 322.39950723 -19.66509672 326.56035351 -19.62786865 330.72131348 C-19.58778619 334.97127221 -19.53671323 339.22109741 -19.48657227 343.47094727 C-19.3898936 351.80224284 -19.30647952 360.13359386 -19.22875977 368.46508789 C-13.94875977 368.46508789 -8.66875977 368.46508789 -3.22875977 368.46508789 C-3.21941406 366.0689624 -3.21006836 363.67283691 -3.20043945 361.20410156 C-3.16654678 353.2531658 -3.11093008 345.30248623 -3.04485703 337.3517561 C-3.00548707 332.53510947 -2.97324745 327.7186428 -2.95776367 322.90185547 C-2.9425277 318.24615817 -2.90796029 313.59095595 -2.86045074 308.93548012 C-2.84570814 307.16669348 -2.83772287 305.39783614 -2.83687592 303.62898827 C-2.82344551 289.63388852 -1.57369522 277.9284768 8.77124023 267.46508789 C19.62126825 258.2317859 29.78927269 256.42716007 43.66821289 257.25805664 C53.43427297 258.2194705 61.51640829 263.46524646 67.77905273 270.82446289 C76.07859696 282.00627561 76.23580499 292.69757876 76.28295898 306.06274414 C76.29982493 307.86593331 76.31797772 309.66911086 76.33735657 311.47227478 C76.38465487 316.19201017 76.41459427 320.91169843 76.4407959 325.6315918 C76.47070371 330.45834659 76.5171987 335.28493932 76.56225586 340.11157227 C76.64805939 349.56267753 76.713971 359.0137666 76.77124023 368.46508789 C82.05124023 368.46508789 87.33124023 368.46508789 92.77124023 368.46508789 C92.78525879 365.30172852 92.78525879 365.30172852 92.79956055 362.07446289 C92.83341643 355.0854108 92.8890129 348.09665131 92.95514297 341.10783386 C92.99455385 336.87289949 93.02677342 332.63817106 93.04223633 328.40307617 C93.05744536 324.31145376 93.09196517 320.22039776 93.13954926 316.12902832 C93.15431952 314.57268208 93.16227874 313.01625496 93.16312408 311.45983887 C93.17319955 302.20612758 93.19613156 294.76689168 99.51733398 287.44165039 C100.07549805 286.99563477 100.63366211 286.54961914 101.20874023 286.09008789 C101.76432617 285.62860352 102.31991211 285.16711914 102.89233398 284.69165039 C109.3736153 280.46062683 116.27885692 280.79476141 123.77124023 281.46508789 C129.97718394 283.09720222 134.30742141 287.15904695 137.77124023 292.46508789 C139.77150017 296.58134175 140.04154901 299.9957282 140.09008789 304.55029297 C140.10515633 305.59014343 140.10515633 305.59014343 140.12052917 306.65100098 C140.15127386 308.92886572 140.16837168 311.2066134 140.18530273 313.48461914 C140.20402143 315.06932069 140.22359537 316.65401235 140.24398804 318.23869324 C140.29524123 322.39950723 140.33490328 326.56035351 140.37213135 330.72131348 C140.41221381 334.97127221 140.46328677 339.22109741 140.51342773 343.47094727 C140.6101064 351.80224284 140.69352048 360.13359386 140.77124023 368.46508789 C146.05124023 368.46508789 151.33124023 368.46508789 156.77124023 368.46508789 C156.77124023 328.86508789 156.77124023 289.26508789 156.77124023 248.46508789 C141.20967773 248.65071289 141.20967773 248.65071289 125.33374023 248.84008789 C95.15762079 248.79351759 69.08862443 244.68276997 40.6481781 233.98985291 C37.08893681 232.99473989 34.2572761 233.47740789 30.9140625 234.734375 Z M-179.22875977 248.46508789 C-179.22875977 259.35508789 -179.22875977 270.24508789 -179.22875977 281.46508789 C-174.27875977 281.46508789 -169.32875977 281.46508789 -164.22875977 281.46508789 C-159.60375977 283.59008789 -159.60375977 283.59008789 -156.22875977 285.46508789 C-153.4997881 284.97354706 -153.4997881 284.97354706 -151.22875977 283.46508789 C-145.14690286 280.55264937 -138.83447239 280.80750564 -132.22875977 281.46508789 C-129.71313477 282.43383789 -129.71313477 282.43383789 -127.66625977 283.59008789 C-124.46068217 285.83312065 -124.46068217 285.83312065 -121.54125977 284.84008789 C-120.77813477 284.38633789 -120.01500977 283.93258789 -119.22875977 283.46508789 C-114.22875977 281.46508789 -114.22875977 281.46508789 -99.22875977 281.46508789 C-99.22875977 270.57508789 -99.22875977 259.68508789 -99.22875977 248.46508789 C-125.62875977 248.46508789 -152.02875977 248.46508789 -179.22875977 248.46508789 Z M172.77124023 248.46508789 C172.77124023 259.35508789 172.77124023 270.24508789 172.77124023 281.46508789 C177.72124023 281.46508789 182.67124023 281.46508789 187.77124023 281.46508789 C192.39624023 283.59008789 192.39624023 283.59008789 195.77124023 285.46508789 C198.5002119 284.97354706 198.5002119 284.97354706 200.77124023 283.46508789 C206.85309714 280.55264937 213.16552761 280.80750564 219.77124023 281.46508789 C222.28686523 282.43383789 222.28686523 282.43383789 224.33374023 283.59008789 C227.53931783 285.83312065 227.53931783 285.83312065 230.45874023 284.84008789 C231.22186523 284.38633789 231.98499023 283.93258789 232.77124023 283.46508789 C237.77124023 281.46508789 237.77124023 281.46508789 252.77124023 281.46508789 C252.77124023 270.57508789 252.77124023 259.68508789 252.77124023 248.46508789 C226.37124023 248.46508789 199.97124023 248.46508789 172.77124023 248.46508789 Z M18.11889648 281.32836914 C11.61225226 290.73942846 12.50064115 302.16892953 12.57592773 313.09399414 C12.57966418 314.69538699 12.58250816 316.29678214 12.58450317 317.8981781 C12.59208995 322.08536237 12.61169506 326.2724049 12.63391113 330.45953369 C12.65810163 335.49822308 12.66717418 340.53696022 12.67881775 345.57569122 C12.69812299 353.20558828 12.73647981 360.83517517 12.77124023 368.46508789 C28.61124023 368.46508789 44.45124023 368.46508789 60.77124023 368.46508789 C60.8294803 355.88794835 60.8294803 355.88794835 60.86889648 343.31079102 C60.88081917 338.17573883 60.89487387 333.04075845 60.92211914 327.90576172 C60.94396296 323.76252903 60.95583304 319.61937343 60.96099472 315.47608757 C60.96466987 313.90096767 60.97184614 312.32585164 60.98270035 310.75076485 C61.30854682 293.96891935 61.30854682 293.96891935 53.77124023 279.46508789 C47.54142921 273.92091071 41.42471062 272.49228844 33.18139648 272.88696289 C26.93038543 273.94669901 22.32003097 276.59091961 18.11889648 281.32836914 Z M-176.54125977 299.27758789 C-179.42135798 303.01104854 -179.35126192 306.11149179 -179.34228516 310.68066406 C-179.34220963 311.96176559 -179.34213409 313.24286713 -179.34205627 314.56278992 C-179.33694963 315.96121255 -179.33173364 317.35963479 -179.32641602 318.75805664 C-179.32455065 320.18866425 -179.32312731 321.6192725 -179.3221283 323.04988098 C-179.31831243 326.8129554 -179.30849008 330.57599114 -179.29742432 334.33905029 C-179.2871902 338.17988563 -179.28262639 342.02072722 -179.27758789 345.86157227 C-179.26686698 353.39609713 -179.24927771 360.93058216 -179.22875977 368.46508789 C-173.94875977 368.46508789 -168.66875977 368.46508789 -163.22875977 368.46508789 C-163.16088006 360.2241438 -163.10588409 351.98341845 -163.07332325 343.74226952 C-163.05769268 339.91523189 -163.03650258 336.0883961 -163.00244141 332.26147461 C-162.96975415 328.56562959 -162.95188713 324.86997824 -162.94412804 321.17399979 C-162.93860126 319.76663796 -162.92780876 318.35928628 -162.9115696 316.95200729 C-162.88967341 314.97519083 -162.88853332 312.99817793 -162.88818359 311.02124023 C-162.88152176 309.89761078 -162.87485992 308.77398132 -162.86799622 307.61630249 C-163.28353609 303.98662507 -164.3461123 301.5792187 -166.22875977 298.46508789 C-170.02407455 296.5674305 -173.20197941 296.6603141 -176.54125977 299.27758789 Z M-144.54125977 299.27758789 C-147.42135798 303.01104854 -147.35126192 306.11149179 -147.34228516 310.68066406 C-147.34220963 311.96176559 -147.34213409 313.24286713 -147.34205627 314.56278992 C-147.33694963 315.96121255 -147.33173364 317.35963479 -147.32641602 318.75805664 C-147.32455065 320.18866425 -147.32312731 321.6192725 -147.3221283 323.04988098 C-147.31831243 326.8129554 -147.30849008 330.57599114 -147.29742432 334.33905029 C-147.2871902 338.17988563 -147.28262639 342.02072722 -147.27758789 345.86157227 C-147.26686698 353.39609713 -147.24927771 360.93058216 -147.22875977 368.46508789 C-141.94875977 368.46508789 -136.66875977 368.46508789 -131.22875977 368.46508789 C-131.16088006 360.2241438 -131.10588409 351.98341845 -131.07332325 343.74226952 C-131.05769268 339.91523189 -131.03650258 336.0883961 -131.00244141 332.26147461 C-130.96975415 328.56562959 -130.95188713 324.86997824 -130.94412804 321.17399979 C-130.93860126 319.76663796 -130.92780876 318.35928628 -130.9115696 316.95200729 C-130.88967341 314.97519083 -130.88853332 312.99817793 -130.88818359 311.02124023 C-130.88152176 309.89761078 -130.87485992 308.77398132 -130.86799622 307.61630249 C-131.28353609 303.98662507 -132.3461123 301.5792187 -134.22875977 298.46508789 C-138.02407455 296.5674305 -141.20197941 296.6603141 -144.54125977 299.27758789 Z M-112.54125977 299.27758789 C-115.42135798 303.01104854 -115.35126192 306.11149179 -115.34228516 310.68066406 C-115.34220963 311.96176559 -115.34213409 313.24286713 -115.34205627 314.56278992 C-115.33694963 315.96121255 -115.33173364 317.35963479 -115.32641602 318.75805664 C-115.32455065 320.18866425 -115.32312731 321.6192725 -115.3221283 323.04988098 C-115.31831243 326.8129554 -115.30849008 330.57599114 -115.29742432 334.33905029 C-115.2871902 338.17988563 -115.28262639 342.02072722 -115.27758789 345.86157227 C-115.26686698 353.39609713 -115.24927771 360.93058216 -115.22875977 368.46508789 C-109.94875977 368.46508789 -104.66875977 368.46508789 -99.22875977 368.46508789 C-99.16088006 360.2241438 -99.10588409 351.98341845 -99.07332325 343.74226952 C-99.05769268 339.91523189 -99.03650258 336.0883961 -99.00244141 332.26147461 C-98.96975415 328.56562959 -98.95188713 324.86997824 -98.94412804 321.17399979 C-98.93860126 319.76663796 -98.92780876 318.35928628 -98.9115696 316.95200729 C-98.88967341 314.97519083 -98.88853332 312.99817793 -98.88818359 311.02124023 C-98.88152176 309.89761078 -98.87485992 308.77398132 -98.86799622 307.61630249 C-99.28353609 303.98662507 -100.3461123 301.5792187 -102.22875977 298.46508789 C-106.02407455 296.5674305 -109.20197941 296.6603141 -112.54125977 299.27758789 Z M-48.54125977 299.27758789 C-51.42135798 303.01104854 -51.35126192 306.11149179 -51.34228516 310.68066406 C-51.34220963 311.96176559 -51.34213409 313.24286713 -51.34205627 314.56278992 C-51.33694963 315.96121255 -51.33173364 317.35963479 -51.32641602 318.75805664 C-51.32455065 320.18866425 -51.32312731 321.6192725 -51.3221283 323.04988098 C-51.31831243 326.8129554 -51.30849008 330.57599114 -51.29742432 334.33905029 C-51.2871902 338.17988563 -51.28262639 342.02072722 -51.27758789 345.86157227 C-51.26686698 353.39609713 -51.24927771 360.93058216 -51.22875977 368.46508789 C-45.94875977 368.46508789 -40.66875977 368.46508789 -35.22875977 368.46508789 C-35.16088006 360.2241438 -35.10588409 351.98341845 -35.07332325 343.74226952 C-35.05769268 339.91523189 -35.03650258 336.0883961 -35.00244141 332.26147461 C-34.96975415 328.56562959 -34.95188713 324.86997824 -34.94412804 321.17399979 C-34.93860126 319.76663796 -34.92780876 318.35928628 -34.9115696 316.95200729 C-34.88967341 314.97519083 -34.88853332 312.99817793 -34.88818359 311.02124023 C-34.88152176 309.89761078 -34.87485992 308.77398132 -34.86799622 307.61630249 C-35.28353609 303.98662507 -36.3461123 301.5792187 -38.22875977 298.46508789 C-42.02407455 296.5674305 -45.20197941 296.6603141 -48.54125977 299.27758789 Z M111.45874023 299.27758789 C108.57864202 303.01104854 108.64873808 306.11149179 108.65771484 310.68066406 C108.65779037 311.96176559 108.65786591 313.24286713 108.65794373 314.56278992 C108.66305037 315.96121255 108.66826636 317.35963479 108.67358398 318.75805664 C108.67544935 320.18866425 108.67687269 321.6192725 108.6778717 323.04988098 C108.68168757 326.8129554 108.69150992 330.57599114 108.70257568 334.33905029 C108.7128098 338.17988563 108.71737361 342.02072722 108.72241211 345.86157227 C108.73313302 353.39609713 108.75072229 360.93058216 108.77124023 368.46508789 C114.05124023 368.46508789 119.33124023 368.46508789 124.77124023 368.46508789 C124.83911994 360.2241438 124.89411591 351.98341845 124.92667675 343.74226952 C124.94230732 339.91523189 124.96349742 336.0883961 124.99755859 332.26147461 C125.03024585 328.56562959 125.04811287 324.86997824 125.05587196 321.17399979 C125.06139874 319.76663796 125.07219124 318.35928628 125.0884304 316.95200729 C125.11032659 314.97519083 125.11146668 312.99817793 125.11181641 311.02124023 C125.11847824 309.89761078 125.12514008 308.77398132 125.13200378 307.61630249 C124.71646391 303.98662507 123.6538877 301.5792187 121.77124023 298.46508789 C117.97592545 296.5674305 114.79802059 296.6603141 111.45874023 299.27758789 Z M175.45874023 299.27758789 C172.57864202 303.01104854 172.64873808 306.11149179 172.65771484 310.68066406 C172.65779037 311.96176559 172.65786591 313.24286713 172.65794373 314.56278992 C172.66305037 315.96121255 172.66826636 317.35963479 172.67358398 318.75805664 C172.67544935 320.18866425 172.67687269 321.6192725 172.6778717 323.04988098 C172.68168757 326.8129554 172.69150992 330.57599114 172.70257568 334.33905029 C172.7128098 338.17988563 172.71737361 342.02072722 172.72241211 345.86157227 C172.73313302 353.39609713 172.75072229 360.93058216 172.77124023 368.46508789 C178.05124023 368.46508789 183.33124023 368.46508789 188.77124023 368.46508789 C188.83911994 360.2241438 188.89411591 351.98341845 188.92667675 343.74226952 C188.94230732 339.91523189 188.96349742 336.0883961 188.99755859 332.26147461 C189.03024585 328.56562959 189.04811287 324.86997824 189.05587196 321.17399979 C189.06139874 319.76663796 189.07219124 318.35928628 189.0884304 316.95200729 C189.11032659 314.97519083 189.11146668 312.99817793 189.11181641 311.02124023 C189.11847824 309.89761078 189.12514008 308.77398132 189.13200378 307.61630249 C188.71646391 303.98662507 187.6538877 301.5792187 185.77124023 298.46508789 C181.97592545 296.5674305 178.79802059 296.6603141 175.45874023 299.27758789 Z M207.45874023 299.27758789 C204.57864202 303.01104854 204.64873808 306.11149179 204.65771484 310.68066406 C204.65779037 311.96176559 204.65786591 313.24286713 204.65794373 314.56278992 C204.66305037 315.96121255 204.66826636 317.35963479 204.67358398 318.75805664 C204.67544935 320.18866425 204.67687269 321.6192725 204.6778717 323.04988098 C204.68168757 326.8129554 204.69150992 330.57599114 204.70257568 334.33905029 C204.7128098 338.17988563 204.71737361 342.02072722 204.72241211 345.86157227 C204.73313302 353.39609713 204.75072229 360.93058216 204.77124023 368.46508789 C210.05124023 368.46508789 215.33124023 368.46508789 220.77124023 368.46508789 C220.83911994 360.2241438 220.89411591 351.98341845 220.92667675 343.74226952 C220.94230732 339.91523189 220.96349742 336.0883961 220.99755859 332.26147461 C221.03024585 328.56562959 221.04811287 324.86997824 221.05587196 321.17399979 C221.06139874 319.76663796 221.07219124 318.35928628 221.0884304 316.95200729 C221.11032659 314.97519083 221.11146668 312.99817793 221.11181641 311.02124023 C221.11847824 309.89761078 221.12514008 308.77398132 221.13200378 307.61630249 C220.71646391 303.98662507 219.6538877 301.5792187 217.77124023 298.46508789 C213.97592545 296.5674305 210.79802059 296.6603141 207.45874023 299.27758789 Z M239.45874023 299.27758789 C236.57864202 303.01104854 236.64873808 306.11149179 236.65771484 310.68066406 C236.65779037 311.96176559 236.65786591 313.24286713 236.65794373 314.56278992 C236.66305037 315.96121255 236.66826636 317.35963479 236.67358398 318.75805664 C236.67544935 320.18866425 236.67687269 321.6192725 236.6778717 323.04988098 C236.68168757 326.8129554 236.69150992 330.57599114 236.70257568 334.33905029 C236.7128098 338.17988563 236.71737361 342.02072722 236.72241211 345.86157227 C236.73313302 353.39609713 236.75072229 360.93058216 236.77124023 368.46508789 C242.05124023 368.46508789 247.33124023 368.46508789 252.77124023 368.46508789 C252.83911994 360.2241438 252.89411591 351.98341845 252.92667675 343.74226952 C252.94230732 339.91523189 252.96349742 336.0883961 252.99755859 332.26147461 C253.03024585 328.56562959 253.04811287 324.86997824 253.05587196 321.17399979 C253.06139874 319.76663796 253.07219124 318.35928628 253.0884304 316.95200729 C253.11032659 314.97519083 253.11146668 312.99817793 253.11181641 311.02124023 C253.11847824 309.89761078 253.12514008 308.77398132 253.13200378 307.61630249 C252.71646391 303.98662507 251.6538877 301.5792187 249.77124023 298.46508789 C245.97592545 296.5674305 242.79802059 296.6603141 239.45874023 299.27758789 Z " fill="#961043" transform="translate(219.228759765625,63.534912109375)"/>
<path d="M0 0 C0.87269531 -0.0038269 1.74539063 -0.00765381 2.64453125 -0.01159668 C4.48699092 -0.0143149 6.32948924 -0.00695994 8.171875 0.00976562 C10.99045934 0.03117752 13.80649485 0.00996199 16.625 -0.015625 C18.41667229 -0.01298171 20.20834299 -0.00785669 22 0 C22.84175781 -0.00809692 23.68351562 -0.01619385 24.55078125 -0.02453613 C28.13136419 0.03278396 30.39761762 0.18098442 33.52929688 2.00195312 C35.73374916 5.79314264 35.57275697 9.21617695 35.53125 13.53125 C35.5350769 14.40394531 35.53890381 15.27664062 35.54284668 16.17578125 C35.5455649 18.01824092 35.53820994 19.86073924 35.52148438 21.703125 C35.50007248 24.52170934 35.52128801 27.33774485 35.546875 30.15625 C35.54423171 31.94792229 35.53910669 33.73959299 35.53125 35.53125 C35.53934692 36.37300781 35.54744385 37.21476562 35.55578613 38.08203125 C35.49846604 41.66261419 35.35026558 43.92886762 33.52929688 47.06054688 C29.73810736 49.26499916 26.31507305 49.10400697 22 49.0625 C21.12730469 49.0663269 20.25460937 49.07015381 19.35546875 49.07409668 C17.51300908 49.0768149 15.67051076 49.06945994 13.828125 49.05273438 C11.00954066 49.03132248 8.19350515 49.05253801 5.375 49.078125 C3.58332771 49.07548171 1.79165701 49.07035669 0 49.0625 C-0.84175781 49.07059692 -1.68351562 49.07869385 -2.55078125 49.08703613 C-6.13136419 49.02971604 -8.39761762 48.88151558 -11.52929688 47.06054688 C-13.73374916 43.26935736 -13.57275697 39.84632305 -13.53125 35.53125 C-13.5350769 34.65855469 -13.53890381 33.78585938 -13.54284668 32.88671875 C-13.5455649 31.04425908 -13.53820994 29.20176076 -13.52148438 27.359375 C-13.50007248 24.54079066 -13.52128801 21.72475515 -13.546875 18.90625 C-13.54423171 17.11457771 -13.53910669 15.32290701 -13.53125 13.53125 C-13.53934692 12.68949219 -13.54744385 11.84773437 -13.55578613 10.98046875 C-13.49846604 7.39988581 -13.35026558 5.13363238 -11.52929688 2.00195312 C-7.73810736 -0.20249916 -4.31507305 -0.04150697 0 0 Z M3 16.53125 C3 21.81125 3 27.09125 3 32.53125 C8.28 32.53125 13.56 32.53125 19 32.53125 C19 27.25125 19 21.97125 19 16.53125 C13.72 16.53125 8.44 16.53125 3 16.53125 Z " fill="#961043" transform="translate(317,143.46875)"/>
<path d="M0 0 C0.87269531 -0.0038269 1.74539062 -0.00765381 2.64453125 -0.01159668 C4.48699092 -0.0143149 6.32948924 -0.00695994 8.171875 0.00976562 C10.99045934 0.03117752 13.80649485 0.00996199 16.625 -0.015625 C18.41667229 -0.01298171 20.20834299 -0.00785669 22 0 C22.84175781 -0.00809692 23.68351562 -0.01619385 24.55078125 -0.02453613 C28.13136419 0.03278396 30.39761762 0.18098442 33.52929688 2.00195312 C35.73374916 5.79314264 35.57275697 9.21617695 35.53125 13.53125 C35.5350769 14.40394531 35.53890381 15.27664062 35.54284668 16.17578125 C35.5455649 18.01824092 35.53820994 19.86073924 35.52148438 21.703125 C35.50007248 24.52170934 35.52128801 27.33774485 35.546875 30.15625 C35.54423171 31.94792229 35.53910669 33.73959299 35.53125 35.53125 C35.53934692 36.37300781 35.54744385 37.21476562 35.55578613 38.08203125 C35.49846604 41.66261419 35.35026558 43.92886762 33.52929688 47.06054688 C29.73810736 49.26499916 26.31507305 49.10400697 22 49.0625 C21.12730469 49.0663269 20.25460937 49.07015381 19.35546875 49.07409668 C17.51300908 49.0768149 15.67051076 49.06945994 13.828125 49.05273438 C11.00954066 49.03132248 8.19350515 49.05253801 5.375 49.078125 C3.58332771 49.07548171 1.79165701 49.07035669 0 49.0625 C-0.84175781 49.07059692 -1.68351563 49.07869385 -2.55078125 49.08703613 C-6.13136419 49.02971604 -8.39761762 48.88151558 -11.52929688 47.06054688 C-13.73374916 43.26935736 -13.57275697 39.84632305 -13.53125 35.53125 C-13.5350769 34.65855469 -13.53890381 33.78585938 -13.54284668 32.88671875 C-13.5455649 31.04425908 -13.53820994 29.20176076 -13.52148438 27.359375 C-13.50007248 24.54079066 -13.52128801 21.72475515 -13.546875 18.90625 C-13.54423171 17.11457771 -13.53910669 15.32290701 -13.53125 13.53125 C-13.53934692 12.68949219 -13.54744385 11.84773437 -13.55578613 10.98046875 C-13.49846604 7.39988581 -13.35026558 5.13363238 -11.52929688 2.00195312 C-7.73810736 -0.20249916 -4.31507305 -0.04150697 0 0 Z M3 16.53125 C3 21.81125 3 27.09125 3 32.53125 C8.28 32.53125 13.56 32.53125 19 32.53125 C19 27.25125 19 21.97125 19 16.53125 C13.72 16.53125 8.44 16.53125 3 16.53125 Z " fill="#961043" transform="translate(245,143.46875)"/>
<path d="M0 0 C0.87269531 -0.0038269 1.74539062 -0.00765381 2.64453125 -0.01159668 C4.48699092 -0.0143149 6.32948924 -0.00695994 8.171875 0.00976562 C10.99045934 0.03117752 13.80649485 0.00996199 16.625 -0.015625 C18.41667229 -0.01298171 20.20834299 -0.00785669 22 0 C22.84175781 -0.00809692 23.68351562 -0.01619385 24.55078125 -0.02453613 C28.13136419 0.03278396 30.39761762 0.18098442 33.52929688 2.00195312 C35.73374916 5.79314264 35.57275697 9.21617695 35.53125 13.53125 C35.5350769 14.40394531 35.53890381 15.27664062 35.54284668 16.17578125 C35.5455649 18.01824092 35.53820994 19.86073924 35.52148438 21.703125 C35.50007248 24.52170934 35.52128801 27.33774485 35.546875 30.15625 C35.54423171 31.94792229 35.53910669 33.73959299 35.53125 35.53125 C35.53934692 36.37300781 35.54744385 37.21476562 35.55578613 38.08203125 C35.49846604 41.66261419 35.35026558 43.92886762 33.52929688 47.06054688 C29.73810736 49.26499916 26.31507305 49.10400697 22 49.0625 C21.12730469 49.0663269 20.25460938 49.07015381 19.35546875 49.07409668 C17.51300908 49.0768149 15.67051076 49.06945994 13.828125 49.05273438 C11.00954066 49.03132248 8.19350515 49.05253801 5.375 49.078125 C3.58332771 49.07548171 1.79165701 49.07035669 0 49.0625 C-0.84175781 49.07059692 -1.68351563 49.07869385 -2.55078125 49.08703613 C-6.13136419 49.02971604 -8.39761762 48.88151558 -11.52929688 47.06054688 C-13.73374916 43.26935736 -13.57275697 39.84632305 -13.53125 35.53125 C-13.5350769 34.65855469 -13.53890381 33.78585938 -13.54284668 32.88671875 C-13.5455649 31.04425908 -13.53820994 29.20176076 -13.52148438 27.359375 C-13.50007248 24.54079066 -13.52128801 21.72475515 -13.546875 18.90625 C-13.54423171 17.11457771 -13.53910669 15.32290701 -13.53125 13.53125 C-13.53934692 12.68949219 -13.54744385 11.84773437 -13.55578613 10.98046875 C-13.49846604 7.39988581 -13.35026558 5.13363238 -11.52929688 2.00195312 C-7.73810736 -0.20249916 -4.31507305 -0.04150697 0 0 Z M3 16.53125 C3 21.81125 3 27.09125 3 32.53125 C8.28 32.53125 13.56 32.53125 19 32.53125 C19 27.25125 19 21.97125 19 16.53125 C13.72 16.53125 8.44 16.53125 3 16.53125 Z " fill="#961043" transform="translate(173,143.46875)"/>
</svg>
